<?xml version="1.0" standalone="no"?>
 <!DOCTYPE svg PUBLIC "-//W3C//DTD SVG 1.1//EN" 
 "http://www.w3.org/Graphics/SVG/1.1/DTD/svg11.dtd"> 
<svg
  xmlns:svg="http://www.w3.org/2000/svg"
  xmlns="http://www.w3.org/2000/svg"
  xmlns:xlink="http://www.w3.org/1999/xlink"
  version="1.1"
  width="297.0022mm" height="210.0072mm" viewBox="0.0000 0.0000 297.0022 210.0072">
<title>SVG Image created as MN12932L-Teensy4-User_3.svg date 2024/10/01 17:08:29 </title>
  <desc>Image generated by PCBNEW </desc>
<g style="fill:#000000; fill-opacity:1.0000;stroke:#000000; stroke-opacity:1.0000;
stroke-linecap:round; stroke-linejoin:round;"
 transform="translate(0 0) scale(1 1)">
<path style="fill:none; 
stroke:#000000; stroke-width:0.1000; stroke-opacity:1; 
stroke-linecap:round; stroke-linejoin:round;fill:none"
d="M 41.0000,50.0000
159.0000,50.0000
159.0000,150.0000
41.0000,150.0000
Z" /> 
<path style="fill:none; 
stroke:#000000; stroke-width:0.1000; stroke-opacity:1; 
stroke-linecap:round; stroke-linejoin:round;fill:none"
d="M 70.8000,60.8000
128.6000,60.8000
128.6000,75.2000
70.8000,75.2000
Z" /> 
</g>
<g style="fill:none; 
stroke:#000000; stroke-width:0.1000; stroke-opacity:1; 
stroke-linecap:round; stroke-linejoin:round;">
<path d="M51.4701 67.9701
L51.4000 67.2000
" />
<path d="M51.4701 67.9701
L50.6000 68.0000
" />
<path d="M51.4701 67.9701
L51.5000 68.8000
" />
<path d="M51.4701 67.9701
L52.8207 67.8834
" />
<path d="M100.0389 104.8407
L99.9000 104.1000
" />
<path d="M100.0389 104.8407
L99.3000 104.9000
" />
<path d="M100.0389 104.8407
L100.2000 105.8000
" />
<path d="M100.0389 104.8407
L101.0000 104.8000
" />
<path d="M139.0000 142.0000
L141.0000 142.0000
" />
<path d="M140.0000 141.0000
L140.0000 143.1000
" />
<path d="M60.0000 140.8000
L60.0000 143.2000
" />
<path d="M58.1000 142.0000
L61.5000 142.0000
" />
<path d="M148.5000 68.0000
L148.5000 67.6000
" />
<path d="M148.0000 68.0000
L149.0000 68.0000
" />
<path d="M148.5000 68.0000
L148.5000 68.4000
" />
<path style="fill:none; 
stroke:#000000; stroke-width:0.1000; stroke-opacity:1; 
stroke-linecap:round; stroke-linejoin:round;fill:none"
d="M 41.0000,50.0000
159.0000,50.0000
159.0000,150.0000
41.0000,150.0000
Z" /> 
</g> 
</svg>
