<?xml version="1.0" standalone="no"?>
 <!DOCTYPE svg PUBLIC "-//W3C//DTD SVG 1.1//EN" 
 "http://www.w3.org/Graphics/SVG/1.1/DTD/svg11.dtd"> 
<svg
  xmlns:svg="http://www.w3.org/2000/svg"
  xmlns="http://www.w3.org/2000/svg"
  xmlns:xlink="http://www.w3.org/1999/xlink"
  version="1.1"
  width="297.0022mm" height="210.0072mm" viewBox="0.0000 0.0000 297.0022 210.0072">
<title>SVG Image created as MN12932L-Teensy4-User_Drawings.svg date 2024/10/01 17:01:58 </title>
  <desc>Image generated by PCBNEW </desc>
<g style="fill:#000000; fill-opacity:1.0000;stroke:#000000; stroke-opacity:1.0000;
stroke-linecap:round; stroke-linejoin:round;"
 transform="translate(0 0) scale(1 1)">
</g>
<g style="fill:none; 
stroke:#000000; stroke-width:0.1000; stroke-opacity:1; 
stroke-linecap:round; stroke-linejoin:round;">
<circle cx="148.5000" cy="68.0000" r="6.0000" /> 
<circle cx="140.0000" cy="142.0000" r="12.0000" /> 
<circle cx="51.5000" cy="68.0000" r="6.0000" /> 
<path d="M40.0000 36.0000
L41.1000 36.0000
" />
<path d="M41.5000 36.0000
L42.6000 36.0000
" />
<path d="M43.0000 36.0000
L44.1000 36.0000
" />
<path d="M44.5000 36.0000
L45.6000 36.0000
" />
<path d="M46.0000 36.0000
L47.1000 36.0000
" />
<path d="M47.5000 36.0000
L48.6000 36.0000
" />
<path d="M49.0000 36.0000
L50.1000 36.0000
" />
<path d="M50.5000 36.0000
L51.6000 36.0000
" />
<path d="M52.0000 36.0000
L53.1000 36.0000
" />
<path d="M53.5000 36.0000
L54.6000 36.0000
" />
<path d="M55.0000 36.0000
L56.1000 36.0000
" />
<path d="M56.5000 36.0000
L57.6000 36.0000
" />
<path d="M58.0000 36.0000
L59.1000 36.0000
" />
<path d="M59.5000 36.0000
L60.6000 36.0000
" />
<path d="M61.0000 36.0000
L62.1000 36.0000
" />
<path d="M62.5000 36.0000
L63.6000 36.0000
" />
<path d="M64.0000 36.0000
L65.1000 36.0000
" />
<path d="M65.5000 36.0000
L66.6000 36.0000
" />
<path d="M67.0000 36.0000
L68.1000 36.0000
" />
<path d="M68.5000 36.0000
L69.6000 36.0000
" />
<path d="M70.0000 36.0000
L71.1000 36.0000
" />
<path d="M71.5000 36.0000
L72.6000 36.0000
" />
<path d="M73.0000 36.0000
L74.1000 36.0000
" />
<path d="M74.5000 36.0000
L75.6000 36.0000
" />
<path d="M76.0000 36.0000
L77.1000 36.0000
" />
<path d="M77.5000 36.0000
L78.6000 36.0000
" />
<path d="M79.0000 36.0000
L80.1000 36.0000
" />
<path d="M80.5000 36.0000
L81.6000 36.0000
" />
<path d="M82.0000 36.0000
L83.1000 36.0000
" />
<path d="M83.5000 36.0000
L84.6000 36.0000
" />
<path d="M85.0000 36.0000
L86.1000 36.0000
" />
<path d="M86.5000 36.0000
L87.6000 36.0000
" />
<path d="M88.0000 36.0000
L89.1000 36.0000
" />
<path d="M89.5000 36.0000
L90.6000 36.0000
" />
<path d="M91.0000 36.0000
L92.1000 36.0000
" />
<path d="M92.5000 36.0000
L93.6000 36.0000
" />
<path d="M94.0000 36.0000
L95.1000 36.0000
" />
<path d="M95.5000 36.0000
L96.6000 36.0000
" />
<path d="M97.0000 36.0000
L98.1000 36.0000
" />
<path d="M98.5000 36.0000
L99.6000 36.0000
" />
<path d="M100.0000 36.0000
L101.1000 36.0000
" />
<path d="M101.5000 36.0000
L102.6000 36.0000
" />
<path d="M103.0000 36.0000
L104.1000 36.0000
" />
<path d="M104.5000 36.0000
L105.6000 36.0000
" />
<path d="M106.0000 36.0000
L107.1000 36.0000
" />
<path d="M107.5000 36.0000
L108.6000 36.0000
" />
<path d="M109.0000 36.0000
L110.1000 36.0000
" />
<path d="M110.5000 36.0000
L111.6000 36.0000
" />
<path d="M112.0000 36.0000
L113.1000 36.0000
" />
<path d="M113.5000 36.0000
L114.6000 36.0000
" />
<path d="M115.0000 36.0000
L116.1000 36.0000
" />
<path d="M116.5000 36.0000
L117.6000 36.0000
" />
<path d="M118.0000 36.0000
L119.1000 36.0000
" />
<path d="M119.5000 36.0000
L120.6000 36.0000
" />
<path d="M121.0000 36.0000
L122.1000 36.0000
" />
<path d="M122.5000 36.0000
L123.6000 36.0000
" />
<path d="M124.0000 36.0000
L125.1000 36.0000
" />
<path d="M125.5000 36.0000
L126.6000 36.0000
" />
<path d="M127.0000 36.0000
L128.1000 36.0000
" />
<path d="M128.5000 36.0000
L129.6000 36.0000
" />
<path d="M130.0000 36.0000
L131.1000 36.0000
" />
<path d="M131.5000 36.0000
L132.6000 36.0000
" />
<path d="M133.0000 36.0000
L134.1000 36.0000
" />
<path d="M134.5000 36.0000
L135.6000 36.0000
" />
<path d="M136.0000 36.0000
L137.1000 36.0000
" />
<path d="M137.5000 36.0000
L138.6000 36.0000
" />
<path d="M139.0000 36.0000
L140.1000 36.0000
" />
<path d="M140.5000 36.0000
L141.6000 36.0000
" />
<path d="M142.0000 36.0000
L143.1000 36.0000
" />
<path d="M143.5000 36.0000
L144.6000 36.0000
" />
<path d="M145.0000 36.0000
L146.1000 36.0000
" />
<path d="M146.5000 36.0000
L147.6000 36.0000
" />
<path d="M148.0000 36.0000
L149.1000 36.0000
" />
<path d="M149.5000 36.0000
L150.6000 36.0000
" />
<path d="M151.0000 36.0000
L152.1000 36.0000
" />
<path d="M152.5000 36.0000
L153.6000 36.0000
" />
<path d="M154.0000 36.0000
L155.1000 36.0000
" />
<path d="M155.5000 36.0000
L156.6000 36.0000
" />
<path d="M157.0000 36.0000
L158.1000 36.0000
" />
<path d="M158.5000 36.0000
L159.6000 36.0000
" />
</g>
<g style="fill:#000000; fill-opacity:1.0000; stroke:none;">
<circle cx="160.0000" cy="36.0000" r="0.0500" /> 
</g>
<g style="fill:none; 
stroke:#000000; stroke-width:0.1000; stroke-opacity:1; 
stroke-linecap:round; stroke-linejoin:round;">
<path d="M160.0000 36.0000
L160.0000 37.1000
" />
<path d="M160.0000 37.5000
L160.0000 38.6000
" />
<path d="M160.0000 39.0000
L160.0000 40.1000
" />
<path d="M160.0000 40.5000
L160.0000 41.6000
" />
<path d="M160.0000 42.0000
L160.0000 43.1000
" />
<path d="M160.0000 43.5000
L160.0000 44.6000
" />
<path d="M160.0000 45.0000
L160.0000 46.1000
" />
<path d="M160.0000 46.5000
L160.0000 47.6000
" />
<path d="M160.0000 48.0000
L160.0000 49.1000
" />
<path d="M160.0000 49.5000
L160.0000 50.6000
" />
<path d="M160.0000 51.0000
L160.0000 52.1000
" />
<path d="M160.0000 52.5000
L160.0000 53.6000
" />
<path d="M160.0000 54.0000
L160.0000 55.1000
" />
<path d="M160.0000 55.5000
L160.0000 56.6000
" />
<path d="M160.0000 57.0000
L160.0000 58.1000
" />
<path d="M160.0000 58.5000
L160.0000 59.6000
" />
<path d="M160.0000 60.0000
L160.0000 61.1000
" />
<path d="M160.0000 61.5000
L160.0000 62.6000
" />
<path d="M160.0000 63.0000
L160.0000 64.1000
" />
<path d="M160.0000 64.5000
L160.0000 65.6000
" />
<path d="M160.0000 66.0000
L160.0000 67.1000
" />
<path d="M160.0000 67.5000
L160.0000 68.6000
" />
<path d="M160.0000 69.0000
L160.0000 70.1000
" />
<path d="M160.0000 70.5000
L160.0000 71.6000
" />
<path d="M160.0000 72.0000
L160.0000 73.1000
" />
<path d="M160.0000 73.5000
L160.0000 74.6000
" />
<path d="M160.0000 75.0000
L160.0000 76.1000
" />
<path d="M160.0000 76.5000
L160.0000 77.6000
" />
<path d="M160.0000 78.0000
L160.0000 79.1000
" />
<path d="M160.0000 79.5000
L160.0000 80.6000
" />
<path d="M160.0000 81.0000
L160.0000 82.1000
" />
<path d="M160.0000 82.5000
L160.0000 83.6000
" />
<path d="M160.0000 84.0000
L160.0000 85.1000
" />
<path d="M160.0000 85.5000
L160.0000 86.6000
" />
<path d="M160.0000 87.0000
L160.0000 88.1000
" />
<path d="M160.0000 88.5000
L160.0000 89.6000
" />
<path d="M160.0000 90.0000
L160.0000 91.1000
" />
<path d="M160.0000 91.5000
L160.0000 92.6000
" />
<path d="M160.0000 93.0000
L160.0000 94.1000
" />
<path d="M160.0000 94.5000
L160.0000 95.6000
" />
<path d="M160.0000 96.0000
L160.0000 97.1000
" />
<path d="M160.0000 97.5000
L160.0000 98.6000
" />
<path d="M160.0000 99.0000
L160.0000 100.1000
" />
<path d="M160.0000 100.5000
L160.0000 101.6000
" />
<path d="M160.0000 102.0000
L160.0000 103.1000
" />
<path d="M160.0000 103.5000
L160.0000 104.6000
" />
<path d="M160.0000 105.0000
L160.0000 106.1000
" />
<path d="M160.0000 106.5000
L160.0000 107.6000
" />
<path d="M160.0000 108.0000
L160.0000 109.1000
" />
<path d="M160.0000 109.5000
L160.0000 110.6000
" />
<path d="M160.0000 111.0000
L160.0000 112.1000
" />
<path d="M160.0000 112.5000
L160.0000 113.6000
" />
<path d="M160.0000 114.0000
L160.0000 115.1000
" />
<path d="M160.0000 115.5000
L160.0000 116.6000
" />
<path d="M160.0000 117.0000
L160.0000 118.1000
" />
<path d="M160.0000 118.5000
L160.0000 119.6000
" />
<path d="M160.0000 120.0000
L160.0000 121.1000
" />
<path d="M160.0000 121.5000
L160.0000 122.6000
" />
<path d="M160.0000 123.0000
L160.0000 124.1000
" />
<path d="M160.0000 124.5000
L160.0000 125.6000
" />
<path d="M160.0000 126.0000
L160.0000 127.1000
" />
<path d="M160.0000 127.5000
L160.0000 128.6000
" />
<path d="M160.0000 129.0000
L160.0000 130.1000
" />
<path d="M160.0000 130.5000
L160.0000 131.6000
" />
<path d="M160.0000 132.0000
L160.0000 133.1000
" />
<path d="M160.0000 133.5000
L160.0000 134.6000
" />
<path d="M160.0000 135.0000
L160.0000 136.1000
" />
<path d="M160.0000 136.5000
L160.0000 137.6000
" />
<path d="M160.0000 138.0000
L160.0000 139.1000
" />
<path d="M160.0000 139.5000
L160.0000 140.6000
" />
<path d="M160.0000 141.0000
L160.0000 142.1000
" />
<path d="M160.0000 142.5000
L160.0000 143.6000
" />
<path d="M160.0000 144.0000
L160.0000 145.1000
" />
<path d="M160.0000 145.5000
L160.0000 146.6000
" />
<path d="M160.0000 147.0000
L160.0000 148.1000
" />
<path d="M160.0000 148.5000
L160.0000 149.6000
" />
<path d="M160.0000 150.0000
L160.0000 151.1000
" />
<path d="M160.0000 151.5000
L160.0000 152.6000
" />
<path d="M160.0000 153.0000
L160.0000 154.1000
" />
<path d="M160.0000 154.5000
L160.0000 155.6000
" />
<path d="M160.0000 156.0000
L160.0000 157.1000
" />
<path d="M160.0000 157.5000
L160.0000 158.6000
" />
<path d="M160.0000 159.0000
L160.0000 160.1000
" />
<path d="M160.0000 160.5000
L160.0000 161.6000
" />
<path d="M160.0000 162.0000
L160.0000 163.1000
" />
<path d="M160.0000 163.5000
L160.0000 164.0000
" />
<path d="M160.0000 164.0000
L158.9000 164.0000
" />
<path d="M158.5000 164.0000
L157.4000 164.0000
" />
<path d="M157.0000 164.0000
L155.9000 164.0000
" />
<path d="M155.5000 164.0000
L154.4000 164.0000
" />
<path d="M154.0000 164.0000
L152.9000 164.0000
" />
<path d="M152.5000 164.0000
L151.4000 164.0000
" />
<path d="M151.0000 164.0000
L149.9000 164.0000
" />
<path d="M149.5000 164.0000
L148.4000 164.0000
" />
<path d="M148.0000 164.0000
L146.9000 164.0000
" />
<path d="M146.5000 164.0000
L145.4000 164.0000
" />
<path d="M145.0000 164.0000
L143.9000 164.0000
" />
<path d="M143.5000 164.0000
L142.4000 164.0000
" />
<path d="M142.0000 164.0000
L140.9000 164.0000
" />
<path d="M140.5000 164.0000
L139.4000 164.0000
" />
<path d="M139.0000 164.0000
L137.9000 164.0000
" />
<path d="M137.5000 164.0000
L136.4000 164.0000
" />
<path d="M136.0000 164.0000
L134.9000 164.0000
" />
<path d="M134.5000 164.0000
L133.4000 164.0000
" />
<path d="M133.0000 164.0000
L131.9000 164.0000
" />
<path d="M131.5000 164.0000
L130.4000 164.0000
" />
<path d="M130.0000 164.0000
L128.9000 164.0000
" />
<path d="M128.5000 164.0000
L127.4000 164.0000
" />
<path d="M127.0000 164.0000
L125.9000 164.0000
" />
<path d="M125.5000 164.0000
L124.4000 164.0000
" />
<path d="M124.0000 164.0000
L122.9000 164.0000
" />
<path d="M122.5000 164.0000
L121.4000 164.0000
" />
<path d="M121.0000 164.0000
L119.9000 164.0000
" />
<path d="M119.5000 164.0000
L118.4000 164.0000
" />
<path d="M118.0000 164.0000
L116.9000 164.0000
" />
<path d="M116.5000 164.0000
L115.4000 164.0000
" />
<path d="M115.0000 164.0000
L113.9000 164.0000
" />
<path d="M113.5000 164.0000
L112.4000 164.0000
" />
<path d="M112.0000 164.0000
L110.9000 164.0000
" />
<path d="M110.5000 164.0000
L109.4000 164.0000
" />
<path d="M109.0000 164.0000
L107.9000 164.0000
" />
<path d="M107.5000 164.0000
L106.4000 164.0000
" />
<path d="M106.0000 164.0000
L104.9000 164.0000
" />
<path d="M104.5000 164.0000
L103.4000 164.0000
" />
<path d="M103.0000 164.0000
L101.9000 164.0000
" />
<path d="M101.5000 164.0000
L100.4000 164.0000
" />
<path d="M100.0000 164.0000
L98.9000 164.0000
" />
<path d="M98.5000 164.0000
L97.4000 164.0000
" />
<path d="M97.0000 164.0000
L95.9000 164.0000
" />
<path d="M95.5000 164.0000
L94.4000 164.0000
" />
<path d="M94.0000 164.0000
L92.9000 164.0000
" />
<path d="M92.5000 164.0000
L91.4000 164.0000
" />
<path d="M91.0000 164.0000
L89.9000 164.0000
" />
<path d="M89.5000 164.0000
L88.4000 164.0000
" />
<path d="M88.0000 164.0000
L86.9000 164.0000
" />
<path d="M86.5000 164.0000
L85.4000 164.0000
" />
<path d="M85.0000 164.0000
L83.9000 164.0000
" />
<path d="M83.5000 164.0000
L82.4000 164.0000
" />
<path d="M82.0000 164.0000
L80.9000 164.0000
" />
<path d="M80.5000 164.0000
L79.4000 164.0000
" />
<path d="M79.0000 164.0000
L77.9000 164.0000
" />
<path d="M77.5000 164.0000
L76.4000 164.0000
" />
<path d="M76.0000 164.0000
L74.9000 164.0000
" />
<path d="M74.5000 164.0000
L73.4000 164.0000
" />
<path d="M73.0000 164.0000
L71.9000 164.0000
" />
<path d="M71.5000 164.0000
L70.4000 164.0000
" />
<path d="M70.0000 164.0000
L68.9000 164.0000
" />
<path d="M68.5000 164.0000
L67.4000 164.0000
" />
<path d="M67.0000 164.0000
L65.9000 164.0000
" />
<path d="M65.5000 164.0000
L64.4000 164.0000
" />
<path d="M64.0000 164.0000
L62.9000 164.0000
" />
<path d="M62.5000 164.0000
L61.4000 164.0000
" />
<path d="M61.0000 164.0000
L59.9000 164.0000
" />
<path d="M59.5000 164.0000
L58.4000 164.0000
" />
<path d="M58.0000 164.0000
L56.9000 164.0000
" />
<path d="M56.5000 164.0000
L55.4000 164.0000
" />
<path d="M55.0000 164.0000
L53.9000 164.0000
" />
<path d="M53.5000 164.0000
L52.4000 164.0000
" />
<path d="M52.0000 164.0000
L50.9000 164.0000
" />
<path d="M50.5000 164.0000
L49.4000 164.0000
" />
<path d="M49.0000 164.0000
L47.9000 164.0000
" />
<path d="M47.5000 164.0000
L46.4000 164.0000
" />
<path d="M46.0000 164.0000
L44.9000 164.0000
" />
<path d="M44.5000 164.0000
L43.4000 164.0000
" />
<path d="M43.0000 164.0000
L41.9000 164.0000
" />
<path d="M41.5000 164.0000
L40.4000 164.0000
" />
</g>
<g style="fill:#000000; fill-opacity:1.0000; stroke:none;">
<circle cx="40.0000" cy="164.0000" r="0.0500" /> 
</g>
<g style="fill:none; 
stroke:#000000; stroke-width:0.1000; stroke-opacity:1; 
stroke-linecap:round; stroke-linejoin:round;">
<path d="M40.0000 164.0000
L40.0000 162.9000
" />
<path d="M40.0000 162.5000
L40.0000 161.4000
" />
<path d="M40.0000 161.0000
L40.0000 159.9000
" />
<path d="M40.0000 159.5000
L40.0000 158.4000
" />
<path d="M40.0000 158.0000
L40.0000 156.9000
" />
<path d="M40.0000 156.5000
L40.0000 155.4000
" />
<path d="M40.0000 155.0000
L40.0000 153.9000
" />
<path d="M40.0000 153.5000
L40.0000 152.4000
" />
<path d="M40.0000 152.0000
L40.0000 150.9000
" />
<path d="M40.0000 150.5000
L40.0000 149.4000
" />
<path d="M40.0000 149.0000
L40.0000 147.9000
" />
<path d="M40.0000 147.5000
L40.0000 146.4000
" />
<path d="M40.0000 146.0000
L40.0000 144.9000
" />
<path d="M40.0000 144.5000
L40.0000 143.4000
" />
<path d="M40.0000 143.0000
L40.0000 141.9000
" />
<path d="M40.0000 141.5000
L40.0000 140.4000
" />
<path d="M40.0000 140.0000
L40.0000 138.9000
" />
<path d="M40.0000 138.5000
L40.0000 137.4000
" />
<path d="M40.0000 137.0000
L40.0000 135.9000
" />
<path d="M40.0000 135.5000
L40.0000 134.4000
" />
<path d="M40.0000 134.0000
L40.0000 132.9000
" />
<path d="M40.0000 132.5000
L40.0000 131.4000
" />
<path d="M40.0000 131.0000
L40.0000 129.9000
" />
<path d="M40.0000 129.5000
L40.0000 128.4000
" />
<path d="M40.0000 128.0000
L40.0000 126.9000
" />
<path d="M40.0000 126.5000
L40.0000 125.4000
" />
<path d="M40.0000 125.0000
L40.0000 123.9000
" />
<path d="M40.0000 123.5000
L40.0000 122.4000
" />
<path d="M40.0000 122.0000
L40.0000 120.9000
" />
<path d="M40.0000 120.5000
L40.0000 119.4000
" />
<path d="M40.0000 119.0000
L40.0000 117.9000
" />
<path d="M40.0000 117.5000
L40.0000 116.4000
" />
<path d="M40.0000 116.0000
L40.0000 114.9000
" />
<path d="M40.0000 114.5000
L40.0000 113.4000
" />
<path d="M40.0000 113.0000
L40.0000 111.9000
" />
<path d="M40.0000 111.5000
L40.0000 110.4000
" />
<path d="M40.0000 110.0000
L40.0000 108.9000
" />
<path d="M40.0000 108.5000
L40.0000 107.4000
" />
<path d="M40.0000 107.0000
L40.0000 105.9000
" />
<path d="M40.0000 105.5000
L40.0000 104.4000
" />
<path d="M40.0000 104.0000
L40.0000 102.9000
" />
<path d="M40.0000 102.5000
L40.0000 101.4000
" />
<path d="M40.0000 101.0000
L40.0000 99.9000
" />
<path d="M40.0000 99.5000
L40.0000 98.4000
" />
<path d="M40.0000 98.0000
L40.0000 96.9000
" />
<path d="M40.0000 96.5000
L40.0000 95.4000
" />
<path d="M40.0000 95.0000
L40.0000 93.9000
" />
<path d="M40.0000 93.5000
L40.0000 92.4000
" />
<path d="M40.0000 92.0000
L40.0000 90.9000
" />
<path d="M40.0000 90.5000
L40.0000 89.4000
" />
<path d="M40.0000 89.0000
L40.0000 87.9000
" />
<path d="M40.0000 87.5000
L40.0000 86.4000
" />
<path d="M40.0000 86.0000
L40.0000 84.9000
" />
<path d="M40.0000 84.5000
L40.0000 83.4000
" />
<path d="M40.0000 83.0000
L40.0000 81.9000
" />
<path d="M40.0000 81.5000
L40.0000 80.4000
" />
<path d="M40.0000 80.0000
L40.0000 78.9000
" />
<path d="M40.0000 78.5000
L40.0000 77.4000
" />
<path d="M40.0000 77.0000
L40.0000 75.9000
" />
<path d="M40.0000 75.5000
L40.0000 74.4000
" />
<path d="M40.0000 74.0000
L40.0000 72.9000
" />
<path d="M40.0000 72.5000
L40.0000 71.4000
" />
<path d="M40.0000 71.0000
L40.0000 69.9000
" />
<path d="M40.0000 69.5000
L40.0000 68.4000
" />
<path d="M40.0000 68.0000
L40.0000 66.9000
" />
<path d="M40.0000 66.5000
L40.0000 65.4000
" />
<path d="M40.0000 65.0000
L40.0000 63.9000
" />
<path d="M40.0000 63.5000
L40.0000 62.4000
" />
<path d="M40.0000 62.0000
L40.0000 60.9000
" />
<path d="M40.0000 60.5000
L40.0000 59.4000
" />
<path d="M40.0000 59.0000
L40.0000 57.9000
" />
<path d="M40.0000 57.5000
L40.0000 56.4000
" />
<path d="M40.0000 56.0000
L40.0000 54.9000
" />
<path d="M40.0000 54.5000
L40.0000 53.4000
" />
<path d="M40.0000 53.0000
L40.0000 51.9000
" />
<path d="M40.0000 51.5000
L40.0000 50.4000
" />
<path d="M40.0000 50.0000
L40.0000 48.9000
" />
<path d="M40.0000 48.5000
L40.0000 47.4000
" />
<path d="M40.0000 47.0000
L40.0000 45.9000
" />
<path d="M40.0000 45.5000
L40.0000 44.4000
" />
<path d="M40.0000 44.0000
L40.0000 42.9000
" />
<path d="M40.0000 42.5000
L40.0000 41.4000
" />
<path d="M40.0000 41.0000
L40.0000 39.9000
" />
<path d="M40.0000 39.5000
L40.0000 38.4000
" />
<path d="M40.0000 38.0000
L40.0000 36.9000
" />
<path d="M40.0000 36.5000
L40.0000 36.0000
" />
<circle cx="100.0000" cy="105.0000" r="25.0000" /> 
<circle cx="60.0000" cy="142.0000" r="12.0000" /> 
</g>
<g style="fill:none; 
stroke:#000000; stroke-width:0.7500; stroke-opacity:1; 
stroke-linecap:round; stroke-linejoin:round;">
<text x="69.5000" y="42.0000"
textLength="64.7929" font-size="4.0000" lengthAdjust="spacingAndGlyphs"
text-anchor="start" opacity="0" stroke-opacity="0">view from back/solder side</text>
<g class="stroked-text"><desc>view from back/solder side</desc>
<path d="M70.4220 39.5939
L71.1363 41.5939
" />
<path d="M71.1363 41.5939
L71.8506 39.5939
" />
<path d="M72.9934 41.5939
L72.9934 39.5939
" />
<path d="M72.9934 38.5939
L72.8506 38.7367
" />
<path d="M72.8506 38.7367
L72.9934 38.8796
" />
<path d="M72.9934 38.8796
L73.1363 38.7367
" />
<path d="M73.1363 38.7367
L72.9934 38.5939
" />
<path d="M72.9934 38.5939
L72.9934 38.8796
" />
<path d="M75.5648 41.4510
L75.2791 41.5939
" />
<path d="M75.2791 41.5939
L74.7077 41.5939
" />
<path d="M74.7077 41.5939
L74.4220 41.4510
" />
<path d="M74.4220 41.4510
L74.2791 41.1653
" />
<path d="M74.2791 41.1653
L74.2791 40.0224
" />
<path d="M74.2791 40.0224
L74.4220 39.7367
" />
<path d="M74.4220 39.7367
L74.7077 39.5939
" />
<path d="M74.7077 39.5939
L75.2791 39.5939
" />
<path d="M75.2791 39.5939
L75.5648 39.7367
" />
<path d="M75.5648 39.7367
L75.7077 40.0224
" />
<path d="M75.7077 40.0224
L75.7077 40.3081
" />
<path d="M75.7077 40.3081
L74.2791 40.5939
" />
<path d="M76.7077 39.5939
L77.2791 41.5939
" />
<path d="M77.2791 41.5939
L77.8506 40.1653
" />
<path d="M77.8506 40.1653
L78.4220 41.5939
" />
<path d="M78.4220 41.5939
L78.9934 39.5939
" />
<path d="M81.9934 39.5939
L83.1363 39.5939
" />
<path d="M82.4220 41.5939
L82.4220 39.0224
" />
<path d="M82.4220 39.0224
L82.5648 38.7367
" />
<path d="M82.5648 38.7367
L82.8506 38.5939
" />
<path d="M82.8506 38.5939
L83.1363 38.5939
" />
<path d="M84.1363 41.5939
L84.1363 39.5939
" />
<path d="M84.1363 40.1653
L84.2791 39.8796
" />
<path d="M84.2791 39.8796
L84.4220 39.7367
" />
<path d="M84.4220 39.7367
L84.7077 39.5939
" />
<path d="M84.7077 39.5939
L84.9934 39.5939
" />
<path d="M86.4220 41.5939
L86.1363 41.4510
" />
<path d="M86.1363 41.4510
L85.9934 41.3081
" />
<path d="M85.9934 41.3081
L85.8506 41.0224
" />
<path d="M85.8506 41.0224
L85.8506 40.1653
" />
<path d="M85.8506 40.1653
L85.9934 39.8796
" />
<path d="M85.9934 39.8796
L86.1363 39.7367
" />
<path d="M86.1363 39.7367
L86.4220 39.5939
" />
<path d="M86.4220 39.5939
L86.8506 39.5939
" />
<path d="M86.8506 39.5939
L87.1363 39.7367
" />
<path d="M87.1363 39.7367
L87.2791 39.8796
" />
<path d="M87.2791 39.8796
L87.4220 40.1653
" />
<path d="M87.4220 40.1653
L87.4220 41.0224
" />
<path d="M87.4220 41.0224
L87.2791 41.3081
" />
<path d="M87.2791 41.3081
L87.1363 41.4510
" />
<path d="M87.1363 41.4510
L86.8506 41.5939
" />
<path d="M86.8506 41.5939
L86.4220 41.5939
" />
<path d="M88.7077 41.5939
L88.7077 39.5939
" />
<path d="M88.7077 39.8796
L88.8506 39.7367
" />
<path d="M88.8506 39.7367
L89.1363 39.5939
" />
<path d="M89.1363 39.5939
L89.5648 39.5939
" />
<path d="M89.5648 39.5939
L89.8506 39.7367
" />
<path d="M89.8506 39.7367
L89.9934 40.0224
" />
<path d="M89.9934 40.0224
L89.9934 41.5939
" />
<path d="M89.9934 40.0224
L90.1363 39.7367
" />
<path d="M90.1363 39.7367
L90.4220 39.5939
" />
<path d="M90.4220 39.5939
L90.8506 39.5939
" />
<path d="M90.8506 39.5939
L91.1363 39.7367
" />
<path d="M91.1363 39.7367
L91.2791 40.0224
" />
<path d="M91.2791 40.0224
L91.2791 41.5939
" />
<path d="M94.9934 41.5939
L94.9934 38.5939
" />
<path d="M94.9934 39.7367
L95.2791 39.5939
" />
<path d="M95.2791 39.5939
L95.8506 39.5939
" />
<path d="M95.8506 39.5939
L96.1363 39.7367
" />
<path d="M96.1363 39.7367
L96.2791 39.8796
" />
<path d="M96.2791 39.8796
L96.4220 40.1653
" />
<path d="M96.4220 40.1653
L96.4220 41.0224
" />
<path d="M96.4220 41.0224
L96.2791 41.3081
" />
<path d="M96.2791 41.3081
L96.1363 41.4510
" />
<path d="M96.1363 41.4510
L95.8506 41.5939
" />
<path d="M95.8506 41.5939
L95.2791 41.5939
" />
<path d="M95.2791 41.5939
L94.9934 41.4510
" />
<path d="M98.9934 41.5939
L98.9934 40.0224
" />
<path d="M98.9934 40.0224
L98.8506 39.7367
" />
<path d="M98.8506 39.7367
L98.5648 39.5939
" />
<path d="M98.5648 39.5939
L97.9934 39.5939
" />
<path d="M97.9934 39.5939
L97.7077 39.7367
" />
<path d="M98.9934 41.4510
L98.7077 41.5939
" />
<path d="M98.7077 41.5939
L97.9934 41.5939
" />
<path d="M97.9934 41.5939
L97.7077 41.4510
" />
<path d="M97.7077 41.4510
L97.5648 41.1653
" />
<path d="M97.5648 41.1653
L97.5648 40.8796
" />
<path d="M97.5648 40.8796
L97.7077 40.5939
" />
<path d="M97.7077 40.5939
L97.9934 40.4510
" />
<path d="M97.9934 40.4510
L98.7077 40.4510
" />
<path d="M98.7077 40.4510
L98.9934 40.3081
" />
<path d="M101.7077 41.4510
L101.4220 41.5939
" />
<path d="M101.4220 41.5939
L100.8506 41.5939
" />
<path d="M100.8506 41.5939
L100.5648 41.4510
" />
<path d="M100.5648 41.4510
L100.4220 41.3081
" />
<path d="M100.4220 41.3081
L100.2791 41.0224
" />
<path d="M100.2791 41.0224
L100.2791 40.1653
" />
<path d="M100.2791 40.1653
L100.4220 39.8796
" />
<path d="M100.4220 39.8796
L100.5648 39.7367
" />
<path d="M100.5648 39.7367
L100.8506 39.5939
" />
<path d="M100.8506 39.5939
L101.4220 39.5939
" />
<path d="M101.4220 39.5939
L101.7077 39.7367
" />
<path d="M102.9934 41.5939
L102.9934 38.5939
" />
<path d="M103.2791 40.4510
L104.1363 41.5939
" />
<path d="M104.1363 39.5939
L102.9934 40.7367
" />
<path d="M107.5648 38.4510
L104.9934 42.3081
" />
<path d="M108.4220 41.4510
L108.7077 41.5939
" />
<path d="M108.7077 41.5939
L109.2791 41.5939
" />
<path d="M109.2791 41.5939
L109.5648 41.4510
" />
<path d="M109.5648 41.4510
L109.7077 41.1653
" />
<path d="M109.7077 41.1653
L109.7077 41.0224
" />
<path d="M109.7077 41.0224
L109.5648 40.7367
" />
<path d="M109.5648 40.7367
L109.2791 40.5939
" />
<path d="M109.2791 40.5939
L108.8506 40.5939
" />
<path d="M108.8506 40.5939
L108.5648 40.4510
" />
<path d="M108.5648 40.4510
L108.4220 40.1653
" />
<path d="M108.4220 40.1653
L108.4220 40.0224
" />
<path d="M108.4220 40.0224
L108.5648 39.7367
" />
<path d="M108.5648 39.7367
L108.8506 39.5939
" />
<path d="M108.8506 39.5939
L109.2791 39.5939
" />
<path d="M109.2791 39.5939
L109.5648 39.7367
" />
<path d="M111.4220 41.5939
L111.1363 41.4510
" />
<path d="M111.1363 41.4510
L110.9934 41.3081
" />
<path d="M110.9934 41.3081
L110.8506 41.0224
" />
<path d="M110.8506 41.0224
L110.8506 40.1653
" />
<path d="M110.8506 40.1653
L110.9934 39.8796
" />
<path d="M110.9934 39.8796
L111.1363 39.7367
" />
<path d="M111.1363 39.7367
L111.4220 39.5939
" />
<path d="M111.4220 39.5939
L111.8506 39.5939
" />
<path d="M111.8506 39.5939
L112.1363 39.7367
" />
<path d="M112.1363 39.7367
L112.2791 39.8796
" />
<path d="M112.2791 39.8796
L112.4220 40.1653
" />
<path d="M112.4220 40.1653
L112.4220 41.0224
" />
<path d="M112.4220 41.0224
L112.2791 41.3081
" />
<path d="M112.2791 41.3081
L112.1363 41.4510
" />
<path d="M112.1363 41.4510
L111.8506 41.5939
" />
<path d="M111.8506 41.5939
L111.4220 41.5939
" />
<path d="M114.1363 41.5939
L113.8506 41.4510
" />
<path d="M113.8506 41.4510
L113.7077 41.1653
" />
<path d="M113.7077 41.1653
L113.7077 38.5939
" />
<path d="M116.5648 41.5939
L116.5648 38.5939
" />
<path d="M116.5648 41.4510
L116.2791 41.5939
" />
<path d="M116.2791 41.5939
L115.7077 41.5939
" />
<path d="M115.7077 41.5939
L115.4220 41.4510
" />
<path d="M115.4220 41.4510
L115.2791 41.3081
" />
<path d="M115.2791 41.3081
L115.1363 41.0224
" />
<path d="M115.1363 41.0224
L115.1363 40.1653
" />
<path d="M115.1363 40.1653
L115.2791 39.8796
" />
<path d="M115.2791 39.8796
L115.4220 39.7367
" />
<path d="M115.4220 39.7367
L115.7077 39.5939
" />
<path d="M115.7077 39.5939
L116.2791 39.5939
" />
<path d="M116.2791 39.5939
L116.5648 39.7367
" />
<path d="M119.1363 41.4510
L118.8506 41.5939
" />
<path d="M118.8506 41.5939
L118.2791 41.5939
" />
<path d="M118.2791 41.5939
L117.9934 41.4510
" />
<path d="M117.9934 41.4510
L117.8506 41.1653
" />
<path d="M117.8506 41.1653
L117.8506 40.0224
" />
<path d="M117.8506 40.0224
L117.9934 39.7367
" />
<path d="M117.9934 39.7367
L118.2791 39.5939
" />
<path d="M118.2791 39.5939
L118.8506 39.5939
" />
<path d="M118.8506 39.5939
L119.1363 39.7367
" />
<path d="M119.1363 39.7367
L119.2791 40.0224
" />
<path d="M119.2791 40.0224
L119.2791 40.3081
" />
<path d="M119.2791 40.3081
L117.8506 40.5939
" />
<path d="M120.5648 41.5939
L120.5648 39.5939
" />
<path d="M120.5648 40.1653
L120.7077 39.8796
" />
<path d="M120.7077 39.8796
L120.8506 39.7367
" />
<path d="M120.8506 39.7367
L121.1363 39.5939
" />
<path d="M121.1363 39.5939
L121.4220 39.5939
" />
<path d="M124.5648 41.4510
L124.8506 41.5939
" />
<path d="M124.8506 41.5939
L125.4220 41.5939
" />
<path d="M125.4220 41.5939
L125.7077 41.4510
" />
<path d="M125.7077 41.4510
L125.8506 41.1653
" />
<path d="M125.8506 41.1653
L125.8506 41.0224
" />
<path d="M125.8506 41.0224
L125.7077 40.7367
" />
<path d="M125.7077 40.7367
L125.4220 40.5939
" />
<path d="M125.4220 40.5939
L124.9934 40.5939
" />
<path d="M124.9934 40.5939
L124.7077 40.4510
" />
<path d="M124.7077 40.4510
L124.5648 40.1653
" />
<path d="M124.5648 40.1653
L124.5648 40.0224
" />
<path d="M124.5648 40.0224
L124.7077 39.7367
" />
<path d="M124.7077 39.7367
L124.9934 39.5939
" />
<path d="M124.9934 39.5939
L125.4220 39.5939
" />
<path d="M125.4220 39.5939
L125.7077 39.7367
" />
<path d="M127.1363 41.5939
L127.1363 39.5939
" />
<path d="M127.1363 38.5939
L126.9934 38.7367
" />
<path d="M126.9934 38.7367
L127.1363 38.8796
" />
<path d="M127.1363 38.8796
L127.2791 38.7367
" />
<path d="M127.2791 38.7367
L127.1363 38.5939
" />
<path d="M127.1363 38.5939
L127.1363 38.8796
" />
<path d="M129.8506 41.5939
L129.8506 38.5939
" />
<path d="M129.8506 41.4510
L129.5648 41.5939
" />
<path d="M129.5648 41.5939
L128.9934 41.5939
" />
<path d="M128.9934 41.5939
L128.7077 41.4510
" />
<path d="M128.7077 41.4510
L128.5648 41.3081
" />
<path d="M128.5648 41.3081
L128.4220 41.0224
" />
<path d="M128.4220 41.0224
L128.4220 40.1653
" />
<path d="M128.4220 40.1653
L128.5648 39.8796
" />
<path d="M128.5648 39.8796
L128.7077 39.7367
" />
<path d="M128.7077 39.7367
L128.9934 39.5939
" />
<path d="M128.9934 39.5939
L129.5648 39.5939
" />
<path d="M129.5648 39.5939
L129.8506 39.7367
" />
<path d="M132.4220 41.4510
L132.1363 41.5939
" />
<path d="M132.1363 41.5939
L131.5649 41.5939
" />
<path d="M131.5649 41.5939
L131.2791 41.4510
" />
<path d="M131.2791 41.4510
L131.1363 41.1653
" />
<path d="M131.1363 41.1653
L131.1363 40.0224
" />
<path d="M131.1363 40.0224
L131.2791 39.7367
" />
<path d="M131.2791 39.7367
L131.5649 39.5939
" />
<path d="M131.5649 39.5939
L132.1363 39.5939
" />
<path d="M132.1363 39.5939
L132.4220 39.7367
" />
<path d="M132.4220 39.7367
L132.5649 40.0224
" />
<path d="M132.5649 40.0224
L132.5649 40.3081
" />
<path d="M132.5649 40.3081
L131.1363 40.5939
" />
</g></g>
<g style="fill:none; 
stroke:#000000; stroke-width:0.1500; stroke-opacity:1; 
stroke-linecap:round; stroke-linejoin:round;">
<text x="41.0000" y="38.0000"
textLength="8.0595" font-size="1.3333" lengthAdjust="spacingAndGlyphs"
text-anchor="start" opacity="0" stroke-opacity="0">panel 24U</text>
<g class="stroked-text"><desc>panel 24U</desc>
<path d="M41.3368 37.2032
L41.3368 38.2032
" />
<path d="M41.3368 37.2508
L41.4320 37.2032
" />
<path d="M41.4320 37.2032
L41.6225 37.2032
" />
<path d="M41.6225 37.2032
L41.7177 37.2508
" />
<path d="M41.7177 37.2508
L41.7653 37.2984
" />
<path d="M41.7653 37.2984
L41.8130 37.3936
" />
<path d="M41.8130 37.3936
L41.8130 37.6793
" />
<path d="M41.8130 37.6793
L41.7653 37.7746
" />
<path d="M41.7653 37.7746
L41.7177 37.8222
" />
<path d="M41.7177 37.8222
L41.6225 37.8698
" />
<path d="M41.6225 37.8698
L41.4320 37.8698
" />
<path d="M41.4320 37.8698
L41.3368 37.8222
" />
<path d="M42.6701 37.8698
L42.6701 37.3460
" />
<path d="M42.6701 37.3460
L42.6225 37.2508
" />
<path d="M42.6225 37.2508
L42.5273 37.2032
" />
<path d="M42.5273 37.2032
L42.3368 37.2032
" />
<path d="M42.3368 37.2032
L42.2415 37.2508
" />
<path d="M42.6701 37.8222
L42.5749 37.8698
" />
<path d="M42.5749 37.8698
L42.3368 37.8698
" />
<path d="M42.3368 37.8698
L42.2415 37.8222
" />
<path d="M42.2415 37.8222
L42.1939 37.7270
" />
<path d="M42.1939 37.7270
L42.1939 37.6317
" />
<path d="M42.1939 37.6317
L42.2415 37.5365
" />
<path d="M42.2415 37.5365
L42.3368 37.4889
" />
<path d="M42.3368 37.4889
L42.5749 37.4889
" />
<path d="M42.5749 37.4889
L42.6701 37.4412
" />
<path d="M43.1463 37.2032
L43.1463 37.8698
" />
<path d="M43.1463 37.2984
L43.1939 37.2508
" />
<path d="M43.1939 37.2508
L43.2892 37.2032
" />
<path d="M43.2892 37.2032
L43.4320 37.2032
" />
<path d="M43.4320 37.2032
L43.5273 37.2508
" />
<path d="M43.5273 37.2508
L43.5749 37.3460
" />
<path d="M43.5749 37.3460
L43.5749 37.8698
" />
<path d="M44.4320 37.8222
L44.3368 37.8698
" />
<path d="M44.3368 37.8698
L44.1463 37.8698
" />
<path d="M44.1463 37.8698
L44.0511 37.8222
" />
<path d="M44.0511 37.8222
L44.0034 37.7270
" />
<path d="M44.0034 37.7270
L44.0034 37.3460
" />
<path d="M44.0034 37.3460
L44.0511 37.2508
" />
<path d="M44.0511 37.2508
L44.1463 37.2032
" />
<path d="M44.1463 37.2032
L44.3368 37.2032
" />
<path d="M44.3368 37.2032
L44.4320 37.2508
" />
<path d="M44.4320 37.2508
L44.4796 37.3460
" />
<path d="M44.4796 37.3460
L44.4796 37.4412
" />
<path d="M44.4796 37.4412
L44.0034 37.5365
" />
<path d="M45.0511 37.8698
L44.9558 37.8222
" />
<path d="M44.9558 37.8222
L44.9082 37.7270
" />
<path d="M44.9082 37.7270
L44.9082 36.8698
" />
<path d="M46.1463 36.9651
L46.1939 36.9174
" />
<path d="M46.1939 36.9174
L46.2892 36.8698
" />
<path d="M46.2892 36.8698
L46.5273 36.8698
" />
<path d="M46.5273 36.8698
L46.6225 36.9174
" />
<path d="M46.6225 36.9174
L46.6701 36.9651
" />
<path d="M46.6701 36.9651
L46.7177 37.0603
" />
<path d="M46.7177 37.0603
L46.7177 37.1555
" />
<path d="M46.7177 37.1555
L46.6701 37.2984
" />
<path d="M46.6701 37.2984
L46.0987 37.8698
" />
<path d="M46.0987 37.8698
L46.7177 37.8698
" />
<path d="M47.5749 37.2032
L47.5749 37.8698
" />
<path d="M47.3368 36.8222
L47.0987 37.5365
" />
<path d="M47.0987 37.5365
L47.7177 37.5365
" />
<path d="M48.0987 36.8698
L48.0987 37.6793
" />
<path d="M48.0987 37.6793
L48.1463 37.7746
" />
<path d="M48.1463 37.7746
L48.1939 37.8222
" />
<path d="M48.1939 37.8222
L48.2892 37.8698
" />
<path d="M48.2892 37.8698
L48.4796 37.8698
" />
<path d="M48.4796 37.8698
L48.5749 37.8222
" />
<path d="M48.5749 37.8222
L48.6225 37.7746
" />
<path d="M48.6225 37.7746
L48.6701 37.6793
" />
<path d="M48.6701 37.6793
L48.6701 36.8698
" />
</g></g>
<g style="fill:none; 
stroke:#000000; stroke-width:0.1000; stroke-opacity:1; 
stroke-linecap:round; stroke-linejoin:round;">
<path d="M40.0000 164.0000
L41.1000 164.0000
" />
<path d="M41.5000 164.0000
L42.6000 164.0000
" />
<path d="M43.0000 164.0000
L44.1000 164.0000
" />
<path d="M44.5000 164.0000
L45.6000 164.0000
" />
<path d="M46.0000 164.0000
L47.1000 164.0000
" />
<path d="M47.5000 164.0000
L48.6000 164.0000
" />
<path d="M49.0000 164.0000
L50.1000 164.0000
" />
<path d="M50.5000 164.0000
L51.6000 164.0000
" />
<path d="M52.0000 164.0000
L53.1000 164.0000
" />
<path d="M53.5000 164.0000
L54.6000 164.0000
" />
<path d="M55.0000 164.0000
L56.1000 164.0000
" />
<path d="M56.5000 164.0000
L57.6000 164.0000
" />
<path d="M58.0000 164.0000
L59.1000 164.0000
" />
<path d="M59.5000 164.0000
L60.6000 164.0000
" />
<path d="M61.0000 164.0000
L62.1000 164.0000
" />
<path d="M62.5000 164.0000
L63.6000 164.0000
" />
<path d="M64.0000 164.0000
L65.1000 164.0000
" />
<path d="M65.5000 164.0000
L66.6000 164.0000
" />
<path d="M67.0000 164.0000
L68.1000 164.0000
" />
<path d="M68.5000 164.0000
L69.6000 164.0000
" />
<path d="M70.0000 164.0000
L71.1000 164.0000
" />
<path d="M71.5000 164.0000
L72.6000 164.0000
" />
<path d="M73.0000 164.0000
L74.1000 164.0000
" />
<path d="M74.5000 164.0000
L75.6000 164.0000
" />
<path d="M76.0000 164.0000
L77.1000 164.0000
" />
<path d="M77.5000 164.0000
L78.6000 164.0000
" />
<path d="M79.0000 164.0000
L80.1000 164.0000
" />
<path d="M80.5000 164.0000
L81.6000 164.0000
" />
<path d="M82.0000 164.0000
L83.1000 164.0000
" />
<path d="M83.5000 164.0000
L84.6000 164.0000
" />
<path d="M85.0000 164.0000
L86.1000 164.0000
" />
<path d="M86.5000 164.0000
L87.6000 164.0000
" />
<path d="M88.0000 164.0000
L89.1000 164.0000
" />
<path d="M89.5000 164.0000
L90.6000 164.0000
" />
<path d="M91.0000 164.0000
L92.1000 164.0000
" />
<path d="M92.5000 164.0000
L93.6000 164.0000
" />
<path d="M94.0000 164.0000
L95.1000 164.0000
" />
<path d="M95.5000 164.0000
L96.6000 164.0000
" />
<path d="M97.0000 164.0000
L98.1000 164.0000
" />
<path d="M98.5000 164.0000
L99.6000 164.0000
" />
<path d="M100.0000 164.0000
L101.1000 164.0000
" />
<path d="M101.5000 164.0000
L102.6000 164.0000
" />
<path d="M103.0000 164.0000
L104.1000 164.0000
" />
<path d="M104.5000 164.0000
L105.6000 164.0000
" />
<path d="M106.0000 164.0000
L107.1000 164.0000
" />
<path d="M107.5000 164.0000
L108.6000 164.0000
" />
<path d="M109.0000 164.0000
L110.1000 164.0000
" />
<path d="M110.5000 164.0000
L111.6000 164.0000
" />
<path d="M112.0000 164.0000
L113.1000 164.0000
" />
<path d="M113.5000 164.0000
L114.6000 164.0000
" />
<path d="M115.0000 164.0000
L116.1000 164.0000
" />
<path d="M116.5000 164.0000
L117.6000 164.0000
" />
<path d="M118.0000 164.0000
L119.1000 164.0000
" />
<path d="M119.5000 164.0000
L120.6000 164.0000
" />
<path d="M121.0000 164.0000
L122.1000 164.0000
" />
<path d="M122.5000 164.0000
L123.6000 164.0000
" />
<path d="M124.0000 164.0000
L125.1000 164.0000
" />
<path d="M125.5000 164.0000
L126.6000 164.0000
" />
<path d="M127.0000 164.0000
L128.1000 164.0000
" />
<path d="M128.5000 164.0000
L129.6000 164.0000
" />
<path d="M130.0000 164.0000
L131.1000 164.0000
" />
<path d="M131.5000 164.0000
L132.6000 164.0000
" />
<path d="M133.0000 164.0000
L134.1000 164.0000
" />
<path d="M134.5000 164.0000
L135.6000 164.0000
" />
<path d="M136.0000 164.0000
L137.1000 164.0000
" />
<path d="M137.5000 164.0000
L138.6000 164.0000
" />
<path d="M139.0000 164.0000
L140.1000 164.0000
" />
<path d="M140.5000 164.0000
L141.6000 164.0000
" />
<path d="M142.0000 164.0000
L143.1000 164.0000
" />
<path d="M143.5000 164.0000
L144.6000 164.0000
" />
<path d="M145.0000 164.0000
L146.1000 164.0000
" />
<path d="M146.5000 164.0000
L147.6000 164.0000
" />
<path d="M148.0000 164.0000
L149.1000 164.0000
" />
<path d="M149.5000 164.0000
L150.6000 164.0000
" />
<path d="M151.0000 164.0000
L152.1000 164.0000
" />
<path d="M152.5000 164.0000
L153.6000 164.0000
" />
<path d="M154.0000 164.0000
L155.1000 164.0000
" />
<path d="M155.5000 164.0000
L156.6000 164.0000
" />
<path d="M157.0000 164.0000
L158.1000 164.0000
" />
<path d="M158.5000 164.0000
L159.6000 164.0000
" />
</g>
<g style="fill:#000000; fill-opacity:1.0000; stroke:none;">
<circle cx="160.0000" cy="164.0000" r="0.0500" /> 
</g>
<g style="fill:none; 
stroke:#000000; stroke-width:0.1000; stroke-opacity:1; 
stroke-linecap:round; stroke-linejoin:round;">
<path d="M160.0000 164.0000
L160.0000 162.9000
" />
<path d="M160.0000 162.5000
L160.0000 161.4000
" />
<path d="M160.0000 161.0000
L160.0000 159.9000
" />
<path d="M160.0000 159.5000
L160.0000 158.4000
" />
<path d="M160.0000 158.0000
L160.0000 156.9000
" />
<path d="M160.0000 156.5000
L160.0000 155.4000
" />
<path d="M160.0000 155.0000
L160.0000 153.9000
" />
<path d="M160.0000 153.5000
L160.0000 152.4000
" />
<path d="M160.0000 152.0000
L160.0000 150.9000
" />
<path d="M160.0000 150.5000
L160.0000 149.4000
" />
<path d="M160.0000 149.0000
L160.0000 147.9000
" />
<path d="M160.0000 147.5000
L160.0000 146.4000
" />
<path d="M160.0000 146.0000
L160.0000 144.9000
" />
<path d="M160.0000 144.5000
L160.0000 143.4000
" />
<path d="M160.0000 143.0000
L160.0000 141.9000
" />
<path d="M160.0000 141.5000
L160.0000 140.4000
" />
<path d="M160.0000 140.0000
L160.0000 138.9000
" />
<path d="M160.0000 138.5000
L160.0000 137.4000
" />
<path d="M160.0000 137.0000
L160.0000 135.9000
" />
<path d="M160.0000 135.5000
L160.0000 134.4000
" />
<path d="M160.0000 134.0000
L160.0000 132.9000
" />
<path d="M160.0000 132.5000
L160.0000 131.4000
" />
<path d="M160.0000 131.0000
L160.0000 129.9000
" />
<path d="M160.0000 129.5000
L160.0000 128.4000
" />
<path d="M160.0000 128.0000
L160.0000 126.9000
" />
<path d="M160.0000 126.5000
L160.0000 125.4000
" />
<path d="M160.0000 125.0000
L160.0000 123.9000
" />
<path d="M160.0000 123.5000
L160.0000 122.4000
" />
<path d="M160.0000 122.0000
L160.0000 120.9000
" />
<path d="M160.0000 120.5000
L160.0000 119.4000
" />
<path d="M160.0000 119.0000
L160.0000 117.9000
" />
<path d="M160.0000 117.5000
L160.0000 116.4000
" />
<path d="M160.0000 116.0000
L160.0000 114.9000
" />
<path d="M160.0000 114.5000
L160.0000 113.4000
" />
<path d="M160.0000 113.0000
L160.0000 111.9000
" />
<path d="M160.0000 111.5000
L160.0000 110.4000
" />
<path d="M160.0000 110.0000
L160.0000 108.9000
" />
<path d="M160.0000 108.5000
L160.0000 107.4000
" />
<path d="M160.0000 107.0000
L160.0000 105.9000
" />
<path d="M160.0000 105.5000
L160.0000 104.4000
" />
<path d="M160.0000 104.0000
L160.0000 102.9000
" />
<path d="M160.0000 102.5000
L160.0000 101.4000
" />
<path d="M160.0000 101.0000
L160.0000 99.9000
" />
<path d="M160.0000 99.5000
L160.0000 98.4000
" />
<path d="M160.0000 98.0000
L160.0000 96.9000
" />
<path d="M160.0000 96.5000
L160.0000 95.4000
" />
<path d="M160.0000 95.0000
L160.0000 93.9000
" />
<path d="M160.0000 93.5000
L160.0000 92.4000
" />
<path d="M160.0000 92.0000
L160.0000 90.9000
" />
<path d="M160.0000 90.5000
L160.0000 89.4000
" />
<path d="M160.0000 89.0000
L160.0000 87.9000
" />
<path d="M160.0000 87.5000
L160.0000 86.4000
" />
<path d="M160.0000 86.0000
L160.0000 84.9000
" />
<path d="M160.0000 84.5000
L160.0000 83.4000
" />
<path d="M160.0000 83.0000
L160.0000 81.9000
" />
<path d="M160.0000 81.5000
L160.0000 80.4000
" />
<path d="M160.0000 80.0000
L160.0000 78.9000
" />
<path d="M160.0000 78.5000
L160.0000 77.4000
" />
<path d="M160.0000 77.0000
L160.0000 75.9000
" />
<path d="M160.0000 75.5000
L160.0000 74.4000
" />
<path d="M160.0000 74.0000
L160.0000 72.9000
" />
<path d="M160.0000 72.5000
L160.0000 71.4000
" />
<path d="M160.0000 71.0000
L160.0000 69.9000
" />
<path d="M160.0000 69.5000
L160.0000 68.4000
" />
<path d="M160.0000 68.0000
L160.0000 66.9000
" />
<path d="M160.0000 66.5000
L160.0000 65.4000
" />
<path d="M160.0000 65.0000
L160.0000 63.9000
" />
<path d="M160.0000 63.5000
L160.0000 62.4000
" />
<path d="M160.0000 62.0000
L160.0000 60.9000
" />
<path d="M160.0000 60.5000
L160.0000 59.4000
" />
<path d="M160.0000 59.0000
L160.0000 57.9000
" />
<path d="M160.0000 57.5000
L160.0000 56.4000
" />
<path d="M160.0000 56.0000
L160.0000 54.9000
" />
<path d="M160.0000 54.5000
L160.0000 53.4000
" />
<path d="M160.0000 53.0000
L160.0000 51.9000
" />
<path d="M160.0000 51.5000
L160.0000 50.4000
" />
<path d="M160.0000 50.0000
L160.0000 48.9000
" />
<path d="M160.0000 48.5000
L160.0000 47.4000
" />
<path d="M160.0000 47.0000
L160.0000 45.9000
" />
<path d="M160.0000 45.5000
L160.0000 44.4000
" />
<path d="M160.0000 44.0000
L160.0000 42.9000
" />
<path d="M160.0000 42.5000
L160.0000 41.4000
" />
<path d="M160.0000 41.0000
L160.0000 39.9000
" />
<path d="M160.0000 39.5000
L160.0000 38.4000
" />
<path d="M160.0000 38.0000
L160.0000 36.9000
" />
<path d="M160.0000 36.5000
L160.0000 36.0000
" />
<path d="M160.0000 36.0000
L158.9000 36.0000
" />
<path d="M158.5000 36.0000
L157.4000 36.0000
" />
<path d="M157.0000 36.0000
L155.9000 36.0000
" />
<path d="M155.5000 36.0000
L154.4000 36.0000
" />
<path d="M154.0000 36.0000
L152.9000 36.0000
" />
<path d="M152.5000 36.0000
L151.4000 36.0000
" />
<path d="M151.0000 36.0000
L149.9000 36.0000
" />
<path d="M149.5000 36.0000
L148.4000 36.0000
" />
<path d="M148.0000 36.0000
L146.9000 36.0000
" />
<path d="M146.5000 36.0000
L145.4000 36.0000
" />
<path d="M145.0000 36.0000
L143.9000 36.0000
" />
<path d="M143.5000 36.0000
L142.4000 36.0000
" />
<path d="M142.0000 36.0000
L140.9000 36.0000
" />
<path d="M140.5000 36.0000
L139.4000 36.0000
" />
<path d="M139.0000 36.0000
L137.9000 36.0000
" />
<path d="M137.5000 36.0000
L136.4000 36.0000
" />
<path d="M136.0000 36.0000
L134.9000 36.0000
" />
<path d="M134.5000 36.0000
L133.4000 36.0000
" />
<path d="M133.0000 36.0000
L131.9000 36.0000
" />
<path d="M131.5000 36.0000
L130.4000 36.0000
" />
<path d="M130.0000 36.0000
L128.9000 36.0000
" />
<path d="M128.5000 36.0000
L127.4000 36.0000
" />
<path d="M127.0000 36.0000
L125.9000 36.0000
" />
<path d="M125.5000 36.0000
L124.4000 36.0000
" />
<path d="M124.0000 36.0000
L122.9000 36.0000
" />
<path d="M122.5000 36.0000
L121.4000 36.0000
" />
<path d="M121.0000 36.0000
L119.9000 36.0000
" />
<path d="M119.5000 36.0000
L118.4000 36.0000
" />
<path d="M118.0000 36.0000
L116.9000 36.0000
" />
<path d="M116.5000 36.0000
L115.4000 36.0000
" />
<path d="M115.0000 36.0000
L113.9000 36.0000
" />
<path d="M113.5000 36.0000
L112.4000 36.0000
" />
<path d="M112.0000 36.0000
L110.9000 36.0000
" />
<path d="M110.5000 36.0000
L109.4000 36.0000
" />
<path d="M109.0000 36.0000
L107.9000 36.0000
" />
<path d="M107.5000 36.0000
L106.4000 36.0000
" />
<path d="M106.0000 36.0000
L104.9000 36.0000
" />
<path d="M104.5000 36.0000
L103.4000 36.0000
" />
<path d="M103.0000 36.0000
L101.9000 36.0000
" />
<path d="M101.5000 36.0000
L100.4000 36.0000
" />
<path d="M100.0000 36.0000
L98.9000 36.0000
" />
<path d="M98.5000 36.0000
L97.4000 36.0000
" />
<path d="M97.0000 36.0000
L95.9000 36.0000
" />
<path d="M95.5000 36.0000
L94.4000 36.0000
" />
<path d="M94.0000 36.0000
L92.9000 36.0000
" />
<path d="M92.5000 36.0000
L91.4000 36.0000
" />
<path d="M91.0000 36.0000
L89.9000 36.0000
" />
<path d="M89.5000 36.0000
L88.4000 36.0000
" />
<path d="M88.0000 36.0000
L86.9000 36.0000
" />
<path d="M86.5000 36.0000
L85.4000 36.0000
" />
<path d="M85.0000 36.0000
L83.9000 36.0000
" />
<path d="M83.5000 36.0000
L82.4000 36.0000
" />
<path d="M82.0000 36.0000
L80.9000 36.0000
" />
<path d="M80.5000 36.0000
L79.4000 36.0000
" />
<path d="M79.0000 36.0000
L77.9000 36.0000
" />
<path d="M77.5000 36.0000
L76.4000 36.0000
" />
<path d="M76.0000 36.0000
L74.9000 36.0000
" />
<path d="M74.5000 36.0000
L73.4000 36.0000
" />
<path d="M73.0000 36.0000
L71.9000 36.0000
" />
<path d="M71.5000 36.0000
L70.4000 36.0000
" />
<path d="M70.0000 36.0000
L68.9000 36.0000
" />
<path d="M68.5000 36.0000
L67.4000 36.0000
" />
<path d="M67.0000 36.0000
L65.9000 36.0000
" />
<path d="M65.5000 36.0000
L64.4000 36.0000
" />
<path d="M64.0000 36.0000
L62.9000 36.0000
" />
<path d="M62.5000 36.0000
L61.4000 36.0000
" />
<path d="M61.0000 36.0000
L59.9000 36.0000
" />
<path d="M59.5000 36.0000
L58.4000 36.0000
" />
<path d="M58.0000 36.0000
L56.9000 36.0000
" />
<path d="M56.5000 36.0000
L55.4000 36.0000
" />
<path d="M55.0000 36.0000
L53.9000 36.0000
" />
<path d="M53.5000 36.0000
L52.4000 36.0000
" />
<path d="M52.0000 36.0000
L50.9000 36.0000
" />
<path d="M50.5000 36.0000
L49.4000 36.0000
" />
<path d="M49.0000 36.0000
L47.9000 36.0000
" />
<path d="M47.5000 36.0000
L46.4000 36.0000
" />
<path d="M46.0000 36.0000
L44.9000 36.0000
" />
<path d="M44.5000 36.0000
L43.4000 36.0000
" />
<path d="M43.0000 36.0000
L41.9000 36.0000
" />
<path d="M41.5000 36.0000
L40.4000 36.0000
" />
</g>
<g style="fill:#000000; fill-opacity:1.0000; stroke:none;">
<circle cx="40.0000" cy="36.0000" r="0.0500" /> 
</g>
<g style="fill:none; 
stroke:#000000; stroke-width:0.1000; stroke-opacity:1; 
stroke-linecap:round; stroke-linejoin:round;">
<path d="M40.0000 36.0000
L40.0000 37.1000
" />
<path d="M40.0000 37.5000
L40.0000 38.6000
" />
<path d="M40.0000 39.0000
L40.0000 40.1000
" />
<path d="M40.0000 40.5000
L40.0000 41.6000
" />
<path d="M40.0000 42.0000
L40.0000 43.1000
" />
<path d="M40.0000 43.5000
L40.0000 44.6000
" />
<path d="M40.0000 45.0000
L40.0000 46.1000
" />
<path d="M40.0000 46.5000
L40.0000 47.6000
" />
<path d="M40.0000 48.0000
L40.0000 49.1000
" />
<path d="M40.0000 49.5000
L40.0000 50.6000
" />
<path d="M40.0000 51.0000
L40.0000 52.1000
" />
<path d="M40.0000 52.5000
L40.0000 53.6000
" />
<path d="M40.0000 54.0000
L40.0000 55.1000
" />
<path d="M40.0000 55.5000
L40.0000 56.6000
" />
<path d="M40.0000 57.0000
L40.0000 58.1000
" />
<path d="M40.0000 58.5000
L40.0000 59.6000
" />
<path d="M40.0000 60.0000
L40.0000 61.1000
" />
<path d="M40.0000 61.5000
L40.0000 62.6000
" />
<path d="M40.0000 63.0000
L40.0000 64.1000
" />
<path d="M40.0000 64.5000
L40.0000 65.6000
" />
<path d="M40.0000 66.0000
L40.0000 67.1000
" />
<path d="M40.0000 67.5000
L40.0000 68.6000
" />
<path d="M40.0000 69.0000
L40.0000 70.1000
" />
<path d="M40.0000 70.5000
L40.0000 71.6000
" />
<path d="M40.0000 72.0000
L40.0000 73.1000
" />
<path d="M40.0000 73.5000
L40.0000 74.6000
" />
<path d="M40.0000 75.0000
L40.0000 76.1000
" />
<path d="M40.0000 76.5000
L40.0000 77.6000
" />
<path d="M40.0000 78.0000
L40.0000 79.1000
" />
<path d="M40.0000 79.5000
L40.0000 80.6000
" />
<path d="M40.0000 81.0000
L40.0000 82.1000
" />
<path d="M40.0000 82.5000
L40.0000 83.6000
" />
<path d="M40.0000 84.0000
L40.0000 85.1000
" />
<path d="M40.0000 85.5000
L40.0000 86.6000
" />
<path d="M40.0000 87.0000
L40.0000 88.1000
" />
<path d="M40.0000 88.5000
L40.0000 89.6000
" />
<path d="M40.0000 90.0000
L40.0000 91.1000
" />
<path d="M40.0000 91.5000
L40.0000 92.6000
" />
<path d="M40.0000 93.0000
L40.0000 94.1000
" />
<path d="M40.0000 94.5000
L40.0000 95.6000
" />
<path d="M40.0000 96.0000
L40.0000 97.1000
" />
<path d="M40.0000 97.5000
L40.0000 98.6000
" />
<path d="M40.0000 99.0000
L40.0000 100.1000
" />
<path d="M40.0000 100.5000
L40.0000 101.6000
" />
<path d="M40.0000 102.0000
L40.0000 103.1000
" />
<path d="M40.0000 103.5000
L40.0000 104.6000
" />
<path d="M40.0000 105.0000
L40.0000 106.1000
" />
<path d="M40.0000 106.5000
L40.0000 107.6000
" />
<path d="M40.0000 108.0000
L40.0000 109.1000
" />
<path d="M40.0000 109.5000
L40.0000 110.6000
" />
<path d="M40.0000 111.0000
L40.0000 112.1000
" />
<path d="M40.0000 112.5000
L40.0000 113.6000
" />
<path d="M40.0000 114.0000
L40.0000 115.1000
" />
<path d="M40.0000 115.5000
L40.0000 116.6000
" />
<path d="M40.0000 117.0000
L40.0000 118.1000
" />
<path d="M40.0000 118.5000
L40.0000 119.6000
" />
<path d="M40.0000 120.0000
L40.0000 121.1000
" />
<path d="M40.0000 121.5000
L40.0000 122.6000
" />
<path d="M40.0000 123.0000
L40.0000 124.1000
" />
<path d="M40.0000 124.5000
L40.0000 125.6000
" />
<path d="M40.0000 126.0000
L40.0000 127.1000
" />
<path d="M40.0000 127.5000
L40.0000 128.6000
" />
<path d="M40.0000 129.0000
L40.0000 130.1000
" />
<path d="M40.0000 130.5000
L40.0000 131.6000
" />
<path d="M40.0000 132.0000
L40.0000 133.1000
" />
<path d="M40.0000 133.5000
L40.0000 134.6000
" />
<path d="M40.0000 135.0000
L40.0000 136.1000
" />
<path d="M40.0000 136.5000
L40.0000 137.6000
" />
<path d="M40.0000 138.0000
L40.0000 139.1000
" />
<path d="M40.0000 139.5000
L40.0000 140.6000
" />
<path d="M40.0000 141.0000
L40.0000 142.1000
" />
<path d="M40.0000 142.5000
L40.0000 143.6000
" />
<path d="M40.0000 144.0000
L40.0000 145.1000
" />
<path d="M40.0000 145.5000
L40.0000 146.6000
" />
<path d="M40.0000 147.0000
L40.0000 148.1000
" />
<path d="M40.0000 148.5000
L40.0000 149.6000
" />
<path d="M40.0000 150.0000
L40.0000 151.1000
" />
<path d="M40.0000 151.5000
L40.0000 152.6000
" />
<path d="M40.0000 153.0000
L40.0000 154.1000
" />
<path d="M40.0000 154.5000
L40.0000 155.6000
" />
<path d="M40.0000 156.0000
L40.0000 157.1000
" />
<path d="M40.0000 157.5000
L40.0000 158.6000
" />
<path d="M40.0000 159.0000
L40.0000 160.1000
" />
<path d="M40.0000 160.5000
L40.0000 161.6000
" />
<path d="M40.0000 162.0000
L40.0000 163.1000
" />
<path d="M40.0000 163.5000
L40.0000 164.0000
" />
<path style="fill:none; 
stroke:#000000; stroke-width:0.1000; stroke-opacity:1; 
stroke-linecap:round; stroke-linejoin:round;fill:none"
d="M 41.0000,50.0000
159.0000,50.0000
159.0000,150.0000
41.0000,150.0000
Z" /> 
</g> 
</svg>
