G04 #@! TF.GenerationSoftware,KiCad,Pcbnew,7.0.10*
G04 #@! TF.CreationDate,2024-01-22T16:50:30+01:00*
G04 #@! TF.ProjectId,GP1294-Teens4,47503132-3934-42d5-9465-656e73342e6b,1.0.0*
G04 #@! TF.SameCoordinates,Original*
G04 #@! TF.FileFunction,Legend,Top*
G04 #@! TF.FilePolarity,Positive*
%FSLAX46Y46*%
G04 Gerber Fmt 4.6, Leading zero omitted, Abs format (unit mm)*
G04 Created by KiCad (PCBNEW 7.0.10) date 2024-01-22 16:50:30*
%MOMM*%
%LPD*%
G01*
G04 APERTURE LIST*
G04 Aperture macros list*
%AMRoundRect*
0 Rectangle with rounded corners*
0 $1 Rounding radius*
0 $2 $3 $4 $5 $6 $7 $8 $9 X,Y pos of 4 corners*
0 Add a 4 corners polygon primitive as box body*
4,1,4,$2,$3,$4,$5,$6,$7,$8,$9,$2,$3,0*
0 Add four circle primitives for the rounded corners*
1,1,$1+$1,$2,$3*
1,1,$1+$1,$4,$5*
1,1,$1+$1,$6,$7*
1,1,$1+$1,$8,$9*
0 Add four rect primitives between the rounded corners*
20,1,$1+$1,$2,$3,$4,$5,0*
20,1,$1+$1,$4,$5,$6,$7,0*
20,1,$1+$1,$6,$7,$8,$9,0*
20,1,$1+$1,$8,$9,$2,$3,0*%
%AMFreePoly0*
4,1,17,0.328853,0.743121,0.743121,0.328853,0.758000,0.292932,0.758000,-0.292932,0.743121,-0.328853,0.328853,-0.743121,0.292932,-0.758000,-0.292932,-0.758000,-0.328853,-0.743121,-0.743121,-0.328853,-0.758000,-0.292932,-0.758000,0.292932,-0.743121,0.328853,-0.328853,0.743121,-0.292932,0.758000,0.292932,0.758000,0.328853,0.743121,0.328853,0.743121,$1*%
G04 Aperture macros list end*
%ADD10C,0.150000*%
%ADD11C,0.101600*%
%ADD12C,0.127000*%
%ADD13C,0.100000*%
%ADD14C,0.120000*%
%ADD15C,0.203200*%
%ADD16C,1.016000*%
%ADD17C,0.152400*%
%ADD18C,0.050800*%
%ADD19RoundRect,0.200000X0.275000X-0.200000X0.275000X0.200000X-0.275000X0.200000X-0.275000X-0.200000X0*%
%ADD20RoundRect,0.050800X0.800000X0.901500X-0.800000X0.901500X-0.800000X-0.901500X0.800000X-0.901500X0*%
%ADD21RoundRect,0.050800X-0.533400X-1.079500X0.533400X-1.079500X0.533400X1.079500X-0.533400X1.079500X0*%
%ADD22RoundRect,0.050800X-5.400000X-5.205000X5.400000X-5.205000X5.400000X5.205000X-5.400000X5.205000X0*%
%ADD23RoundRect,0.050800X1.925000X2.750000X-1.925000X2.750000X-1.925000X-2.750000X1.925000X-2.750000X0*%
%ADD24O,3.149600X1.625600*%
%ADD25RoundRect,0.050800X1.500000X0.800000X-1.500000X0.800000X-1.500000X-0.800000X1.500000X-0.800000X0*%
%ADD26RoundRect,0.200000X-0.200000X-0.275000X0.200000X-0.275000X0.200000X0.275000X-0.200000X0.275000X0*%
%ADD27R,1.700000X2.500000*%
%ADD28O,1.700000X2.500000*%
%ADD29RoundRect,0.200000X0.200000X0.275000X-0.200000X0.275000X-0.200000X-0.275000X0.200000X-0.275000X0*%
%ADD30RoundRect,0.050800X-0.800000X-0.901500X0.800000X-0.901500X0.800000X0.901500X-0.800000X0.901500X0*%
%ADD31RoundRect,0.050800X0.800000X0.900000X-0.800000X0.900000X-0.800000X-0.900000X0.800000X-0.900000X0*%
%ADD32RoundRect,0.150000X-0.150000X0.725000X-0.150000X-0.725000X0.150000X-0.725000X0.150000X0.725000X0*%
%ADD33RoundRect,0.050800X-1.200000X-1.200000X1.200000X-1.200000X1.200000X1.200000X-1.200000X1.200000X0*%
%ADD34RoundRect,0.050800X-0.800000X-0.900000X0.800000X-0.900000X0.800000X0.900000X-0.800000X0.900000X0*%
%ADD35FreePoly0,270.000000*%
%ADD36RoundRect,0.050800X-0.800000X2.000000X-0.800000X-2.000000X0.800000X-2.000000X0.800000X2.000000X0*%
%ADD37RoundRect,0.050800X-0.600000X-1.350000X0.600000X-1.350000X0.600000X1.350000X-0.600000X1.350000X0*%
%ADD38R,1.600000X1.600000*%
%ADD39O,1.600000X1.600000*%
%ADD40O,4.000000X1.500000*%
%ADD41RoundRect,0.050800X-1.016000X0.330200X-1.016000X-0.330200X1.016000X-0.330200X1.016000X0.330200X0*%
%ADD42RoundRect,0.150000X0.150000X-0.725000X0.150000X0.725000X-0.150000X0.725000X-0.150000X-0.725000X0*%
%ADD43RoundRect,0.050800X-1.100000X0.300000X-1.100000X-0.300000X1.100000X-0.300000X1.100000X0.300000X0*%
%ADD44RoundRect,0.050800X-1.125000X2.250000X-1.125000X-2.250000X1.125000X-2.250000X1.125000X2.250000X0*%
%ADD45R,2.000000X2.000000*%
%ADD46C,2.000000*%
%ADD47R,3.000000X2.500000*%
%ADD48R,1.727200X1.727200*%
%ADD49O,1.727200X1.727200*%
%ADD50C,3.000000*%
%ADD51O,1.500000X2.600000*%
G04 APERTURE END LIST*
D10*
X138216819Y-113355857D02*
X137740628Y-113689190D01*
X138216819Y-113927285D02*
X137216819Y-113927285D01*
X137216819Y-113927285D02*
X137216819Y-113546333D01*
X137216819Y-113546333D02*
X137264438Y-113451095D01*
X137264438Y-113451095D02*
X137312057Y-113403476D01*
X137312057Y-113403476D02*
X137407295Y-113355857D01*
X137407295Y-113355857D02*
X137550152Y-113355857D01*
X137550152Y-113355857D02*
X137645390Y-113403476D01*
X137645390Y-113403476D02*
X137693009Y-113451095D01*
X137693009Y-113451095D02*
X137740628Y-113546333D01*
X137740628Y-113546333D02*
X137740628Y-113927285D01*
X138216819Y-112403476D02*
X138216819Y-112974904D01*
X138216819Y-112689190D02*
X137216819Y-112689190D01*
X137216819Y-112689190D02*
X137359676Y-112784428D01*
X137359676Y-112784428D02*
X137454914Y-112879666D01*
X137454914Y-112879666D02*
X137502533Y-112974904D01*
X137216819Y-111784428D02*
X137216819Y-111689190D01*
X137216819Y-111689190D02*
X137264438Y-111593952D01*
X137264438Y-111593952D02*
X137312057Y-111546333D01*
X137312057Y-111546333D02*
X137407295Y-111498714D01*
X137407295Y-111498714D02*
X137597771Y-111451095D01*
X137597771Y-111451095D02*
X137835866Y-111451095D01*
X137835866Y-111451095D02*
X138026342Y-111498714D01*
X138026342Y-111498714D02*
X138121580Y-111546333D01*
X138121580Y-111546333D02*
X138169200Y-111593952D01*
X138169200Y-111593952D02*
X138216819Y-111689190D01*
X138216819Y-111689190D02*
X138216819Y-111784428D01*
X138216819Y-111784428D02*
X138169200Y-111879666D01*
X138169200Y-111879666D02*
X138121580Y-111927285D01*
X138121580Y-111927285D02*
X138026342Y-111974904D01*
X138026342Y-111974904D02*
X137835866Y-112022523D01*
X137835866Y-112022523D02*
X137597771Y-112022523D01*
X137597771Y-112022523D02*
X137407295Y-111974904D01*
X137407295Y-111974904D02*
X137312057Y-111927285D01*
X137312057Y-111927285D02*
X137264438Y-111879666D01*
X137264438Y-111879666D02*
X137216819Y-111784428D01*
D11*
X189543843Y-80587726D02*
X189154376Y-80031345D01*
X188876186Y-80587726D02*
X188876186Y-79419326D01*
X188876186Y-79419326D02*
X189321291Y-79419326D01*
X189321291Y-79419326D02*
X189432567Y-79474964D01*
X189432567Y-79474964D02*
X189488205Y-79530602D01*
X189488205Y-79530602D02*
X189543843Y-79641878D01*
X189543843Y-79641878D02*
X189543843Y-79808792D01*
X189543843Y-79808792D02*
X189488205Y-79920068D01*
X189488205Y-79920068D02*
X189432567Y-79975707D01*
X189432567Y-79975707D02*
X189321291Y-80031345D01*
X189321291Y-80031345D02*
X188876186Y-80031345D01*
X189933310Y-79419326D02*
X190656605Y-79419326D01*
X190656605Y-79419326D02*
X190267138Y-79864430D01*
X190267138Y-79864430D02*
X190434053Y-79864430D01*
X190434053Y-79864430D02*
X190545329Y-79920068D01*
X190545329Y-79920068D02*
X190600967Y-79975707D01*
X190600967Y-79975707D02*
X190656605Y-80086983D01*
X190656605Y-80086983D02*
X190656605Y-80365173D01*
X190656605Y-80365173D02*
X190600967Y-80476449D01*
X190600967Y-80476449D02*
X190545329Y-80532088D01*
X190545329Y-80532088D02*
X190434053Y-80587726D01*
X190434053Y-80587726D02*
X190100224Y-80587726D01*
X190100224Y-80587726D02*
X189988948Y-80532088D01*
X189988948Y-80532088D02*
X189933310Y-80476449D01*
X225403726Y-89824967D02*
X224235326Y-89824967D01*
X225292449Y-88600929D02*
X225348088Y-88656567D01*
X225348088Y-88656567D02*
X225403726Y-88823481D01*
X225403726Y-88823481D02*
X225403726Y-88934757D01*
X225403726Y-88934757D02*
X225348088Y-89101672D01*
X225348088Y-89101672D02*
X225236811Y-89212948D01*
X225236811Y-89212948D02*
X225125535Y-89268586D01*
X225125535Y-89268586D02*
X224902983Y-89324224D01*
X224902983Y-89324224D02*
X224736068Y-89324224D01*
X224736068Y-89324224D02*
X224513516Y-89268586D01*
X224513516Y-89268586D02*
X224402240Y-89212948D01*
X224402240Y-89212948D02*
X224290964Y-89101672D01*
X224290964Y-89101672D02*
X224235326Y-88934757D01*
X224235326Y-88934757D02*
X224235326Y-88823481D01*
X224235326Y-88823481D02*
X224290964Y-88656567D01*
X224290964Y-88656567D02*
X224346602Y-88600929D01*
X224346602Y-88155824D02*
X224290964Y-88100186D01*
X224290964Y-88100186D02*
X224235326Y-87988910D01*
X224235326Y-87988910D02*
X224235326Y-87710719D01*
X224235326Y-87710719D02*
X224290964Y-87599443D01*
X224290964Y-87599443D02*
X224346602Y-87543805D01*
X224346602Y-87543805D02*
X224457878Y-87488167D01*
X224457878Y-87488167D02*
X224569154Y-87488167D01*
X224569154Y-87488167D02*
X224736068Y-87543805D01*
X224736068Y-87543805D02*
X225403726Y-88211462D01*
X225403726Y-88211462D02*
X225403726Y-87488167D01*
X232095119Y-104705726D02*
X231538738Y-104705726D01*
X231538738Y-104705726D02*
X231538738Y-103537326D01*
X232373310Y-103537326D02*
X233096605Y-103537326D01*
X233096605Y-103537326D02*
X232707138Y-103982430D01*
X232707138Y-103982430D02*
X232874053Y-103982430D01*
X232874053Y-103982430D02*
X232985329Y-104038068D01*
X232985329Y-104038068D02*
X233040967Y-104093707D01*
X233040967Y-104093707D02*
X233096605Y-104204983D01*
X233096605Y-104204983D02*
X233096605Y-104483173D01*
X233096605Y-104483173D02*
X233040967Y-104594449D01*
X233040967Y-104594449D02*
X232985329Y-104650088D01*
X232985329Y-104650088D02*
X232874053Y-104705726D01*
X232874053Y-104705726D02*
X232540224Y-104705726D01*
X232540224Y-104705726D02*
X232428948Y-104650088D01*
X232428948Y-104650088D02*
X232373310Y-104594449D01*
D12*
X65559514Y-71164305D02*
X66484800Y-71164305D01*
X66484800Y-71164305D02*
X66593657Y-71109876D01*
X66593657Y-71109876D02*
X66648086Y-71055448D01*
X66648086Y-71055448D02*
X66702514Y-70946590D01*
X66702514Y-70946590D02*
X66702514Y-70728876D01*
X66702514Y-70728876D02*
X66648086Y-70620019D01*
X66648086Y-70620019D02*
X66593657Y-70565590D01*
X66593657Y-70565590D02*
X66484800Y-70511162D01*
X66484800Y-70511162D02*
X65559514Y-70511162D01*
X66702514Y-69966876D02*
X65559514Y-69966876D01*
X65559514Y-69966876D02*
X66702514Y-69313733D01*
X66702514Y-69313733D02*
X65559514Y-69313733D01*
X66702514Y-68769447D02*
X65559514Y-68769447D01*
X66702514Y-68116304D02*
X66049371Y-68606161D01*
X65559514Y-68116304D02*
X66212657Y-68769447D01*
X65559514Y-67082161D02*
X65559514Y-67626447D01*
X65559514Y-67626447D02*
X66103800Y-67680875D01*
X66103800Y-67680875D02*
X66049371Y-67626447D01*
X66049371Y-67626447D02*
X65994943Y-67517590D01*
X65994943Y-67517590D02*
X65994943Y-67245447D01*
X65994943Y-67245447D02*
X66049371Y-67136590D01*
X66049371Y-67136590D02*
X66103800Y-67082161D01*
X66103800Y-67082161D02*
X66212657Y-67027732D01*
X66212657Y-67027732D02*
X66484800Y-67027732D01*
X66484800Y-67027732D02*
X66593657Y-67082161D01*
X66593657Y-67082161D02*
X66648086Y-67136590D01*
X66648086Y-67136590D02*
X66702514Y-67245447D01*
X66702514Y-67245447D02*
X66702514Y-67517590D01*
X66702514Y-67517590D02*
X66648086Y-67626447D01*
X66648086Y-67626447D02*
X66593657Y-67680875D01*
X65559514Y-66320161D02*
X65559514Y-66211304D01*
X65559514Y-66211304D02*
X65613943Y-66102447D01*
X65613943Y-66102447D02*
X65668371Y-66048019D01*
X65668371Y-66048019D02*
X65777228Y-65993590D01*
X65777228Y-65993590D02*
X65994943Y-65939161D01*
X65994943Y-65939161D02*
X66267086Y-65939161D01*
X66267086Y-65939161D02*
X66484800Y-65993590D01*
X66484800Y-65993590D02*
X66593657Y-66048019D01*
X66593657Y-66048019D02*
X66648086Y-66102447D01*
X66648086Y-66102447D02*
X66702514Y-66211304D01*
X66702514Y-66211304D02*
X66702514Y-66320161D01*
X66702514Y-66320161D02*
X66648086Y-66429019D01*
X66648086Y-66429019D02*
X66593657Y-66483447D01*
X66593657Y-66483447D02*
X66484800Y-66537876D01*
X66484800Y-66537876D02*
X66267086Y-66592304D01*
X66267086Y-66592304D02*
X65994943Y-66592304D01*
X65994943Y-66592304D02*
X65777228Y-66537876D01*
X65777228Y-66537876D02*
X65668371Y-66483447D01*
X65668371Y-66483447D02*
X65613943Y-66429019D01*
X65613943Y-66429019D02*
X65559514Y-66320161D01*
X65559514Y-65612590D02*
X66702514Y-65231590D01*
X66702514Y-65231590D02*
X65559514Y-64850590D01*
X65559514Y-64251876D02*
X65559514Y-64143019D01*
X65559514Y-64143019D02*
X65613943Y-64034162D01*
X65613943Y-64034162D02*
X65668371Y-63979734D01*
X65668371Y-63979734D02*
X65777228Y-63925305D01*
X65777228Y-63925305D02*
X65994943Y-63870876D01*
X65994943Y-63870876D02*
X66267086Y-63870876D01*
X66267086Y-63870876D02*
X66484800Y-63925305D01*
X66484800Y-63925305D02*
X66593657Y-63979734D01*
X66593657Y-63979734D02*
X66648086Y-64034162D01*
X66648086Y-64034162D02*
X66702514Y-64143019D01*
X66702514Y-64143019D02*
X66702514Y-64251876D01*
X66702514Y-64251876D02*
X66648086Y-64360734D01*
X66648086Y-64360734D02*
X66593657Y-64415162D01*
X66593657Y-64415162D02*
X66484800Y-64469591D01*
X66484800Y-64469591D02*
X66267086Y-64524019D01*
X66267086Y-64524019D02*
X65994943Y-64524019D01*
X65994943Y-64524019D02*
X65777228Y-64469591D01*
X65777228Y-64469591D02*
X65668371Y-64415162D01*
X65668371Y-64415162D02*
X65613943Y-64360734D01*
X65613943Y-64360734D02*
X65559514Y-64251876D01*
X68988514Y-71708590D02*
X68988514Y-72361733D01*
X68988514Y-72035162D02*
X67845514Y-72035162D01*
X67845514Y-72035162D02*
X68008800Y-72144019D01*
X68008800Y-72144019D02*
X68117657Y-72252876D01*
X68117657Y-72252876D02*
X68172086Y-72361733D01*
X68226514Y-60260448D02*
X68988514Y-60260448D01*
X67791086Y-60532590D02*
X68607514Y-60804733D01*
X68607514Y-60804733D02*
X68607514Y-60097162D01*
D11*
X208347843Y-86286449D02*
X208292205Y-86342088D01*
X208292205Y-86342088D02*
X208125291Y-86397726D01*
X208125291Y-86397726D02*
X208014015Y-86397726D01*
X208014015Y-86397726D02*
X207847100Y-86342088D01*
X207847100Y-86342088D02*
X207735824Y-86230811D01*
X207735824Y-86230811D02*
X207680186Y-86119535D01*
X207680186Y-86119535D02*
X207624548Y-85896983D01*
X207624548Y-85896983D02*
X207624548Y-85730068D01*
X207624548Y-85730068D02*
X207680186Y-85507516D01*
X207680186Y-85507516D02*
X207735824Y-85396240D01*
X207735824Y-85396240D02*
X207847100Y-85284964D01*
X207847100Y-85284964D02*
X208014015Y-85229326D01*
X208014015Y-85229326D02*
X208125291Y-85229326D01*
X208125291Y-85229326D02*
X208292205Y-85284964D01*
X208292205Y-85284964D02*
X208347843Y-85340602D01*
X209349329Y-85618792D02*
X209349329Y-86397726D01*
X209071138Y-85173688D02*
X208792948Y-86008259D01*
X208792948Y-86008259D02*
X209516243Y-86008259D01*
D10*
X166902333Y-70652819D02*
X166569000Y-70176628D01*
X166330905Y-70652819D02*
X166330905Y-69652819D01*
X166330905Y-69652819D02*
X166711857Y-69652819D01*
X166711857Y-69652819D02*
X166807095Y-69700438D01*
X166807095Y-69700438D02*
X166854714Y-69748057D01*
X166854714Y-69748057D02*
X166902333Y-69843295D01*
X166902333Y-69843295D02*
X166902333Y-69986152D01*
X166902333Y-69986152D02*
X166854714Y-70081390D01*
X166854714Y-70081390D02*
X166807095Y-70129009D01*
X166807095Y-70129009D02*
X166711857Y-70176628D01*
X166711857Y-70176628D02*
X166330905Y-70176628D01*
X167235667Y-69652819D02*
X167902333Y-69652819D01*
X167902333Y-69652819D02*
X167473762Y-70652819D01*
X171746595Y-103407319D02*
X171746595Y-104216842D01*
X171746595Y-104216842D02*
X171794214Y-104312080D01*
X171794214Y-104312080D02*
X171841833Y-104359700D01*
X171841833Y-104359700D02*
X171937071Y-104407319D01*
X171937071Y-104407319D02*
X172127547Y-104407319D01*
X172127547Y-104407319D02*
X172222785Y-104359700D01*
X172222785Y-104359700D02*
X172270404Y-104312080D01*
X172270404Y-104312080D02*
X172318023Y-104216842D01*
X172318023Y-104216842D02*
X172318023Y-103407319D01*
X172698976Y-103407319D02*
X173318023Y-103407319D01*
X173318023Y-103407319D02*
X172984690Y-103788271D01*
X172984690Y-103788271D02*
X173127547Y-103788271D01*
X173127547Y-103788271D02*
X173222785Y-103835890D01*
X173222785Y-103835890D02*
X173270404Y-103883509D01*
X173270404Y-103883509D02*
X173318023Y-103978747D01*
X173318023Y-103978747D02*
X173318023Y-104216842D01*
X173318023Y-104216842D02*
X173270404Y-104312080D01*
X173270404Y-104312080D02*
X173222785Y-104359700D01*
X173222785Y-104359700D02*
X173127547Y-104407319D01*
X173127547Y-104407319D02*
X172841833Y-104407319D01*
X172841833Y-104407319D02*
X172746595Y-104359700D01*
X172746595Y-104359700D02*
X172698976Y-104312080D01*
D11*
X191485843Y-70463726D02*
X191096376Y-69907345D01*
X190818186Y-70463726D02*
X190818186Y-69295326D01*
X190818186Y-69295326D02*
X191263291Y-69295326D01*
X191263291Y-69295326D02*
X191374567Y-69350964D01*
X191374567Y-69350964D02*
X191430205Y-69406602D01*
X191430205Y-69406602D02*
X191485843Y-69517878D01*
X191485843Y-69517878D02*
X191485843Y-69684792D01*
X191485843Y-69684792D02*
X191430205Y-69796068D01*
X191430205Y-69796068D02*
X191374567Y-69851707D01*
X191374567Y-69851707D02*
X191263291Y-69907345D01*
X191263291Y-69907345D02*
X190818186Y-69907345D01*
X192598605Y-70463726D02*
X191930948Y-70463726D01*
X192264776Y-70463726D02*
X192264776Y-69295326D01*
X192264776Y-69295326D02*
X192153500Y-69462240D01*
X192153500Y-69462240D02*
X192042224Y-69573516D01*
X192042224Y-69573516D02*
X191930948Y-69629154D01*
D10*
X175918333Y-70972819D02*
X175585000Y-70496628D01*
X175346905Y-70972819D02*
X175346905Y-69972819D01*
X175346905Y-69972819D02*
X175727857Y-69972819D01*
X175727857Y-69972819D02*
X175823095Y-70020438D01*
X175823095Y-70020438D02*
X175870714Y-70068057D01*
X175870714Y-70068057D02*
X175918333Y-70163295D01*
X175918333Y-70163295D02*
X175918333Y-70306152D01*
X175918333Y-70306152D02*
X175870714Y-70401390D01*
X175870714Y-70401390D02*
X175823095Y-70449009D01*
X175823095Y-70449009D02*
X175727857Y-70496628D01*
X175727857Y-70496628D02*
X175346905Y-70496628D01*
X176489762Y-70401390D02*
X176394524Y-70353771D01*
X176394524Y-70353771D02*
X176346905Y-70306152D01*
X176346905Y-70306152D02*
X176299286Y-70210914D01*
X176299286Y-70210914D02*
X176299286Y-70163295D01*
X176299286Y-70163295D02*
X176346905Y-70068057D01*
X176346905Y-70068057D02*
X176394524Y-70020438D01*
X176394524Y-70020438D02*
X176489762Y-69972819D01*
X176489762Y-69972819D02*
X176680238Y-69972819D01*
X176680238Y-69972819D02*
X176775476Y-70020438D01*
X176775476Y-70020438D02*
X176823095Y-70068057D01*
X176823095Y-70068057D02*
X176870714Y-70163295D01*
X176870714Y-70163295D02*
X176870714Y-70210914D01*
X176870714Y-70210914D02*
X176823095Y-70306152D01*
X176823095Y-70306152D02*
X176775476Y-70353771D01*
X176775476Y-70353771D02*
X176680238Y-70401390D01*
X176680238Y-70401390D02*
X176489762Y-70401390D01*
X176489762Y-70401390D02*
X176394524Y-70449009D01*
X176394524Y-70449009D02*
X176346905Y-70496628D01*
X176346905Y-70496628D02*
X176299286Y-70591866D01*
X176299286Y-70591866D02*
X176299286Y-70782342D01*
X176299286Y-70782342D02*
X176346905Y-70877580D01*
X176346905Y-70877580D02*
X176394524Y-70925200D01*
X176394524Y-70925200D02*
X176489762Y-70972819D01*
X176489762Y-70972819D02*
X176680238Y-70972819D01*
X176680238Y-70972819D02*
X176775476Y-70925200D01*
X176775476Y-70925200D02*
X176823095Y-70877580D01*
X176823095Y-70877580D02*
X176870714Y-70782342D01*
X176870714Y-70782342D02*
X176870714Y-70591866D01*
X176870714Y-70591866D02*
X176823095Y-70496628D01*
X176823095Y-70496628D02*
X176775476Y-70449009D01*
X176775476Y-70449009D02*
X176680238Y-70401390D01*
D11*
X191258689Y-73765726D02*
X190869222Y-73209345D01*
X190591032Y-73765726D02*
X190591032Y-72597326D01*
X190591032Y-72597326D02*
X191036137Y-72597326D01*
X191036137Y-72597326D02*
X191147413Y-72652964D01*
X191147413Y-72652964D02*
X191203051Y-72708602D01*
X191203051Y-72708602D02*
X191258689Y-72819878D01*
X191258689Y-72819878D02*
X191258689Y-72986792D01*
X191258689Y-72986792D02*
X191203051Y-73098068D01*
X191203051Y-73098068D02*
X191147413Y-73153707D01*
X191147413Y-73153707D02*
X191036137Y-73209345D01*
X191036137Y-73209345D02*
X190591032Y-73209345D01*
X191703794Y-72708602D02*
X191759432Y-72652964D01*
X191759432Y-72652964D02*
X191870708Y-72597326D01*
X191870708Y-72597326D02*
X192148899Y-72597326D01*
X192148899Y-72597326D02*
X192260175Y-72652964D01*
X192260175Y-72652964D02*
X192315813Y-72708602D01*
X192315813Y-72708602D02*
X192371451Y-72819878D01*
X192371451Y-72819878D02*
X192371451Y-72931154D01*
X192371451Y-72931154D02*
X192315813Y-73098068D01*
X192315813Y-73098068D02*
X191648156Y-73765726D01*
X191648156Y-73765726D02*
X192371451Y-73765726D01*
D10*
X166965333Y-68112819D02*
X166632000Y-67636628D01*
X166393905Y-68112819D02*
X166393905Y-67112819D01*
X166393905Y-67112819D02*
X166774857Y-67112819D01*
X166774857Y-67112819D02*
X166870095Y-67160438D01*
X166870095Y-67160438D02*
X166917714Y-67208057D01*
X166917714Y-67208057D02*
X166965333Y-67303295D01*
X166965333Y-67303295D02*
X166965333Y-67446152D01*
X166965333Y-67446152D02*
X166917714Y-67541390D01*
X166917714Y-67541390D02*
X166870095Y-67589009D01*
X166870095Y-67589009D02*
X166774857Y-67636628D01*
X166774857Y-67636628D02*
X166393905Y-67636628D01*
X167822476Y-67112819D02*
X167632000Y-67112819D01*
X167632000Y-67112819D02*
X167536762Y-67160438D01*
X167536762Y-67160438D02*
X167489143Y-67208057D01*
X167489143Y-67208057D02*
X167393905Y-67350914D01*
X167393905Y-67350914D02*
X167346286Y-67541390D01*
X167346286Y-67541390D02*
X167346286Y-67922342D01*
X167346286Y-67922342D02*
X167393905Y-68017580D01*
X167393905Y-68017580D02*
X167441524Y-68065200D01*
X167441524Y-68065200D02*
X167536762Y-68112819D01*
X167536762Y-68112819D02*
X167727238Y-68112819D01*
X167727238Y-68112819D02*
X167822476Y-68065200D01*
X167822476Y-68065200D02*
X167870095Y-68017580D01*
X167870095Y-68017580D02*
X167917714Y-67922342D01*
X167917714Y-67922342D02*
X167917714Y-67684247D01*
X167917714Y-67684247D02*
X167870095Y-67589009D01*
X167870095Y-67589009D02*
X167822476Y-67541390D01*
X167822476Y-67541390D02*
X167727238Y-67493771D01*
X167727238Y-67493771D02*
X167536762Y-67493771D01*
X167536762Y-67493771D02*
X167441524Y-67541390D01*
X167441524Y-67541390D02*
X167393905Y-67589009D01*
X167393905Y-67589009D02*
X167346286Y-67684247D01*
D11*
X215236689Y-72749726D02*
X214847222Y-72193345D01*
X214569032Y-72749726D02*
X214569032Y-71581326D01*
X214569032Y-71581326D02*
X215014137Y-71581326D01*
X215014137Y-71581326D02*
X215125413Y-71636964D01*
X215125413Y-71636964D02*
X215181051Y-71692602D01*
X215181051Y-71692602D02*
X215236689Y-71803878D01*
X215236689Y-71803878D02*
X215236689Y-71970792D01*
X215236689Y-71970792D02*
X215181051Y-72082068D01*
X215181051Y-72082068D02*
X215125413Y-72137707D01*
X215125413Y-72137707D02*
X215014137Y-72193345D01*
X215014137Y-72193345D02*
X214569032Y-72193345D01*
X216238175Y-71970792D02*
X216238175Y-72749726D01*
X215959984Y-71525688D02*
X215681794Y-72360259D01*
X215681794Y-72360259D02*
X216405089Y-72360259D01*
X191383843Y-73146449D02*
X191328205Y-73202088D01*
X191328205Y-73202088D02*
X191161291Y-73257726D01*
X191161291Y-73257726D02*
X191050015Y-73257726D01*
X191050015Y-73257726D02*
X190883100Y-73202088D01*
X190883100Y-73202088D02*
X190771824Y-73090811D01*
X190771824Y-73090811D02*
X190716186Y-72979535D01*
X190716186Y-72979535D02*
X190660548Y-72756983D01*
X190660548Y-72756983D02*
X190660548Y-72590068D01*
X190660548Y-72590068D02*
X190716186Y-72367516D01*
X190716186Y-72367516D02*
X190771824Y-72256240D01*
X190771824Y-72256240D02*
X190883100Y-72144964D01*
X190883100Y-72144964D02*
X191050015Y-72089326D01*
X191050015Y-72089326D02*
X191161291Y-72089326D01*
X191161291Y-72089326D02*
X191328205Y-72144964D01*
X191328205Y-72144964D02*
X191383843Y-72200602D01*
X191773310Y-72089326D02*
X192552243Y-72089326D01*
X192552243Y-72089326D02*
X192051500Y-73257726D01*
D10*
X110129819Y-107984904D02*
X110939342Y-107984904D01*
X110939342Y-107984904D02*
X111034580Y-107937285D01*
X111034580Y-107937285D02*
X111082200Y-107889666D01*
X111082200Y-107889666D02*
X111129819Y-107794428D01*
X111129819Y-107794428D02*
X111129819Y-107603952D01*
X111129819Y-107603952D02*
X111082200Y-107508714D01*
X111082200Y-107508714D02*
X111034580Y-107461095D01*
X111034580Y-107461095D02*
X110939342Y-107413476D01*
X110939342Y-107413476D02*
X110129819Y-107413476D01*
X110129819Y-107032523D02*
X110129819Y-106365857D01*
X110129819Y-106365857D02*
X111129819Y-106794428D01*
D11*
X207355032Y-86592726D02*
X207355032Y-85424326D01*
X207355032Y-85424326D02*
X207633222Y-85424326D01*
X207633222Y-85424326D02*
X207800137Y-85479964D01*
X207800137Y-85479964D02*
X207911413Y-85591240D01*
X207911413Y-85591240D02*
X207967051Y-85702516D01*
X207967051Y-85702516D02*
X208022689Y-85925068D01*
X208022689Y-85925068D02*
X208022689Y-86091983D01*
X208022689Y-86091983D02*
X207967051Y-86314535D01*
X207967051Y-86314535D02*
X207911413Y-86425811D01*
X207911413Y-86425811D02*
X207800137Y-86537088D01*
X207800137Y-86537088D02*
X207633222Y-86592726D01*
X207633222Y-86592726D02*
X207355032Y-86592726D01*
X208467794Y-85535602D02*
X208523432Y-85479964D01*
X208523432Y-85479964D02*
X208634708Y-85424326D01*
X208634708Y-85424326D02*
X208912899Y-85424326D01*
X208912899Y-85424326D02*
X209024175Y-85479964D01*
X209024175Y-85479964D02*
X209079813Y-85535602D01*
X209079813Y-85535602D02*
X209135451Y-85646878D01*
X209135451Y-85646878D02*
X209135451Y-85758154D01*
X209135451Y-85758154D02*
X209079813Y-85925068D01*
X209079813Y-85925068D02*
X208412156Y-86592726D01*
X208412156Y-86592726D02*
X209135451Y-86592726D01*
D13*
X58547618Y-154862180D02*
X58499999Y-154909800D01*
X58499999Y-154909800D02*
X58357142Y-154957419D01*
X58357142Y-154957419D02*
X58261904Y-154957419D01*
X58261904Y-154957419D02*
X58119047Y-154909800D01*
X58119047Y-154909800D02*
X58023809Y-154814561D01*
X58023809Y-154814561D02*
X57976190Y-154719323D01*
X57976190Y-154719323D02*
X57928571Y-154528847D01*
X57928571Y-154528847D02*
X57928571Y-154385990D01*
X57928571Y-154385990D02*
X57976190Y-154195514D01*
X57976190Y-154195514D02*
X58023809Y-154100276D01*
X58023809Y-154100276D02*
X58119047Y-154005038D01*
X58119047Y-154005038D02*
X58261904Y-153957419D01*
X58261904Y-153957419D02*
X58357142Y-153957419D01*
X58357142Y-153957419D02*
X58499999Y-154005038D01*
X58499999Y-154005038D02*
X58547618Y-154052657D01*
X59404761Y-154957419D02*
X59404761Y-154433609D01*
X59404761Y-154433609D02*
X59357142Y-154338371D01*
X59357142Y-154338371D02*
X59261904Y-154290752D01*
X59261904Y-154290752D02*
X59071428Y-154290752D01*
X59071428Y-154290752D02*
X58976190Y-154338371D01*
X59404761Y-154909800D02*
X59309523Y-154957419D01*
X59309523Y-154957419D02*
X59071428Y-154957419D01*
X59071428Y-154957419D02*
X58976190Y-154909800D01*
X58976190Y-154909800D02*
X58928571Y-154814561D01*
X58928571Y-154814561D02*
X58928571Y-154719323D01*
X58928571Y-154719323D02*
X58976190Y-154624085D01*
X58976190Y-154624085D02*
X59071428Y-154576466D01*
X59071428Y-154576466D02*
X59309523Y-154576466D01*
X59309523Y-154576466D02*
X59404761Y-154528847D01*
X59833333Y-154909800D02*
X59928571Y-154957419D01*
X59928571Y-154957419D02*
X60119047Y-154957419D01*
X60119047Y-154957419D02*
X60214285Y-154909800D01*
X60214285Y-154909800D02*
X60261904Y-154814561D01*
X60261904Y-154814561D02*
X60261904Y-154766942D01*
X60261904Y-154766942D02*
X60214285Y-154671704D01*
X60214285Y-154671704D02*
X60119047Y-154624085D01*
X60119047Y-154624085D02*
X59976190Y-154624085D01*
X59976190Y-154624085D02*
X59880952Y-154576466D01*
X59880952Y-154576466D02*
X59833333Y-154481228D01*
X59833333Y-154481228D02*
X59833333Y-154433609D01*
X59833333Y-154433609D02*
X59880952Y-154338371D01*
X59880952Y-154338371D02*
X59976190Y-154290752D01*
X59976190Y-154290752D02*
X60119047Y-154290752D01*
X60119047Y-154290752D02*
X60214285Y-154338371D01*
X61071428Y-154909800D02*
X60976190Y-154957419D01*
X60976190Y-154957419D02*
X60785714Y-154957419D01*
X60785714Y-154957419D02*
X60690476Y-154909800D01*
X60690476Y-154909800D02*
X60642857Y-154814561D01*
X60642857Y-154814561D02*
X60642857Y-154433609D01*
X60642857Y-154433609D02*
X60690476Y-154338371D01*
X60690476Y-154338371D02*
X60785714Y-154290752D01*
X60785714Y-154290752D02*
X60976190Y-154290752D01*
X60976190Y-154290752D02*
X61071428Y-154338371D01*
X61071428Y-154338371D02*
X61119047Y-154433609D01*
X61119047Y-154433609D02*
X61119047Y-154528847D01*
X61119047Y-154528847D02*
X60642857Y-154624085D01*
X62071428Y-154957419D02*
X61500000Y-154957419D01*
X61785714Y-154957419D02*
X61785714Y-153957419D01*
X61785714Y-153957419D02*
X61690476Y-154100276D01*
X61690476Y-154100276D02*
X61595238Y-154195514D01*
X61595238Y-154195514D02*
X61500000Y-154243133D01*
D11*
X197805043Y-125262249D02*
X197749405Y-125317888D01*
X197749405Y-125317888D02*
X197582491Y-125373526D01*
X197582491Y-125373526D02*
X197471215Y-125373526D01*
X197471215Y-125373526D02*
X197304300Y-125317888D01*
X197304300Y-125317888D02*
X197193024Y-125206611D01*
X197193024Y-125206611D02*
X197137386Y-125095335D01*
X197137386Y-125095335D02*
X197081748Y-124872783D01*
X197081748Y-124872783D02*
X197081748Y-124705868D01*
X197081748Y-124705868D02*
X197137386Y-124483316D01*
X197137386Y-124483316D02*
X197193024Y-124372040D01*
X197193024Y-124372040D02*
X197304300Y-124260764D01*
X197304300Y-124260764D02*
X197471215Y-124205126D01*
X197471215Y-124205126D02*
X197582491Y-124205126D01*
X197582491Y-124205126D02*
X197749405Y-124260764D01*
X197749405Y-124260764D02*
X197805043Y-124316402D01*
X198472700Y-124705868D02*
X198361424Y-124650230D01*
X198361424Y-124650230D02*
X198305786Y-124594592D01*
X198305786Y-124594592D02*
X198250148Y-124483316D01*
X198250148Y-124483316D02*
X198250148Y-124427678D01*
X198250148Y-124427678D02*
X198305786Y-124316402D01*
X198305786Y-124316402D02*
X198361424Y-124260764D01*
X198361424Y-124260764D02*
X198472700Y-124205126D01*
X198472700Y-124205126D02*
X198695253Y-124205126D01*
X198695253Y-124205126D02*
X198806529Y-124260764D01*
X198806529Y-124260764D02*
X198862167Y-124316402D01*
X198862167Y-124316402D02*
X198917805Y-124427678D01*
X198917805Y-124427678D02*
X198917805Y-124483316D01*
X198917805Y-124483316D02*
X198862167Y-124594592D01*
X198862167Y-124594592D02*
X198806529Y-124650230D01*
X198806529Y-124650230D02*
X198695253Y-124705868D01*
X198695253Y-124705868D02*
X198472700Y-124705868D01*
X198472700Y-124705868D02*
X198361424Y-124761507D01*
X198361424Y-124761507D02*
X198305786Y-124817145D01*
X198305786Y-124817145D02*
X198250148Y-124928421D01*
X198250148Y-124928421D02*
X198250148Y-125150973D01*
X198250148Y-125150973D02*
X198305786Y-125262249D01*
X198305786Y-125262249D02*
X198361424Y-125317888D01*
X198361424Y-125317888D02*
X198472700Y-125373526D01*
X198472700Y-125373526D02*
X198695253Y-125373526D01*
X198695253Y-125373526D02*
X198806529Y-125317888D01*
X198806529Y-125317888D02*
X198862167Y-125262249D01*
X198862167Y-125262249D02*
X198917805Y-125150973D01*
X198917805Y-125150973D02*
X198917805Y-124928421D01*
X198917805Y-124928421D02*
X198862167Y-124817145D01*
X198862167Y-124817145D02*
X198806529Y-124761507D01*
X198806529Y-124761507D02*
X198695253Y-124705868D01*
X201543843Y-63240449D02*
X201488205Y-63296088D01*
X201488205Y-63296088D02*
X201321291Y-63351726D01*
X201321291Y-63351726D02*
X201210015Y-63351726D01*
X201210015Y-63351726D02*
X201043100Y-63296088D01*
X201043100Y-63296088D02*
X200931824Y-63184811D01*
X200931824Y-63184811D02*
X200876186Y-63073535D01*
X200876186Y-63073535D02*
X200820548Y-62850983D01*
X200820548Y-62850983D02*
X200820548Y-62684068D01*
X200820548Y-62684068D02*
X200876186Y-62461516D01*
X200876186Y-62461516D02*
X200931824Y-62350240D01*
X200931824Y-62350240D02*
X201043100Y-62238964D01*
X201043100Y-62238964D02*
X201210015Y-62183326D01*
X201210015Y-62183326D02*
X201321291Y-62183326D01*
X201321291Y-62183326D02*
X201488205Y-62238964D01*
X201488205Y-62238964D02*
X201543843Y-62294602D01*
X201988948Y-62294602D02*
X202044586Y-62238964D01*
X202044586Y-62238964D02*
X202155862Y-62183326D01*
X202155862Y-62183326D02*
X202434053Y-62183326D01*
X202434053Y-62183326D02*
X202545329Y-62238964D01*
X202545329Y-62238964D02*
X202600967Y-62294602D01*
X202600967Y-62294602D02*
X202656605Y-62405878D01*
X202656605Y-62405878D02*
X202656605Y-62517154D01*
X202656605Y-62517154D02*
X202600967Y-62684068D01*
X202600967Y-62684068D02*
X201933310Y-63351726D01*
X201933310Y-63351726D02*
X202656605Y-63351726D01*
X170430689Y-98546449D02*
X170375051Y-98602088D01*
X170375051Y-98602088D02*
X170208137Y-98657726D01*
X170208137Y-98657726D02*
X170096861Y-98657726D01*
X170096861Y-98657726D02*
X169929946Y-98602088D01*
X169929946Y-98602088D02*
X169818670Y-98490811D01*
X169818670Y-98490811D02*
X169763032Y-98379535D01*
X169763032Y-98379535D02*
X169707394Y-98156983D01*
X169707394Y-98156983D02*
X169707394Y-97990068D01*
X169707394Y-97990068D02*
X169763032Y-97767516D01*
X169763032Y-97767516D02*
X169818670Y-97656240D01*
X169818670Y-97656240D02*
X169929946Y-97544964D01*
X169929946Y-97544964D02*
X170096861Y-97489326D01*
X170096861Y-97489326D02*
X170208137Y-97489326D01*
X170208137Y-97489326D02*
X170375051Y-97544964D01*
X170375051Y-97544964D02*
X170430689Y-97600602D01*
X171487813Y-97489326D02*
X170931432Y-97489326D01*
X170931432Y-97489326D02*
X170875794Y-98045707D01*
X170875794Y-98045707D02*
X170931432Y-97990068D01*
X170931432Y-97990068D02*
X171042708Y-97934430D01*
X171042708Y-97934430D02*
X171320899Y-97934430D01*
X171320899Y-97934430D02*
X171432175Y-97990068D01*
X171432175Y-97990068D02*
X171487813Y-98045707D01*
X171487813Y-98045707D02*
X171543451Y-98156983D01*
X171543451Y-98156983D02*
X171543451Y-98435173D01*
X171543451Y-98435173D02*
X171487813Y-98546449D01*
X171487813Y-98546449D02*
X171432175Y-98602088D01*
X171432175Y-98602088D02*
X171320899Y-98657726D01*
X171320899Y-98657726D02*
X171042708Y-98657726D01*
X171042708Y-98657726D02*
X170931432Y-98602088D01*
X170931432Y-98602088D02*
X170875794Y-98546449D01*
D12*
X231516514Y-60059837D02*
X230972228Y-60440837D01*
X231516514Y-60712980D02*
X230373514Y-60712980D01*
X230373514Y-60712980D02*
X230373514Y-60277551D01*
X230373514Y-60277551D02*
X230427943Y-60168694D01*
X230427943Y-60168694D02*
X230482371Y-60114265D01*
X230482371Y-60114265D02*
X230591228Y-60059837D01*
X230591228Y-60059837D02*
X230754514Y-60059837D01*
X230754514Y-60059837D02*
X230863371Y-60114265D01*
X230863371Y-60114265D02*
X230917800Y-60168694D01*
X230917800Y-60168694D02*
X230972228Y-60277551D01*
X230972228Y-60277551D02*
X230972228Y-60712980D01*
X230373514Y-59025694D02*
X230373514Y-59569980D01*
X230373514Y-59569980D02*
X230917800Y-59624408D01*
X230917800Y-59624408D02*
X230863371Y-59569980D01*
X230863371Y-59569980D02*
X230808943Y-59461123D01*
X230808943Y-59461123D02*
X230808943Y-59188980D01*
X230808943Y-59188980D02*
X230863371Y-59080123D01*
X230863371Y-59080123D02*
X230917800Y-59025694D01*
X230917800Y-59025694D02*
X231026657Y-58971265D01*
X231026657Y-58971265D02*
X231298800Y-58971265D01*
X231298800Y-58971265D02*
X231407657Y-59025694D01*
X231407657Y-59025694D02*
X231462086Y-59080123D01*
X231462086Y-59080123D02*
X231516514Y-59188980D01*
X231516514Y-59188980D02*
X231516514Y-59461123D01*
X231516514Y-59461123D02*
X231462086Y-59569980D01*
X231462086Y-59569980D02*
X231407657Y-59624408D01*
D11*
X136858449Y-139098156D02*
X136914088Y-139153794D01*
X136914088Y-139153794D02*
X136969726Y-139320708D01*
X136969726Y-139320708D02*
X136969726Y-139431984D01*
X136969726Y-139431984D02*
X136914088Y-139598899D01*
X136914088Y-139598899D02*
X136802811Y-139710175D01*
X136802811Y-139710175D02*
X136691535Y-139765813D01*
X136691535Y-139765813D02*
X136468983Y-139821451D01*
X136468983Y-139821451D02*
X136302068Y-139821451D01*
X136302068Y-139821451D02*
X136079516Y-139765813D01*
X136079516Y-139765813D02*
X135968240Y-139710175D01*
X135968240Y-139710175D02*
X135856964Y-139598899D01*
X135856964Y-139598899D02*
X135801326Y-139431984D01*
X135801326Y-139431984D02*
X135801326Y-139320708D01*
X135801326Y-139320708D02*
X135856964Y-139153794D01*
X135856964Y-139153794D02*
X135912602Y-139098156D01*
X135801326Y-138708689D02*
X135801326Y-137985394D01*
X135801326Y-137985394D02*
X136246430Y-138374861D01*
X136246430Y-138374861D02*
X136246430Y-138207946D01*
X136246430Y-138207946D02*
X136302068Y-138096670D01*
X136302068Y-138096670D02*
X136357707Y-138041032D01*
X136357707Y-138041032D02*
X136468983Y-137985394D01*
X136468983Y-137985394D02*
X136747173Y-137985394D01*
X136747173Y-137985394D02*
X136858449Y-138041032D01*
X136858449Y-138041032D02*
X136914088Y-138096670D01*
X136914088Y-138096670D02*
X136969726Y-138207946D01*
X136969726Y-138207946D02*
X136969726Y-138541775D01*
X136969726Y-138541775D02*
X136914088Y-138653051D01*
X136914088Y-138653051D02*
X136858449Y-138708689D01*
X195162413Y-87000726D02*
X194606032Y-87000726D01*
X194606032Y-87000726D02*
X194606032Y-85832326D01*
X196163899Y-87000726D02*
X195496242Y-87000726D01*
X195830070Y-87000726D02*
X195830070Y-85832326D01*
X195830070Y-85832326D02*
X195718794Y-85999240D01*
X195718794Y-85999240D02*
X195607518Y-86110516D01*
X195607518Y-86110516D02*
X195496242Y-86166154D01*
D13*
X163086095Y-50285419D02*
X163086095Y-51094942D01*
X163086095Y-51094942D02*
X163133714Y-51190180D01*
X163133714Y-51190180D02*
X163181333Y-51237800D01*
X163181333Y-51237800D02*
X163276571Y-51285419D01*
X163276571Y-51285419D02*
X163467047Y-51285419D01*
X163467047Y-51285419D02*
X163562285Y-51237800D01*
X163562285Y-51237800D02*
X163609904Y-51190180D01*
X163609904Y-51190180D02*
X163657523Y-51094942D01*
X163657523Y-51094942D02*
X163657523Y-50285419D01*
X164086095Y-50380657D02*
X164133714Y-50333038D01*
X164133714Y-50333038D02*
X164228952Y-50285419D01*
X164228952Y-50285419D02*
X164467047Y-50285419D01*
X164467047Y-50285419D02*
X164562285Y-50333038D01*
X164562285Y-50333038D02*
X164609904Y-50380657D01*
X164609904Y-50380657D02*
X164657523Y-50475895D01*
X164657523Y-50475895D02*
X164657523Y-50571133D01*
X164657523Y-50571133D02*
X164609904Y-50713990D01*
X164609904Y-50713990D02*
X164038476Y-51285419D01*
X164038476Y-51285419D02*
X164657523Y-51285419D01*
D12*
X200126694Y-65385514D02*
X200126694Y-64242514D01*
X201324123Y-65276657D02*
X201269695Y-65331086D01*
X201269695Y-65331086D02*
X201106409Y-65385514D01*
X201106409Y-65385514D02*
X200997552Y-65385514D01*
X200997552Y-65385514D02*
X200834266Y-65331086D01*
X200834266Y-65331086D02*
X200725409Y-65222228D01*
X200725409Y-65222228D02*
X200670980Y-65113371D01*
X200670980Y-65113371D02*
X200616552Y-64895657D01*
X200616552Y-64895657D02*
X200616552Y-64732371D01*
X200616552Y-64732371D02*
X200670980Y-64514657D01*
X200670980Y-64514657D02*
X200725409Y-64405800D01*
X200725409Y-64405800D02*
X200834266Y-64296943D01*
X200834266Y-64296943D02*
X200997552Y-64242514D01*
X200997552Y-64242514D02*
X201106409Y-64242514D01*
X201106409Y-64242514D02*
X201269695Y-64296943D01*
X201269695Y-64296943D02*
X201324123Y-64351371D01*
X202412695Y-65385514D02*
X201759552Y-65385514D01*
X202086123Y-65385514D02*
X202086123Y-64242514D01*
X202086123Y-64242514D02*
X201977266Y-64405800D01*
X201977266Y-64405800D02*
X201868409Y-64514657D01*
X201868409Y-64514657D02*
X201759552Y-64569086D01*
D10*
X174021819Y-144814904D02*
X174831342Y-144814904D01*
X174831342Y-144814904D02*
X174926580Y-144767285D01*
X174926580Y-144767285D02*
X174974200Y-144719666D01*
X174974200Y-144719666D02*
X175021819Y-144624428D01*
X175021819Y-144624428D02*
X175021819Y-144433952D01*
X175021819Y-144433952D02*
X174974200Y-144338714D01*
X174974200Y-144338714D02*
X174926580Y-144291095D01*
X174926580Y-144291095D02*
X174831342Y-144243476D01*
X174831342Y-144243476D02*
X174021819Y-144243476D01*
X174021819Y-143338714D02*
X174021819Y-143529190D01*
X174021819Y-143529190D02*
X174069438Y-143624428D01*
X174069438Y-143624428D02*
X174117057Y-143672047D01*
X174117057Y-143672047D02*
X174259914Y-143767285D01*
X174259914Y-143767285D02*
X174450390Y-143814904D01*
X174450390Y-143814904D02*
X174831342Y-143814904D01*
X174831342Y-143814904D02*
X174926580Y-143767285D01*
X174926580Y-143767285D02*
X174974200Y-143719666D01*
X174974200Y-143719666D02*
X175021819Y-143624428D01*
X175021819Y-143624428D02*
X175021819Y-143433952D01*
X175021819Y-143433952D02*
X174974200Y-143338714D01*
X174974200Y-143338714D02*
X174926580Y-143291095D01*
X174926580Y-143291095D02*
X174831342Y-143243476D01*
X174831342Y-143243476D02*
X174593247Y-143243476D01*
X174593247Y-143243476D02*
X174498009Y-143291095D01*
X174498009Y-143291095D02*
X174450390Y-143338714D01*
X174450390Y-143338714D02*
X174402771Y-143433952D01*
X174402771Y-143433952D02*
X174402771Y-143624428D01*
X174402771Y-143624428D02*
X174450390Y-143719666D01*
X174450390Y-143719666D02*
X174498009Y-143767285D01*
X174498009Y-143767285D02*
X174593247Y-143814904D01*
D11*
X213832032Y-65002726D02*
X213832032Y-63834326D01*
X215056070Y-64891449D02*
X215000432Y-64947088D01*
X215000432Y-64947088D02*
X214833518Y-65002726D01*
X214833518Y-65002726D02*
X214722242Y-65002726D01*
X214722242Y-65002726D02*
X214555327Y-64947088D01*
X214555327Y-64947088D02*
X214444051Y-64835811D01*
X214444051Y-64835811D02*
X214388413Y-64724535D01*
X214388413Y-64724535D02*
X214332775Y-64501983D01*
X214332775Y-64501983D02*
X214332775Y-64335068D01*
X214332775Y-64335068D02*
X214388413Y-64112516D01*
X214388413Y-64112516D02*
X214444051Y-64001240D01*
X214444051Y-64001240D02*
X214555327Y-63889964D01*
X214555327Y-63889964D02*
X214722242Y-63834326D01*
X214722242Y-63834326D02*
X214833518Y-63834326D01*
X214833518Y-63834326D02*
X215000432Y-63889964D01*
X215000432Y-63889964D02*
X215056070Y-63945602D01*
X215445537Y-63834326D02*
X216168832Y-63834326D01*
X216168832Y-63834326D02*
X215779365Y-64279430D01*
X215779365Y-64279430D02*
X215946280Y-64279430D01*
X215946280Y-64279430D02*
X216057556Y-64335068D01*
X216057556Y-64335068D02*
X216113194Y-64390707D01*
X216113194Y-64390707D02*
X216168832Y-64501983D01*
X216168832Y-64501983D02*
X216168832Y-64780173D01*
X216168832Y-64780173D02*
X216113194Y-64891449D01*
X216113194Y-64891449D02*
X216057556Y-64947088D01*
X216057556Y-64947088D02*
X215946280Y-65002726D01*
X215946280Y-65002726D02*
X215612451Y-65002726D01*
X215612451Y-65002726D02*
X215501175Y-64947088D01*
X215501175Y-64947088D02*
X215445537Y-64891449D01*
X194912413Y-100389726D02*
X194356032Y-100389726D01*
X194356032Y-100389726D02*
X194356032Y-99221326D01*
X195246242Y-99332602D02*
X195301880Y-99276964D01*
X195301880Y-99276964D02*
X195413156Y-99221326D01*
X195413156Y-99221326D02*
X195691347Y-99221326D01*
X195691347Y-99221326D02*
X195802623Y-99276964D01*
X195802623Y-99276964D02*
X195858261Y-99332602D01*
X195858261Y-99332602D02*
X195913899Y-99443878D01*
X195913899Y-99443878D02*
X195913899Y-99555154D01*
X195913899Y-99555154D02*
X195858261Y-99722068D01*
X195858261Y-99722068D02*
X195190604Y-100389726D01*
X195190604Y-100389726D02*
X195913899Y-100389726D01*
X194360032Y-81258726D02*
X194360032Y-80090326D01*
X194360032Y-80090326D02*
X194638222Y-80090326D01*
X194638222Y-80090326D02*
X194805137Y-80145964D01*
X194805137Y-80145964D02*
X194916413Y-80257240D01*
X194916413Y-80257240D02*
X194972051Y-80368516D01*
X194972051Y-80368516D02*
X195027689Y-80591068D01*
X195027689Y-80591068D02*
X195027689Y-80757983D01*
X195027689Y-80757983D02*
X194972051Y-80980535D01*
X194972051Y-80980535D02*
X194916413Y-81091811D01*
X194916413Y-81091811D02*
X194805137Y-81203088D01*
X194805137Y-81203088D02*
X194638222Y-81258726D01*
X194638222Y-81258726D02*
X194360032Y-81258726D01*
X196140451Y-81258726D02*
X195472794Y-81258726D01*
X195806622Y-81258726D02*
X195806622Y-80090326D01*
X195806622Y-80090326D02*
X195695346Y-80257240D01*
X195695346Y-80257240D02*
X195584070Y-80368516D01*
X195584070Y-80368516D02*
X195472794Y-80424154D01*
X191507843Y-67304449D02*
X191452205Y-67360088D01*
X191452205Y-67360088D02*
X191285291Y-67415726D01*
X191285291Y-67415726D02*
X191174015Y-67415726D01*
X191174015Y-67415726D02*
X191007100Y-67360088D01*
X191007100Y-67360088D02*
X190895824Y-67248811D01*
X190895824Y-67248811D02*
X190840186Y-67137535D01*
X190840186Y-67137535D02*
X190784548Y-66914983D01*
X190784548Y-66914983D02*
X190784548Y-66748068D01*
X190784548Y-66748068D02*
X190840186Y-66525516D01*
X190840186Y-66525516D02*
X190895824Y-66414240D01*
X190895824Y-66414240D02*
X191007100Y-66302964D01*
X191007100Y-66302964D02*
X191174015Y-66247326D01*
X191174015Y-66247326D02*
X191285291Y-66247326D01*
X191285291Y-66247326D02*
X191452205Y-66302964D01*
X191452205Y-66302964D02*
X191507843Y-66358602D01*
X192620605Y-67415726D02*
X191952948Y-67415726D01*
X192286776Y-67415726D02*
X192286776Y-66247326D01*
X192286776Y-66247326D02*
X192175500Y-66414240D01*
X192175500Y-66414240D02*
X192064224Y-66525516D01*
X192064224Y-66525516D02*
X191952948Y-66581154D01*
D10*
X175855333Y-73512819D02*
X175522000Y-73036628D01*
X175283905Y-73512819D02*
X175283905Y-72512819D01*
X175283905Y-72512819D02*
X175664857Y-72512819D01*
X175664857Y-72512819D02*
X175760095Y-72560438D01*
X175760095Y-72560438D02*
X175807714Y-72608057D01*
X175807714Y-72608057D02*
X175855333Y-72703295D01*
X175855333Y-72703295D02*
X175855333Y-72846152D01*
X175855333Y-72846152D02*
X175807714Y-72941390D01*
X175807714Y-72941390D02*
X175760095Y-72989009D01*
X175760095Y-72989009D02*
X175664857Y-73036628D01*
X175664857Y-73036628D02*
X175283905Y-73036628D01*
X176331524Y-73512819D02*
X176522000Y-73512819D01*
X176522000Y-73512819D02*
X176617238Y-73465200D01*
X176617238Y-73465200D02*
X176664857Y-73417580D01*
X176664857Y-73417580D02*
X176760095Y-73274723D01*
X176760095Y-73274723D02*
X176807714Y-73084247D01*
X176807714Y-73084247D02*
X176807714Y-72703295D01*
X176807714Y-72703295D02*
X176760095Y-72608057D01*
X176760095Y-72608057D02*
X176712476Y-72560438D01*
X176712476Y-72560438D02*
X176617238Y-72512819D01*
X176617238Y-72512819D02*
X176426762Y-72512819D01*
X176426762Y-72512819D02*
X176331524Y-72560438D01*
X176331524Y-72560438D02*
X176283905Y-72608057D01*
X176283905Y-72608057D02*
X176236286Y-72703295D01*
X176236286Y-72703295D02*
X176236286Y-72941390D01*
X176236286Y-72941390D02*
X176283905Y-73036628D01*
X176283905Y-73036628D02*
X176331524Y-73084247D01*
X176331524Y-73084247D02*
X176426762Y-73131866D01*
X176426762Y-73131866D02*
X176617238Y-73131866D01*
X176617238Y-73131866D02*
X176712476Y-73084247D01*
X176712476Y-73084247D02*
X176760095Y-73036628D01*
X176760095Y-73036628D02*
X176807714Y-72941390D01*
D14*
X139714500Y-112950258D02*
X139714500Y-112475742D01*
X138669500Y-112950258D02*
X138669500Y-112475742D01*
D15*
X236234000Y-87462000D02*
X226046000Y-87462000D01*
G36*
X228219000Y-89052400D02*
G01*
X227253800Y-89052400D01*
X227253800Y-87376000D01*
X228219000Y-87376000D01*
X228219000Y-89052400D01*
G37*
G36*
X229920800Y-89052400D02*
G01*
X228955600Y-89052400D01*
X228955600Y-87376000D01*
X229920800Y-87376000D01*
X229920800Y-89052400D01*
G37*
G36*
X231622600Y-89052400D02*
G01*
X230657400Y-89052400D01*
X230657400Y-87376000D01*
X231622600Y-87376000D01*
X231622600Y-89052400D01*
G37*
G36*
X233324400Y-89052400D02*
G01*
X232359200Y-89052400D01*
X232359200Y-87376000D01*
X233324400Y-87376000D01*
X233324400Y-89052400D01*
G37*
G36*
X235026200Y-89052400D02*
G01*
X234061000Y-89052400D01*
X234061000Y-87376000D01*
X235026200Y-87376000D01*
X235026200Y-89052400D01*
G37*
X237386000Y-108354000D02*
X224361000Y-108354000D01*
X237386000Y-95354000D02*
X237386000Y-108354000D01*
X224361000Y-108354000D02*
X224361000Y-95354000D01*
X224361000Y-95354000D02*
X237386000Y-95354000D01*
X230886000Y-107753999D02*
G75*
G03*
X235836000Y-105079000I9410J5899993D01*
G01*
D16*
X234686601Y-106397098D02*
G75*
G03*
X235411400Y-105637001I436499J309390D01*
G01*
X235429098Y-98053399D02*
G75*
G03*
X234669001Y-97328600I-309390J436499D01*
G01*
D15*
X225986000Y-105129000D02*
G75*
G03*
X230886000Y-107753999I4907590J3275002D01*
G01*
X235785999Y-98579001D02*
G75*
G03*
X230886000Y-95954001I-4907589J-3274999D01*
G01*
D16*
X226342908Y-105654610D02*
G75*
G03*
X227102999Y-106379400I309392J-436490D01*
G01*
X227085402Y-97310900D02*
G75*
G03*
X226360600Y-98071000I-436502J-309390D01*
G01*
D15*
X230886000Y-95954001D02*
G75*
G03*
X225936000Y-98629000I-9410J-5899993D01*
G01*
D17*
X67865000Y-71520000D02*
X69135000Y-71520000D01*
X69135000Y-71520000D02*
X69770000Y-70885000D01*
X67230000Y-70885000D02*
X67865000Y-71520000D01*
X67230000Y-70885000D02*
X67230000Y-69615000D01*
X67230000Y-69615000D02*
X67865000Y-68980000D01*
X69770000Y-69615000D02*
X69770000Y-70885000D01*
X67865000Y-68980000D02*
X67230000Y-68345000D01*
X69135000Y-68980000D02*
X69770000Y-69615000D01*
X67230000Y-68345000D02*
X67230000Y-67075000D01*
X69770000Y-68345000D02*
X69135000Y-68980000D01*
X67230000Y-67075000D02*
X67865000Y-66440000D01*
X69770000Y-67075000D02*
X69770000Y-68345000D01*
X67865000Y-66440000D02*
X67230000Y-65805000D01*
X69135000Y-66440000D02*
X69770000Y-67075000D01*
X67230000Y-65805000D02*
X67230000Y-64535000D01*
X69770000Y-65805000D02*
X69135000Y-66440000D01*
X67230000Y-64535000D02*
X67865000Y-63900000D01*
X69770000Y-64535000D02*
X69770000Y-65805000D01*
X69135000Y-63900000D02*
X69770000Y-64535000D01*
X69135000Y-63900000D02*
X69770000Y-63265000D01*
X67230000Y-63265000D02*
X67865000Y-63900000D01*
X67230000Y-63265000D02*
X67230000Y-61995000D01*
X67230000Y-61995000D02*
X67865000Y-61360000D01*
X69770000Y-61995000D02*
X69770000Y-63265000D01*
X67865000Y-61360000D02*
X69135000Y-61360000D01*
X69135000Y-61360000D02*
X69770000Y-61995000D01*
D15*
X209660000Y-86216000D02*
X205260000Y-86216000D01*
X209660000Y-84666000D02*
X209660000Y-86216000D01*
X209660000Y-80916000D02*
X209660000Y-82466000D01*
X205260000Y-86216000D02*
X204360000Y-85316000D01*
X205260000Y-80916000D02*
X209660000Y-80916000D01*
X204360000Y-85316000D02*
X204360000Y-84666000D01*
X204360000Y-82466000D02*
X204360000Y-81816000D01*
X204360000Y-81816000D02*
X205260000Y-80916000D01*
X204810001Y-84516000D02*
G75*
G03*
X209209999Y-84516000I2199999J950001D01*
G01*
X209209999Y-82616000D02*
G75*
G03*
X204810001Y-82616000I-2199999J-950001D01*
G01*
D14*
X166831742Y-71105500D02*
X167306258Y-71105500D01*
X166831742Y-72150500D02*
X167306258Y-72150500D01*
X166458500Y-104712500D02*
X167698500Y-104712500D01*
X166458500Y-105952500D02*
X166458500Y-104712500D01*
X166698500Y-104952500D02*
X166698500Y-113572500D01*
X166698500Y-104952500D02*
X178318500Y-104952500D01*
X166698500Y-113572500D02*
X178318500Y-113572500D01*
X178318500Y-104952500D02*
X178318500Y-113572500D01*
X176322258Y-69610500D02*
X175847742Y-69610500D01*
X176322258Y-68565500D02*
X175847742Y-68565500D01*
X166894742Y-68565500D02*
X167369258Y-68565500D01*
X166894742Y-69610500D02*
X167369258Y-69610500D01*
X109835000Y-107223000D02*
X109835000Y-103773000D01*
X109835000Y-107223000D02*
X109835000Y-109173000D01*
X99715000Y-107223000D02*
X99715000Y-105273000D01*
X99715000Y-107223000D02*
X99715000Y-109173000D01*
D11*
X204749400Y-86741000D02*
X209270600Y-86741000D01*
X204749400Y-90551000D02*
X209270600Y-90551000D01*
D15*
X206180000Y-88646000D02*
X207203000Y-89646000D01*
X207203000Y-87646000D02*
X206180000Y-88646000D01*
X207203000Y-89646000D02*
X207203000Y-87646000D01*
D13*
X60000000Y-155000000D02*
X240000000Y-155000000D01*
X240000000Y-155000000D02*
X240000000Y-45000000D01*
X240000000Y-45000000D02*
X60000000Y-45000000D01*
X60000000Y-45000000D02*
X60000000Y-155000000D01*
X64000000Y-155000000D02*
G75*
G03*
X60000000Y-151000000I-4000000J0D01*
G01*
X60000000Y-49000000D02*
G75*
G03*
X64000000Y-45000000I0J4000000D01*
G01*
X154000000Y-155000000D02*
G75*
G03*
X146000000Y-155000000I-4000000J0D01*
G01*
X146000000Y-45000000D02*
G75*
G03*
X154000000Y-45000000I4000000J0D01*
G01*
X240000000Y-151000000D02*
G75*
G03*
X236000000Y-155000000I0J-4000000D01*
G01*
X236000000Y-45000000D02*
G75*
G03*
X240000000Y-49000000I4000000J0D01*
G01*
D15*
X209406000Y-100186000D02*
X205006000Y-100186000D01*
X209406000Y-98636000D02*
X209406000Y-100186000D01*
X209406000Y-94886000D02*
X209406000Y-96436000D01*
X205006000Y-100186000D02*
X204106000Y-99286000D01*
X205006000Y-94886000D02*
X209406000Y-94886000D01*
X204106000Y-99286000D02*
X204106000Y-98636000D01*
X204106000Y-96436000D02*
X204106000Y-95786000D01*
X204106000Y-95786000D02*
X205006000Y-94886000D01*
X204556001Y-98486000D02*
G75*
G03*
X208955999Y-98486000I2199999J950001D01*
G01*
X208955999Y-96586000D02*
G75*
G03*
X204556001Y-96586000I-2199999J-950001D01*
G01*
D17*
X230901000Y-58670000D02*
X227599000Y-58670000D01*
X231282000Y-59051000D02*
X231282000Y-59686000D01*
X227218000Y-59051000D02*
X227218000Y-59686000D01*
X231155000Y-59813000D02*
X231282000Y-59686000D01*
X231155000Y-59813000D02*
X231155000Y-67687000D01*
X227345000Y-59813000D02*
X227218000Y-59686000D01*
X227345000Y-59813000D02*
X227345000Y-67687000D01*
X231155000Y-67687000D02*
X231282000Y-67814000D01*
X227345000Y-67687000D02*
X227218000Y-67814000D01*
X231282000Y-68449000D02*
X231282000Y-67814000D01*
X227218000Y-68449000D02*
X227218000Y-67814000D01*
X227599000Y-68830000D02*
X230901000Y-68830000D01*
X231282000Y-59051000D02*
G75*
G03*
X230901000Y-58670000I-380999J1D01*
G01*
X227599000Y-58670000D02*
G75*
G03*
X227218000Y-59051000I-1J-380999D01*
G01*
X230901000Y-68830000D02*
G75*
G03*
X231282000Y-68449000I0J381000D01*
G01*
X227218000Y-68449000D02*
G75*
G03*
X227599000Y-68830000I381000J0D01*
G01*
G36*
X229631000Y-58670000D02*
G01*
X228869000Y-58670000D01*
X228869000Y-57273000D01*
X229631000Y-57273000D01*
X229631000Y-58670000D01*
G37*
G36*
X229631000Y-70227000D02*
G01*
X228869000Y-70227000D01*
X228869000Y-68830000D01*
X229631000Y-68830000D01*
X229631000Y-70227000D01*
G37*
D15*
X136788000Y-137786000D02*
X136788000Y-145286000D01*
X133688000Y-137786000D02*
X136788000Y-137786000D01*
X128388000Y-137786000D02*
X131488000Y-137786000D01*
X136788000Y-145286000D02*
X135888000Y-146186000D01*
X128388000Y-145286000D02*
X128388000Y-137786000D01*
X135888000Y-146186000D02*
X133688000Y-146186000D01*
X131488000Y-146186000D02*
X129288000Y-146186000D01*
X129288000Y-146186000D02*
X128388000Y-145286000D01*
X133638000Y-145736000D02*
G75*
G03*
X133638000Y-138236000I-1074999J3750000D01*
G01*
X131538000Y-138236000D02*
G75*
G03*
X131538000Y-145736000I1074999J-3750000D01*
G01*
D13*
X162578000Y-50058000D02*
X180358000Y-50058000D01*
X180358000Y-50058000D02*
X180358000Y-85618000D01*
X180358000Y-85618000D02*
X162578000Y-85618000D01*
X162578000Y-85618000D02*
X162578000Y-50058000D01*
X168928000Y-50058000D02*
X174008000Y-50058000D01*
X174008000Y-50058000D02*
X174008000Y-52598000D01*
X174008000Y-52598000D02*
X168928000Y-52598000D01*
X168928000Y-52598000D02*
X168928000Y-50058000D01*
D17*
X203250800Y-65913000D02*
X202184000Y-65913000D01*
X202184000Y-65913000D02*
X201168000Y-65913000D01*
X201168000Y-65913000D02*
X200101200Y-65913000D01*
D18*
X200075800Y-65913000D02*
X200075800Y-74803000D01*
D17*
X200101200Y-74803000D02*
X203250800Y-74803000D01*
X203631800Y-66294000D02*
G75*
G03*
X203250800Y-65913000I-380999J1D01*
G01*
X201168000Y-65913000D02*
G75*
G03*
X202184000Y-65913000I508000J0D01*
G01*
X200101200Y-65913000D02*
G75*
G03*
X199720200Y-66294000I-1J-380999D01*
G01*
X203250800Y-74803000D02*
G75*
G03*
X203631800Y-74422000I0J381000D01*
G01*
X199720200Y-74422000D02*
G75*
G03*
X200101200Y-74803000I381000J0D01*
G01*
D14*
X175407000Y-144053000D02*
X175407000Y-147503000D01*
X175407000Y-144053000D02*
X175407000Y-142103000D01*
X185527000Y-144053000D02*
X185527000Y-146003000D01*
X185527000Y-144053000D02*
X185527000Y-142103000D01*
D15*
X198892000Y-93516000D02*
X193792000Y-93516000D01*
X193792000Y-93516000D02*
X193792000Y-93766000D01*
X198892000Y-93766000D02*
X198892000Y-93516000D01*
X193792000Y-98766000D02*
X193792000Y-99016000D01*
X198892000Y-99016000D02*
X198892000Y-98766000D01*
X198892000Y-99016000D02*
X193792000Y-99016000D01*
D11*
X193913400Y-81661000D02*
X198434600Y-81661000D01*
X193913400Y-85471000D02*
X198434600Y-85471000D01*
D15*
X195344000Y-83566000D02*
X196367000Y-84566000D01*
X196367000Y-82566000D02*
X195344000Y-83566000D01*
X196367000Y-84566000D02*
X196367000Y-82566000D01*
D14*
X176259258Y-72150500D02*
X175784742Y-72150500D01*
X176259258Y-71105500D02*
X175784742Y-71105500D01*
%LPC*%
D19*
X139192000Y-113538000D03*
X139192000Y-111888000D03*
D20*
X193040000Y-78486000D03*
X190196000Y-78486000D03*
D21*
X227736400Y-90373200D03*
X229438200Y-90373200D03*
X231140000Y-90373200D03*
X232841800Y-90373200D03*
X234543600Y-90373200D03*
D22*
X231140000Y-82042000D03*
D23*
X235861000Y-101854000D03*
X225911000Y-101854000D03*
D24*
X68500000Y-70250000D03*
X68500000Y-67710000D03*
X68500000Y-65170000D03*
X68500000Y-62630000D03*
D25*
X204810000Y-83566000D03*
X209210000Y-83566000D03*
D26*
X166244000Y-71628000D03*
X167894000Y-71628000D03*
D27*
X169968500Y-107012500D03*
D28*
X172508500Y-107012500D03*
X175048500Y-107012500D03*
D20*
X193040000Y-69342000D03*
X190196000Y-69342000D03*
D29*
X176910000Y-69088000D03*
X175260000Y-69088000D03*
D30*
X190094000Y-75184000D03*
X192938000Y-75184000D03*
D26*
X166307000Y-69088000D03*
X167957000Y-69088000D03*
D30*
X214072000Y-74168000D03*
X216916000Y-74168000D03*
D31*
X192916000Y-72136000D03*
X190116000Y-72136000D03*
D32*
X109220000Y-104648000D03*
X107950000Y-104648000D03*
X106680000Y-104648000D03*
X105410000Y-104648000D03*
X104140000Y-104648000D03*
X102870000Y-104648000D03*
X101600000Y-104648000D03*
X100330000Y-104648000D03*
X100330000Y-109798000D03*
X101600000Y-109798000D03*
X102870000Y-109798000D03*
X104140000Y-109798000D03*
X105410000Y-109798000D03*
X106680000Y-109798000D03*
X107950000Y-109798000D03*
X109220000Y-109798000D03*
D33*
X209210000Y-88646000D03*
X204810000Y-88646000D03*
D25*
X204556000Y-97536000D03*
X208956000Y-97536000D03*
D31*
X203076000Y-62230000D03*
X200276000Y-62230000D03*
D34*
X169288000Y-100076000D03*
X172088000Y-100076000D03*
D35*
X229250000Y-56130000D03*
X229250000Y-71370000D03*
D36*
X132588000Y-145036000D03*
X132588000Y-138936000D03*
D37*
X194192000Y-88900000D03*
X198492000Y-88900000D03*
D38*
X135128000Y-113538000D03*
D39*
X132588000Y-113538000D03*
X130048000Y-113538000D03*
X127508000Y-113538000D03*
X124968000Y-113538000D03*
X122428000Y-113538000D03*
X119888000Y-113538000D03*
X119888000Y-105918000D03*
X122428000Y-105918000D03*
X124968000Y-105918000D03*
X127508000Y-105918000D03*
X130048000Y-105918000D03*
X132588000Y-105918000D03*
X135128000Y-105918000D03*
D40*
X162348000Y-51328000D03*
X162348000Y-53868000D03*
X162348000Y-56408000D03*
X162348000Y-58948000D03*
X162348000Y-61488000D03*
X162348000Y-64028000D03*
X162348000Y-66568000D03*
X162348000Y-69108000D03*
X162348000Y-71648000D03*
X162348000Y-74188000D03*
X162348000Y-76728000D03*
X162348000Y-79268000D03*
X162348000Y-81808000D03*
X162348000Y-84348000D03*
X180848000Y-84328000D03*
X180848000Y-81788000D03*
X180848000Y-79248000D03*
X180848000Y-76708000D03*
X180848000Y-74168000D03*
X180848000Y-71628000D03*
X180848000Y-69088000D03*
X180848000Y-66548000D03*
X180848000Y-64008000D03*
X180848000Y-61468000D03*
X180848000Y-58928000D03*
X180848000Y-56388000D03*
X180848000Y-53848000D03*
X180848000Y-51308000D03*
D41*
X198602600Y-66548000D03*
X198602600Y-67818000D03*
X198602600Y-69088000D03*
X198602600Y-70358000D03*
X198602600Y-71628000D03*
X198602600Y-72898000D03*
X198602600Y-74168000D03*
X204749400Y-74168000D03*
X204749400Y-72898000D03*
X204749400Y-71628000D03*
X204749400Y-70358000D03*
X204749400Y-69088000D03*
X204749400Y-67818000D03*
X204749400Y-66548000D03*
D42*
X176022000Y-146628000D03*
X177292000Y-146628000D03*
X178562000Y-146628000D03*
X179832000Y-146628000D03*
X181102000Y-146628000D03*
X182372000Y-146628000D03*
X183642000Y-146628000D03*
X184912000Y-146628000D03*
X184912000Y-141478000D03*
X183642000Y-141478000D03*
X182372000Y-141478000D03*
X181102000Y-141478000D03*
X179832000Y-141478000D03*
X178562000Y-141478000D03*
X177292000Y-141478000D03*
X176022000Y-141478000D03*
D43*
X212792000Y-66421000D03*
X212792000Y-67691000D03*
X212792000Y-68961000D03*
X212792000Y-70231000D03*
X217992000Y-70231000D03*
X217992000Y-68961000D03*
X217992000Y-67691000D03*
X217992000Y-66421000D03*
D44*
X192959000Y-96266000D03*
X199725000Y-96266000D03*
D33*
X198374000Y-83566000D03*
X193974000Y-83566000D03*
D31*
X193040000Y-66294000D03*
X190240000Y-66294000D03*
D29*
X176847000Y-71628000D03*
X175197000Y-71628000D03*
D45*
X221000000Y-122500000D03*
D46*
X221000000Y-127500000D03*
X221000000Y-125000000D03*
D47*
X213500000Y-130600000D03*
X213500000Y-119400000D03*
D46*
X206500000Y-122500000D03*
X206500000Y-127500000D03*
D48*
X118433000Y-143619000D03*
D49*
X118433000Y-141079000D03*
X115893000Y-143619000D03*
X115893000Y-141079000D03*
X113353000Y-143619000D03*
X113353000Y-141079000D03*
X110813000Y-143619000D03*
X110813000Y-141079000D03*
X108273000Y-143619000D03*
X108273000Y-141079000D03*
X105733000Y-143619000D03*
X105733000Y-141079000D03*
X103193000Y-143619000D03*
X103193000Y-141079000D03*
X100653000Y-143619000D03*
X100653000Y-141079000D03*
D50*
X137338000Y-120268000D03*
X137338000Y-124968000D03*
X137338000Y-129668000D03*
D45*
X94000000Y-122500000D03*
D46*
X94000000Y-127500000D03*
X94000000Y-125000000D03*
D47*
X86500000Y-130600000D03*
X86500000Y-119400000D03*
D46*
X79500000Y-122500000D03*
X79500000Y-127500000D03*
D50*
X175664000Y-120268000D03*
X175664000Y-124968000D03*
X175664000Y-129668000D03*
X194714000Y-120268000D03*
X194714000Y-124968000D03*
X194714000Y-129668000D03*
D51*
X82000000Y-57500000D03*
X84000000Y-57500000D03*
X86000000Y-57500000D03*
X88000000Y-57500000D03*
X98000000Y-57500000D03*
X100000000Y-57500000D03*
X102000000Y-57500000D03*
X104000000Y-57500000D03*
X106000000Y-57500000D03*
X108000000Y-57500000D03*
X110000000Y-57500000D03*
X112000000Y-57500000D03*
X114000000Y-57500000D03*
X116000000Y-57500000D03*
X118000000Y-57500000D03*
X120000000Y-57500000D03*
X122000000Y-57500000D03*
X124000000Y-57500000D03*
X126000000Y-57500000D03*
X128000000Y-57500000D03*
X130000000Y-57500000D03*
X132000000Y-57500000D03*
X190000000Y-57500000D03*
X192000000Y-57500000D03*
X194000000Y-57500000D03*
X200000000Y-57500000D03*
X202000000Y-57500000D03*
X212000000Y-57500000D03*
X214000000Y-57500000D03*
X216000000Y-57500000D03*
X218000000Y-57500000D03*
D50*
X118156000Y-120396000D03*
X118156000Y-125096000D03*
X118156000Y-129796000D03*
X156473020Y-120258285D03*
X156473020Y-124958285D03*
X156473020Y-129658285D03*
%LPD*%
M02*
