M48
; DRILL file {KiCad 7.0.10} date 
; FORMAT={-:-/ absolute / metric / decimal}
; #@! TF.CreationDate,2024-03-27T16:50:33+01:00
; #@! TF.GenerationSoftware,Kicad,Pcbnew,7.0.10
; #@! TF.FileFunction,Plated,1,2,PTH
FMAT,2
METRIC
; #@! TA.AperFunction,Plated,PTH,ViaDrill
T1C0.400
; #@! TA.AperFunction,Plated,PTH,ViaDrill
T2C0.800
; #@! TA.AperFunction,Plated,PTH,ComponentDrill
T3C0.800
; #@! TA.AperFunction,Plated,PTH,ComponentDrill
T4C0.900
; #@! TA.AperFunction,Plated,PTH,ComponentDrill
T5C0.914
; #@! TA.AperFunction,Plated,PTH,ComponentDrill
T6C1.000
; #@! TA.AperFunction,Plated,PTH,ComponentDrill
T7C1.016
; #@! TA.AperFunction,Plated,PTH,ComponentDrill
T8C1.200
; #@! TA.AperFunction,Plated,PTH,ComponentDrill
T9C1.500
; #@! TA.AperFunction,Plated,PTH,ComponentDrill
T10C2.000
; #@! TA.AperFunction,Plated,PTH,ViaDrill
T11C3.800
%
G90
G05
T1
X76.2Y-82.042
X77.216Y-80.518
X79.248Y-79.756
X87.884Y-76.454
X96.012Y-76.454
X97.282Y-123.444
X98.044Y-61.722
X100.33Y-100.076
X104.902Y-76.454
X105.41Y-94.996
X107.442Y-94.488
X107.447Y-96.055
X109.577Y-65.381
X114.046Y-63.246
X114.554Y-65.278
X115.316Y-136.144
X116.332Y-110.49
X117.602Y-136.144
X119.38Y-112.014
X119.888Y-136.144
X120.789Y-103.709
X121.412Y-101.854
X121.92Y-123.444
X125.476Y-116.332
X126.746Y-102.362
X126.958Y-112.014
X127.0Y-98.552
X127.762Y-116.078
X131.064Y-64.262
X131.318Y-66.294
X137.414Y-133.604
X140.208Y-124.206
X140.97Y-77.47
X141.478Y-103.886
X142.748Y-73.914
X147.761Y-54.805
X148.59Y-71.374
X150.622Y-52.324
X156.21Y-145.542
X156.972Y-76.454
X156.972Y-80.264
X156.972Y-85.09
X160.271Y-133.646
X160.274Y-123.698
X162.56Y-132.842
X166.116Y-72.39
X166.37Y-97.282
X166.624Y-99.314
X167.64Y-69.088
X168.402Y-137.16
X170.249Y-60.24
X170.434Y-141.732
X170.942Y-91.44
X171.45Y-53.34
X171.704Y-138.684
X172.184Y-89.254
X172.974Y-137.16
X173.482Y-81.28
X174.752Y-54.61
X175.731Y-88.101
X176.022Y-50.812
X177.038Y-136.652
X177.143Y-58.926
X178.308Y-127.508
X178.562Y-118.872
X180.594Y-133.096
X185.166Y-58.42
X187.415Y-64.516
X187.452Y-56.134
X195.733Y-74.556
X195.834Y-76.962
X196.088Y-58.166
X197.42Y-73.955
X197.866Y-61.094
X197.866Y-63.246
X198.12Y-127.508
X198.628Y-83.058
X199.644Y-98.806
X199.644Y-107.188
X199.898Y-83.058
X201.676Y-98.552
X202.946Y-73.914
X203.962Y-71.628
X204.47Y-77.724
X206.349Y-61.632
X207.518Y-53.34
X209.042Y-120.65
X209.296Y-90.932
X210.058Y-100.076
X210.26Y-54.408
X211.298Y-92.777
X221.488Y-55.118
X223.012Y-89.408
X223.52Y-125.73
X224.79Y-68.834
X225.044Y-56.642
X225.298Y-112.522
X226.822Y-66.802
X227.584Y-112.522
X228.6Y-74.422
X228.854Y-56.642
X230.124Y-112.522
X232.41Y-112.522
X236.22Y-59.69
X237.515Y-96.266
T2
X214.376Y-79.756
X214.376Y-82.296
X216.916Y-79.756
X216.916Y-82.296
X219.456Y-79.756
X219.456Y-82.296
T3
X111.76Y-104.14
X111.76Y-106.68
X111.76Y-109.22
X111.76Y-111.76
X111.76Y-114.3
X132.08Y-104.16
X132.08Y-106.7
X132.08Y-109.24
X132.08Y-111.78
X132.08Y-114.32
X143.764Y-105.664
X143.764Y-113.284
X146.304Y-105.664
X146.304Y-113.284
X148.844Y-105.664
X148.844Y-113.284
X151.384Y-105.664
X151.384Y-113.284
X153.924Y-105.664
X153.924Y-113.284
X156.464Y-105.664
X156.464Y-113.284
X159.004Y-105.664
X159.004Y-113.284
X176.53Y-138.938
X179.07Y-138.938
X181.61Y-138.938
X184.15Y-138.938
X186.69Y-138.938
X200.152Y-140.97
X202.692Y-140.97
X205.232Y-140.97
X207.772Y-140.97
X210.312Y-140.97
T4
X62.23Y-88.646
X64.77Y-71.369
X64.77Y-73.909
X64.77Y-88.646
X67.31Y-88.646
T5
X233.934Y-62.992
X233.934Y-78.232
T6
X79.5Y-122.5
X79.5Y-127.5
X94.0Y-122.5
X94.0Y-125.0
X94.0Y-127.5
X206.5Y-122.5
X206.5Y-127.5
X221.0Y-122.5
X221.0Y-125.0
X221.0Y-127.5
T7
X100.653Y-141.079
X100.653Y-143.619
X103.193Y-141.079
X103.193Y-143.619
X105.733Y-141.079
X105.733Y-143.619
X108.273Y-141.079
X108.273Y-143.619
X110.813Y-141.079
X110.813Y-143.619
X113.353Y-141.079
X113.353Y-143.619
X115.893Y-141.079
X115.893Y-143.619
X118.433Y-141.079
X118.433Y-143.619
T8
X169.969Y-107.012
X172.508Y-107.012
X175.048Y-107.012
T9
X118.156Y-120.396
X118.156Y-125.096
X118.156Y-129.796
X137.338Y-120.268
X137.338Y-124.968
X137.338Y-129.668
X156.473Y-120.258
X156.473Y-124.958
X156.473Y-129.658
X175.664Y-120.268
X175.664Y-124.968
X175.664Y-129.668
X194.714Y-120.268
X194.714Y-124.968
X194.714Y-129.668
T11
X64.014Y-147.004
X64.104Y-53.582
X217.529Y-146.853
X235.966Y-53.594
X235.966Y-146.812
T4
X72.501Y-75.062G85X72.001Y-75.062
G05
X72.501Y-77.602G85X72.001Y-77.602
G05
X72.501Y-80.142G85X72.001Y-80.142
G05
X72.501Y-82.682G85X72.001Y-82.682
G05
X72.501Y-85.222G85X72.001Y-85.222
G05
X72.501Y-87.762G85X72.001Y-87.762
G05
X72.501Y-90.302G85X72.001Y-90.302
G05
X82.0Y-58.0G85X82.0Y-57.0
G05
X84.0Y-58.0G85X84.0Y-57.0
G05
X86.0Y-58.0G85X86.0Y-57.0
G05
X88.0Y-58.0G85X88.0Y-57.0
G05
X98.0Y-58.0G85X98.0Y-57.0
G05
X100.0Y-58.0G85X100.0Y-57.0
G05
X102.0Y-58.0G85X102.0Y-57.0
G05
X104.0Y-58.0G85X104.0Y-57.0
G05
X106.0Y-58.0G85X106.0Y-57.0
G05
X108.0Y-58.0G85X108.0Y-57.0
G05
X110.0Y-58.0G85X110.0Y-57.0
G05
X112.0Y-58.0G85X112.0Y-57.0
G05
X114.0Y-58.0G85X114.0Y-57.0
G05
X116.0Y-58.0G85X116.0Y-57.0
G05
X118.0Y-58.0G85X118.0Y-57.0
G05
X120.0Y-58.0G85X120.0Y-57.0
G05
X122.0Y-58.0G85X122.0Y-57.0
G05
X124.0Y-58.0G85X124.0Y-57.0
G05
X126.0Y-58.0G85X126.0Y-57.0
G05
X128.0Y-58.0G85X128.0Y-57.0
G05
X130.0Y-58.0G85X130.0Y-57.0
G05
X132.0Y-58.0G85X132.0Y-57.0
G05
X190.0Y-58.0G85X190.0Y-57.0
G05
X192.0Y-58.0G85X192.0Y-57.0
G05
X194.0Y-58.0G85X194.0Y-57.0
G05
X200.0Y-58.0G85X200.0Y-57.0
G05
X202.0Y-58.0G85X202.0Y-57.0
G05
X212.0Y-58.0G85X212.0Y-57.0
G05
X214.0Y-58.0G85X214.0Y-57.0
G05
X216.0Y-58.0G85X216.0Y-57.0
G05
X218.0Y-58.0G85X218.0Y-57.0
G05
T10
X86.75Y-119.4G85X86.25Y-119.4
G05
X86.75Y-130.6G85X86.25Y-130.6
G05
X213.75Y-119.4G85X213.25Y-119.4
G05
X213.75Y-130.6G85X213.25Y-130.6
G05
M30
