G04 #@! TF.GenerationSoftware,KiCad,Pcbnew,7.0.10*
G04 #@! TF.CreationDate,2024-01-29T17:04:51+01:00*
G04 #@! TF.ProjectId,GP1294-Teens4,47503132-3934-42d5-9465-656e73342e6b,1.0.0*
G04 #@! TF.SameCoordinates,Original*
G04 #@! TF.FileFunction,Paste,Top*
G04 #@! TF.FilePolarity,Positive*
%FSLAX46Y46*%
G04 Gerber Fmt 4.6, Leading zero omitted, Abs format (unit mm)*
G04 Created by KiCad (PCBNEW 7.0.10) date 2024-01-29 17:04:51*
%MOMM*%
%LPD*%
G01*
G04 APERTURE LIST*
G04 Aperture macros list*
%AMRoundRect*
0 Rectangle with rounded corners*
0 $1 Rounding radius*
0 $2 $3 $4 $5 $6 $7 $8 $9 X,Y pos of 4 corners*
0 Add a 4 corners polygon primitive as box body*
4,1,4,$2,$3,$4,$5,$6,$7,$8,$9,$2,$3,0*
0 Add four circle primitives for the rounded corners*
1,1,$1+$1,$2,$3*
1,1,$1+$1,$4,$5*
1,1,$1+$1,$6,$7*
1,1,$1+$1,$8,$9*
0 Add four rect primitives between the rounded corners*
20,1,$1+$1,$2,$3,$4,$5,0*
20,1,$1+$1,$4,$5,$6,$7,0*
20,1,$1+$1,$6,$7,$8,$9,0*
20,1,$1+$1,$8,$9,$2,$3,0*%
G04 Aperture macros list end*
%ADD10R,1.800000X1.600000*%
%ADD11R,1.600000X1.800000*%
%ADD12RoundRect,0.250000X-0.400000X-0.625000X0.400000X-0.625000X0.400000X0.625000X-0.400000X0.625000X0*%
%ADD13RoundRect,0.250000X0.400000X0.625000X-0.400000X0.625000X-0.400000X-0.625000X0.400000X-0.625000X0*%
%ADD14R,3.850000X5.500000*%
%ADD15R,1.600000X1.803000*%
%ADD16R,2.159000X1.066800*%
%ADD17R,10.410000X10.800000*%
%ADD18RoundRect,0.150000X0.725000X0.150000X-0.725000X0.150000X-0.725000X-0.150000X0.725000X-0.150000X0*%
%ADD19R,2.400000X2.400000*%
%ADD20R,1.600000X4.000000*%
%ADD21R,2.700000X1.200000*%
%ADD22O,4.000000X1.500000*%
%ADD23R,2.032000X0.660400*%
%ADD24RoundRect,0.150000X-0.150000X0.725000X-0.150000X-0.725000X0.150000X-0.725000X0.150000X0.725000X0*%
%ADD25R,2.200000X0.600000*%
%ADD26R,4.500000X2.250000*%
G04 APERTURE END LIST*
D10*
X106172000Y-72012000D03*
X106172000Y-69212000D03*
D11*
X208410000Y-83566000D03*
X205610000Y-83566000D03*
X233048000Y-66802000D03*
X230248000Y-66802000D03*
D10*
X110236000Y-69212000D03*
X110236000Y-72012000D03*
D12*
X165519000Y-71628000D03*
X168619000Y-71628000D03*
D13*
X177635000Y-69088000D03*
X174535000Y-69088000D03*
D12*
X165582000Y-69088000D03*
X168682000Y-69088000D03*
D13*
X177572000Y-71628000D03*
X174472000Y-71628000D03*
D14*
X225403000Y-105918000D03*
X235353000Y-105918000D03*
D13*
X156998000Y-109474000D03*
X153898000Y-109474000D03*
X187415000Y-74198000D03*
X184315000Y-74198000D03*
X187415000Y-76708000D03*
X184315000Y-76708000D03*
D15*
X213970000Y-86868000D03*
X216814000Y-86868000D03*
D16*
X223062800Y-84480400D03*
X223062800Y-86182200D03*
X223062800Y-87884000D03*
X223062800Y-89585800D03*
X223062800Y-91287600D03*
D17*
X231394000Y-87884000D03*
D15*
X194716000Y-69850000D03*
X191872000Y-69850000D03*
X216814000Y-83820000D03*
X213970000Y-83820000D03*
X218846000Y-80518000D03*
X216002000Y-80518000D03*
D11*
X194180000Y-61214000D03*
X196980000Y-61214000D03*
D18*
X123987000Y-113919000D03*
X123987000Y-112649000D03*
X123987000Y-111379000D03*
X123987000Y-110109000D03*
X123987000Y-108839000D03*
X123987000Y-107569000D03*
X123987000Y-106299000D03*
X123987000Y-105029000D03*
X118837000Y-105029000D03*
X118837000Y-106299000D03*
X118837000Y-107569000D03*
X118837000Y-108839000D03*
X118837000Y-110109000D03*
X118837000Y-111379000D03*
X118837000Y-112649000D03*
X118837000Y-113919000D03*
D19*
X209210000Y-89154000D03*
X204810000Y-89154000D03*
D11*
X228216000Y-96520000D03*
X231016000Y-96520000D03*
X171444000Y-102108000D03*
X174244000Y-102108000D03*
D20*
X132588000Y-145036000D03*
X132588000Y-138936000D03*
D21*
X215900000Y-66666000D03*
X215900000Y-62366000D03*
D22*
X162348000Y-51328000D03*
X162348000Y-53868000D03*
X162348000Y-56408000D03*
X162348000Y-58948000D03*
X162348000Y-61488000D03*
X162348000Y-64028000D03*
X162348000Y-66568000D03*
X162348000Y-69108000D03*
X162348000Y-71648000D03*
X162348000Y-74188000D03*
X162348000Y-76728000D03*
X162348000Y-79268000D03*
X162348000Y-81808000D03*
X162348000Y-84348000D03*
X180848000Y-84328000D03*
X180848000Y-81788000D03*
X180848000Y-79248000D03*
X180848000Y-76708000D03*
X180848000Y-74168000D03*
X180848000Y-71628000D03*
X180848000Y-69088000D03*
X180848000Y-66548000D03*
X180848000Y-64008000D03*
X180848000Y-61468000D03*
X180848000Y-58928000D03*
X180848000Y-56388000D03*
X180848000Y-53848000D03*
X180848000Y-51308000D03*
D23*
X200380600Y-66548000D03*
X200380600Y-67818000D03*
X200380600Y-69088000D03*
X200380600Y-70358000D03*
X200380600Y-71628000D03*
X200380600Y-72898000D03*
X200380600Y-74168000D03*
X206527400Y-74168000D03*
X206527400Y-72898000D03*
X206527400Y-71628000D03*
X206527400Y-70358000D03*
X206527400Y-69088000D03*
X206527400Y-67818000D03*
X206527400Y-66548000D03*
D24*
X165227000Y-137633000D03*
X163957000Y-137633000D03*
X162687000Y-137633000D03*
X161417000Y-137633000D03*
X160147000Y-137633000D03*
X158877000Y-137633000D03*
X157607000Y-137633000D03*
X156337000Y-137633000D03*
X156337000Y-142783000D03*
X157607000Y-142783000D03*
X158877000Y-142783000D03*
X160147000Y-142783000D03*
X161417000Y-142783000D03*
X162687000Y-142783000D03*
X163957000Y-142783000D03*
X165227000Y-142783000D03*
D25*
X220278000Y-72517000D03*
X220278000Y-73787000D03*
X220278000Y-75057000D03*
X220278000Y-76327000D03*
X215078000Y-76327000D03*
X215078000Y-75057000D03*
X215078000Y-73787000D03*
X215078000Y-72517000D03*
D26*
X222504000Y-60625000D03*
X222504000Y-67391000D03*
D19*
X232832000Y-60706000D03*
X228432000Y-60706000D03*
D11*
X194694000Y-67056000D03*
X191894000Y-67056000D03*
M02*
