G04 #@! TF.GenerationSoftware,KiCad,Pcbnew,7.0.10*
G04 #@! TF.CreationDate,2024-01-29T17:04:51+01:00*
G04 #@! TF.ProjectId,GP1294-Teens4,47503132-3934-42d5-9465-656e73342e6b,1.0.0*
G04 #@! TF.SameCoordinates,Original*
G04 #@! TF.FileFunction,Soldermask,Bot*
G04 #@! TF.FilePolarity,Negative*
%FSLAX46Y46*%
G04 Gerber Fmt 4.6, Leading zero omitted, Abs format (unit mm)*
G04 Created by KiCad (PCBNEW 7.0.10) date 2024-01-29 17:04:51*
%MOMM*%
%LPD*%
G01*
G04 APERTURE LIST*
G04 Aperture macros list*
%AMFreePoly0*
4,1,17,0.328853,0.743121,0.743121,0.328853,0.758000,0.292932,0.758000,-0.292932,0.743121,-0.328853,0.328853,-0.743121,0.292932,-0.758000,-0.292932,-0.758000,-0.328853,-0.743121,-0.743121,-0.328853,-0.758000,-0.292932,-0.758000,0.292932,-0.743121,0.328853,-0.328853,0.743121,-0.292932,0.758000,0.292932,0.758000,0.328853,0.743121,0.328853,0.743121,$1*%
G04 Aperture macros list end*
%ADD10R,1.700000X2.500000*%
%ADD11O,1.700000X2.500000*%
%ADD12FreePoly0,270.000000*%
%ADD13R,2.000000X2.000000*%
%ADD14C,2.000000*%
%ADD15R,3.000000X2.500000*%
%ADD16O,1.727200X1.727200*%
%ADD17R,1.727200X1.727200*%
%ADD18C,3.000000*%
%ADD19R,1.600000X1.600000*%
%ADD20O,1.600000X1.600000*%
%ADD21O,1.500000X2.600000*%
G04 APERTURE END LIST*
D10*
X169968500Y-107012500D03*
D11*
X172508500Y-107012500D03*
X175048500Y-107012500D03*
D12*
X229250000Y-56130000D03*
X229250000Y-71370000D03*
D13*
X221000000Y-122500000D03*
D14*
X221000000Y-127500000D03*
X221000000Y-125000000D03*
D15*
X213500000Y-130600000D03*
X213500000Y-119400000D03*
D14*
X206500000Y-122500000D03*
X206500000Y-127500000D03*
D16*
X100653000Y-141079000D03*
X100653000Y-143619000D03*
X103193000Y-141079000D03*
X103193000Y-143619000D03*
X105733000Y-141079000D03*
X105733000Y-143619000D03*
X108273000Y-141079000D03*
X108273000Y-143619000D03*
X110813000Y-141079000D03*
X110813000Y-143619000D03*
X113353000Y-141079000D03*
X113353000Y-143619000D03*
X115893000Y-141079000D03*
X115893000Y-143619000D03*
X118433000Y-141079000D03*
D17*
X118433000Y-143619000D03*
D18*
X137338000Y-120268000D03*
X137338000Y-124968000D03*
X137338000Y-129668000D03*
D19*
X159004000Y-113284000D03*
D20*
X156464000Y-113284000D03*
X153924000Y-113284000D03*
X151384000Y-113284000D03*
X148844000Y-113284000D03*
X146304000Y-113284000D03*
X143764000Y-113284000D03*
X143764000Y-105664000D03*
X146304000Y-105664000D03*
X148844000Y-105664000D03*
X151384000Y-105664000D03*
X153924000Y-105664000D03*
X156464000Y-105664000D03*
X159004000Y-105664000D03*
D13*
X94000000Y-122500000D03*
D14*
X94000000Y-127500000D03*
X94000000Y-125000000D03*
D15*
X86500000Y-130600000D03*
X86500000Y-119400000D03*
D14*
X79500000Y-122500000D03*
X79500000Y-127500000D03*
D18*
X175664000Y-120268000D03*
X175664000Y-124968000D03*
X175664000Y-129668000D03*
X194714000Y-120268000D03*
X194714000Y-124968000D03*
X194714000Y-129668000D03*
D21*
X82000000Y-57500000D03*
X84000000Y-57500000D03*
X86000000Y-57500000D03*
X88000000Y-57500000D03*
X98000000Y-57500000D03*
X100000000Y-57500000D03*
X102000000Y-57500000D03*
X104000000Y-57500000D03*
X106000000Y-57500000D03*
X108000000Y-57500000D03*
X110000000Y-57500000D03*
X112000000Y-57500000D03*
X114000000Y-57500000D03*
X116000000Y-57500000D03*
X118000000Y-57500000D03*
X120000000Y-57500000D03*
X122000000Y-57500000D03*
X124000000Y-57500000D03*
X126000000Y-57500000D03*
X128000000Y-57500000D03*
X130000000Y-57500000D03*
X132000000Y-57500000D03*
X190000000Y-57500000D03*
X192000000Y-57500000D03*
X194000000Y-57500000D03*
X200000000Y-57500000D03*
X202000000Y-57500000D03*
X212000000Y-57500000D03*
X214000000Y-57500000D03*
X216000000Y-57500000D03*
X218000000Y-57500000D03*
D18*
X118156000Y-120396000D03*
X118156000Y-125096000D03*
X118156000Y-129796000D03*
X156473020Y-120258285D03*
X156473020Y-124958285D03*
X156473020Y-129658285D03*
M02*
