M48
; DRILL file {KiCad 7.0.10} date 
; FORMAT={-:-/ absolute / metric / decimal}
; #@! TF.CreationDate,2024-01-22T16:51:11+01:00
; #@! TF.GenerationSoftware,Kicad,Pcbnew,7.0.10
; #@! TF.FileFunction,Plated,1,2,PTH
FMAT,2
METRIC
; #@! TA.AperFunction,Plated,PTH,ComponentDrill
T1C0.800
; #@! TA.AperFunction,Plated,PTH,ComponentDrill
T2C0.900
; #@! TA.AperFunction,Plated,PTH,ComponentDrill
T3C0.914
; #@! TA.AperFunction,Plated,PTH,ComponentDrill
T4C1.000
; #@! TA.AperFunction,Plated,PTH,ComponentDrill
T5C1.016
; #@! TA.AperFunction,Plated,PTH,ComponentDrill
T6C1.200
; #@! TA.AperFunction,Plated,PTH,ComponentDrill
T7C1.500
; #@! TA.AperFunction,Plated,PTH,ComponentDrill
T8C2.000
; #@! TA.AperFunction,Plated,PTH,ViaDrill
T9C3.800
%
G90
G05
T1
X119.888Y-105.918
X119.888Y-113.538
X122.428Y-105.918
X122.428Y-113.538
X124.968Y-105.918
X124.968Y-113.538
X127.508Y-105.918
X127.508Y-113.538
X130.048Y-105.918
X130.048Y-113.538
X132.588Y-105.918
X132.588Y-113.538
X135.128Y-105.918
X135.128Y-113.538
T3
X229.25Y-56.13
X229.25Y-71.37
T4
X79.5Y-122.5
X79.5Y-127.5
X94.0Y-122.5
X94.0Y-125.0
X94.0Y-127.5
X206.5Y-122.5
X206.5Y-127.5
X221.0Y-122.5
X221.0Y-125.0
X221.0Y-127.5
T5
X68.5Y-62.63
X68.5Y-65.17
X68.5Y-67.71
X68.5Y-70.25
X100.653Y-141.079
X100.653Y-143.619
X103.193Y-141.079
X103.193Y-143.619
X105.733Y-141.079
X105.733Y-143.619
X108.273Y-141.079
X108.273Y-143.619
X110.813Y-141.079
X110.813Y-143.619
X113.353Y-141.079
X113.353Y-143.619
X115.893Y-141.079
X115.893Y-143.619
X118.433Y-141.079
X118.433Y-143.619
T6
X169.969Y-107.012
X172.508Y-107.012
X175.048Y-107.012
T7
X118.156Y-120.396
X118.156Y-125.096
X118.156Y-129.796
X137.338Y-120.268
X137.338Y-124.968
X137.338Y-129.668
X156.473Y-120.258
X156.473Y-124.958
X156.473Y-129.658
X175.664Y-120.268
X175.664Y-124.968
X175.664Y-129.668
X194.714Y-120.268
X194.714Y-124.968
X194.714Y-129.668
T9
X64.014Y-147.004
X64.104Y-53.582
X217.529Y-146.853
X235.966Y-53.594
X235.966Y-146.812
T2
X82.0Y-58.0G85X82.0Y-57.0
G05
X84.0Y-58.0G85X84.0Y-57.0
G05
X86.0Y-58.0G85X86.0Y-57.0
G05
X88.0Y-58.0G85X88.0Y-57.0
G05
X98.0Y-58.0G85X98.0Y-57.0
G05
X100.0Y-58.0G85X100.0Y-57.0
G05
X102.0Y-58.0G85X102.0Y-57.0
G05
X104.0Y-58.0G85X104.0Y-57.0
G05
X106.0Y-58.0G85X106.0Y-57.0
G05
X108.0Y-58.0G85X108.0Y-57.0
G05
X110.0Y-58.0G85X110.0Y-57.0
G05
X112.0Y-58.0G85X112.0Y-57.0
G05
X114.0Y-58.0G85X114.0Y-57.0
G05
X116.0Y-58.0G85X116.0Y-57.0
G05
X118.0Y-58.0G85X118.0Y-57.0
G05
X120.0Y-58.0G85X120.0Y-57.0
G05
X122.0Y-58.0G85X122.0Y-57.0
G05
X124.0Y-58.0G85X124.0Y-57.0
G05
X126.0Y-58.0G85X126.0Y-57.0
G05
X128.0Y-58.0G85X128.0Y-57.0
G05
X130.0Y-58.0G85X130.0Y-57.0
G05
X132.0Y-58.0G85X132.0Y-57.0
G05
X190.0Y-58.0G85X190.0Y-57.0
G05
X192.0Y-58.0G85X192.0Y-57.0
G05
X194.0Y-58.0G85X194.0Y-57.0
G05
X200.0Y-58.0G85X200.0Y-57.0
G05
X202.0Y-58.0G85X202.0Y-57.0
G05
X212.0Y-58.0G85X212.0Y-57.0
G05
X214.0Y-58.0G85X214.0Y-57.0
G05
X216.0Y-58.0G85X216.0Y-57.0
G05
X218.0Y-58.0G85X218.0Y-57.0
G05
T8
X86.75Y-119.4G85X86.25Y-119.4
G05
X86.75Y-130.6G85X86.25Y-130.6
G05
X213.75Y-119.4G85X213.25Y-119.4
G05
X213.75Y-130.6G85X213.25Y-130.6
G05
M30
