G04 #@! TF.GenerationSoftware,KiCad,Pcbnew,7.0.10*
G04 #@! TF.CreationDate,2024-01-29T17:04:51+01:00*
G04 #@! TF.ProjectId,GP1294-Teens4,47503132-3934-42d5-9465-656e73342e6b,1.0.0*
G04 #@! TF.SameCoordinates,Original*
G04 #@! TF.FileFunction,Soldermask,Top*
G04 #@! TF.FilePolarity,Negative*
%FSLAX46Y46*%
G04 Gerber Fmt 4.6, Leading zero omitted, Abs format (unit mm)*
G04 Created by KiCad (PCBNEW 7.0.10) date 2024-01-29 17:04:51*
%MOMM*%
%LPD*%
G01*
G04 APERTURE LIST*
G04 Aperture macros list*
%AMRoundRect*
0 Rectangle with rounded corners*
0 $1 Rounding radius*
0 $2 $3 $4 $5 $6 $7 $8 $9 X,Y pos of 4 corners*
0 Add a 4 corners polygon primitive as box body*
4,1,4,$2,$3,$4,$5,$6,$7,$8,$9,$2,$3,0*
0 Add four circle primitives for the rounded corners*
1,1,$1+$1,$2,$3*
1,1,$1+$1,$4,$5*
1,1,$1+$1,$6,$7*
1,1,$1+$1,$8,$9*
0 Add four rect primitives between the rounded corners*
20,1,$1+$1,$2,$3,$4,$5,0*
20,1,$1+$1,$4,$5,$6,$7,0*
20,1,$1+$1,$6,$7,$8,$9,0*
20,1,$1+$1,$8,$9,$2,$3,0*%
%AMFreePoly0*
4,1,17,0.328853,0.743121,0.743121,0.328853,0.758000,0.292932,0.758000,-0.292932,0.743121,-0.328853,0.328853,-0.743121,0.292932,-0.758000,-0.292932,-0.758000,-0.328853,-0.743121,-0.743121,-0.328853,-0.758000,-0.292932,-0.758000,0.292932,-0.743121,0.328853,-0.328853,0.743121,-0.292932,0.758000,0.292932,0.758000,0.328853,0.743121,0.328853,0.743121,$1*%
G04 Aperture macros list end*
%ADD10RoundRect,0.050800X0.900000X-0.800000X0.900000X0.800000X-0.900000X0.800000X-0.900000X-0.800000X0*%
%ADD11RoundRect,0.050800X0.800000X0.900000X-0.800000X0.900000X-0.800000X-0.900000X0.800000X-0.900000X0*%
%ADD12R,2.000000X2.000000*%
%ADD13RoundRect,0.050800X-0.900000X0.800000X-0.900000X-0.800000X0.900000X-0.800000X0.900000X0.800000X0*%
%ADD14RoundRect,0.250000X-0.400000X-0.625000X0.400000X-0.625000X0.400000X0.625000X-0.400000X0.625000X0*%
%ADD15RoundRect,0.250000X0.400000X0.625000X-0.400000X0.625000X-0.400000X-0.625000X0.400000X-0.625000X0*%
%ADD16RoundRect,0.050800X1.925000X2.750000X-1.925000X2.750000X-1.925000X-2.750000X1.925000X-2.750000X0*%
%ADD17RoundRect,0.050800X-0.800000X-0.901500X0.800000X-0.901500X0.800000X0.901500X-0.800000X0.901500X0*%
%ADD18RoundRect,0.050800X-1.079500X0.533400X-1.079500X-0.533400X1.079500X-0.533400X1.079500X0.533400X0*%
%ADD19RoundRect,0.050800X-5.205000X5.400000X-5.205000X-5.400000X5.205000X-5.400000X5.205000X5.400000X0*%
%ADD20R,1.700000X2.500000*%
%ADD21O,1.700000X2.500000*%
%ADD22RoundRect,0.050800X0.800000X0.901500X-0.800000X0.901500X-0.800000X-0.901500X0.800000X-0.901500X0*%
%ADD23RoundRect,0.050800X-0.800000X-0.900000X0.800000X-0.900000X0.800000X0.900000X-0.800000X0.900000X0*%
%ADD24RoundRect,0.150000X0.725000X0.150000X-0.725000X0.150000X-0.725000X-0.150000X0.725000X-0.150000X0*%
%ADD25RoundRect,0.050800X-1.200000X-1.200000X1.200000X-1.200000X1.200000X1.200000X-1.200000X1.200000X0*%
%ADD26FreePoly0,270.000000*%
%ADD27RoundRect,0.050800X-0.800000X2.000000X-0.800000X-2.000000X0.800000X-2.000000X0.800000X2.000000X0*%
%ADD28RoundRect,0.050800X-1.350000X0.600000X-1.350000X-0.600000X1.350000X-0.600000X1.350000X0.600000X0*%
%ADD29O,4.000000X1.500000*%
%ADD30RoundRect,0.050800X-1.016000X0.330200X-1.016000X-0.330200X1.016000X-0.330200X1.016000X0.330200X0*%
%ADD31RoundRect,0.150000X-0.150000X0.725000X-0.150000X-0.725000X0.150000X-0.725000X0.150000X0.725000X0*%
%ADD32RoundRect,0.050800X-1.100000X0.300000X-1.100000X-0.300000X1.100000X-0.300000X1.100000X0.300000X0*%
%ADD33RoundRect,0.050800X2.250000X1.125000X-2.250000X1.125000X-2.250000X-1.125000X2.250000X-1.125000X0*%
%ADD34C,2.000000*%
%ADD35R,3.000000X2.500000*%
%ADD36O,1.727200X1.727200*%
%ADD37R,1.727200X1.727200*%
%ADD38C,3.000000*%
%ADD39R,1.600000X1.600000*%
%ADD40O,1.600000X1.600000*%
%ADD41O,1.500000X2.600000*%
G04 APERTURE END LIST*
D10*
X106172000Y-72012000D03*
X106172000Y-69212000D03*
D11*
X208410000Y-83566000D03*
X205610000Y-83566000D03*
X233048000Y-66802000D03*
X230248000Y-66802000D03*
D12*
X182626000Y-91694000D03*
X182626000Y-106934000D03*
D13*
X110236000Y-69212000D03*
X110236000Y-72012000D03*
D14*
X165519000Y-71628000D03*
X168619000Y-71628000D03*
D15*
X177635000Y-69088000D03*
X174535000Y-69088000D03*
D14*
X165582000Y-69088000D03*
X168682000Y-69088000D03*
D15*
X177572000Y-71628000D03*
X174472000Y-71628000D03*
D12*
X200152000Y-86868000D03*
D16*
X225403000Y-105918000D03*
X235353000Y-105918000D03*
D15*
X156998000Y-109474000D03*
X153898000Y-109474000D03*
X187415000Y-74198000D03*
X184315000Y-74198000D03*
X187415000Y-76708000D03*
X184315000Y-76708000D03*
D17*
X213970000Y-86868000D03*
X216814000Y-86868000D03*
D18*
X223062800Y-84480400D03*
X223062800Y-86182200D03*
X223062800Y-87884000D03*
X223062800Y-89585800D03*
X223062800Y-91287600D03*
D19*
X231394000Y-87884000D03*
D20*
X169968500Y-107012500D03*
D21*
X172508500Y-107012500D03*
X175048500Y-107012500D03*
D22*
X194716000Y-69850000D03*
X191872000Y-69850000D03*
X216814000Y-83820000D03*
X213970000Y-83820000D03*
D17*
X218846000Y-80518000D03*
X216002000Y-80518000D03*
D23*
X194180000Y-61214000D03*
X196980000Y-61214000D03*
D24*
X123987000Y-113919000D03*
X123987000Y-112649000D03*
X123987000Y-111379000D03*
X123987000Y-110109000D03*
X123987000Y-108839000D03*
X123987000Y-107569000D03*
X123987000Y-106299000D03*
X123987000Y-105029000D03*
X118837000Y-105029000D03*
X118837000Y-106299000D03*
X118837000Y-107569000D03*
X118837000Y-108839000D03*
X118837000Y-110109000D03*
X118837000Y-111379000D03*
X118837000Y-112649000D03*
X118837000Y-113919000D03*
D25*
X209210000Y-89154000D03*
X204810000Y-89154000D03*
D23*
X228216000Y-96520000D03*
X231016000Y-96520000D03*
X171444000Y-102108000D03*
X174244000Y-102108000D03*
D26*
X229250000Y-56130000D03*
X229250000Y-71370000D03*
D27*
X132588000Y-145036000D03*
X132588000Y-138936000D03*
D28*
X215900000Y-66666000D03*
X215900000Y-62366000D03*
D29*
X162348000Y-51328000D03*
X162348000Y-53868000D03*
X162348000Y-56408000D03*
X162348000Y-58948000D03*
X162348000Y-61488000D03*
X162348000Y-64028000D03*
X162348000Y-66568000D03*
X162348000Y-69108000D03*
X162348000Y-71648000D03*
X162348000Y-74188000D03*
X162348000Y-76728000D03*
X162348000Y-79268000D03*
X162348000Y-81808000D03*
X162348000Y-84348000D03*
X180848000Y-84328000D03*
X180848000Y-81788000D03*
X180848000Y-79248000D03*
X180848000Y-76708000D03*
X180848000Y-74168000D03*
X180848000Y-71628000D03*
X180848000Y-69088000D03*
X180848000Y-66548000D03*
X180848000Y-64008000D03*
X180848000Y-61468000D03*
X180848000Y-58928000D03*
X180848000Y-56388000D03*
X180848000Y-53848000D03*
X180848000Y-51308000D03*
D30*
X200380600Y-66548000D03*
X200380600Y-67818000D03*
X200380600Y-69088000D03*
X200380600Y-70358000D03*
X200380600Y-71628000D03*
X200380600Y-72898000D03*
X200380600Y-74168000D03*
X206527400Y-74168000D03*
X206527400Y-72898000D03*
X206527400Y-71628000D03*
X206527400Y-70358000D03*
X206527400Y-69088000D03*
X206527400Y-67818000D03*
X206527400Y-66548000D03*
D31*
X165227000Y-137633000D03*
X163957000Y-137633000D03*
X162687000Y-137633000D03*
X161417000Y-137633000D03*
X160147000Y-137633000D03*
X158877000Y-137633000D03*
X157607000Y-137633000D03*
X156337000Y-137633000D03*
X156337000Y-142783000D03*
X157607000Y-142783000D03*
X158877000Y-142783000D03*
X160147000Y-142783000D03*
X161417000Y-142783000D03*
X162687000Y-142783000D03*
X163957000Y-142783000D03*
X165227000Y-142783000D03*
D32*
X220278000Y-72517000D03*
X220278000Y-73787000D03*
X220278000Y-75057000D03*
X220278000Y-76327000D03*
X215078000Y-76327000D03*
X215078000Y-75057000D03*
X215078000Y-73787000D03*
X215078000Y-72517000D03*
D33*
X222504000Y-60625000D03*
X222504000Y-67391000D03*
D25*
X232832000Y-60706000D03*
X228432000Y-60706000D03*
D11*
X194694000Y-67056000D03*
X191894000Y-67056000D03*
D12*
X221000000Y-122500000D03*
D34*
X221000000Y-127500000D03*
X221000000Y-125000000D03*
D35*
X213500000Y-130600000D03*
X213500000Y-119400000D03*
D34*
X206500000Y-122500000D03*
X206500000Y-127500000D03*
D36*
X100653000Y-141079000D03*
X100653000Y-143619000D03*
X103193000Y-141079000D03*
X103193000Y-143619000D03*
X105733000Y-141079000D03*
X105733000Y-143619000D03*
X108273000Y-141079000D03*
X108273000Y-143619000D03*
X110813000Y-141079000D03*
X110813000Y-143619000D03*
X113353000Y-141079000D03*
X113353000Y-143619000D03*
X115893000Y-141079000D03*
X115893000Y-143619000D03*
X118433000Y-141079000D03*
D37*
X118433000Y-143619000D03*
D38*
X137338000Y-120268000D03*
X137338000Y-124968000D03*
X137338000Y-129668000D03*
D39*
X159004000Y-113284000D03*
D40*
X156464000Y-113284000D03*
X153924000Y-113284000D03*
X151384000Y-113284000D03*
X148844000Y-113284000D03*
X146304000Y-113284000D03*
X143764000Y-113284000D03*
X143764000Y-105664000D03*
X146304000Y-105664000D03*
X148844000Y-105664000D03*
X151384000Y-105664000D03*
X153924000Y-105664000D03*
X156464000Y-105664000D03*
X159004000Y-105664000D03*
D12*
X94000000Y-122500000D03*
D34*
X94000000Y-127500000D03*
X94000000Y-125000000D03*
D35*
X86500000Y-130600000D03*
X86500000Y-119400000D03*
D34*
X79500000Y-122500000D03*
X79500000Y-127500000D03*
D38*
X175664000Y-120268000D03*
X175664000Y-124968000D03*
X175664000Y-129668000D03*
X194714000Y-120268000D03*
X194714000Y-124968000D03*
X194714000Y-129668000D03*
D41*
X82000000Y-57500000D03*
X84000000Y-57500000D03*
X86000000Y-57500000D03*
X88000000Y-57500000D03*
X98000000Y-57500000D03*
X100000000Y-57500000D03*
X102000000Y-57500000D03*
X104000000Y-57500000D03*
X106000000Y-57500000D03*
X108000000Y-57500000D03*
X110000000Y-57500000D03*
X112000000Y-57500000D03*
X114000000Y-57500000D03*
X116000000Y-57500000D03*
X118000000Y-57500000D03*
X120000000Y-57500000D03*
X122000000Y-57500000D03*
X124000000Y-57500000D03*
X126000000Y-57500000D03*
X128000000Y-57500000D03*
X130000000Y-57500000D03*
X132000000Y-57500000D03*
X190000000Y-57500000D03*
X192000000Y-57500000D03*
X194000000Y-57500000D03*
X200000000Y-57500000D03*
X202000000Y-57500000D03*
X212000000Y-57500000D03*
X214000000Y-57500000D03*
X216000000Y-57500000D03*
X218000000Y-57500000D03*
D38*
X118156000Y-120396000D03*
X118156000Y-125096000D03*
X118156000Y-129796000D03*
X156473020Y-120258285D03*
X156473020Y-124958285D03*
X156473020Y-129658285D03*
M02*
