G04 #@! TF.GenerationSoftware,KiCad,Pcbnew,7.0.10*
G04 #@! TF.CreationDate,2024-01-29T17:04:51+01:00*
G04 #@! TF.ProjectId,GP1294-Teens4,47503132-3934-42d5-9465-656e73342e6b,1.0.0*
G04 #@! TF.SameCoordinates,Original*
G04 #@! TF.FileFunction,Legend,Top*
G04 #@! TF.FilePolarity,Positive*
%FSLAX46Y46*%
G04 Gerber Fmt 4.6, Leading zero omitted, Abs format (unit mm)*
G04 Created by KiCad (PCBNEW 7.0.10) date 2024-01-29 17:04:51*
%MOMM*%
%LPD*%
G01*
G04 APERTURE LIST*
G04 Aperture macros list*
%AMRoundRect*
0 Rectangle with rounded corners*
0 $1 Rounding radius*
0 $2 $3 $4 $5 $6 $7 $8 $9 X,Y pos of 4 corners*
0 Add a 4 corners polygon primitive as box body*
4,1,4,$2,$3,$4,$5,$6,$7,$8,$9,$2,$3,0*
0 Add four circle primitives for the rounded corners*
1,1,$1+$1,$2,$3*
1,1,$1+$1,$4,$5*
1,1,$1+$1,$6,$7*
1,1,$1+$1,$8,$9*
0 Add four rect primitives between the rounded corners*
20,1,$1+$1,$2,$3,$4,$5,0*
20,1,$1+$1,$4,$5,$6,$7,0*
20,1,$1+$1,$6,$7,$8,$9,0*
20,1,$1+$1,$8,$9,$2,$3,0*%
%AMFreePoly0*
4,1,17,0.328853,0.743121,0.743121,0.328853,0.758000,0.292932,0.758000,-0.292932,0.743121,-0.328853,0.328853,-0.743121,0.292932,-0.758000,-0.292932,-0.758000,-0.328853,-0.743121,-0.743121,-0.328853,-0.758000,-0.292932,-0.758000,0.292932,-0.743121,0.328853,-0.328853,0.743121,-0.292932,0.758000,0.292932,0.758000,0.328853,0.743121,0.328853,0.743121,$1*%
G04 Aperture macros list end*
%ADD10C,0.101600*%
%ADD11C,0.150000*%
%ADD12C,0.100000*%
%ADD13C,0.127000*%
%ADD14C,0.120000*%
%ADD15C,0.203200*%
%ADD16C,1.016000*%
%ADD17C,0.152400*%
%ADD18C,0.050800*%
%ADD19RoundRect,0.050800X0.900000X-0.800000X0.900000X0.800000X-0.900000X0.800000X-0.900000X-0.800000X0*%
%ADD20RoundRect,0.050800X0.800000X0.900000X-0.800000X0.900000X-0.800000X-0.900000X0.800000X-0.900000X0*%
%ADD21R,2.000000X2.000000*%
%ADD22RoundRect,0.050800X-0.900000X0.800000X-0.900000X-0.800000X0.900000X-0.800000X0.900000X0.800000X0*%
%ADD23RoundRect,0.250000X-0.400000X-0.625000X0.400000X-0.625000X0.400000X0.625000X-0.400000X0.625000X0*%
%ADD24RoundRect,0.250000X0.400000X0.625000X-0.400000X0.625000X-0.400000X-0.625000X0.400000X-0.625000X0*%
%ADD25RoundRect,0.050800X1.925000X2.750000X-1.925000X2.750000X-1.925000X-2.750000X1.925000X-2.750000X0*%
%ADD26RoundRect,0.050800X-0.800000X-0.901500X0.800000X-0.901500X0.800000X0.901500X-0.800000X0.901500X0*%
%ADD27RoundRect,0.050800X-1.079500X0.533400X-1.079500X-0.533400X1.079500X-0.533400X1.079500X0.533400X0*%
%ADD28RoundRect,0.050800X-5.205000X5.400000X-5.205000X-5.400000X5.205000X-5.400000X5.205000X5.400000X0*%
%ADD29R,1.700000X2.500000*%
%ADD30O,1.700000X2.500000*%
%ADD31RoundRect,0.050800X0.800000X0.901500X-0.800000X0.901500X-0.800000X-0.901500X0.800000X-0.901500X0*%
%ADD32RoundRect,0.050800X-0.800000X-0.900000X0.800000X-0.900000X0.800000X0.900000X-0.800000X0.900000X0*%
%ADD33RoundRect,0.150000X0.725000X0.150000X-0.725000X0.150000X-0.725000X-0.150000X0.725000X-0.150000X0*%
%ADD34RoundRect,0.050800X-1.200000X-1.200000X1.200000X-1.200000X1.200000X1.200000X-1.200000X1.200000X0*%
%ADD35FreePoly0,270.000000*%
%ADD36RoundRect,0.050800X-0.800000X2.000000X-0.800000X-2.000000X0.800000X-2.000000X0.800000X2.000000X0*%
%ADD37RoundRect,0.050800X-1.350000X0.600000X-1.350000X-0.600000X1.350000X-0.600000X1.350000X0.600000X0*%
%ADD38O,4.000000X1.500000*%
%ADD39RoundRect,0.050800X-1.016000X0.330200X-1.016000X-0.330200X1.016000X-0.330200X1.016000X0.330200X0*%
%ADD40RoundRect,0.150000X-0.150000X0.725000X-0.150000X-0.725000X0.150000X-0.725000X0.150000X0.725000X0*%
%ADD41RoundRect,0.050800X-1.100000X0.300000X-1.100000X-0.300000X1.100000X-0.300000X1.100000X0.300000X0*%
%ADD42RoundRect,0.050800X2.250000X1.125000X-2.250000X1.125000X-2.250000X-1.125000X2.250000X-1.125000X0*%
%ADD43C,2.000000*%
%ADD44R,3.000000X2.500000*%
%ADD45O,1.727200X1.727200*%
%ADD46R,1.727200X1.727200*%
%ADD47C,3.000000*%
%ADD48R,1.600000X1.600000*%
%ADD49O,1.600000X1.600000*%
%ADD50O,1.500000X2.600000*%
G04 APERTURE END LIST*
D10*
X104642449Y-70869310D02*
X104698088Y-70924948D01*
X104698088Y-70924948D02*
X104753726Y-71091862D01*
X104753726Y-71091862D02*
X104753726Y-71203138D01*
X104753726Y-71203138D02*
X104698088Y-71370053D01*
X104698088Y-71370053D02*
X104586811Y-71481329D01*
X104586811Y-71481329D02*
X104475535Y-71536967D01*
X104475535Y-71536967D02*
X104252983Y-71592605D01*
X104252983Y-71592605D02*
X104086068Y-71592605D01*
X104086068Y-71592605D02*
X103863516Y-71536967D01*
X103863516Y-71536967D02*
X103752240Y-71481329D01*
X103752240Y-71481329D02*
X103640964Y-71370053D01*
X103640964Y-71370053D02*
X103585326Y-71203138D01*
X103585326Y-71203138D02*
X103585326Y-71091862D01*
X103585326Y-71091862D02*
X103640964Y-70924948D01*
X103640964Y-70924948D02*
X103696602Y-70869310D01*
X104753726Y-70312929D02*
X104753726Y-70090377D01*
X104753726Y-70090377D02*
X104698088Y-69979100D01*
X104698088Y-69979100D02*
X104642449Y-69923462D01*
X104642449Y-69923462D02*
X104475535Y-69812186D01*
X104475535Y-69812186D02*
X104252983Y-69756548D01*
X104252983Y-69756548D02*
X103807878Y-69756548D01*
X103807878Y-69756548D02*
X103696602Y-69812186D01*
X103696602Y-69812186D02*
X103640964Y-69867824D01*
X103640964Y-69867824D02*
X103585326Y-69979100D01*
X103585326Y-69979100D02*
X103585326Y-70201653D01*
X103585326Y-70201653D02*
X103640964Y-70312929D01*
X103640964Y-70312929D02*
X103696602Y-70368567D01*
X103696602Y-70368567D02*
X103807878Y-70424205D01*
X103807878Y-70424205D02*
X104086068Y-70424205D01*
X104086068Y-70424205D02*
X104197345Y-70368567D01*
X104197345Y-70368567D02*
X104252983Y-70312929D01*
X104252983Y-70312929D02*
X104308621Y-70201653D01*
X104308621Y-70201653D02*
X104308621Y-69979100D01*
X104308621Y-69979100D02*
X104252983Y-69867824D01*
X104252983Y-69867824D02*
X104197345Y-69812186D01*
X104197345Y-69812186D02*
X104086068Y-69756548D01*
X209292689Y-84576449D02*
X209237051Y-84632088D01*
X209237051Y-84632088D02*
X209070137Y-84687726D01*
X209070137Y-84687726D02*
X208958861Y-84687726D01*
X208958861Y-84687726D02*
X208791946Y-84632088D01*
X208791946Y-84632088D02*
X208680670Y-84520811D01*
X208680670Y-84520811D02*
X208625032Y-84409535D01*
X208625032Y-84409535D02*
X208569394Y-84186983D01*
X208569394Y-84186983D02*
X208569394Y-84020068D01*
X208569394Y-84020068D02*
X208625032Y-83797516D01*
X208625032Y-83797516D02*
X208680670Y-83686240D01*
X208680670Y-83686240D02*
X208791946Y-83574964D01*
X208791946Y-83574964D02*
X208958861Y-83519326D01*
X208958861Y-83519326D02*
X209070137Y-83519326D01*
X209070137Y-83519326D02*
X209237051Y-83574964D01*
X209237051Y-83574964D02*
X209292689Y-83630602D01*
X210294175Y-83908792D02*
X210294175Y-84687726D01*
X210015984Y-83463688D02*
X209737794Y-84298259D01*
X209737794Y-84298259D02*
X210461089Y-84298259D01*
X233930689Y-67812449D02*
X233875051Y-67868088D01*
X233875051Y-67868088D02*
X233708137Y-67923726D01*
X233708137Y-67923726D02*
X233596861Y-67923726D01*
X233596861Y-67923726D02*
X233429946Y-67868088D01*
X233429946Y-67868088D02*
X233318670Y-67756811D01*
X233318670Y-67756811D02*
X233263032Y-67645535D01*
X233263032Y-67645535D02*
X233207394Y-67422983D01*
X233207394Y-67422983D02*
X233207394Y-67256068D01*
X233207394Y-67256068D02*
X233263032Y-67033516D01*
X233263032Y-67033516D02*
X233318670Y-66922240D01*
X233318670Y-66922240D02*
X233429946Y-66810964D01*
X233429946Y-66810964D02*
X233596861Y-66755326D01*
X233596861Y-66755326D02*
X233708137Y-66755326D01*
X233708137Y-66755326D02*
X233875051Y-66810964D01*
X233875051Y-66810964D02*
X233930689Y-66866602D01*
X234598346Y-67256068D02*
X234487070Y-67200430D01*
X234487070Y-67200430D02*
X234431432Y-67144792D01*
X234431432Y-67144792D02*
X234375794Y-67033516D01*
X234375794Y-67033516D02*
X234375794Y-66977878D01*
X234375794Y-66977878D02*
X234431432Y-66866602D01*
X234431432Y-66866602D02*
X234487070Y-66810964D01*
X234487070Y-66810964D02*
X234598346Y-66755326D01*
X234598346Y-66755326D02*
X234820899Y-66755326D01*
X234820899Y-66755326D02*
X234932175Y-66810964D01*
X234932175Y-66810964D02*
X234987813Y-66866602D01*
X234987813Y-66866602D02*
X235043451Y-66977878D01*
X235043451Y-66977878D02*
X235043451Y-67033516D01*
X235043451Y-67033516D02*
X234987813Y-67144792D01*
X234987813Y-67144792D02*
X234932175Y-67200430D01*
X234932175Y-67200430D02*
X234820899Y-67256068D01*
X234820899Y-67256068D02*
X234598346Y-67256068D01*
X234598346Y-67256068D02*
X234487070Y-67311707D01*
X234487070Y-67311707D02*
X234431432Y-67367345D01*
X234431432Y-67367345D02*
X234375794Y-67478621D01*
X234375794Y-67478621D02*
X234375794Y-67701173D01*
X234375794Y-67701173D02*
X234431432Y-67812449D01*
X234431432Y-67812449D02*
X234487070Y-67868088D01*
X234487070Y-67868088D02*
X234598346Y-67923726D01*
X234598346Y-67923726D02*
X234820899Y-67923726D01*
X234820899Y-67923726D02*
X234932175Y-67868088D01*
X234932175Y-67868088D02*
X234987813Y-67812449D01*
X234987813Y-67812449D02*
X235043451Y-67701173D01*
X235043451Y-67701173D02*
X235043451Y-67478621D01*
X235043451Y-67478621D02*
X234987813Y-67367345D01*
X234987813Y-67367345D02*
X234932175Y-67311707D01*
X234932175Y-67311707D02*
X234820899Y-67256068D01*
D11*
X181364095Y-89150819D02*
X181935523Y-89150819D01*
X181649809Y-90150819D02*
X181649809Y-89150819D01*
X182268857Y-90150819D02*
X182268857Y-89150819D01*
X182268857Y-89150819D02*
X182649809Y-89150819D01*
X182649809Y-89150819D02*
X182745047Y-89198438D01*
X182745047Y-89198438D02*
X182792666Y-89246057D01*
X182792666Y-89246057D02*
X182840285Y-89341295D01*
X182840285Y-89341295D02*
X182840285Y-89484152D01*
X182840285Y-89484152D02*
X182792666Y-89579390D01*
X182792666Y-89579390D02*
X182745047Y-89627009D01*
X182745047Y-89627009D02*
X182649809Y-89674628D01*
X182649809Y-89674628D02*
X182268857Y-89674628D01*
X183173619Y-89150819D02*
X183792666Y-89150819D01*
X183792666Y-89150819D02*
X183459333Y-89531771D01*
X183459333Y-89531771D02*
X183602190Y-89531771D01*
X183602190Y-89531771D02*
X183697428Y-89579390D01*
X183697428Y-89579390D02*
X183745047Y-89627009D01*
X183745047Y-89627009D02*
X183792666Y-89722247D01*
X183792666Y-89722247D02*
X183792666Y-89960342D01*
X183792666Y-89960342D02*
X183745047Y-90055580D01*
X183745047Y-90055580D02*
X183697428Y-90103200D01*
X183697428Y-90103200D02*
X183602190Y-90150819D01*
X183602190Y-90150819D02*
X183316476Y-90150819D01*
X183316476Y-90150819D02*
X183221238Y-90103200D01*
X183221238Y-90103200D02*
X183173619Y-90055580D01*
X181364095Y-104390819D02*
X181935523Y-104390819D01*
X181649809Y-105390819D02*
X181649809Y-104390819D01*
X182268857Y-105390819D02*
X182268857Y-104390819D01*
X182268857Y-104390819D02*
X182649809Y-104390819D01*
X182649809Y-104390819D02*
X182745047Y-104438438D01*
X182745047Y-104438438D02*
X182792666Y-104486057D01*
X182792666Y-104486057D02*
X182840285Y-104581295D01*
X182840285Y-104581295D02*
X182840285Y-104724152D01*
X182840285Y-104724152D02*
X182792666Y-104819390D01*
X182792666Y-104819390D02*
X182745047Y-104867009D01*
X182745047Y-104867009D02*
X182649809Y-104914628D01*
X182649809Y-104914628D02*
X182268857Y-104914628D01*
X183221238Y-104486057D02*
X183268857Y-104438438D01*
X183268857Y-104438438D02*
X183364095Y-104390819D01*
X183364095Y-104390819D02*
X183602190Y-104390819D01*
X183602190Y-104390819D02*
X183697428Y-104438438D01*
X183697428Y-104438438D02*
X183745047Y-104486057D01*
X183745047Y-104486057D02*
X183792666Y-104581295D01*
X183792666Y-104581295D02*
X183792666Y-104676533D01*
X183792666Y-104676533D02*
X183745047Y-104819390D01*
X183745047Y-104819390D02*
X183173619Y-105390819D01*
X183173619Y-105390819D02*
X183792666Y-105390819D01*
D10*
X111246449Y-70744156D02*
X111302088Y-70799794D01*
X111302088Y-70799794D02*
X111357726Y-70966708D01*
X111357726Y-70966708D02*
X111357726Y-71077984D01*
X111357726Y-71077984D02*
X111302088Y-71244899D01*
X111302088Y-71244899D02*
X111190811Y-71356175D01*
X111190811Y-71356175D02*
X111079535Y-71411813D01*
X111079535Y-71411813D02*
X110856983Y-71467451D01*
X110856983Y-71467451D02*
X110690068Y-71467451D01*
X110690068Y-71467451D02*
X110467516Y-71411813D01*
X110467516Y-71411813D02*
X110356240Y-71356175D01*
X110356240Y-71356175D02*
X110244964Y-71244899D01*
X110244964Y-71244899D02*
X110189326Y-71077984D01*
X110189326Y-71077984D02*
X110189326Y-70966708D01*
X110189326Y-70966708D02*
X110244964Y-70799794D01*
X110244964Y-70799794D02*
X110300602Y-70744156D01*
X110189326Y-69742670D02*
X110189326Y-69965223D01*
X110189326Y-69965223D02*
X110244964Y-70076499D01*
X110244964Y-70076499D02*
X110300602Y-70132137D01*
X110300602Y-70132137D02*
X110467516Y-70243413D01*
X110467516Y-70243413D02*
X110690068Y-70299051D01*
X110690068Y-70299051D02*
X111135173Y-70299051D01*
X111135173Y-70299051D02*
X111246449Y-70243413D01*
X111246449Y-70243413D02*
X111302088Y-70187775D01*
X111302088Y-70187775D02*
X111357726Y-70076499D01*
X111357726Y-70076499D02*
X111357726Y-69853946D01*
X111357726Y-69853946D02*
X111302088Y-69742670D01*
X111302088Y-69742670D02*
X111246449Y-69687032D01*
X111246449Y-69687032D02*
X111135173Y-69631394D01*
X111135173Y-69631394D02*
X110856983Y-69631394D01*
X110856983Y-69631394D02*
X110745707Y-69687032D01*
X110745707Y-69687032D02*
X110690068Y-69742670D01*
X110690068Y-69742670D02*
X110634430Y-69853946D01*
X110634430Y-69853946D02*
X110634430Y-70076499D01*
X110634430Y-70076499D02*
X110690068Y-70187775D01*
X110690068Y-70187775D02*
X110745707Y-70243413D01*
X110745707Y-70243413D02*
X110856983Y-70299051D01*
D11*
X166902333Y-70262819D02*
X166569000Y-69786628D01*
X166330905Y-70262819D02*
X166330905Y-69262819D01*
X166330905Y-69262819D02*
X166711857Y-69262819D01*
X166711857Y-69262819D02*
X166807095Y-69310438D01*
X166807095Y-69310438D02*
X166854714Y-69358057D01*
X166854714Y-69358057D02*
X166902333Y-69453295D01*
X166902333Y-69453295D02*
X166902333Y-69596152D01*
X166902333Y-69596152D02*
X166854714Y-69691390D01*
X166854714Y-69691390D02*
X166807095Y-69739009D01*
X166807095Y-69739009D02*
X166711857Y-69786628D01*
X166711857Y-69786628D02*
X166330905Y-69786628D01*
X167235667Y-69262819D02*
X167902333Y-69262819D01*
X167902333Y-69262819D02*
X167473762Y-70262819D01*
X175918333Y-71362819D02*
X175585000Y-70886628D01*
X175346905Y-71362819D02*
X175346905Y-70362819D01*
X175346905Y-70362819D02*
X175727857Y-70362819D01*
X175727857Y-70362819D02*
X175823095Y-70410438D01*
X175823095Y-70410438D02*
X175870714Y-70458057D01*
X175870714Y-70458057D02*
X175918333Y-70553295D01*
X175918333Y-70553295D02*
X175918333Y-70696152D01*
X175918333Y-70696152D02*
X175870714Y-70791390D01*
X175870714Y-70791390D02*
X175823095Y-70839009D01*
X175823095Y-70839009D02*
X175727857Y-70886628D01*
X175727857Y-70886628D02*
X175346905Y-70886628D01*
X176489762Y-70791390D02*
X176394524Y-70743771D01*
X176394524Y-70743771D02*
X176346905Y-70696152D01*
X176346905Y-70696152D02*
X176299286Y-70600914D01*
X176299286Y-70600914D02*
X176299286Y-70553295D01*
X176299286Y-70553295D02*
X176346905Y-70458057D01*
X176346905Y-70458057D02*
X176394524Y-70410438D01*
X176394524Y-70410438D02*
X176489762Y-70362819D01*
X176489762Y-70362819D02*
X176680238Y-70362819D01*
X176680238Y-70362819D02*
X176775476Y-70410438D01*
X176775476Y-70410438D02*
X176823095Y-70458057D01*
X176823095Y-70458057D02*
X176870714Y-70553295D01*
X176870714Y-70553295D02*
X176870714Y-70600914D01*
X176870714Y-70600914D02*
X176823095Y-70696152D01*
X176823095Y-70696152D02*
X176775476Y-70743771D01*
X176775476Y-70743771D02*
X176680238Y-70791390D01*
X176680238Y-70791390D02*
X176489762Y-70791390D01*
X176489762Y-70791390D02*
X176394524Y-70839009D01*
X176394524Y-70839009D02*
X176346905Y-70886628D01*
X176346905Y-70886628D02*
X176299286Y-70981866D01*
X176299286Y-70981866D02*
X176299286Y-71172342D01*
X176299286Y-71172342D02*
X176346905Y-71267580D01*
X176346905Y-71267580D02*
X176394524Y-71315200D01*
X176394524Y-71315200D02*
X176489762Y-71362819D01*
X176489762Y-71362819D02*
X176680238Y-71362819D01*
X176680238Y-71362819D02*
X176775476Y-71315200D01*
X176775476Y-71315200D02*
X176823095Y-71267580D01*
X176823095Y-71267580D02*
X176870714Y-71172342D01*
X176870714Y-71172342D02*
X176870714Y-70981866D01*
X176870714Y-70981866D02*
X176823095Y-70886628D01*
X176823095Y-70886628D02*
X176775476Y-70839009D01*
X176775476Y-70839009D02*
X176680238Y-70791390D01*
X166965333Y-67722819D02*
X166632000Y-67246628D01*
X166393905Y-67722819D02*
X166393905Y-66722819D01*
X166393905Y-66722819D02*
X166774857Y-66722819D01*
X166774857Y-66722819D02*
X166870095Y-66770438D01*
X166870095Y-66770438D02*
X166917714Y-66818057D01*
X166917714Y-66818057D02*
X166965333Y-66913295D01*
X166965333Y-66913295D02*
X166965333Y-67056152D01*
X166965333Y-67056152D02*
X166917714Y-67151390D01*
X166917714Y-67151390D02*
X166870095Y-67199009D01*
X166870095Y-67199009D02*
X166774857Y-67246628D01*
X166774857Y-67246628D02*
X166393905Y-67246628D01*
X167822476Y-66722819D02*
X167632000Y-66722819D01*
X167632000Y-66722819D02*
X167536762Y-66770438D01*
X167536762Y-66770438D02*
X167489143Y-66818057D01*
X167489143Y-66818057D02*
X167393905Y-66960914D01*
X167393905Y-66960914D02*
X167346286Y-67151390D01*
X167346286Y-67151390D02*
X167346286Y-67532342D01*
X167346286Y-67532342D02*
X167393905Y-67627580D01*
X167393905Y-67627580D02*
X167441524Y-67675200D01*
X167441524Y-67675200D02*
X167536762Y-67722819D01*
X167536762Y-67722819D02*
X167727238Y-67722819D01*
X167727238Y-67722819D02*
X167822476Y-67675200D01*
X167822476Y-67675200D02*
X167870095Y-67627580D01*
X167870095Y-67627580D02*
X167917714Y-67532342D01*
X167917714Y-67532342D02*
X167917714Y-67294247D01*
X167917714Y-67294247D02*
X167870095Y-67199009D01*
X167870095Y-67199009D02*
X167822476Y-67151390D01*
X167822476Y-67151390D02*
X167727238Y-67103771D01*
X167727238Y-67103771D02*
X167536762Y-67103771D01*
X167536762Y-67103771D02*
X167441524Y-67151390D01*
X167441524Y-67151390D02*
X167393905Y-67199009D01*
X167393905Y-67199009D02*
X167346286Y-67294247D01*
X175855333Y-73902819D02*
X175522000Y-73426628D01*
X175283905Y-73902819D02*
X175283905Y-72902819D01*
X175283905Y-72902819D02*
X175664857Y-72902819D01*
X175664857Y-72902819D02*
X175760095Y-72950438D01*
X175760095Y-72950438D02*
X175807714Y-72998057D01*
X175807714Y-72998057D02*
X175855333Y-73093295D01*
X175855333Y-73093295D02*
X175855333Y-73236152D01*
X175855333Y-73236152D02*
X175807714Y-73331390D01*
X175807714Y-73331390D02*
X175760095Y-73379009D01*
X175760095Y-73379009D02*
X175664857Y-73426628D01*
X175664857Y-73426628D02*
X175283905Y-73426628D01*
X176331524Y-73902819D02*
X176522000Y-73902819D01*
X176522000Y-73902819D02*
X176617238Y-73855200D01*
X176617238Y-73855200D02*
X176664857Y-73807580D01*
X176664857Y-73807580D02*
X176760095Y-73664723D01*
X176760095Y-73664723D02*
X176807714Y-73474247D01*
X176807714Y-73474247D02*
X176807714Y-73093295D01*
X176807714Y-73093295D02*
X176760095Y-72998057D01*
X176760095Y-72998057D02*
X176712476Y-72950438D01*
X176712476Y-72950438D02*
X176617238Y-72902819D01*
X176617238Y-72902819D02*
X176426762Y-72902819D01*
X176426762Y-72902819D02*
X176331524Y-72950438D01*
X176331524Y-72950438D02*
X176283905Y-72998057D01*
X176283905Y-72998057D02*
X176236286Y-73093295D01*
X176236286Y-73093295D02*
X176236286Y-73331390D01*
X176236286Y-73331390D02*
X176283905Y-73426628D01*
X176283905Y-73426628D02*
X176331524Y-73474247D01*
X176331524Y-73474247D02*
X176426762Y-73521866D01*
X176426762Y-73521866D02*
X176617238Y-73521866D01*
X176617238Y-73521866D02*
X176712476Y-73474247D01*
X176712476Y-73474247D02*
X176760095Y-73426628D01*
X176760095Y-73426628D02*
X176807714Y-73331390D01*
X198890095Y-84324819D02*
X199461523Y-84324819D01*
X199175809Y-85324819D02*
X199175809Y-84324819D01*
X199794857Y-85324819D02*
X199794857Y-84324819D01*
X199794857Y-84324819D02*
X200175809Y-84324819D01*
X200175809Y-84324819D02*
X200271047Y-84372438D01*
X200271047Y-84372438D02*
X200318666Y-84420057D01*
X200318666Y-84420057D02*
X200366285Y-84515295D01*
X200366285Y-84515295D02*
X200366285Y-84658152D01*
X200366285Y-84658152D02*
X200318666Y-84753390D01*
X200318666Y-84753390D02*
X200271047Y-84801009D01*
X200271047Y-84801009D02*
X200175809Y-84848628D01*
X200175809Y-84848628D02*
X199794857Y-84848628D01*
X201318666Y-85324819D02*
X200747238Y-85324819D01*
X201032952Y-85324819D02*
X201032952Y-84324819D01*
X201032952Y-84324819D02*
X200937714Y-84467676D01*
X200937714Y-84467676D02*
X200842476Y-84562914D01*
X200842476Y-84562914D02*
X200747238Y-84610533D01*
D10*
X231587119Y-108769726D02*
X231030738Y-108769726D01*
X231030738Y-108769726D02*
X231030738Y-107601326D01*
X231865310Y-107601326D02*
X232588605Y-107601326D01*
X232588605Y-107601326D02*
X232199138Y-108046430D01*
X232199138Y-108046430D02*
X232366053Y-108046430D01*
X232366053Y-108046430D02*
X232477329Y-108102068D01*
X232477329Y-108102068D02*
X232532967Y-108157707D01*
X232532967Y-108157707D02*
X232588605Y-108268983D01*
X232588605Y-108268983D02*
X232588605Y-108547173D01*
X232588605Y-108547173D02*
X232532967Y-108658449D01*
X232532967Y-108658449D02*
X232477329Y-108714088D01*
X232477329Y-108714088D02*
X232366053Y-108769726D01*
X232366053Y-108769726D02*
X232032224Y-108769726D01*
X232032224Y-108769726D02*
X231920948Y-108714088D01*
X231920948Y-108714088D02*
X231865310Y-108658449D01*
D11*
X154805142Y-111748819D02*
X154471809Y-111272628D01*
X154233714Y-111748819D02*
X154233714Y-110748819D01*
X154233714Y-110748819D02*
X154614666Y-110748819D01*
X154614666Y-110748819D02*
X154709904Y-110796438D01*
X154709904Y-110796438D02*
X154757523Y-110844057D01*
X154757523Y-110844057D02*
X154805142Y-110939295D01*
X154805142Y-110939295D02*
X154805142Y-111082152D01*
X154805142Y-111082152D02*
X154757523Y-111177390D01*
X154757523Y-111177390D02*
X154709904Y-111225009D01*
X154709904Y-111225009D02*
X154614666Y-111272628D01*
X154614666Y-111272628D02*
X154233714Y-111272628D01*
X155757523Y-111748819D02*
X155186095Y-111748819D01*
X155471809Y-111748819D02*
X155471809Y-110748819D01*
X155471809Y-110748819D02*
X155376571Y-110891676D01*
X155376571Y-110891676D02*
X155281333Y-110986914D01*
X155281333Y-110986914D02*
X155186095Y-111034533D01*
X156376571Y-110748819D02*
X156471809Y-110748819D01*
X156471809Y-110748819D02*
X156567047Y-110796438D01*
X156567047Y-110796438D02*
X156614666Y-110844057D01*
X156614666Y-110844057D02*
X156662285Y-110939295D01*
X156662285Y-110939295D02*
X156709904Y-111129771D01*
X156709904Y-111129771D02*
X156709904Y-111367866D01*
X156709904Y-111367866D02*
X156662285Y-111558342D01*
X156662285Y-111558342D02*
X156614666Y-111653580D01*
X156614666Y-111653580D02*
X156567047Y-111701200D01*
X156567047Y-111701200D02*
X156471809Y-111748819D01*
X156471809Y-111748819D02*
X156376571Y-111748819D01*
X156376571Y-111748819D02*
X156281333Y-111701200D01*
X156281333Y-111701200D02*
X156233714Y-111653580D01*
X156233714Y-111653580D02*
X156186095Y-111558342D01*
X156186095Y-111558342D02*
X156138476Y-111367866D01*
X156138476Y-111367866D02*
X156138476Y-111129771D01*
X156138476Y-111129771D02*
X156186095Y-110939295D01*
X156186095Y-110939295D02*
X156233714Y-110844057D01*
X156233714Y-110844057D02*
X156281333Y-110796438D01*
X156281333Y-110796438D02*
X156376571Y-110748819D01*
X185222142Y-76472819D02*
X184888809Y-75996628D01*
X184650714Y-76472819D02*
X184650714Y-75472819D01*
X184650714Y-75472819D02*
X185031666Y-75472819D01*
X185031666Y-75472819D02*
X185126904Y-75520438D01*
X185126904Y-75520438D02*
X185174523Y-75568057D01*
X185174523Y-75568057D02*
X185222142Y-75663295D01*
X185222142Y-75663295D02*
X185222142Y-75806152D01*
X185222142Y-75806152D02*
X185174523Y-75901390D01*
X185174523Y-75901390D02*
X185126904Y-75949009D01*
X185126904Y-75949009D02*
X185031666Y-75996628D01*
X185031666Y-75996628D02*
X184650714Y-75996628D01*
X186174523Y-76472819D02*
X185603095Y-76472819D01*
X185888809Y-76472819D02*
X185888809Y-75472819D01*
X185888809Y-75472819D02*
X185793571Y-75615676D01*
X185793571Y-75615676D02*
X185698333Y-75710914D01*
X185698333Y-75710914D02*
X185603095Y-75758533D01*
X187126904Y-76472819D02*
X186555476Y-76472819D01*
X186841190Y-76472819D02*
X186841190Y-75472819D01*
X186841190Y-75472819D02*
X186745952Y-75615676D01*
X186745952Y-75615676D02*
X186650714Y-75710914D01*
X186650714Y-75710914D02*
X186555476Y-75758533D01*
X185222142Y-78982819D02*
X184888809Y-78506628D01*
X184650714Y-78982819D02*
X184650714Y-77982819D01*
X184650714Y-77982819D02*
X185031666Y-77982819D01*
X185031666Y-77982819D02*
X185126904Y-78030438D01*
X185126904Y-78030438D02*
X185174523Y-78078057D01*
X185174523Y-78078057D02*
X185222142Y-78173295D01*
X185222142Y-78173295D02*
X185222142Y-78316152D01*
X185222142Y-78316152D02*
X185174523Y-78411390D01*
X185174523Y-78411390D02*
X185126904Y-78459009D01*
X185126904Y-78459009D02*
X185031666Y-78506628D01*
X185031666Y-78506628D02*
X184650714Y-78506628D01*
X186174523Y-78982819D02*
X185603095Y-78982819D01*
X185888809Y-78982819D02*
X185888809Y-77982819D01*
X185888809Y-77982819D02*
X185793571Y-78125676D01*
X185793571Y-78125676D02*
X185698333Y-78220914D01*
X185698333Y-78220914D02*
X185603095Y-78268533D01*
X186555476Y-78078057D02*
X186603095Y-78030438D01*
X186603095Y-78030438D02*
X186698333Y-77982819D01*
X186698333Y-77982819D02*
X186936428Y-77982819D01*
X186936428Y-77982819D02*
X187031666Y-78030438D01*
X187031666Y-78030438D02*
X187079285Y-78078057D01*
X187079285Y-78078057D02*
X187126904Y-78173295D01*
X187126904Y-78173295D02*
X187126904Y-78268533D01*
X187126904Y-78268533D02*
X187079285Y-78411390D01*
X187079285Y-78411390D02*
X186507857Y-78982819D01*
X186507857Y-78982819D02*
X187126904Y-78982819D01*
D10*
X217076689Y-84469726D02*
X216687222Y-83913345D01*
X216409032Y-84469726D02*
X216409032Y-83301326D01*
X216409032Y-83301326D02*
X216854137Y-83301326D01*
X216854137Y-83301326D02*
X216965413Y-83356964D01*
X216965413Y-83356964D02*
X217021051Y-83412602D01*
X217021051Y-83412602D02*
X217076689Y-83523878D01*
X217076689Y-83523878D02*
X217076689Y-83690792D01*
X217076689Y-83690792D02*
X217021051Y-83802068D01*
X217021051Y-83802068D02*
X216965413Y-83857707D01*
X216965413Y-83857707D02*
X216854137Y-83913345D01*
X216854137Y-83913345D02*
X216409032Y-83913345D01*
X217466156Y-83301326D02*
X218189451Y-83301326D01*
X218189451Y-83301326D02*
X217799984Y-83746430D01*
X217799984Y-83746430D02*
X217966899Y-83746430D01*
X217966899Y-83746430D02*
X218078175Y-83802068D01*
X218078175Y-83802068D02*
X218133813Y-83857707D01*
X218133813Y-83857707D02*
X218189451Y-83968983D01*
X218189451Y-83968983D02*
X218189451Y-84247173D01*
X218189451Y-84247173D02*
X218133813Y-84358449D01*
X218133813Y-84358449D02*
X218078175Y-84414088D01*
X218078175Y-84414088D02*
X217966899Y-84469726D01*
X217966899Y-84469726D02*
X217633070Y-84469726D01*
X217633070Y-84469726D02*
X217521794Y-84414088D01*
X217521794Y-84414088D02*
X217466156Y-84358449D01*
X223611032Y-82147726D02*
X223611032Y-80979326D01*
X224835070Y-82036449D02*
X224779432Y-82092088D01*
X224779432Y-82092088D02*
X224612518Y-82147726D01*
X224612518Y-82147726D02*
X224501242Y-82147726D01*
X224501242Y-82147726D02*
X224334327Y-82092088D01*
X224334327Y-82092088D02*
X224223051Y-81980811D01*
X224223051Y-81980811D02*
X224167413Y-81869535D01*
X224167413Y-81869535D02*
X224111775Y-81646983D01*
X224111775Y-81646983D02*
X224111775Y-81480068D01*
X224111775Y-81480068D02*
X224167413Y-81257516D01*
X224167413Y-81257516D02*
X224223051Y-81146240D01*
X224223051Y-81146240D02*
X224334327Y-81034964D01*
X224334327Y-81034964D02*
X224501242Y-80979326D01*
X224501242Y-80979326D02*
X224612518Y-80979326D01*
X224612518Y-80979326D02*
X224779432Y-81034964D01*
X224779432Y-81034964D02*
X224835070Y-81090602D01*
X225280175Y-81090602D02*
X225335813Y-81034964D01*
X225335813Y-81034964D02*
X225447089Y-80979326D01*
X225447089Y-80979326D02*
X225725280Y-80979326D01*
X225725280Y-80979326D02*
X225836556Y-81034964D01*
X225836556Y-81034964D02*
X225892194Y-81090602D01*
X225892194Y-81090602D02*
X225947832Y-81201878D01*
X225947832Y-81201878D02*
X225947832Y-81313154D01*
X225947832Y-81313154D02*
X225892194Y-81480068D01*
X225892194Y-81480068D02*
X225224537Y-82147726D01*
X225224537Y-82147726D02*
X225947832Y-82147726D01*
D11*
X171746595Y-103407319D02*
X171746595Y-104216842D01*
X171746595Y-104216842D02*
X171794214Y-104312080D01*
X171794214Y-104312080D02*
X171841833Y-104359700D01*
X171841833Y-104359700D02*
X171937071Y-104407319D01*
X171937071Y-104407319D02*
X172127547Y-104407319D01*
X172127547Y-104407319D02*
X172222785Y-104359700D01*
X172222785Y-104359700D02*
X172270404Y-104312080D01*
X172270404Y-104312080D02*
X172318023Y-104216842D01*
X172318023Y-104216842D02*
X172318023Y-103407319D01*
X172698976Y-103407319D02*
X173318023Y-103407319D01*
X173318023Y-103407319D02*
X172984690Y-103788271D01*
X172984690Y-103788271D02*
X173127547Y-103788271D01*
X173127547Y-103788271D02*
X173222785Y-103835890D01*
X173222785Y-103835890D02*
X173270404Y-103883509D01*
X173270404Y-103883509D02*
X173318023Y-103978747D01*
X173318023Y-103978747D02*
X173318023Y-104216842D01*
X173318023Y-104216842D02*
X173270404Y-104312080D01*
X173270404Y-104312080D02*
X173222785Y-104359700D01*
X173222785Y-104359700D02*
X173127547Y-104407319D01*
X173127547Y-104407319D02*
X172841833Y-104407319D01*
X172841833Y-104407319D02*
X172746595Y-104359700D01*
X172746595Y-104359700D02*
X172698976Y-104312080D01*
D10*
X193161843Y-70971726D02*
X192772376Y-70415345D01*
X192494186Y-70971726D02*
X192494186Y-69803326D01*
X192494186Y-69803326D02*
X192939291Y-69803326D01*
X192939291Y-69803326D02*
X193050567Y-69858964D01*
X193050567Y-69858964D02*
X193106205Y-69914602D01*
X193106205Y-69914602D02*
X193161843Y-70025878D01*
X193161843Y-70025878D02*
X193161843Y-70192792D01*
X193161843Y-70192792D02*
X193106205Y-70304068D01*
X193106205Y-70304068D02*
X193050567Y-70359707D01*
X193050567Y-70359707D02*
X192939291Y-70415345D01*
X192939291Y-70415345D02*
X192494186Y-70415345D01*
X194274605Y-70971726D02*
X193606948Y-70971726D01*
X193940776Y-70971726D02*
X193940776Y-69803326D01*
X193940776Y-69803326D02*
X193829500Y-69970240D01*
X193829500Y-69970240D02*
X193718224Y-70081516D01*
X193718224Y-70081516D02*
X193606948Y-70137154D01*
X215259843Y-84941726D02*
X214870376Y-84385345D01*
X214592186Y-84941726D02*
X214592186Y-83773326D01*
X214592186Y-83773326D02*
X215037291Y-83773326D01*
X215037291Y-83773326D02*
X215148567Y-83828964D01*
X215148567Y-83828964D02*
X215204205Y-83884602D01*
X215204205Y-83884602D02*
X215259843Y-83995878D01*
X215259843Y-83995878D02*
X215259843Y-84162792D01*
X215259843Y-84162792D02*
X215204205Y-84274068D01*
X215204205Y-84274068D02*
X215148567Y-84329707D01*
X215148567Y-84329707D02*
X215037291Y-84385345D01*
X215037291Y-84385345D02*
X214592186Y-84385345D01*
X215704948Y-83884602D02*
X215760586Y-83828964D01*
X215760586Y-83828964D02*
X215871862Y-83773326D01*
X215871862Y-83773326D02*
X216150053Y-83773326D01*
X216150053Y-83773326D02*
X216261329Y-83828964D01*
X216261329Y-83828964D02*
X216316967Y-83884602D01*
X216316967Y-83884602D02*
X216372605Y-83995878D01*
X216372605Y-83995878D02*
X216372605Y-84107154D01*
X216372605Y-84107154D02*
X216316967Y-84274068D01*
X216316967Y-84274068D02*
X215649310Y-84941726D01*
X215649310Y-84941726D02*
X216372605Y-84941726D01*
X217166689Y-79099726D02*
X216777222Y-78543345D01*
X216499032Y-79099726D02*
X216499032Y-77931326D01*
X216499032Y-77931326D02*
X216944137Y-77931326D01*
X216944137Y-77931326D02*
X217055413Y-77986964D01*
X217055413Y-77986964D02*
X217111051Y-78042602D01*
X217111051Y-78042602D02*
X217166689Y-78153878D01*
X217166689Y-78153878D02*
X217166689Y-78320792D01*
X217166689Y-78320792D02*
X217111051Y-78432068D01*
X217111051Y-78432068D02*
X217055413Y-78487707D01*
X217055413Y-78487707D02*
X216944137Y-78543345D01*
X216944137Y-78543345D02*
X216499032Y-78543345D01*
X218168175Y-78320792D02*
X218168175Y-79099726D01*
X217889984Y-77875688D02*
X217611794Y-78710259D01*
X217611794Y-78710259D02*
X218335089Y-78710259D01*
X195322689Y-59684449D02*
X195267051Y-59740088D01*
X195267051Y-59740088D02*
X195100137Y-59795726D01*
X195100137Y-59795726D02*
X194988861Y-59795726D01*
X194988861Y-59795726D02*
X194821946Y-59740088D01*
X194821946Y-59740088D02*
X194710670Y-59628811D01*
X194710670Y-59628811D02*
X194655032Y-59517535D01*
X194655032Y-59517535D02*
X194599394Y-59294983D01*
X194599394Y-59294983D02*
X194599394Y-59128068D01*
X194599394Y-59128068D02*
X194655032Y-58905516D01*
X194655032Y-58905516D02*
X194710670Y-58794240D01*
X194710670Y-58794240D02*
X194821946Y-58682964D01*
X194821946Y-58682964D02*
X194988861Y-58627326D01*
X194988861Y-58627326D02*
X195100137Y-58627326D01*
X195100137Y-58627326D02*
X195267051Y-58682964D01*
X195267051Y-58682964D02*
X195322689Y-58738602D01*
X195712156Y-58627326D02*
X196491089Y-58627326D01*
X196491089Y-58627326D02*
X195990346Y-59795726D01*
D11*
X120650095Y-114828819D02*
X120650095Y-115638342D01*
X120650095Y-115638342D02*
X120697714Y-115733580D01*
X120697714Y-115733580D02*
X120745333Y-115781200D01*
X120745333Y-115781200D02*
X120840571Y-115828819D01*
X120840571Y-115828819D02*
X121031047Y-115828819D01*
X121031047Y-115828819D02*
X121126285Y-115781200D01*
X121126285Y-115781200D02*
X121173904Y-115733580D01*
X121173904Y-115733580D02*
X121221523Y-115638342D01*
X121221523Y-115638342D02*
X121221523Y-114828819D01*
X121602476Y-114828819D02*
X122269142Y-114828819D01*
X122269142Y-114828819D02*
X121840571Y-115828819D01*
D10*
X207355032Y-87100726D02*
X207355032Y-85932326D01*
X207355032Y-85932326D02*
X207633222Y-85932326D01*
X207633222Y-85932326D02*
X207800137Y-85987964D01*
X207800137Y-85987964D02*
X207911413Y-86099240D01*
X207911413Y-86099240D02*
X207967051Y-86210516D01*
X207967051Y-86210516D02*
X208022689Y-86433068D01*
X208022689Y-86433068D02*
X208022689Y-86599983D01*
X208022689Y-86599983D02*
X207967051Y-86822535D01*
X207967051Y-86822535D02*
X207911413Y-86933811D01*
X207911413Y-86933811D02*
X207800137Y-87045088D01*
X207800137Y-87045088D02*
X207633222Y-87100726D01*
X207633222Y-87100726D02*
X207355032Y-87100726D01*
X208467794Y-86043602D02*
X208523432Y-85987964D01*
X208523432Y-85987964D02*
X208634708Y-85932326D01*
X208634708Y-85932326D02*
X208912899Y-85932326D01*
X208912899Y-85932326D02*
X209024175Y-85987964D01*
X209024175Y-85987964D02*
X209079813Y-86043602D01*
X209079813Y-86043602D02*
X209135451Y-86154878D01*
X209135451Y-86154878D02*
X209135451Y-86266154D01*
X209135451Y-86266154D02*
X209079813Y-86433068D01*
X209079813Y-86433068D02*
X208412156Y-87100726D01*
X208412156Y-87100726D02*
X209135451Y-87100726D01*
D12*
X58547618Y-154862180D02*
X58499999Y-154909800D01*
X58499999Y-154909800D02*
X58357142Y-154957419D01*
X58357142Y-154957419D02*
X58261904Y-154957419D01*
X58261904Y-154957419D02*
X58119047Y-154909800D01*
X58119047Y-154909800D02*
X58023809Y-154814561D01*
X58023809Y-154814561D02*
X57976190Y-154719323D01*
X57976190Y-154719323D02*
X57928571Y-154528847D01*
X57928571Y-154528847D02*
X57928571Y-154385990D01*
X57928571Y-154385990D02*
X57976190Y-154195514D01*
X57976190Y-154195514D02*
X58023809Y-154100276D01*
X58023809Y-154100276D02*
X58119047Y-154005038D01*
X58119047Y-154005038D02*
X58261904Y-153957419D01*
X58261904Y-153957419D02*
X58357142Y-153957419D01*
X58357142Y-153957419D02*
X58499999Y-154005038D01*
X58499999Y-154005038D02*
X58547618Y-154052657D01*
X59404761Y-154957419D02*
X59404761Y-154433609D01*
X59404761Y-154433609D02*
X59357142Y-154338371D01*
X59357142Y-154338371D02*
X59261904Y-154290752D01*
X59261904Y-154290752D02*
X59071428Y-154290752D01*
X59071428Y-154290752D02*
X58976190Y-154338371D01*
X59404761Y-154909800D02*
X59309523Y-154957419D01*
X59309523Y-154957419D02*
X59071428Y-154957419D01*
X59071428Y-154957419D02*
X58976190Y-154909800D01*
X58976190Y-154909800D02*
X58928571Y-154814561D01*
X58928571Y-154814561D02*
X58928571Y-154719323D01*
X58928571Y-154719323D02*
X58976190Y-154624085D01*
X58976190Y-154624085D02*
X59071428Y-154576466D01*
X59071428Y-154576466D02*
X59309523Y-154576466D01*
X59309523Y-154576466D02*
X59404761Y-154528847D01*
X59833333Y-154909800D02*
X59928571Y-154957419D01*
X59928571Y-154957419D02*
X60119047Y-154957419D01*
X60119047Y-154957419D02*
X60214285Y-154909800D01*
X60214285Y-154909800D02*
X60261904Y-154814561D01*
X60261904Y-154814561D02*
X60261904Y-154766942D01*
X60261904Y-154766942D02*
X60214285Y-154671704D01*
X60214285Y-154671704D02*
X60119047Y-154624085D01*
X60119047Y-154624085D02*
X59976190Y-154624085D01*
X59976190Y-154624085D02*
X59880952Y-154576466D01*
X59880952Y-154576466D02*
X59833333Y-154481228D01*
X59833333Y-154481228D02*
X59833333Y-154433609D01*
X59833333Y-154433609D02*
X59880952Y-154338371D01*
X59880952Y-154338371D02*
X59976190Y-154290752D01*
X59976190Y-154290752D02*
X60119047Y-154290752D01*
X60119047Y-154290752D02*
X60214285Y-154338371D01*
X61071428Y-154909800D02*
X60976190Y-154957419D01*
X60976190Y-154957419D02*
X60785714Y-154957419D01*
X60785714Y-154957419D02*
X60690476Y-154909800D01*
X60690476Y-154909800D02*
X60642857Y-154814561D01*
X60642857Y-154814561D02*
X60642857Y-154433609D01*
X60642857Y-154433609D02*
X60690476Y-154338371D01*
X60690476Y-154338371D02*
X60785714Y-154290752D01*
X60785714Y-154290752D02*
X60976190Y-154290752D01*
X60976190Y-154290752D02*
X61071428Y-154338371D01*
X61071428Y-154338371D02*
X61119047Y-154433609D01*
X61119047Y-154433609D02*
X61119047Y-154528847D01*
X61119047Y-154528847D02*
X60642857Y-154624085D01*
X62071428Y-154957419D02*
X61500000Y-154957419D01*
X61785714Y-154957419D02*
X61785714Y-153957419D01*
X61785714Y-153957419D02*
X61690476Y-154100276D01*
X61690476Y-154100276D02*
X61595238Y-154195514D01*
X61595238Y-154195514D02*
X61500000Y-154243133D01*
D10*
X229358689Y-94990449D02*
X229303051Y-95046088D01*
X229303051Y-95046088D02*
X229136137Y-95101726D01*
X229136137Y-95101726D02*
X229024861Y-95101726D01*
X229024861Y-95101726D02*
X228857946Y-95046088D01*
X228857946Y-95046088D02*
X228746670Y-94934811D01*
X228746670Y-94934811D02*
X228691032Y-94823535D01*
X228691032Y-94823535D02*
X228635394Y-94600983D01*
X228635394Y-94600983D02*
X228635394Y-94434068D01*
X228635394Y-94434068D02*
X228691032Y-94211516D01*
X228691032Y-94211516D02*
X228746670Y-94100240D01*
X228746670Y-94100240D02*
X228857946Y-93988964D01*
X228857946Y-93988964D02*
X229024861Y-93933326D01*
X229024861Y-93933326D02*
X229136137Y-93933326D01*
X229136137Y-93933326D02*
X229303051Y-93988964D01*
X229303051Y-93988964D02*
X229358689Y-94044602D01*
X229803794Y-94044602D02*
X229859432Y-93988964D01*
X229859432Y-93988964D02*
X229970708Y-93933326D01*
X229970708Y-93933326D02*
X230248899Y-93933326D01*
X230248899Y-93933326D02*
X230360175Y-93988964D01*
X230360175Y-93988964D02*
X230415813Y-94044602D01*
X230415813Y-94044602D02*
X230471451Y-94155878D01*
X230471451Y-94155878D02*
X230471451Y-94267154D01*
X230471451Y-94267154D02*
X230415813Y-94434068D01*
X230415813Y-94434068D02*
X229748156Y-95101726D01*
X229748156Y-95101726D02*
X230471451Y-95101726D01*
X172586689Y-100578449D02*
X172531051Y-100634088D01*
X172531051Y-100634088D02*
X172364137Y-100689726D01*
X172364137Y-100689726D02*
X172252861Y-100689726D01*
X172252861Y-100689726D02*
X172085946Y-100634088D01*
X172085946Y-100634088D02*
X171974670Y-100522811D01*
X171974670Y-100522811D02*
X171919032Y-100411535D01*
X171919032Y-100411535D02*
X171863394Y-100188983D01*
X171863394Y-100188983D02*
X171863394Y-100022068D01*
X171863394Y-100022068D02*
X171919032Y-99799516D01*
X171919032Y-99799516D02*
X171974670Y-99688240D01*
X171974670Y-99688240D02*
X172085946Y-99576964D01*
X172085946Y-99576964D02*
X172252861Y-99521326D01*
X172252861Y-99521326D02*
X172364137Y-99521326D01*
X172364137Y-99521326D02*
X172531051Y-99576964D01*
X172531051Y-99576964D02*
X172586689Y-99632602D01*
X173643813Y-99521326D02*
X173087432Y-99521326D01*
X173087432Y-99521326D02*
X173031794Y-100077707D01*
X173031794Y-100077707D02*
X173087432Y-100022068D01*
X173087432Y-100022068D02*
X173198708Y-99966430D01*
X173198708Y-99966430D02*
X173476899Y-99966430D01*
X173476899Y-99966430D02*
X173588175Y-100022068D01*
X173588175Y-100022068D02*
X173643813Y-100077707D01*
X173643813Y-100077707D02*
X173699451Y-100188983D01*
X173699451Y-100188983D02*
X173699451Y-100467173D01*
X173699451Y-100467173D02*
X173643813Y-100578449D01*
X173643813Y-100578449D02*
X173588175Y-100634088D01*
X173588175Y-100634088D02*
X173476899Y-100689726D01*
X173476899Y-100689726D02*
X173198708Y-100689726D01*
X173198708Y-100689726D02*
X173087432Y-100634088D01*
X173087432Y-100634088D02*
X173031794Y-100578449D01*
X136858449Y-139098156D02*
X136914088Y-139153794D01*
X136914088Y-139153794D02*
X136969726Y-139320708D01*
X136969726Y-139320708D02*
X136969726Y-139431984D01*
X136969726Y-139431984D02*
X136914088Y-139598899D01*
X136914088Y-139598899D02*
X136802811Y-139710175D01*
X136802811Y-139710175D02*
X136691535Y-139765813D01*
X136691535Y-139765813D02*
X136468983Y-139821451D01*
X136468983Y-139821451D02*
X136302068Y-139821451D01*
X136302068Y-139821451D02*
X136079516Y-139765813D01*
X136079516Y-139765813D02*
X135968240Y-139710175D01*
X135968240Y-139710175D02*
X135856964Y-139598899D01*
X135856964Y-139598899D02*
X135801326Y-139431984D01*
X135801326Y-139431984D02*
X135801326Y-139320708D01*
X135801326Y-139320708D02*
X135856964Y-139153794D01*
X135856964Y-139153794D02*
X135912602Y-139098156D01*
X135801326Y-138708689D02*
X135801326Y-137985394D01*
X135801326Y-137985394D02*
X136246430Y-138374861D01*
X136246430Y-138374861D02*
X136246430Y-138207946D01*
X136246430Y-138207946D02*
X136302068Y-138096670D01*
X136302068Y-138096670D02*
X136357707Y-138041032D01*
X136357707Y-138041032D02*
X136468983Y-137985394D01*
X136468983Y-137985394D02*
X136747173Y-137985394D01*
X136747173Y-137985394D02*
X136858449Y-138041032D01*
X136858449Y-138041032D02*
X136914088Y-138096670D01*
X136914088Y-138096670D02*
X136969726Y-138207946D01*
X136969726Y-138207946D02*
X136969726Y-138541775D01*
X136969726Y-138541775D02*
X136914088Y-138653051D01*
X136914088Y-138653051D02*
X136858449Y-138708689D01*
X217502726Y-63725880D02*
X217502726Y-64282261D01*
X217502726Y-64282261D02*
X216334326Y-64282261D01*
X217502726Y-62724394D02*
X217502726Y-63392051D01*
X217502726Y-63058223D02*
X216334326Y-63058223D01*
X216334326Y-63058223D02*
X216501240Y-63169499D01*
X216501240Y-63169499D02*
X216612516Y-63280775D01*
X216612516Y-63280775D02*
X216668154Y-63392051D01*
D12*
X163086095Y-50285419D02*
X163086095Y-51094942D01*
X163086095Y-51094942D02*
X163133714Y-51190180D01*
X163133714Y-51190180D02*
X163181333Y-51237800D01*
X163181333Y-51237800D02*
X163276571Y-51285419D01*
X163276571Y-51285419D02*
X163467047Y-51285419D01*
X163467047Y-51285419D02*
X163562285Y-51237800D01*
X163562285Y-51237800D02*
X163609904Y-51190180D01*
X163609904Y-51190180D02*
X163657523Y-51094942D01*
X163657523Y-51094942D02*
X163657523Y-50285419D01*
X164086095Y-50380657D02*
X164133714Y-50333038D01*
X164133714Y-50333038D02*
X164228952Y-50285419D01*
X164228952Y-50285419D02*
X164467047Y-50285419D01*
X164467047Y-50285419D02*
X164562285Y-50333038D01*
X164562285Y-50333038D02*
X164609904Y-50380657D01*
X164609904Y-50380657D02*
X164657523Y-50475895D01*
X164657523Y-50475895D02*
X164657523Y-50571133D01*
X164657523Y-50571133D02*
X164609904Y-50713990D01*
X164609904Y-50713990D02*
X164038476Y-51285419D01*
X164038476Y-51285419D02*
X164657523Y-51285419D01*
D13*
X201904694Y-65385514D02*
X201904694Y-64242514D01*
X203102123Y-65276657D02*
X203047695Y-65331086D01*
X203047695Y-65331086D02*
X202884409Y-65385514D01*
X202884409Y-65385514D02*
X202775552Y-65385514D01*
X202775552Y-65385514D02*
X202612266Y-65331086D01*
X202612266Y-65331086D02*
X202503409Y-65222228D01*
X202503409Y-65222228D02*
X202448980Y-65113371D01*
X202448980Y-65113371D02*
X202394552Y-64895657D01*
X202394552Y-64895657D02*
X202394552Y-64732371D01*
X202394552Y-64732371D02*
X202448980Y-64514657D01*
X202448980Y-64514657D02*
X202503409Y-64405800D01*
X202503409Y-64405800D02*
X202612266Y-64296943D01*
X202612266Y-64296943D02*
X202775552Y-64242514D01*
X202775552Y-64242514D02*
X202884409Y-64242514D01*
X202884409Y-64242514D02*
X203047695Y-64296943D01*
X203047695Y-64296943D02*
X203102123Y-64351371D01*
X204190695Y-65385514D02*
X203537552Y-65385514D01*
X203864123Y-65385514D02*
X203864123Y-64242514D01*
X203864123Y-64242514D02*
X203755266Y-64405800D01*
X203755266Y-64405800D02*
X203646409Y-64514657D01*
X203646409Y-64514657D02*
X203537552Y-64569086D01*
D11*
X166136819Y-140969904D02*
X166946342Y-140969904D01*
X166946342Y-140969904D02*
X167041580Y-140922285D01*
X167041580Y-140922285D02*
X167089200Y-140874666D01*
X167089200Y-140874666D02*
X167136819Y-140779428D01*
X167136819Y-140779428D02*
X167136819Y-140588952D01*
X167136819Y-140588952D02*
X167089200Y-140493714D01*
X167089200Y-140493714D02*
X167041580Y-140446095D01*
X167041580Y-140446095D02*
X166946342Y-140398476D01*
X166946342Y-140398476D02*
X166136819Y-140398476D01*
X166136819Y-139493714D02*
X166136819Y-139684190D01*
X166136819Y-139684190D02*
X166184438Y-139779428D01*
X166184438Y-139779428D02*
X166232057Y-139827047D01*
X166232057Y-139827047D02*
X166374914Y-139922285D01*
X166374914Y-139922285D02*
X166565390Y-139969904D01*
X166565390Y-139969904D02*
X166946342Y-139969904D01*
X166946342Y-139969904D02*
X167041580Y-139922285D01*
X167041580Y-139922285D02*
X167089200Y-139874666D01*
X167089200Y-139874666D02*
X167136819Y-139779428D01*
X167136819Y-139779428D02*
X167136819Y-139588952D01*
X167136819Y-139588952D02*
X167089200Y-139493714D01*
X167089200Y-139493714D02*
X167041580Y-139446095D01*
X167041580Y-139446095D02*
X166946342Y-139398476D01*
X166946342Y-139398476D02*
X166708247Y-139398476D01*
X166708247Y-139398476D02*
X166613009Y-139446095D01*
X166613009Y-139446095D02*
X166565390Y-139493714D01*
X166565390Y-139493714D02*
X166517771Y-139588952D01*
X166517771Y-139588952D02*
X166517771Y-139779428D01*
X166517771Y-139779428D02*
X166565390Y-139874666D01*
X166565390Y-139874666D02*
X166613009Y-139922285D01*
X166613009Y-139922285D02*
X166708247Y-139969904D01*
D10*
X216118032Y-71098726D02*
X216118032Y-69930326D01*
X217342070Y-70987449D02*
X217286432Y-71043088D01*
X217286432Y-71043088D02*
X217119518Y-71098726D01*
X217119518Y-71098726D02*
X217008242Y-71098726D01*
X217008242Y-71098726D02*
X216841327Y-71043088D01*
X216841327Y-71043088D02*
X216730051Y-70931811D01*
X216730051Y-70931811D02*
X216674413Y-70820535D01*
X216674413Y-70820535D02*
X216618775Y-70597983D01*
X216618775Y-70597983D02*
X216618775Y-70431068D01*
X216618775Y-70431068D02*
X216674413Y-70208516D01*
X216674413Y-70208516D02*
X216730051Y-70097240D01*
X216730051Y-70097240D02*
X216841327Y-69985964D01*
X216841327Y-69985964D02*
X217008242Y-69930326D01*
X217008242Y-69930326D02*
X217119518Y-69930326D01*
X217119518Y-69930326D02*
X217286432Y-69985964D01*
X217286432Y-69985964D02*
X217342070Y-70041602D01*
X217731537Y-69930326D02*
X218454832Y-69930326D01*
X218454832Y-69930326D02*
X218065365Y-70375430D01*
X218065365Y-70375430D02*
X218232280Y-70375430D01*
X218232280Y-70375430D02*
X218343556Y-70431068D01*
X218343556Y-70431068D02*
X218399194Y-70486707D01*
X218399194Y-70486707D02*
X218454832Y-70597983D01*
X218454832Y-70597983D02*
X218454832Y-70876173D01*
X218454832Y-70876173D02*
X218399194Y-70987449D01*
X218399194Y-70987449D02*
X218343556Y-71043088D01*
X218343556Y-71043088D02*
X218232280Y-71098726D01*
X218232280Y-71098726D02*
X217898451Y-71098726D01*
X217898451Y-71098726D02*
X217787175Y-71043088D01*
X217787175Y-71043088D02*
X217731537Y-70987449D01*
X218083726Y-62967880D02*
X218083726Y-63524261D01*
X218083726Y-63524261D02*
X216915326Y-63524261D01*
X217026602Y-62634051D02*
X216970964Y-62578413D01*
X216970964Y-62578413D02*
X216915326Y-62467137D01*
X216915326Y-62467137D02*
X216915326Y-62188946D01*
X216915326Y-62188946D02*
X216970964Y-62077670D01*
X216970964Y-62077670D02*
X217026602Y-62022032D01*
X217026602Y-62022032D02*
X217137878Y-61966394D01*
X217137878Y-61966394D02*
X217249154Y-61966394D01*
X217249154Y-61966394D02*
X217416068Y-62022032D01*
X217416068Y-62022032D02*
X218083726Y-62689689D01*
X218083726Y-62689689D02*
X218083726Y-61966394D01*
X228818032Y-58398726D02*
X228818032Y-57230326D01*
X228818032Y-57230326D02*
X229096222Y-57230326D01*
X229096222Y-57230326D02*
X229263137Y-57285964D01*
X229263137Y-57285964D02*
X229374413Y-57397240D01*
X229374413Y-57397240D02*
X229430051Y-57508516D01*
X229430051Y-57508516D02*
X229485689Y-57731068D01*
X229485689Y-57731068D02*
X229485689Y-57897983D01*
X229485689Y-57897983D02*
X229430051Y-58120535D01*
X229430051Y-58120535D02*
X229374413Y-58231811D01*
X229374413Y-58231811D02*
X229263137Y-58343088D01*
X229263137Y-58343088D02*
X229096222Y-58398726D01*
X229096222Y-58398726D02*
X228818032Y-58398726D01*
X230598451Y-58398726D02*
X229930794Y-58398726D01*
X230264622Y-58398726D02*
X230264622Y-57230326D01*
X230264622Y-57230326D02*
X230153346Y-57397240D01*
X230153346Y-57397240D02*
X230042070Y-57508516D01*
X230042070Y-57508516D02*
X229930794Y-57564154D01*
X193161843Y-68066449D02*
X193106205Y-68122088D01*
X193106205Y-68122088D02*
X192939291Y-68177726D01*
X192939291Y-68177726D02*
X192828015Y-68177726D01*
X192828015Y-68177726D02*
X192661100Y-68122088D01*
X192661100Y-68122088D02*
X192549824Y-68010811D01*
X192549824Y-68010811D02*
X192494186Y-67899535D01*
X192494186Y-67899535D02*
X192438548Y-67676983D01*
X192438548Y-67676983D02*
X192438548Y-67510068D01*
X192438548Y-67510068D02*
X192494186Y-67287516D01*
X192494186Y-67287516D02*
X192549824Y-67176240D01*
X192549824Y-67176240D02*
X192661100Y-67064964D01*
X192661100Y-67064964D02*
X192828015Y-67009326D01*
X192828015Y-67009326D02*
X192939291Y-67009326D01*
X192939291Y-67009326D02*
X193106205Y-67064964D01*
X193106205Y-67064964D02*
X193161843Y-67120602D01*
X194274605Y-68177726D02*
X193606948Y-68177726D01*
X193940776Y-68177726D02*
X193940776Y-67009326D01*
X193940776Y-67009326D02*
X193829500Y-67176240D01*
X193829500Y-67176240D02*
X193718224Y-67287516D01*
X193718224Y-67287516D02*
X193606948Y-67343154D01*
D14*
X183826000Y-92894000D02*
X181426000Y-92894000D01*
X181426000Y-92894000D02*
X181426000Y-90494000D01*
X181426000Y-90494000D02*
X183826000Y-90494000D01*
X183826000Y-90494000D02*
X183826000Y-92894000D01*
X183826000Y-108134000D02*
X181426000Y-108134000D01*
X181426000Y-108134000D02*
X181426000Y-105734000D01*
X181426000Y-105734000D02*
X183826000Y-105734000D01*
X183826000Y-105734000D02*
X183826000Y-108134000D01*
X166341936Y-70718000D02*
X167796064Y-70718000D01*
X166341936Y-72538000D02*
X167796064Y-72538000D01*
X176812064Y-69998000D02*
X175357936Y-69998000D01*
X176812064Y-68178000D02*
X175357936Y-68178000D01*
X166404936Y-68178000D02*
X167859064Y-68178000D01*
X166404936Y-69998000D02*
X167859064Y-69998000D01*
X176749064Y-72538000D02*
X175294936Y-72538000D01*
X176749064Y-70718000D02*
X175294936Y-70718000D01*
X201352000Y-88068000D02*
X198952000Y-88068000D01*
X198952000Y-88068000D02*
X198952000Y-85668000D01*
X198952000Y-85668000D02*
X201352000Y-85668000D01*
X201352000Y-85668000D02*
X201352000Y-88068000D01*
D15*
X230378000Y-100018001D02*
G75*
G03*
X225428001Y-102693000I-9408J-5899996D01*
G01*
D16*
X226577402Y-101374900D02*
G75*
G03*
X225852600Y-102135000I-436502J-309390D01*
G01*
X225834908Y-109718610D02*
G75*
G03*
X226594999Y-110443400I309392J-436490D01*
G01*
D15*
X235277999Y-102643001D02*
G75*
G03*
X230378000Y-100018001I-4907589J-3274999D01*
G01*
X225478000Y-109193000D02*
G75*
G03*
X230378000Y-111817999I4907590J3275002D01*
G01*
D16*
X234921098Y-102117399D02*
G75*
G03*
X234161001Y-101392600I-309390J436499D01*
G01*
X234178601Y-110461098D02*
G75*
G03*
X234903400Y-109701001I436499J309390D01*
G01*
D15*
X230378000Y-111817999D02*
G75*
G03*
X235327999Y-109143000I9408J5899996D01*
G01*
X223853000Y-99418000D02*
X236878000Y-99418000D01*
X223853000Y-112418000D02*
X223853000Y-99418000D01*
X236878000Y-99418000D02*
X236878000Y-112418000D01*
X236878000Y-112418000D02*
X223853000Y-112418000D01*
D14*
X156175064Y-110384000D02*
X154720936Y-110384000D01*
X156175064Y-108564000D02*
X154720936Y-108564000D01*
X186592064Y-75108000D02*
X185137936Y-75108000D01*
X186592064Y-73288000D02*
X185137936Y-73288000D01*
X186592064Y-77618000D02*
X185137936Y-77618000D01*
X186592064Y-75798000D02*
X185137936Y-75798000D01*
D15*
X225974000Y-92978000D02*
X225974000Y-82790000D01*
G36*
X226060000Y-84963000D02*
G01*
X224383600Y-84963000D01*
X224383600Y-83997800D01*
X226060000Y-83997800D01*
X226060000Y-84963000D01*
G37*
G36*
X226060000Y-86664800D02*
G01*
X224383600Y-86664800D01*
X224383600Y-85699600D01*
X226060000Y-85699600D01*
X226060000Y-86664800D01*
G37*
G36*
X226060000Y-88366600D02*
G01*
X224383600Y-88366600D01*
X224383600Y-87401400D01*
X226060000Y-87401400D01*
X226060000Y-88366600D01*
G37*
G36*
X226060000Y-90068400D02*
G01*
X224383600Y-90068400D01*
X224383600Y-89103200D01*
X226060000Y-89103200D01*
X226060000Y-90068400D01*
G37*
G36*
X226060000Y-91770200D02*
G01*
X224383600Y-91770200D01*
X224383600Y-90805000D01*
X226060000Y-90805000D01*
X226060000Y-91770200D01*
G37*
D14*
X166458500Y-104712500D02*
X167698500Y-104712500D01*
X166458500Y-105952500D02*
X166458500Y-104712500D01*
X166698500Y-104952500D02*
X166698500Y-113572500D01*
X166698500Y-104952500D02*
X178318500Y-104952500D01*
X166698500Y-113572500D02*
X178318500Y-113572500D01*
X178318500Y-104952500D02*
X178318500Y-113572500D01*
X121412000Y-114534000D02*
X124862000Y-114534000D01*
X121412000Y-114534000D02*
X119462000Y-114534000D01*
X121412000Y-104414000D02*
X123362000Y-104414000D01*
X121412000Y-104414000D02*
X119462000Y-104414000D01*
D10*
X204749400Y-87249000D02*
X209270600Y-87249000D01*
X204749400Y-91059000D02*
X209270600Y-91059000D01*
D15*
X206180000Y-89154000D02*
X207203000Y-90154000D01*
X207203000Y-88154000D02*
X206180000Y-89154000D01*
X207203000Y-90154000D02*
X207203000Y-88154000D01*
D12*
X60000000Y-155000000D02*
X240000000Y-155000000D01*
X240000000Y-155000000D02*
X240000000Y-45000000D01*
X240000000Y-45000000D02*
X60000000Y-45000000D01*
X60000000Y-45000000D02*
X60000000Y-155000000D01*
X64000000Y-155000000D02*
G75*
G03*
X60000000Y-151000000I-4000000J0D01*
G01*
X60000000Y-49000000D02*
G75*
G03*
X64000000Y-45000000I0J4000000D01*
G01*
X154000000Y-155000000D02*
G75*
G03*
X146000000Y-155000000I-4000000J0D01*
G01*
X146000000Y-45000000D02*
G75*
G03*
X154000000Y-45000000I4000000J0D01*
G01*
X240000000Y-151000000D02*
G75*
G03*
X236000000Y-155000000I0J-4000000D01*
G01*
X236000000Y-45000000D02*
G75*
G03*
X240000000Y-49000000I4000000J0D01*
G01*
D15*
X136788000Y-137786000D02*
X136788000Y-145286000D01*
X133688000Y-137786000D02*
X136788000Y-137786000D01*
X128388000Y-137786000D02*
X131488000Y-137786000D01*
X136788000Y-145286000D02*
X135888000Y-146186000D01*
X128388000Y-145286000D02*
X128388000Y-137786000D01*
X135888000Y-146186000D02*
X133688000Y-146186000D01*
X131488000Y-146186000D02*
X129288000Y-146186000D01*
X129288000Y-146186000D02*
X128388000Y-145286000D01*
X133638000Y-145736000D02*
G75*
G03*
X133638000Y-138236000I-1074999J3750000D01*
G01*
X131538000Y-138236000D02*
G75*
G03*
X131538000Y-145736000I1074999J-3750000D01*
G01*
D12*
X162578000Y-50058000D02*
X180358000Y-50058000D01*
X180358000Y-50058000D02*
X180358000Y-85618000D01*
X180358000Y-85618000D02*
X162578000Y-85618000D01*
X162578000Y-85618000D02*
X162578000Y-50058000D01*
X168928000Y-50058000D02*
X174008000Y-50058000D01*
X174008000Y-50058000D02*
X174008000Y-52598000D01*
X174008000Y-52598000D02*
X168928000Y-52598000D01*
X168928000Y-52598000D02*
X168928000Y-50058000D01*
D17*
X205028800Y-65913000D02*
X203962000Y-65913000D01*
X203962000Y-65913000D02*
X202946000Y-65913000D01*
X202946000Y-65913000D02*
X201879200Y-65913000D01*
D18*
X201853800Y-65913000D02*
X201853800Y-74803000D01*
D17*
X201879200Y-74803000D02*
X205028800Y-74803000D01*
X205409800Y-66294000D02*
G75*
G03*
X205028800Y-65913000I-380999J1D01*
G01*
X202946000Y-65913000D02*
G75*
G03*
X203962000Y-65913000I508000J0D01*
G01*
X201879200Y-65913000D02*
G75*
G03*
X201498200Y-66294000I-1J-380999D01*
G01*
X205028800Y-74803000D02*
G75*
G03*
X205409800Y-74422000I0J381000D01*
G01*
X201498200Y-74422000D02*
G75*
G03*
X201879200Y-74803000I381000J0D01*
G01*
D14*
X165842000Y-140208000D02*
X165842000Y-136758000D01*
X165842000Y-140208000D02*
X165842000Y-142158000D01*
X155722000Y-140208000D02*
X155722000Y-138258000D01*
X155722000Y-140208000D02*
X155722000Y-142158000D01*
D15*
X225254000Y-66558000D02*
X225254000Y-61458000D01*
X225254000Y-61458000D02*
X225004000Y-61458000D01*
X225004000Y-66558000D02*
X225254000Y-66558000D01*
X220004000Y-61458000D02*
X219754000Y-61458000D01*
X219754000Y-66558000D02*
X220004000Y-66558000D01*
X219754000Y-66558000D02*
X219754000Y-61458000D01*
D10*
X228371400Y-58801000D02*
X232892600Y-58801000D01*
X228371400Y-62611000D02*
X232892600Y-62611000D01*
D15*
X229802000Y-60706000D02*
X230825000Y-61706000D01*
X230825000Y-59706000D02*
X229802000Y-60706000D01*
X230825000Y-61706000D02*
X230825000Y-59706000D01*
%LPC*%
D19*
X106172000Y-72012000D03*
X106172000Y-69212000D03*
D20*
X208410000Y-83566000D03*
X205610000Y-83566000D03*
X233048000Y-66802000D03*
X230248000Y-66802000D03*
D21*
X182626000Y-91694000D03*
X182626000Y-106934000D03*
D22*
X110236000Y-69212000D03*
X110236000Y-72012000D03*
D23*
X165519000Y-71628000D03*
X168619000Y-71628000D03*
D24*
X177635000Y-69088000D03*
X174535000Y-69088000D03*
D23*
X165582000Y-69088000D03*
X168682000Y-69088000D03*
D24*
X177572000Y-71628000D03*
X174472000Y-71628000D03*
D21*
X200152000Y-86868000D03*
D25*
X225403000Y-105918000D03*
X235353000Y-105918000D03*
D24*
X156998000Y-109474000D03*
X153898000Y-109474000D03*
X187415000Y-74198000D03*
X184315000Y-74198000D03*
X187415000Y-76708000D03*
X184315000Y-76708000D03*
D26*
X213970000Y-86868000D03*
X216814000Y-86868000D03*
D27*
X223062800Y-84480400D03*
X223062800Y-86182200D03*
X223062800Y-87884000D03*
X223062800Y-89585800D03*
X223062800Y-91287600D03*
D28*
X231394000Y-87884000D03*
D29*
X169968500Y-107012500D03*
D30*
X172508500Y-107012500D03*
X175048500Y-107012500D03*
D31*
X194716000Y-69850000D03*
X191872000Y-69850000D03*
X216814000Y-83820000D03*
X213970000Y-83820000D03*
D26*
X218846000Y-80518000D03*
X216002000Y-80518000D03*
D32*
X194180000Y-61214000D03*
X196980000Y-61214000D03*
D33*
X123987000Y-113919000D03*
X123987000Y-112649000D03*
X123987000Y-111379000D03*
X123987000Y-110109000D03*
X123987000Y-108839000D03*
X123987000Y-107569000D03*
X123987000Y-106299000D03*
X123987000Y-105029000D03*
X118837000Y-105029000D03*
X118837000Y-106299000D03*
X118837000Y-107569000D03*
X118837000Y-108839000D03*
X118837000Y-110109000D03*
X118837000Y-111379000D03*
X118837000Y-112649000D03*
X118837000Y-113919000D03*
D34*
X209210000Y-89154000D03*
X204810000Y-89154000D03*
D32*
X228216000Y-96520000D03*
X231016000Y-96520000D03*
X171444000Y-102108000D03*
X174244000Y-102108000D03*
D35*
X229250000Y-56130000D03*
X229250000Y-71370000D03*
D36*
X132588000Y-145036000D03*
X132588000Y-138936000D03*
D37*
X215900000Y-66666000D03*
X215900000Y-62366000D03*
D38*
X162348000Y-51328000D03*
X162348000Y-53868000D03*
X162348000Y-56408000D03*
X162348000Y-58948000D03*
X162348000Y-61488000D03*
X162348000Y-64028000D03*
X162348000Y-66568000D03*
X162348000Y-69108000D03*
X162348000Y-71648000D03*
X162348000Y-74188000D03*
X162348000Y-76728000D03*
X162348000Y-79268000D03*
X162348000Y-81808000D03*
X162348000Y-84348000D03*
X180848000Y-84328000D03*
X180848000Y-81788000D03*
X180848000Y-79248000D03*
X180848000Y-76708000D03*
X180848000Y-74168000D03*
X180848000Y-71628000D03*
X180848000Y-69088000D03*
X180848000Y-66548000D03*
X180848000Y-64008000D03*
X180848000Y-61468000D03*
X180848000Y-58928000D03*
X180848000Y-56388000D03*
X180848000Y-53848000D03*
X180848000Y-51308000D03*
D39*
X200380600Y-66548000D03*
X200380600Y-67818000D03*
X200380600Y-69088000D03*
X200380600Y-70358000D03*
X200380600Y-71628000D03*
X200380600Y-72898000D03*
X200380600Y-74168000D03*
X206527400Y-74168000D03*
X206527400Y-72898000D03*
X206527400Y-71628000D03*
X206527400Y-70358000D03*
X206527400Y-69088000D03*
X206527400Y-67818000D03*
X206527400Y-66548000D03*
D40*
X165227000Y-137633000D03*
X163957000Y-137633000D03*
X162687000Y-137633000D03*
X161417000Y-137633000D03*
X160147000Y-137633000D03*
X158877000Y-137633000D03*
X157607000Y-137633000D03*
X156337000Y-137633000D03*
X156337000Y-142783000D03*
X157607000Y-142783000D03*
X158877000Y-142783000D03*
X160147000Y-142783000D03*
X161417000Y-142783000D03*
X162687000Y-142783000D03*
X163957000Y-142783000D03*
X165227000Y-142783000D03*
D41*
X220278000Y-72517000D03*
X220278000Y-73787000D03*
X220278000Y-75057000D03*
X220278000Y-76327000D03*
X215078000Y-76327000D03*
X215078000Y-75057000D03*
X215078000Y-73787000D03*
X215078000Y-72517000D03*
D42*
X222504000Y-60625000D03*
X222504000Y-67391000D03*
D34*
X232832000Y-60706000D03*
X228432000Y-60706000D03*
D20*
X194694000Y-67056000D03*
X191894000Y-67056000D03*
D21*
X221000000Y-122500000D03*
D43*
X221000000Y-127500000D03*
X221000000Y-125000000D03*
D44*
X213500000Y-130600000D03*
X213500000Y-119400000D03*
D43*
X206500000Y-122500000D03*
X206500000Y-127500000D03*
D45*
X100653000Y-141079000D03*
X100653000Y-143619000D03*
X103193000Y-141079000D03*
X103193000Y-143619000D03*
X105733000Y-141079000D03*
X105733000Y-143619000D03*
X108273000Y-141079000D03*
X108273000Y-143619000D03*
X110813000Y-141079000D03*
X110813000Y-143619000D03*
X113353000Y-141079000D03*
X113353000Y-143619000D03*
X115893000Y-141079000D03*
X115893000Y-143619000D03*
X118433000Y-141079000D03*
D46*
X118433000Y-143619000D03*
D47*
X137338000Y-120268000D03*
X137338000Y-124968000D03*
X137338000Y-129668000D03*
D48*
X159004000Y-113284000D03*
D49*
X156464000Y-113284000D03*
X153924000Y-113284000D03*
X151384000Y-113284000D03*
X148844000Y-113284000D03*
X146304000Y-113284000D03*
X143764000Y-113284000D03*
X143764000Y-105664000D03*
X146304000Y-105664000D03*
X148844000Y-105664000D03*
X151384000Y-105664000D03*
X153924000Y-105664000D03*
X156464000Y-105664000D03*
X159004000Y-105664000D03*
D21*
X94000000Y-122500000D03*
D43*
X94000000Y-127500000D03*
X94000000Y-125000000D03*
D44*
X86500000Y-130600000D03*
X86500000Y-119400000D03*
D43*
X79500000Y-122500000D03*
X79500000Y-127500000D03*
D47*
X175664000Y-120268000D03*
X175664000Y-124968000D03*
X175664000Y-129668000D03*
X194714000Y-120268000D03*
X194714000Y-124968000D03*
X194714000Y-129668000D03*
D50*
X82000000Y-57500000D03*
X84000000Y-57500000D03*
X86000000Y-57500000D03*
X88000000Y-57500000D03*
X98000000Y-57500000D03*
X100000000Y-57500000D03*
X102000000Y-57500000D03*
X104000000Y-57500000D03*
X106000000Y-57500000D03*
X108000000Y-57500000D03*
X110000000Y-57500000D03*
X112000000Y-57500000D03*
X114000000Y-57500000D03*
X116000000Y-57500000D03*
X118000000Y-57500000D03*
X120000000Y-57500000D03*
X122000000Y-57500000D03*
X124000000Y-57500000D03*
X126000000Y-57500000D03*
X128000000Y-57500000D03*
X130000000Y-57500000D03*
X132000000Y-57500000D03*
X190000000Y-57500000D03*
X192000000Y-57500000D03*
X194000000Y-57500000D03*
X200000000Y-57500000D03*
X202000000Y-57500000D03*
X212000000Y-57500000D03*
X214000000Y-57500000D03*
X216000000Y-57500000D03*
X218000000Y-57500000D03*
D47*
X118156000Y-120396000D03*
X118156000Y-125096000D03*
X118156000Y-129796000D03*
X156473020Y-120258285D03*
X156473020Y-124958285D03*
X156473020Y-129658285D03*
%LPD*%
M02*
