G04 #@! TF.GenerationSoftware,KiCad,Pcbnew,7.0.10*
G04 #@! TF.CreationDate,2024-01-29T17:04:51+01:00*
G04 #@! TF.ProjectId,GP1294-Teens4,47503132-3934-42d5-9465-656e73342e6b,1.0.0*
G04 #@! TF.SameCoordinates,Original*
G04 #@! TF.FileFunction,Copper,L2,Bot*
G04 #@! TF.FilePolarity,Positive*
%FSLAX46Y46*%
G04 Gerber Fmt 4.6, Leading zero omitted, Abs format (unit mm)*
G04 Created by KiCad (PCBNEW 7.0.10) date 2024-01-29 17:04:51*
%MOMM*%
%LPD*%
G01*
G04 APERTURE LIST*
G04 Aperture macros list*
%AMOutline5P*
0 Free polygon, 5 corners , with rotation*
0 The origin of the aperture is its center*
0 number of corners: always 5*
0 $1 to $10 corner X, Y*
0 $11 Rotation angle, in degrees counterclockwise*
0 create outline with 5 corners*
4,1,5,$1,$2,$3,$4,$5,$6,$7,$8,$9,$10,$1,$2,$11*%
%AMOutline6P*
0 Free polygon, 6 corners , with rotation*
0 The origin of the aperture is its center*
0 number of corners: always 6*
0 $1 to $12 corner X, Y*
0 $13 Rotation angle, in degrees counterclockwise*
0 create outline with 6 corners*
4,1,6,$1,$2,$3,$4,$5,$6,$7,$8,$9,$10,$11,$12,$1,$2,$13*%
%AMOutline7P*
0 Free polygon, 7 corners , with rotation*
0 The origin of the aperture is its center*
0 number of corners: always 7*
0 $1 to $14 corner X, Y*
0 $15 Rotation angle, in degrees counterclockwise*
0 create outline with 7 corners*
4,1,7,$1,$2,$3,$4,$5,$6,$7,$8,$9,$10,$11,$12,$13,$14,$1,$2,$15*%
%AMOutline8P*
0 Free polygon, 8 corners , with rotation*
0 The origin of the aperture is its center*
0 number of corners: always 8*
0 $1 to $16 corner X, Y*
0 $17 Rotation angle, in degrees counterclockwise*
0 create outline with 8 corners*
4,1,8,$1,$2,$3,$4,$5,$6,$7,$8,$9,$10,$11,$12,$13,$14,$15,$16,$1,$2,$17*%
G04 Aperture macros list end*
G04 #@! TA.AperFunction,ComponentPad*
%ADD10R,1.700000X2.500000*%
G04 #@! TD*
G04 #@! TA.AperFunction,ComponentPad*
%ADD11O,1.700000X2.500000*%
G04 #@! TD*
G04 #@! TA.AperFunction,ComponentPad*
%ADD12Outline8P,-0.707200X0.292932X-0.292932X0.707200X0.292932X0.707200X0.707200X0.292932X0.707200X-0.292932X0.292932X-0.707200X-0.292932X-0.707200X-0.707200X-0.292932X270.000000*%
G04 #@! TD*
G04 #@! TA.AperFunction,ComponentPad*
%ADD13R,2.000000X2.000000*%
G04 #@! TD*
G04 #@! TA.AperFunction,ComponentPad*
%ADD14C,2.000000*%
G04 #@! TD*
G04 #@! TA.AperFunction,ComponentPad*
%ADD15R,3.000000X2.500000*%
G04 #@! TD*
G04 #@! TA.AperFunction,ComponentPad*
%ADD16O,1.727200X1.727200*%
G04 #@! TD*
G04 #@! TA.AperFunction,ComponentPad*
%ADD17R,1.727200X1.727200*%
G04 #@! TD*
G04 #@! TA.AperFunction,ComponentPad*
%ADD18C,3.000000*%
G04 #@! TD*
G04 #@! TA.AperFunction,ComponentPad*
%ADD19R,1.600000X1.600000*%
G04 #@! TD*
G04 #@! TA.AperFunction,ComponentPad*
%ADD20O,1.600000X1.600000*%
G04 #@! TD*
G04 #@! TA.AperFunction,ComponentPad*
%ADD21O,1.500000X2.600000*%
G04 #@! TD*
G04 #@! TA.AperFunction,ViaPad*
%ADD22C,0.800000*%
G04 #@! TD*
G04 #@! TA.AperFunction,ViaPad*
%ADD23C,5.000000*%
G04 #@! TD*
G04 #@! TA.AperFunction,Conductor*
%ADD24C,0.700000*%
G04 #@! TD*
G04 #@! TA.AperFunction,Conductor*
%ADD25C,1.000000*%
G04 #@! TD*
G04 #@! TA.AperFunction,Conductor*
%ADD26C,0.300000*%
G04 #@! TD*
G04 APERTURE END LIST*
D10*
X169968500Y-107012500D03*
D11*
X172508500Y-107012500D03*
X175048500Y-107012500D03*
D12*
X229250000Y-56130000D03*
X229250000Y-71370000D03*
D13*
X221000000Y-122500000D03*
D14*
X221000000Y-127500000D03*
X221000000Y-125000000D03*
D15*
X213500000Y-130600000D03*
X213500000Y-119400000D03*
D14*
X206500000Y-122500000D03*
X206500000Y-127500000D03*
D16*
X100653000Y-141079000D03*
X100653000Y-143619000D03*
X103193000Y-141079000D03*
X103193000Y-143619000D03*
X105733000Y-141079000D03*
X105733000Y-143619000D03*
X108273000Y-141079000D03*
X108273000Y-143619000D03*
X110813000Y-141079000D03*
X110813000Y-143619000D03*
X113353000Y-141079000D03*
X113353000Y-143619000D03*
X115893000Y-141079000D03*
X115893000Y-143619000D03*
X118433000Y-141079000D03*
D17*
X118433000Y-143619000D03*
D18*
X137338000Y-120268000D03*
X137338000Y-124968000D03*
X137338000Y-129668000D03*
D19*
X159004000Y-113284000D03*
D20*
X156464000Y-113284000D03*
X153924000Y-113284000D03*
X151384000Y-113284000D03*
X148844000Y-113284000D03*
X146304000Y-113284000D03*
X143764000Y-113284000D03*
X143764000Y-105664000D03*
X146304000Y-105664000D03*
X148844000Y-105664000D03*
X151384000Y-105664000D03*
X153924000Y-105664000D03*
X156464000Y-105664000D03*
X159004000Y-105664000D03*
D13*
X94000000Y-122500000D03*
D14*
X94000000Y-127500000D03*
X94000000Y-125000000D03*
D15*
X86500000Y-130600000D03*
X86500000Y-119400000D03*
D14*
X79500000Y-122500000D03*
X79500000Y-127500000D03*
D18*
X175664000Y-120268000D03*
X175664000Y-124968000D03*
X175664000Y-129668000D03*
X194714000Y-120268000D03*
X194714000Y-124968000D03*
X194714000Y-129668000D03*
D21*
X82000000Y-57500000D03*
X84000000Y-57500000D03*
X86000000Y-57500000D03*
X88000000Y-57500000D03*
X98000000Y-57500000D03*
X100000000Y-57500000D03*
X102000000Y-57500000D03*
X104000000Y-57500000D03*
X106000000Y-57500000D03*
X108000000Y-57500000D03*
X110000000Y-57500000D03*
X112000000Y-57500000D03*
X114000000Y-57500000D03*
X116000000Y-57500000D03*
X118000000Y-57500000D03*
X120000000Y-57500000D03*
X122000000Y-57500000D03*
X124000000Y-57500000D03*
X126000000Y-57500000D03*
X128000000Y-57500000D03*
X130000000Y-57500000D03*
X132000000Y-57500000D03*
X190000000Y-57500000D03*
X192000000Y-57500000D03*
X194000000Y-57500000D03*
X200000000Y-57500000D03*
X202000000Y-57500000D03*
X212000000Y-57500000D03*
X214000000Y-57500000D03*
X216000000Y-57500000D03*
X218000000Y-57500000D03*
D18*
X118156000Y-120396000D03*
X118156000Y-125096000D03*
X118156000Y-129796000D03*
X156473020Y-120258285D03*
X156473020Y-124958285D03*
X156473020Y-129658285D03*
D22*
X136144000Y-54610000D03*
X131064000Y-64262000D03*
X208280000Y-119888000D03*
X197358000Y-127000000D03*
X160528000Y-131572000D03*
X162306000Y-118618000D03*
X137414000Y-133604000D03*
X140208000Y-124206000D03*
X97282000Y-123444000D03*
X223520000Y-125730000D03*
X195072000Y-75946000D03*
X195834000Y-64516000D03*
X116332000Y-114046000D03*
X204470000Y-61722000D03*
X219202000Y-86106000D03*
X223774000Y-93980000D03*
X203962000Y-71628000D03*
X197799514Y-71815514D03*
X127762000Y-142494000D03*
X127762000Y-140462000D03*
X127762000Y-138430000D03*
X171704000Y-138684000D03*
X168402000Y-137160000D03*
X127762000Y-113030000D03*
X207518000Y-53339988D03*
X113792000Y-63754000D03*
X175768000Y-88138004D03*
X174752000Y-87122000D03*
X166116014Y-91186000D03*
X164466471Y-90539555D03*
X166617467Y-89914367D03*
X167894000Y-89916008D03*
X121920000Y-123444000D03*
X120904000Y-106426000D03*
X156210000Y-145542000D03*
D23*
X64014276Y-147004204D03*
X235966000Y-53594000D03*
X217528856Y-146853391D03*
X64104279Y-53582403D03*
X235966000Y-146812000D03*
D24*
X136906000Y-53340000D02*
X136144000Y-54102000D01*
X136144000Y-54102000D02*
X136144000Y-54610000D01*
X131064000Y-64262000D02*
X128778000Y-66548000D01*
X128778000Y-66548000D02*
X82804000Y-66548000D01*
X82000000Y-65744000D02*
X82000000Y-57500000D01*
X82804000Y-66548000D02*
X82000000Y-65744000D01*
X136906000Y-53340000D02*
X136906012Y-53339988D01*
X136906012Y-53339988D02*
X207518000Y-53339988D01*
D25*
X130000000Y-59896000D02*
X130302000Y-60198000D01*
X133604000Y-60198000D02*
X138882000Y-54920000D01*
X130000000Y-57500000D02*
X130000000Y-59896000D01*
X138882000Y-54920000D02*
X194000000Y-54920000D01*
X194000000Y-54920000D02*
X194000000Y-57500000D01*
X130302000Y-60198000D02*
X133604000Y-60198000D01*
D24*
X135585292Y-61302000D02*
X187364000Y-61302000D01*
X187364000Y-61302000D02*
X188214000Y-60452000D01*
X117690000Y-62064000D02*
X134823292Y-62064000D01*
X116000000Y-57500000D02*
X116000000Y-60374000D01*
X192000000Y-59968000D02*
X192000000Y-57500000D01*
X134823292Y-62064000D02*
X135585292Y-61302000D01*
X188214000Y-60452000D02*
X191516000Y-60452000D01*
X116000000Y-60374000D02*
X117690000Y-62064000D01*
X191516000Y-60452000D02*
X192000000Y-59968000D01*
X116000000Y-57500000D02*
X116000000Y-58400000D01*
X116000000Y-58400000D02*
X116078000Y-58478000D01*
X116078000Y-58478000D02*
X116078000Y-64262000D01*
X116078000Y-64262000D02*
X115062000Y-65278000D01*
X115062000Y-65278000D02*
X100838000Y-65278000D01*
X100838000Y-65278000D02*
X100000000Y-64440000D01*
X100000000Y-64440000D02*
X100000000Y-57500000D01*
D26*
X112776000Y-139446000D02*
X102084000Y-128754000D01*
X103193000Y-143619000D02*
X101920600Y-142346600D01*
X101920600Y-142346600D02*
X101920600Y-137269548D01*
X112085400Y-142351400D02*
X112085400Y-139792874D01*
X101346000Y-88900000D02*
X166877992Y-88900000D01*
X110813000Y-143619000D02*
X109545400Y-142351400D01*
X99314000Y-88138000D02*
X98552000Y-87376000D01*
X166365100Y-89662000D02*
X166617467Y-89914367D01*
X104460600Y-142346600D02*
X104460600Y-139026074D01*
X165862014Y-91440000D02*
X166116014Y-91186000D01*
X102086526Y-89662000D02*
X166365100Y-89662000D01*
X100976000Y-90772526D02*
X102086526Y-89662000D01*
X114046000Y-139446000D02*
X112776000Y-139446000D01*
X102870000Y-91440000D02*
X165862014Y-91440000D01*
X113353000Y-143619000D02*
X112085400Y-142351400D01*
X102500445Y-90539555D02*
X164466471Y-90539555D01*
X102084000Y-128754000D02*
X102084000Y-92226000D01*
X100976000Y-131456000D02*
X100976000Y-90772526D01*
X166877992Y-88900000D02*
X167894000Y-89916008D01*
X100422000Y-89824000D02*
X101346000Y-88900000D01*
X109545400Y-142351400D02*
X109545400Y-140025400D01*
X107000600Y-142346600D02*
X107000600Y-140553942D01*
X114625400Y-140025400D02*
X114046000Y-139446000D01*
X99868000Y-88600000D02*
X100329996Y-88138004D01*
X108273000Y-143619000D02*
X107000600Y-142346600D01*
X104460600Y-139026074D02*
X99868000Y-134433474D01*
X112085400Y-139792874D02*
X101530000Y-129237474D01*
X109545400Y-140025400D02*
X100976000Y-131456000D01*
X102084000Y-92226000D02*
X102870000Y-91440000D01*
X107000600Y-140553942D02*
X100422000Y-133975342D01*
X101530000Y-129237474D02*
X101530000Y-91510000D01*
X114625400Y-142351400D02*
X114625400Y-140025400D01*
X99868000Y-134433474D02*
X99868000Y-88600000D01*
X115893000Y-143619000D02*
X114625400Y-142351400D01*
X100329996Y-88138004D02*
X175768000Y-88138004D01*
X101530000Y-91510000D02*
X102500445Y-90539555D01*
X100422000Y-133975342D02*
X100422000Y-89824000D01*
X105733000Y-143619000D02*
X104460600Y-142346600D01*
X101920600Y-137269548D02*
X99314000Y-134662948D01*
X99314000Y-134662948D02*
X99314000Y-88138000D01*
X98552000Y-87376000D02*
X174498000Y-87376000D01*
X174498000Y-87376000D02*
X174752000Y-87122000D01*
D24*
X159004000Y-113284000D02*
X160408000Y-111880000D01*
X115316000Y-105664000D02*
X115316000Y-114046000D01*
X160408000Y-111880000D02*
X160408000Y-105082444D01*
X160408000Y-105082444D02*
X157687556Y-102362000D01*
X118618000Y-102362000D02*
X115316000Y-105664000D01*
X157687556Y-102362000D02*
X118618000Y-102362000D01*
X115316000Y-114046000D02*
X116332000Y-114046000D01*
D25*
X175048500Y-107012500D02*
X175048500Y-91143500D01*
X175048500Y-91143500D02*
X204470000Y-61722000D01*
D26*
X219202000Y-86106000D02*
X219202000Y-89408000D01*
X219202000Y-89408000D02*
X223774000Y-93980000D01*
X203962000Y-71628000D02*
X197987028Y-71628000D01*
X197987028Y-71628000D02*
X197799514Y-71815514D01*
D24*
X212000000Y-57500000D02*
X212000000Y-59346000D01*
X212000000Y-59346000D02*
X212852000Y-60198000D01*
X225182000Y-60198000D02*
X229250000Y-56130000D01*
X212852000Y-60198000D02*
X225182000Y-60198000D01*
X82000000Y-57500000D02*
X82000000Y-57000000D01*
X165438000Y-132418000D02*
X164477604Y-132418000D01*
X171704000Y-138684000D02*
X165438000Y-132418000D01*
X164477604Y-132418000D02*
X159004000Y-126944396D01*
X159004000Y-126944396D02*
X159004000Y-113284000D01*
D26*
X142240000Y-134112000D02*
X145288000Y-137160000D01*
X146304000Y-105664000D02*
X142240000Y-109728000D01*
X145288000Y-137160000D02*
X168402000Y-137160000D01*
X142240000Y-109728000D02*
X142240000Y-134112000D01*
X127762000Y-113030000D02*
X129032000Y-113030000D01*
X143764000Y-103124000D02*
X146304000Y-105664000D01*
X129032000Y-113030000D02*
X138938000Y-103124000D01*
X138938000Y-103124000D02*
X143764000Y-103124000D01*
X113792000Y-63754000D02*
X114000000Y-63546000D01*
X114000000Y-63546000D02*
X114000000Y-57500000D01*
X121920000Y-123444000D02*
X121920000Y-107442000D01*
X121920000Y-107442000D02*
X120904000Y-106426000D01*
G04 #@! TA.AperFunction,Conductor*
G36*
X101213139Y-140848685D02*
G01*
X101258894Y-140901489D01*
X101270100Y-140953000D01*
X101270100Y-141205000D01*
X101250415Y-141272039D01*
X101197611Y-141317794D01*
X101146100Y-141329000D01*
X101096196Y-141329000D01*
X101119845Y-141292201D01*
X101161000Y-141152039D01*
X101161000Y-141005961D01*
X101119845Y-140865799D01*
X101096196Y-140829000D01*
X101146100Y-140829000D01*
X101213139Y-140848685D01*
G37*
G04 #@! TD.AperFunction*
G04 #@! TA.AperFunction,Conductor*
G36*
X102726155Y-140865799D02*
G01*
X102685000Y-141005961D01*
X102685000Y-141152039D01*
X102726155Y-141292201D01*
X102749804Y-141329000D01*
X102695100Y-141329000D01*
X102628061Y-141309315D01*
X102582306Y-141256511D01*
X102571100Y-141205000D01*
X102571100Y-140953000D01*
X102590785Y-140885961D01*
X102643589Y-140840206D01*
X102695100Y-140829000D01*
X102749804Y-140829000D01*
X102726155Y-140865799D01*
G37*
G04 #@! TD.AperFunction*
G04 #@! TA.AperFunction,Conductor*
G36*
X103753139Y-140848685D02*
G01*
X103798894Y-140901489D01*
X103810100Y-140953000D01*
X103810100Y-141205000D01*
X103790415Y-141272039D01*
X103737611Y-141317794D01*
X103686100Y-141329000D01*
X103636196Y-141329000D01*
X103659845Y-141292201D01*
X103701000Y-141152039D01*
X103701000Y-141005961D01*
X103659845Y-140865799D01*
X103636196Y-140829000D01*
X103686100Y-140829000D01*
X103753139Y-140848685D01*
G37*
G04 #@! TD.AperFunction*
G04 #@! TA.AperFunction,Conductor*
G36*
X105266155Y-140865799D02*
G01*
X105225000Y-141005961D01*
X105225000Y-141152039D01*
X105266155Y-141292201D01*
X105289804Y-141329000D01*
X105235100Y-141329000D01*
X105168061Y-141309315D01*
X105122306Y-141256511D01*
X105111100Y-141205000D01*
X105111100Y-140953000D01*
X105130785Y-140885961D01*
X105183589Y-140840206D01*
X105235100Y-140829000D01*
X105289804Y-140829000D01*
X105266155Y-140865799D01*
G37*
G04 #@! TD.AperFunction*
G04 #@! TA.AperFunction,Conductor*
G36*
X106293139Y-140848685D02*
G01*
X106338894Y-140901489D01*
X106350100Y-140953000D01*
X106350100Y-141205000D01*
X106330415Y-141272039D01*
X106277611Y-141317794D01*
X106226100Y-141329000D01*
X106176196Y-141329000D01*
X106199845Y-141292201D01*
X106241000Y-141152039D01*
X106241000Y-141005961D01*
X106199845Y-140865799D01*
X106176196Y-140829000D01*
X106226100Y-140829000D01*
X106293139Y-140848685D01*
G37*
G04 #@! TD.AperFunction*
G04 #@! TA.AperFunction,Conductor*
G36*
X107806155Y-140865799D02*
G01*
X107765000Y-141005961D01*
X107765000Y-141152039D01*
X107806155Y-141292201D01*
X107829804Y-141329000D01*
X107775100Y-141329000D01*
X107708061Y-141309315D01*
X107662306Y-141256511D01*
X107651100Y-141205000D01*
X107651100Y-140953000D01*
X107670785Y-140885961D01*
X107723589Y-140840206D01*
X107775100Y-140829000D01*
X107829804Y-140829000D01*
X107806155Y-140865799D01*
G37*
G04 #@! TD.AperFunction*
G04 #@! TA.AperFunction,Conductor*
G36*
X108837939Y-140848685D02*
G01*
X108883694Y-140901489D01*
X108894900Y-140953000D01*
X108894900Y-141205000D01*
X108875215Y-141272039D01*
X108822411Y-141317794D01*
X108770900Y-141329000D01*
X108716196Y-141329000D01*
X108739845Y-141292201D01*
X108781000Y-141152039D01*
X108781000Y-141005961D01*
X108739845Y-140865799D01*
X108716196Y-140829000D01*
X108770900Y-140829000D01*
X108837939Y-140848685D01*
G37*
G04 #@! TD.AperFunction*
G04 #@! TA.AperFunction,Conductor*
G36*
X110346155Y-140865799D02*
G01*
X110305000Y-141005961D01*
X110305000Y-141152039D01*
X110346155Y-141292201D01*
X110369804Y-141329000D01*
X110319900Y-141329000D01*
X110252861Y-141309315D01*
X110207106Y-141256511D01*
X110195900Y-141205000D01*
X110195900Y-140953000D01*
X110215585Y-140885961D01*
X110268389Y-140840206D01*
X110319900Y-140829000D01*
X110369804Y-140829000D01*
X110346155Y-140865799D01*
G37*
G04 #@! TD.AperFunction*
G04 #@! TA.AperFunction,Conductor*
G36*
X111377939Y-140848685D02*
G01*
X111423694Y-140901489D01*
X111434900Y-140953000D01*
X111434900Y-141205000D01*
X111415215Y-141272039D01*
X111362411Y-141317794D01*
X111310900Y-141329000D01*
X111256196Y-141329000D01*
X111279845Y-141292201D01*
X111321000Y-141152039D01*
X111321000Y-141005961D01*
X111279845Y-140865799D01*
X111256196Y-140829000D01*
X111310900Y-140829000D01*
X111377939Y-140848685D01*
G37*
G04 #@! TD.AperFunction*
G04 #@! TA.AperFunction,Conductor*
G36*
X112886155Y-140865799D02*
G01*
X112845000Y-141005961D01*
X112845000Y-141152039D01*
X112886155Y-141292201D01*
X112909804Y-141329000D01*
X112859900Y-141329000D01*
X112792861Y-141309315D01*
X112747106Y-141256511D01*
X112735900Y-141205000D01*
X112735900Y-140953000D01*
X112755585Y-140885961D01*
X112808389Y-140840206D01*
X112859900Y-140829000D01*
X112909804Y-140829000D01*
X112886155Y-140865799D01*
G37*
G04 #@! TD.AperFunction*
G04 #@! TA.AperFunction,Conductor*
G36*
X113917939Y-140848685D02*
G01*
X113963694Y-140901489D01*
X113974900Y-140953000D01*
X113974900Y-141205000D01*
X113955215Y-141272039D01*
X113902411Y-141317794D01*
X113850900Y-141329000D01*
X113796196Y-141329000D01*
X113819845Y-141292201D01*
X113861000Y-141152039D01*
X113861000Y-141005961D01*
X113819845Y-140865799D01*
X113796196Y-140829000D01*
X113850900Y-140829000D01*
X113917939Y-140848685D01*
G37*
G04 #@! TD.AperFunction*
G04 #@! TA.AperFunction,Conductor*
G36*
X115426155Y-140865799D02*
G01*
X115385000Y-141005961D01*
X115385000Y-141152039D01*
X115426155Y-141292201D01*
X115449804Y-141329000D01*
X115399900Y-141329000D01*
X115332861Y-141309315D01*
X115287106Y-141256511D01*
X115275900Y-141205000D01*
X115275900Y-140953000D01*
X115295585Y-140885961D01*
X115348389Y-140840206D01*
X115399900Y-140829000D01*
X115449804Y-140829000D01*
X115426155Y-140865799D01*
G37*
G04 #@! TD.AperFunction*
G04 #@! TA.AperFunction,Conductor*
G36*
X117966155Y-140865799D02*
G01*
X117925000Y-141005961D01*
X117925000Y-141152039D01*
X117966155Y-141292201D01*
X117989804Y-141329000D01*
X116336196Y-141329000D01*
X116359845Y-141292201D01*
X116401000Y-141152039D01*
X116401000Y-141005961D01*
X116359845Y-140865799D01*
X116336196Y-140829000D01*
X117989804Y-140829000D01*
X117966155Y-140865799D01*
G37*
G04 #@! TD.AperFunction*
G04 #@! TA.AperFunction,Conductor*
G36*
X102776303Y-138262169D02*
G01*
X102782781Y-138268201D01*
X103773781Y-139259201D01*
X103807266Y-139320524D01*
X103810100Y-139346882D01*
X103810100Y-139675462D01*
X103790415Y-139742501D01*
X103737611Y-139788256D01*
X103668453Y-139798200D01*
X103645837Y-139792743D01*
X103528893Y-139752596D01*
X103443000Y-139738263D01*
X103443000Y-140634702D01*
X103337592Y-140586565D01*
X103229334Y-140571000D01*
X103156666Y-140571000D01*
X103048408Y-140586565D01*
X102943000Y-140634702D01*
X102943000Y-139738263D01*
X102942999Y-139738263D01*
X102857109Y-139752595D01*
X102735362Y-139794391D01*
X102665563Y-139797540D01*
X102605142Y-139762453D01*
X102573282Y-139700270D01*
X102571100Y-139677109D01*
X102571100Y-138355882D01*
X102590785Y-138288843D01*
X102643589Y-138243088D01*
X102712747Y-138233144D01*
X102776303Y-138262169D01*
G37*
G04 #@! TD.AperFunction*
G04 #@! TA.AperFunction,Conductor*
G36*
X101831703Y-130459569D02*
G01*
X101838181Y-130465601D01*
X111026681Y-139654101D01*
X111060166Y-139715424D01*
X111063000Y-139741782D01*
X111063000Y-140634702D01*
X110957592Y-140586565D01*
X110849334Y-140571000D01*
X110776666Y-140571000D01*
X110668408Y-140586565D01*
X110563000Y-140634702D01*
X110563000Y-139738263D01*
X110562999Y-139738263D01*
X110477106Y-139752596D01*
X110292294Y-139816042D01*
X110222495Y-139819192D01*
X110162074Y-139784106D01*
X110145302Y-139761886D01*
X110136330Y-139746716D01*
X110127778Y-139729255D01*
X110119968Y-139709529D01*
X110093121Y-139672579D01*
X110086731Y-139662849D01*
X110063481Y-139623535D01*
X110048475Y-139608529D01*
X110035835Y-139593730D01*
X110023361Y-139576560D01*
X109988180Y-139547456D01*
X109979540Y-139539594D01*
X101662819Y-131222873D01*
X101629334Y-131161550D01*
X101626500Y-131135192D01*
X101626500Y-130553282D01*
X101646185Y-130486243D01*
X101698989Y-130440488D01*
X101768147Y-130430544D01*
X101831703Y-130459569D01*
G37*
G04 #@! TD.AperFunction*
G04 #@! TA.AperFunction,Conductor*
G36*
X155261865Y-113827348D02*
G01*
X155306382Y-113878725D01*
X155333429Y-113936728D01*
X155333432Y-113936734D01*
X155463954Y-114123141D01*
X155624858Y-114284045D01*
X155624861Y-114284047D01*
X155811266Y-114414568D01*
X156017504Y-114510739D01*
X156237308Y-114569635D01*
X156399230Y-114583801D01*
X156463998Y-114589468D01*
X156464000Y-114589468D01*
X156464002Y-114589468D01*
X156524019Y-114584217D01*
X156690692Y-114569635D01*
X156910496Y-114510739D01*
X157116734Y-114414568D01*
X157303139Y-114284047D01*
X157464047Y-114123139D01*
X157481272Y-114098539D01*
X157535848Y-114054913D01*
X157605346Y-114047718D01*
X157667701Y-114079239D01*
X157703116Y-114139468D01*
X157706138Y-114156406D01*
X157709908Y-114191483D01*
X157760202Y-114326328D01*
X157760206Y-114326335D01*
X157846452Y-114441544D01*
X157846455Y-114441547D01*
X157961664Y-114527793D01*
X157961673Y-114527798D01*
X158072832Y-114569257D01*
X158128766Y-114611127D01*
X158153184Y-114676592D01*
X158153500Y-114685439D01*
X158153500Y-118810268D01*
X158133815Y-118877307D01*
X158081011Y-118923062D01*
X158011853Y-118933006D01*
X157948297Y-118903981D01*
X157941819Y-118897949D01*
X157786425Y-118742555D01*
X157786407Y-118742539D01*
X157557337Y-118571060D01*
X157557329Y-118571055D01*
X157306186Y-118433920D01*
X157306187Y-118433920D01*
X157189478Y-118390390D01*
X157038066Y-118333916D01*
X157038063Y-118333915D01*
X157038057Y-118333913D01*
X156758453Y-118273089D01*
X156473021Y-118252675D01*
X156473019Y-118252675D01*
X156187586Y-118273089D01*
X155907982Y-118333913D01*
X155639853Y-118433920D01*
X155388710Y-118571055D01*
X155388702Y-118571060D01*
X155159632Y-118742539D01*
X155159614Y-118742555D01*
X154985201Y-118916969D01*
X154923878Y-118950454D01*
X154854186Y-118945470D01*
X154798253Y-118903598D01*
X154773836Y-118838134D01*
X154773520Y-118829288D01*
X154773520Y-118017501D01*
X154776581Y-117995561D01*
X154777421Y-117986492D01*
X154774049Y-117950102D01*
X154773520Y-117938661D01*
X154773520Y-117930440D01*
X154772010Y-117922364D01*
X154770427Y-117911016D01*
X154767055Y-117874625D01*
X154764568Y-117865884D01*
X154761370Y-117856344D01*
X154758081Y-117847855D01*
X154758081Y-117847852D01*
X154758079Y-117847849D01*
X154758078Y-117847846D01*
X154738841Y-117816777D01*
X154733272Y-117806781D01*
X154716978Y-117774057D01*
X154716976Y-117774055D01*
X154716975Y-117774053D01*
X154711495Y-117766796D01*
X154705081Y-117759071D01*
X154698936Y-117752330D01*
X154669770Y-117730305D01*
X154660969Y-117722997D01*
X154633953Y-117698369D01*
X154633951Y-117698368D01*
X154633949Y-117698366D01*
X154626252Y-117693600D01*
X154617410Y-117688675D01*
X154609284Y-117684628D01*
X154574140Y-117674629D01*
X154563285Y-117670991D01*
X154529192Y-117657784D01*
X154520256Y-117656114D01*
X154510277Y-117654722D01*
X154501228Y-117653884D01*
X154501227Y-117653884D01*
X154464837Y-117657256D01*
X154453396Y-117657785D01*
X145532235Y-117657785D01*
X145510277Y-117654722D01*
X145501228Y-117653884D01*
X145501227Y-117653884D01*
X145464837Y-117657256D01*
X145453396Y-117657785D01*
X145445174Y-117657785D01*
X145437089Y-117659296D01*
X145425759Y-117660876D01*
X145389359Y-117664249D01*
X145380664Y-117666723D01*
X145371028Y-117669953D01*
X145362583Y-117673225D01*
X145331514Y-117692461D01*
X145321516Y-117698031D01*
X145288789Y-117714327D01*
X145281567Y-117719781D01*
X145273771Y-117726255D01*
X145267064Y-117732369D01*
X145245046Y-117761526D01*
X145237733Y-117770333D01*
X145213105Y-117797349D01*
X145208342Y-117805041D01*
X145203405Y-117813905D01*
X145199363Y-117822022D01*
X145189363Y-117857169D01*
X145185724Y-117868026D01*
X145172519Y-117902111D01*
X145170849Y-117911047D01*
X145169457Y-117921030D01*
X145168619Y-117930076D01*
X145168619Y-117930077D01*
X145168619Y-117930078D01*
X145169954Y-117944485D01*
X145171991Y-117966467D01*
X145172520Y-117977908D01*
X145172520Y-131899069D01*
X145169457Y-131921030D01*
X145168619Y-131930076D01*
X145168619Y-131930077D01*
X145168619Y-131930078D01*
X145171375Y-131959817D01*
X145171991Y-131966467D01*
X145172520Y-131977908D01*
X145172520Y-131986128D01*
X145172521Y-131986139D01*
X145174031Y-131994222D01*
X145175611Y-132005549D01*
X145178984Y-132041943D01*
X145181463Y-132050657D01*
X145184687Y-132060274D01*
X145187958Y-132068717D01*
X145193974Y-132078433D01*
X145203953Y-132094550D01*
X145207197Y-132099788D01*
X145212766Y-132109787D01*
X145218751Y-132121806D01*
X145229061Y-132142513D01*
X145234546Y-132149775D01*
X145240977Y-132157520D01*
X145247100Y-132164236D01*
X145276269Y-132186264D01*
X145285077Y-132193578D01*
X145285454Y-132193921D01*
X145312089Y-132218203D01*
X145319817Y-132222987D01*
X145328600Y-132227879D01*
X145336752Y-132231938D01*
X145336756Y-132231941D01*
X145371915Y-132241944D01*
X145382762Y-132245580D01*
X145416847Y-132258785D01*
X145416848Y-132258785D01*
X145425775Y-132260454D01*
X145435762Y-132261847D01*
X145444808Y-132262684D01*
X145444813Y-132262686D01*
X145481203Y-132259313D01*
X145492644Y-132258785D01*
X154413805Y-132258785D01*
X154435762Y-132261847D01*
X154444808Y-132262684D01*
X154444813Y-132262686D01*
X154481203Y-132259313D01*
X154492644Y-132258785D01*
X154500865Y-132258785D01*
X154503427Y-132258305D01*
X154508941Y-132257274D01*
X154520279Y-132255692D01*
X154556680Y-132252320D01*
X154556686Y-132252316D01*
X154565441Y-132249826D01*
X154574960Y-132246635D01*
X154583451Y-132243346D01*
X154583453Y-132243346D01*
X154614541Y-132224096D01*
X154624518Y-132218539D01*
X154657248Y-132202243D01*
X154657250Y-132202239D01*
X154664543Y-132196733D01*
X154672217Y-132190361D01*
X154678969Y-132184206D01*
X154678969Y-132184205D01*
X154678972Y-132184204D01*
X154701010Y-132155019D01*
X154708295Y-132146246D01*
X154732936Y-132119218D01*
X154732938Y-132119212D01*
X154737741Y-132111455D01*
X154742599Y-132102733D01*
X154746671Y-132094554D01*
X154746676Y-132094549D01*
X154756683Y-132059374D01*
X154760309Y-132048555D01*
X154773520Y-132014458D01*
X154773520Y-132014456D01*
X154773521Y-132014454D01*
X154775192Y-132005514D01*
X154776581Y-131995561D01*
X154777421Y-131986492D01*
X154774049Y-131950102D01*
X154773520Y-131938661D01*
X154773520Y-131087282D01*
X154793205Y-131020243D01*
X154846009Y-130974488D01*
X154915167Y-130964544D01*
X154978723Y-130993569D01*
X154985201Y-130999601D01*
X155159614Y-131174014D01*
X155159632Y-131174030D01*
X155388702Y-131345509D01*
X155388710Y-131345514D01*
X155639853Y-131482649D01*
X155639852Y-131482649D01*
X155639856Y-131482650D01*
X155639859Y-131482652D01*
X155907974Y-131582654D01*
X155907980Y-131582655D01*
X155907982Y-131582656D01*
X156187586Y-131643480D01*
X156187588Y-131643480D01*
X156187592Y-131643481D01*
X156441240Y-131661622D01*
X156473019Y-131663895D01*
X156473020Y-131663895D01*
X156473021Y-131663895D01*
X156501615Y-131661849D01*
X156758448Y-131643481D01*
X156864716Y-131620364D01*
X157038057Y-131582656D01*
X157038057Y-131582655D01*
X157038066Y-131582654D01*
X157306181Y-131482652D01*
X157557335Y-131345511D01*
X157786415Y-131174024D01*
X157988759Y-130971680D01*
X158160246Y-130742600D01*
X158297387Y-130491446D01*
X158397389Y-130223331D01*
X158458216Y-129943713D01*
X158478630Y-129658285D01*
X158458216Y-129372857D01*
X158442831Y-129302135D01*
X158397391Y-129093247D01*
X158397390Y-129093245D01*
X158397389Y-129093239D01*
X158297387Y-128825124D01*
X158262085Y-128760474D01*
X158160249Y-128573975D01*
X158160244Y-128573967D01*
X157988765Y-128344897D01*
X157988749Y-128344879D01*
X157786425Y-128142555D01*
X157786407Y-128142539D01*
X157557337Y-127971060D01*
X157557329Y-127971055D01*
X157306186Y-127833920D01*
X157306187Y-127833920D01*
X157189478Y-127790390D01*
X157038066Y-127733916D01*
X157038063Y-127733915D01*
X157038057Y-127733913D01*
X156758453Y-127673089D01*
X156473021Y-127652675D01*
X156473019Y-127652675D01*
X156187586Y-127673089D01*
X155907982Y-127733913D01*
X155639853Y-127833920D01*
X155388710Y-127971055D01*
X155388702Y-127971060D01*
X155159632Y-128142539D01*
X155159614Y-128142555D01*
X154985201Y-128316969D01*
X154923878Y-128350454D01*
X154854186Y-128345470D01*
X154798253Y-128303598D01*
X154773836Y-128238134D01*
X154773520Y-128229288D01*
X154773520Y-126309493D01*
X154793205Y-126242454D01*
X154846009Y-126196699D01*
X154888766Y-126188984D01*
X155795823Y-125281926D01*
X155819079Y-125335838D01*
X155923776Y-125476470D01*
X156058082Y-125589167D01*
X156149685Y-125635171D01*
X155246456Y-126538400D01*
X155388980Y-126645092D01*
X155388981Y-126645093D01*
X155640062Y-126782193D01*
X155640061Y-126782193D01*
X155908124Y-126882175D01*
X156187657Y-126942984D01*
X156473019Y-126963394D01*
X156473021Y-126963394D01*
X156758382Y-126942984D01*
X157037915Y-126882175D01*
X157305978Y-126782193D01*
X157557067Y-126645088D01*
X157699581Y-126538401D01*
X157699582Y-126538400D01*
X156798966Y-125637783D01*
X156811911Y-125633072D01*
X156958393Y-125536730D01*
X157078708Y-125409203D01*
X157151467Y-125283179D01*
X158065133Y-126196845D01*
X158088926Y-126202021D01*
X158138332Y-126251426D01*
X158153500Y-126310854D01*
X158153500Y-126904788D01*
X158153091Y-126914852D01*
X158148798Y-126967560D01*
X158159502Y-127046128D01*
X158159910Y-127049458D01*
X158168486Y-127128308D01*
X158168710Y-127129326D01*
X158173525Y-127149869D01*
X158173774Y-127150867D01*
X158201113Y-127225287D01*
X158202227Y-127228449D01*
X158217580Y-127274010D01*
X158227556Y-127303617D01*
X158227557Y-127303619D01*
X158227558Y-127303621D01*
X158228001Y-127304581D01*
X158237146Y-127323662D01*
X158237564Y-127324505D01*
X158280267Y-127391314D01*
X158282036Y-127394167D01*
X158322927Y-127462129D01*
X158323538Y-127462932D01*
X158336578Y-127479612D01*
X158337197Y-127480382D01*
X158337199Y-127480384D01*
X158337200Y-127480385D01*
X158393303Y-127536488D01*
X158395609Y-127538858D01*
X158450151Y-127596437D01*
X158450155Y-127596439D01*
X158450983Y-127597143D01*
X158468119Y-127611304D01*
X163848202Y-132991387D01*
X163855029Y-132998792D01*
X163889267Y-133039100D01*
X163952410Y-133087100D01*
X163954980Y-133089109D01*
X164016850Y-133138842D01*
X164017740Y-133139411D01*
X164035627Y-133150504D01*
X164036542Y-133151055D01*
X164108519Y-133184355D01*
X164111494Y-133185779D01*
X164182583Y-133221036D01*
X164182588Y-133221037D01*
X164182592Y-133221039D01*
X164183731Y-133221458D01*
X164203380Y-133228376D01*
X164204439Y-133228733D01*
X164281885Y-133245779D01*
X164285149Y-133246543D01*
X164362109Y-133265684D01*
X164362111Y-133265684D01*
X164363198Y-133265832D01*
X164383979Y-133268377D01*
X164385106Y-133268499D01*
X164385107Y-133268500D01*
X164464377Y-133268500D01*
X164467734Y-133268545D01*
X164547036Y-133270693D01*
X164547036Y-133270692D01*
X164547039Y-133270693D01*
X164548083Y-133270608D01*
X164570252Y-133268500D01*
X165034349Y-133268500D01*
X165101388Y-133288185D01*
X165122030Y-133304819D01*
X167990379Y-136173168D01*
X168023864Y-136234491D01*
X168018880Y-136304183D01*
X167977008Y-136360116D01*
X167953136Y-136374127D01*
X167949270Y-136375848D01*
X167797910Y-136485818D01*
X167732104Y-136509298D01*
X167725025Y-136509500D01*
X145608808Y-136509500D01*
X145541769Y-136489815D01*
X145521127Y-136473181D01*
X142926819Y-133878873D01*
X142893334Y-133817550D01*
X142890500Y-133791192D01*
X142890500Y-114498187D01*
X142910185Y-114431148D01*
X142962989Y-114385393D01*
X143032147Y-114375449D01*
X143085619Y-114396610D01*
X143111266Y-114414568D01*
X143317504Y-114510739D01*
X143537308Y-114569635D01*
X143699230Y-114583801D01*
X143763998Y-114589468D01*
X143764000Y-114589468D01*
X143764002Y-114589468D01*
X143824019Y-114584217D01*
X143990692Y-114569635D01*
X144210496Y-114510739D01*
X144416734Y-114414568D01*
X144603139Y-114284047D01*
X144764047Y-114123139D01*
X144894568Y-113936734D01*
X144921618Y-113878724D01*
X144967790Y-113826285D01*
X145034983Y-113807133D01*
X145101865Y-113827348D01*
X145146382Y-113878725D01*
X145173429Y-113936728D01*
X145173432Y-113936734D01*
X145303954Y-114123141D01*
X145464858Y-114284045D01*
X145464861Y-114284047D01*
X145651266Y-114414568D01*
X145857504Y-114510739D01*
X146077308Y-114569635D01*
X146239230Y-114583801D01*
X146303998Y-114589468D01*
X146304000Y-114589468D01*
X146304002Y-114589468D01*
X146364019Y-114584217D01*
X146530692Y-114569635D01*
X146750496Y-114510739D01*
X146956734Y-114414568D01*
X147143139Y-114284047D01*
X147304047Y-114123139D01*
X147434568Y-113936734D01*
X147461618Y-113878724D01*
X147507790Y-113826285D01*
X147574983Y-113807133D01*
X147641865Y-113827348D01*
X147686382Y-113878725D01*
X147713429Y-113936728D01*
X147713432Y-113936734D01*
X147843954Y-114123141D01*
X148004858Y-114284045D01*
X148004861Y-114284047D01*
X148191266Y-114414568D01*
X148397504Y-114510739D01*
X148617308Y-114569635D01*
X148779230Y-114583801D01*
X148843998Y-114589468D01*
X148844000Y-114589468D01*
X148844002Y-114589468D01*
X148904019Y-114584217D01*
X149070692Y-114569635D01*
X149290496Y-114510739D01*
X149496734Y-114414568D01*
X149683139Y-114284047D01*
X149844047Y-114123139D01*
X149974568Y-113936734D01*
X150001618Y-113878724D01*
X150047790Y-113826285D01*
X150114983Y-113807133D01*
X150181865Y-113827348D01*
X150226382Y-113878725D01*
X150253429Y-113936728D01*
X150253432Y-113936734D01*
X150383954Y-114123141D01*
X150544858Y-114284045D01*
X150544861Y-114284047D01*
X150731266Y-114414568D01*
X150937504Y-114510739D01*
X151157308Y-114569635D01*
X151319230Y-114583801D01*
X151383998Y-114589468D01*
X151384000Y-114589468D01*
X151384002Y-114589468D01*
X151444019Y-114584217D01*
X151610692Y-114569635D01*
X151830496Y-114510739D01*
X152036734Y-114414568D01*
X152223139Y-114284047D01*
X152384047Y-114123139D01*
X152514568Y-113936734D01*
X152541618Y-113878724D01*
X152587790Y-113826285D01*
X152654983Y-113807133D01*
X152721865Y-113827348D01*
X152766382Y-113878725D01*
X152793429Y-113936728D01*
X152793432Y-113936734D01*
X152923954Y-114123141D01*
X153084858Y-114284045D01*
X153084861Y-114284047D01*
X153271266Y-114414568D01*
X153477504Y-114510739D01*
X153697308Y-114569635D01*
X153859230Y-114583801D01*
X153923998Y-114589468D01*
X153924000Y-114589468D01*
X153924002Y-114589468D01*
X153984019Y-114584217D01*
X154150692Y-114569635D01*
X154370496Y-114510739D01*
X154576734Y-114414568D01*
X154763139Y-114284047D01*
X154924047Y-114123139D01*
X155054568Y-113936734D01*
X155081618Y-113878724D01*
X155127790Y-113826285D01*
X155194983Y-113807133D01*
X155261865Y-113827348D01*
G37*
G04 #@! TD.AperFunction*
G04 #@! TA.AperFunction,Conductor*
G36*
X154978723Y-121593569D02*
G01*
X154985201Y-121599601D01*
X155159614Y-121774014D01*
X155159632Y-121774030D01*
X155388702Y-121945509D01*
X155388710Y-121945514D01*
X155639853Y-122082649D01*
X155639852Y-122082649D01*
X155639856Y-122082650D01*
X155639859Y-122082652D01*
X155907974Y-122182654D01*
X155907980Y-122182655D01*
X155907982Y-122182656D01*
X156187586Y-122243480D01*
X156187588Y-122243480D01*
X156187592Y-122243481D01*
X156441240Y-122261622D01*
X156473019Y-122263895D01*
X156473020Y-122263895D01*
X156473021Y-122263895D01*
X156501615Y-122261849D01*
X156758448Y-122243481D01*
X156864716Y-122220364D01*
X157038057Y-122182656D01*
X157038057Y-122182655D01*
X157038066Y-122182654D01*
X157306181Y-122082652D01*
X157557335Y-121945511D01*
X157786415Y-121774024D01*
X157863442Y-121696997D01*
X157941819Y-121618621D01*
X158003142Y-121585136D01*
X158072834Y-121590120D01*
X158128767Y-121631992D01*
X158153184Y-121697456D01*
X158153500Y-121706302D01*
X158153500Y-123605714D01*
X158133815Y-123672753D01*
X158081011Y-123718508D01*
X158063120Y-123721736D01*
X157150215Y-124634641D01*
X157126961Y-124580732D01*
X157022264Y-124440100D01*
X156887958Y-124327403D01*
X156796353Y-124281397D01*
X157699582Y-123378168D01*
X157699581Y-123378167D01*
X157557066Y-123271481D01*
X157557058Y-123271476D01*
X157305977Y-123134376D01*
X157305978Y-123134376D01*
X157037915Y-123034394D01*
X156758382Y-122973585D01*
X156473021Y-122953176D01*
X156473019Y-122953176D01*
X156187657Y-122973585D01*
X155908124Y-123034394D01*
X155640061Y-123134376D01*
X155388981Y-123271476D01*
X155388973Y-123271481D01*
X155246457Y-123378167D01*
X155246456Y-123378168D01*
X156147074Y-124278786D01*
X156134129Y-124283498D01*
X155987647Y-124379840D01*
X155867332Y-124507367D01*
X155794572Y-124633390D01*
X154887930Y-123726748D01*
X154838093Y-123715907D01*
X154788688Y-123666502D01*
X154773520Y-123607075D01*
X154773520Y-121687282D01*
X154793205Y-121620243D01*
X154846009Y-121574488D01*
X154915167Y-121564544D01*
X154978723Y-121593569D01*
G37*
G04 #@! TD.AperFunction*
G04 #@! TA.AperFunction,Conductor*
G36*
X159254000Y-106942871D02*
G01*
X159401406Y-106903374D01*
X159471256Y-106905037D01*
X159529119Y-106944199D01*
X159556623Y-107008427D01*
X159557500Y-107023149D01*
X159557500Y-111476348D01*
X159537815Y-111543387D01*
X159521181Y-111564029D01*
X159138029Y-111947181D01*
X159076706Y-111980666D01*
X159050348Y-111983500D01*
X158156129Y-111983500D01*
X158156123Y-111983501D01*
X158096516Y-111989908D01*
X157961671Y-112040202D01*
X157961664Y-112040206D01*
X157846455Y-112126452D01*
X157846452Y-112126455D01*
X157760206Y-112241664D01*
X157760202Y-112241671D01*
X157709908Y-112376516D01*
X157706137Y-112411596D01*
X157679398Y-112476146D01*
X157622006Y-112515994D01*
X157552180Y-112518487D01*
X157492092Y-112482834D01*
X157481273Y-112469462D01*
X157464045Y-112444858D01*
X157303141Y-112283954D01*
X157116734Y-112153432D01*
X157116732Y-112153431D01*
X156910497Y-112057261D01*
X156910488Y-112057258D01*
X156690697Y-111998366D01*
X156690693Y-111998365D01*
X156690692Y-111998365D01*
X156690691Y-111998364D01*
X156690686Y-111998364D01*
X156464002Y-111978532D01*
X156463998Y-111978532D01*
X156237313Y-111998364D01*
X156237302Y-111998366D01*
X156017511Y-112057258D01*
X156017502Y-112057261D01*
X155811267Y-112153431D01*
X155811265Y-112153432D01*
X155624858Y-112283954D01*
X155463954Y-112444858D01*
X155333432Y-112631265D01*
X155333431Y-112631267D01*
X155306382Y-112689275D01*
X155260209Y-112741714D01*
X155193016Y-112760866D01*
X155126135Y-112740650D01*
X155081618Y-112689275D01*
X155068767Y-112661716D01*
X155054568Y-112631266D01*
X154924047Y-112444861D01*
X154924045Y-112444858D01*
X154763141Y-112283954D01*
X154576734Y-112153432D01*
X154576732Y-112153431D01*
X154370497Y-112057261D01*
X154370488Y-112057258D01*
X154150697Y-111998366D01*
X154150693Y-111998365D01*
X154150692Y-111998365D01*
X154150691Y-111998364D01*
X154150686Y-111998364D01*
X153924002Y-111978532D01*
X153923998Y-111978532D01*
X153697313Y-111998364D01*
X153697302Y-111998366D01*
X153477511Y-112057258D01*
X153477502Y-112057261D01*
X153271267Y-112153431D01*
X153271265Y-112153432D01*
X153084858Y-112283954D01*
X152923954Y-112444858D01*
X152793432Y-112631265D01*
X152793431Y-112631267D01*
X152766382Y-112689275D01*
X152720209Y-112741714D01*
X152653016Y-112760866D01*
X152586135Y-112740650D01*
X152541618Y-112689275D01*
X152528767Y-112661716D01*
X152514568Y-112631266D01*
X152384047Y-112444861D01*
X152384045Y-112444858D01*
X152223141Y-112283954D01*
X152036734Y-112153432D01*
X152036732Y-112153431D01*
X151830497Y-112057261D01*
X151830488Y-112057258D01*
X151610697Y-111998366D01*
X151610693Y-111998365D01*
X151610692Y-111998365D01*
X151610691Y-111998364D01*
X151610686Y-111998364D01*
X151384002Y-111978532D01*
X151383998Y-111978532D01*
X151157313Y-111998364D01*
X151157302Y-111998366D01*
X150937511Y-112057258D01*
X150937502Y-112057261D01*
X150731267Y-112153431D01*
X150731265Y-112153432D01*
X150544858Y-112283954D01*
X150383954Y-112444858D01*
X150253432Y-112631265D01*
X150253431Y-112631267D01*
X150226382Y-112689275D01*
X150180209Y-112741714D01*
X150113016Y-112760866D01*
X150046135Y-112740650D01*
X150001618Y-112689275D01*
X149988767Y-112661716D01*
X149974568Y-112631266D01*
X149844047Y-112444861D01*
X149844045Y-112444858D01*
X149683141Y-112283954D01*
X149496734Y-112153432D01*
X149496732Y-112153431D01*
X149290497Y-112057261D01*
X149290488Y-112057258D01*
X149070697Y-111998366D01*
X149070693Y-111998365D01*
X149070692Y-111998365D01*
X149070691Y-111998364D01*
X149070686Y-111998364D01*
X148844002Y-111978532D01*
X148843998Y-111978532D01*
X148617313Y-111998364D01*
X148617302Y-111998366D01*
X148397511Y-112057258D01*
X148397502Y-112057261D01*
X148191267Y-112153431D01*
X148191265Y-112153432D01*
X148004858Y-112283954D01*
X147843954Y-112444858D01*
X147713432Y-112631265D01*
X147713431Y-112631267D01*
X147686382Y-112689275D01*
X147640209Y-112741714D01*
X147573016Y-112760866D01*
X147506135Y-112740650D01*
X147461618Y-112689275D01*
X147448767Y-112661716D01*
X147434568Y-112631266D01*
X147304047Y-112444861D01*
X147304045Y-112444858D01*
X147143141Y-112283954D01*
X146956734Y-112153432D01*
X146956732Y-112153431D01*
X146750497Y-112057261D01*
X146750488Y-112057258D01*
X146530697Y-111998366D01*
X146530693Y-111998365D01*
X146530692Y-111998365D01*
X146530691Y-111998364D01*
X146530686Y-111998364D01*
X146304002Y-111978532D01*
X146303998Y-111978532D01*
X146077313Y-111998364D01*
X146077302Y-111998366D01*
X145857511Y-112057258D01*
X145857502Y-112057261D01*
X145651267Y-112153431D01*
X145651265Y-112153432D01*
X145464858Y-112283954D01*
X145303954Y-112444858D01*
X145173432Y-112631265D01*
X145173431Y-112631267D01*
X145146382Y-112689275D01*
X145100209Y-112741714D01*
X145033016Y-112760866D01*
X144966135Y-112740650D01*
X144921618Y-112689275D01*
X144908767Y-112661716D01*
X144894568Y-112631266D01*
X144764047Y-112444861D01*
X144764045Y-112444858D01*
X144603141Y-112283954D01*
X144416734Y-112153432D01*
X144416732Y-112153431D01*
X144210497Y-112057261D01*
X144210488Y-112057258D01*
X143990697Y-111998366D01*
X143990693Y-111998365D01*
X143990692Y-111998365D01*
X143990691Y-111998364D01*
X143990686Y-111998364D01*
X143764002Y-111978532D01*
X143763998Y-111978532D01*
X143537313Y-111998364D01*
X143537302Y-111998366D01*
X143317511Y-112057258D01*
X143317502Y-112057261D01*
X143111267Y-112153431D01*
X143085622Y-112171388D01*
X143019415Y-112193715D01*
X142951648Y-112176703D01*
X142903836Y-112125754D01*
X142890500Y-112069812D01*
X142890500Y-110048807D01*
X142910185Y-109981768D01*
X142926814Y-109961131D01*
X145917062Y-106970882D01*
X145978383Y-106937399D01*
X146036834Y-106938790D01*
X146077308Y-106949635D01*
X146239230Y-106963801D01*
X146303998Y-106969468D01*
X146304000Y-106969468D01*
X146304002Y-106969468D01*
X146365859Y-106964056D01*
X146530692Y-106949635D01*
X146750496Y-106890739D01*
X146956734Y-106794568D01*
X147143139Y-106664047D01*
X147304047Y-106503139D01*
X147434568Y-106316734D01*
X147461618Y-106258724D01*
X147507790Y-106206285D01*
X147574983Y-106187133D01*
X147641865Y-106207348D01*
X147686382Y-106258725D01*
X147713429Y-106316728D01*
X147713432Y-106316734D01*
X147843954Y-106503141D01*
X148004858Y-106664045D01*
X148004861Y-106664047D01*
X148191266Y-106794568D01*
X148397504Y-106890739D01*
X148617308Y-106949635D01*
X148779230Y-106963801D01*
X148843998Y-106969468D01*
X148844000Y-106969468D01*
X148844002Y-106969468D01*
X148905859Y-106964056D01*
X149070692Y-106949635D01*
X149290496Y-106890739D01*
X149496734Y-106794568D01*
X149683139Y-106664047D01*
X149844047Y-106503139D01*
X149974568Y-106316734D01*
X150001618Y-106258724D01*
X150047790Y-106206285D01*
X150114983Y-106187133D01*
X150181865Y-106207348D01*
X150226382Y-106258725D01*
X150253429Y-106316728D01*
X150253432Y-106316734D01*
X150383954Y-106503141D01*
X150544858Y-106664045D01*
X150544861Y-106664047D01*
X150731266Y-106794568D01*
X150937504Y-106890739D01*
X151157308Y-106949635D01*
X151319230Y-106963801D01*
X151383998Y-106969468D01*
X151384000Y-106969468D01*
X151384002Y-106969468D01*
X151445859Y-106964056D01*
X151610692Y-106949635D01*
X151830496Y-106890739D01*
X152036734Y-106794568D01*
X152223139Y-106664047D01*
X152384047Y-106503139D01*
X152514568Y-106316734D01*
X152541618Y-106258724D01*
X152587790Y-106206285D01*
X152654983Y-106187133D01*
X152721865Y-106207348D01*
X152766382Y-106258725D01*
X152793429Y-106316728D01*
X152793432Y-106316734D01*
X152923954Y-106503141D01*
X153084858Y-106664045D01*
X153084861Y-106664047D01*
X153271266Y-106794568D01*
X153477504Y-106890739D01*
X153697308Y-106949635D01*
X153859230Y-106963801D01*
X153923998Y-106969468D01*
X153924000Y-106969468D01*
X153924002Y-106969468D01*
X153985859Y-106964056D01*
X154150692Y-106949635D01*
X154370496Y-106890739D01*
X154576734Y-106794568D01*
X154763139Y-106664047D01*
X154924047Y-106503139D01*
X155054568Y-106316734D01*
X155081618Y-106258724D01*
X155127790Y-106206285D01*
X155194983Y-106187133D01*
X155261865Y-106207348D01*
X155306382Y-106258725D01*
X155333429Y-106316728D01*
X155333432Y-106316734D01*
X155463954Y-106503141D01*
X155624858Y-106664045D01*
X155624861Y-106664047D01*
X155811266Y-106794568D01*
X156017504Y-106890739D01*
X156237308Y-106949635D01*
X156399230Y-106963801D01*
X156463998Y-106969468D01*
X156464000Y-106969468D01*
X156464002Y-106969468D01*
X156525859Y-106964056D01*
X156690692Y-106949635D01*
X156910496Y-106890739D01*
X157116734Y-106794568D01*
X157303139Y-106664047D01*
X157464047Y-106503139D01*
X157594568Y-106316734D01*
X157621895Y-106258129D01*
X157668064Y-106205695D01*
X157735257Y-106186542D01*
X157802139Y-106206757D01*
X157846657Y-106258133D01*
X157873865Y-106316482D01*
X158004342Y-106502820D01*
X158165179Y-106663657D01*
X158351517Y-106794134D01*
X158557673Y-106890265D01*
X158557682Y-106890269D01*
X158753999Y-106942872D01*
X158754000Y-106942871D01*
X158754000Y-105979686D01*
X158765955Y-105991641D01*
X158878852Y-106049165D01*
X158972519Y-106064000D01*
X159035481Y-106064000D01*
X159129148Y-106049165D01*
X159242045Y-105991641D01*
X159254000Y-105979686D01*
X159254000Y-106942871D01*
G37*
G04 #@! TD.AperFunction*
G04 #@! TA.AperFunction,Conductor*
G36*
X201550000Y-57750000D02*
G01*
X200450000Y-57750000D01*
X200450000Y-57250000D01*
X201550000Y-57250000D01*
X201550000Y-57750000D01*
G37*
G04 #@! TD.AperFunction*
G04 #@! TA.AperFunction,Conductor*
G36*
X94384539Y-50358185D02*
G01*
X94430294Y-50410989D01*
X94441500Y-50462500D01*
X94441500Y-56836784D01*
X94438437Y-56858745D01*
X94437599Y-56867791D01*
X94437599Y-56867792D01*
X94437599Y-56867793D01*
X94439455Y-56887817D01*
X94440971Y-56904182D01*
X94441500Y-56915623D01*
X94441500Y-56923843D01*
X94441501Y-56923854D01*
X94443011Y-56931937D01*
X94444591Y-56943264D01*
X94447964Y-56979658D01*
X94450443Y-56988372D01*
X94453667Y-56997989D01*
X94456938Y-57006432D01*
X94456939Y-57006433D01*
X94472933Y-57032265D01*
X94476177Y-57037503D01*
X94481746Y-57047502D01*
X94486442Y-57056931D01*
X94498041Y-57080228D01*
X94503526Y-57087490D01*
X94509957Y-57095235D01*
X94516080Y-57101951D01*
X94545249Y-57123979D01*
X94554061Y-57131296D01*
X94581069Y-57155918D01*
X94588797Y-57160702D01*
X94597580Y-57165594D01*
X94605732Y-57169653D01*
X94605736Y-57169656D01*
X94640895Y-57179659D01*
X94651742Y-57183295D01*
X94685827Y-57196500D01*
X94685828Y-57196500D01*
X94694755Y-57198169D01*
X94704742Y-57199562D01*
X94713788Y-57200399D01*
X94713793Y-57200401D01*
X94750183Y-57197028D01*
X94761624Y-57196500D01*
X96645138Y-57196500D01*
X96712177Y-57216185D01*
X96732819Y-57232819D01*
X96750000Y-57250000D01*
X97550000Y-57250000D01*
X97550000Y-57750000D01*
X96750000Y-57750000D01*
X96750000Y-58106129D01*
X96765116Y-58274096D01*
X96765117Y-58274102D01*
X96824973Y-58490984D01*
X96824978Y-58490997D01*
X96922598Y-58693708D01*
X96922602Y-58693716D01*
X97054851Y-58875741D01*
X97054857Y-58875749D01*
X97217486Y-59031237D01*
X97405266Y-59155191D01*
X97612169Y-59243624D01*
X97612178Y-59243627D01*
X97749999Y-59275084D01*
X97750000Y-59275084D01*
X97750000Y-58375277D01*
X97833740Y-58423625D01*
X97965992Y-58453810D01*
X98101265Y-58443673D01*
X98227541Y-58394113D01*
X98250000Y-58376202D01*
X98250000Y-59277549D01*
X98279267Y-59273586D01*
X98279273Y-59273585D01*
X98493268Y-59204054D01*
X98691401Y-59097434D01*
X98691404Y-59097432D01*
X98867319Y-58957145D01*
X98905760Y-58913145D01*
X98964690Y-58875610D01*
X99034560Y-58875894D01*
X99084832Y-58905100D01*
X99111190Y-58930300D01*
X99146044Y-58990856D01*
X99149500Y-59019928D01*
X99149500Y-64400392D01*
X99149091Y-64410456D01*
X99144798Y-64463164D01*
X99155502Y-64541732D01*
X99155910Y-64545062D01*
X99164486Y-64623912D01*
X99164710Y-64624930D01*
X99169525Y-64645473D01*
X99169774Y-64646471D01*
X99197113Y-64720891D01*
X99198227Y-64724053D01*
X99213580Y-64769614D01*
X99223556Y-64799221D01*
X99223557Y-64799223D01*
X99223558Y-64799225D01*
X99224001Y-64800185D01*
X99233146Y-64819266D01*
X99233564Y-64820109D01*
X99233567Y-64820114D01*
X99233568Y-64820116D01*
X99276267Y-64886918D01*
X99278036Y-64889771D01*
X99318927Y-64957733D01*
X99319538Y-64958536D01*
X99332578Y-64975216D01*
X99333197Y-64975986D01*
X99333199Y-64975988D01*
X99333200Y-64975989D01*
X99389302Y-65032091D01*
X99391572Y-65034423D01*
X99443992Y-65089762D01*
X99446155Y-65092045D01*
X99446950Y-65092720D01*
X99464118Y-65106907D01*
X99748922Y-65391711D01*
X99843031Y-65485819D01*
X99876516Y-65547142D01*
X99871532Y-65616833D01*
X99829661Y-65672767D01*
X99764196Y-65697184D01*
X99755350Y-65697500D01*
X83207651Y-65697500D01*
X83140612Y-65677815D01*
X83119970Y-65661181D01*
X82886819Y-65428030D01*
X82853334Y-65366707D01*
X82850500Y-65340349D01*
X82850500Y-59023693D01*
X82870185Y-58956654D01*
X82881116Y-58942112D01*
X82906124Y-58913488D01*
X82965056Y-58875955D01*
X83034925Y-58876241D01*
X83085195Y-58905446D01*
X83149500Y-58966928D01*
X83217176Y-59031633D01*
X83405033Y-59155636D01*
X83612004Y-59244100D01*
X83612007Y-59244101D01*
X83612012Y-59244103D01*
X83831463Y-59294191D01*
X84056330Y-59304290D01*
X84279387Y-59274075D01*
X84493464Y-59204517D01*
X84691681Y-59097852D01*
X84867666Y-58957508D01*
X84906123Y-58913489D01*
X84965054Y-58875956D01*
X85034923Y-58876240D01*
X85085195Y-58905446D01*
X85149500Y-58966928D01*
X85217176Y-59031633D01*
X85405033Y-59155636D01*
X85612004Y-59244100D01*
X85612007Y-59244101D01*
X85612012Y-59244103D01*
X85831463Y-59294191D01*
X86056330Y-59304290D01*
X86279387Y-59274075D01*
X86493464Y-59204517D01*
X86691681Y-59097852D01*
X86867666Y-58957508D01*
X86906123Y-58913489D01*
X86965054Y-58875956D01*
X87034923Y-58876240D01*
X87085195Y-58905446D01*
X87149500Y-58966928D01*
X87217176Y-59031633D01*
X87405033Y-59155636D01*
X87612004Y-59244100D01*
X87612007Y-59244101D01*
X87612012Y-59244103D01*
X87831463Y-59294191D01*
X88056330Y-59304290D01*
X88279387Y-59274075D01*
X88493464Y-59204517D01*
X88691681Y-59097852D01*
X88867666Y-58957508D01*
X89015765Y-58787996D01*
X89131215Y-58594764D01*
X89210307Y-58384024D01*
X89230255Y-58274102D01*
X89250500Y-58162549D01*
X89250500Y-56893852D01*
X89250500Y-56893845D01*
X89235377Y-56725812D01*
X89225622Y-56690465D01*
X89175496Y-56508839D01*
X89175491Y-56508826D01*
X89077832Y-56306033D01*
X89077828Y-56306025D01*
X88945526Y-56123927D01*
X88945525Y-56123925D01*
X88915559Y-56095275D01*
X88782825Y-55968368D01*
X88782823Y-55968366D01*
X88594966Y-55844363D01*
X88387995Y-55755899D01*
X88387982Y-55755895D01*
X88168542Y-55705810D01*
X88168538Y-55705809D01*
X88168537Y-55705809D01*
X88168536Y-55705808D01*
X88168531Y-55705808D01*
X87943674Y-55695710D01*
X87943673Y-55695710D01*
X87943670Y-55695710D01*
X87720613Y-55725925D01*
X87720610Y-55725925D01*
X87720609Y-55725926D01*
X87506534Y-55795483D01*
X87308321Y-55902146D01*
X87308318Y-55902148D01*
X87132337Y-56042488D01*
X87132329Y-56042496D01*
X87093874Y-56086511D01*
X87034942Y-56124044D01*
X86965073Y-56123758D01*
X86914803Y-56094552D01*
X86860349Y-56042489D01*
X86782825Y-55968368D01*
X86782823Y-55968366D01*
X86594966Y-55844363D01*
X86387995Y-55755899D01*
X86387982Y-55755895D01*
X86168542Y-55705810D01*
X86168538Y-55705809D01*
X86168537Y-55705809D01*
X86168536Y-55705808D01*
X86168531Y-55705808D01*
X85943674Y-55695710D01*
X85943673Y-55695710D01*
X85943670Y-55695710D01*
X85720613Y-55725925D01*
X85720610Y-55725925D01*
X85720609Y-55725926D01*
X85506534Y-55795483D01*
X85308321Y-55902146D01*
X85308318Y-55902148D01*
X85132337Y-56042488D01*
X85132329Y-56042496D01*
X85093874Y-56086511D01*
X85034942Y-56124044D01*
X84965073Y-56123758D01*
X84914803Y-56094552D01*
X84860349Y-56042489D01*
X84782825Y-55968368D01*
X84782823Y-55968366D01*
X84594966Y-55844363D01*
X84387995Y-55755899D01*
X84387982Y-55755895D01*
X84168542Y-55705810D01*
X84168538Y-55705809D01*
X84168537Y-55705809D01*
X84168536Y-55705808D01*
X84168531Y-55705808D01*
X83943674Y-55695710D01*
X83943673Y-55695710D01*
X83943670Y-55695710D01*
X83720613Y-55725925D01*
X83720610Y-55725925D01*
X83720609Y-55725926D01*
X83506534Y-55795483D01*
X83308321Y-55902146D01*
X83308318Y-55902148D01*
X83132337Y-56042488D01*
X83132329Y-56042496D01*
X83093874Y-56086511D01*
X83034942Y-56124044D01*
X82965073Y-56123758D01*
X82914803Y-56094552D01*
X82860349Y-56042489D01*
X82782825Y-55968368D01*
X82782823Y-55968366D01*
X82594966Y-55844363D01*
X82387995Y-55755899D01*
X82387982Y-55755895D01*
X82168542Y-55705810D01*
X82168538Y-55705809D01*
X82168537Y-55705809D01*
X82168536Y-55705808D01*
X82168531Y-55705808D01*
X81943674Y-55695710D01*
X81943673Y-55695710D01*
X81943670Y-55695710D01*
X81720613Y-55725925D01*
X81720610Y-55725925D01*
X81720609Y-55725926D01*
X81506534Y-55795483D01*
X81308321Y-55902146D01*
X81308318Y-55902148D01*
X81132336Y-56042489D01*
X81051590Y-56134910D01*
X80984235Y-56212004D01*
X80868785Y-56405236D01*
X80852998Y-56447299D01*
X80789692Y-56615976D01*
X80749500Y-56837450D01*
X80749500Y-56837453D01*
X80749500Y-58106155D01*
X80754113Y-58157416D01*
X80764622Y-58274186D01*
X80764623Y-58274192D01*
X80824503Y-58491160D01*
X80824508Y-58491173D01*
X80922167Y-58693966D01*
X80922171Y-58693974D01*
X81054473Y-58876072D01*
X81054479Y-58876079D01*
X81111191Y-58930301D01*
X81146044Y-58990857D01*
X81149500Y-59019928D01*
X81149500Y-65704392D01*
X81149091Y-65714456D01*
X81144798Y-65767164D01*
X81155502Y-65845732D01*
X81155910Y-65849062D01*
X81164486Y-65927912D01*
X81164710Y-65928930D01*
X81169525Y-65949473D01*
X81169774Y-65950471D01*
X81197113Y-66024891D01*
X81198227Y-66028053D01*
X81213580Y-66073614D01*
X81223556Y-66103221D01*
X81223557Y-66103223D01*
X81223558Y-66103225D01*
X81224001Y-66104185D01*
X81233146Y-66123266D01*
X81233564Y-66124109D01*
X81276267Y-66190918D01*
X81278036Y-66193771D01*
X81318927Y-66261733D01*
X81319538Y-66262536D01*
X81332578Y-66279216D01*
X81333197Y-66279986D01*
X81333199Y-66279988D01*
X81333200Y-66279989D01*
X81389302Y-66336091D01*
X81391572Y-66338423D01*
X81446151Y-66396041D01*
X81446155Y-66396045D01*
X81446950Y-66396720D01*
X81464118Y-66410907D01*
X82174592Y-67121380D01*
X82181419Y-67128785D01*
X82215662Y-67169099D01*
X82278781Y-67217081D01*
X82281427Y-67219150D01*
X82343242Y-67268838D01*
X82343247Y-67268842D01*
X82343252Y-67268844D01*
X82344163Y-67269427D01*
X82361955Y-67280463D01*
X82362933Y-67281052D01*
X82362936Y-67281054D01*
X82362938Y-67281055D01*
X82362940Y-67281056D01*
X82434919Y-67314357D01*
X82437898Y-67315783D01*
X82508979Y-67351037D01*
X82508982Y-67351037D01*
X82508987Y-67351040D01*
X82510019Y-67351419D01*
X82529853Y-67358402D01*
X82530830Y-67358730D01*
X82530833Y-67358732D01*
X82530835Y-67358732D01*
X82530837Y-67358733D01*
X82608253Y-67375773D01*
X82611514Y-67376536D01*
X82688506Y-67395684D01*
X82688508Y-67395684D01*
X82688512Y-67395685D01*
X82689604Y-67395833D01*
X82710375Y-67398377D01*
X82711502Y-67398499D01*
X82711503Y-67398500D01*
X82790773Y-67398500D01*
X82794130Y-67398545D01*
X82873432Y-67400693D01*
X82873432Y-67400692D01*
X82873435Y-67400693D01*
X82874479Y-67400608D01*
X82896648Y-67398500D01*
X128738394Y-67398500D01*
X128748456Y-67398908D01*
X128801167Y-67403201D01*
X128879748Y-67392493D01*
X128883074Y-67392086D01*
X128961910Y-67383514D01*
X128961916Y-67383511D01*
X128963036Y-67383266D01*
X128983307Y-67378515D01*
X128984463Y-67378227D01*
X128984468Y-67378227D01*
X129013834Y-67367438D01*
X129058922Y-67350874D01*
X129062076Y-67349762D01*
X129137221Y-67324444D01*
X129137230Y-67324438D01*
X129138351Y-67323920D01*
X129157123Y-67314923D01*
X129158104Y-67314436D01*
X129158116Y-67314432D01*
X129224972Y-67271697D01*
X129227711Y-67269997D01*
X129295736Y-67229070D01*
X129295743Y-67229062D01*
X129296669Y-67228360D01*
X129313076Y-67215533D01*
X129313981Y-67214804D01*
X129313989Y-67214800D01*
X129370091Y-67158696D01*
X129372422Y-67156427D01*
X129430041Y-67101849D01*
X129430044Y-67101843D01*
X129430757Y-67101005D01*
X129444904Y-67083883D01*
X131439028Y-65089759D01*
X131476268Y-65064165D01*
X131516730Y-65046151D01*
X131669871Y-64934888D01*
X131796533Y-64794216D01*
X131891179Y-64630284D01*
X131949674Y-64450256D01*
X131969460Y-64262000D01*
X131949674Y-64073744D01*
X131891179Y-63893716D01*
X131796533Y-63729784D01*
X131669871Y-63589112D01*
X131637708Y-63565744D01*
X131516734Y-63477851D01*
X131516729Y-63477848D01*
X131343807Y-63400857D01*
X131343802Y-63400855D01*
X131198001Y-63369865D01*
X131158646Y-63361500D01*
X130969354Y-63361500D01*
X130936897Y-63368398D01*
X130784197Y-63400855D01*
X130784192Y-63400857D01*
X130611270Y-63477848D01*
X130611265Y-63477851D01*
X130458129Y-63589111D01*
X130331465Y-63729785D01*
X130254989Y-63862246D01*
X130235283Y-63887927D01*
X128462030Y-65661181D01*
X128400707Y-65694666D01*
X128374349Y-65697500D01*
X116144650Y-65697500D01*
X116077611Y-65677815D01*
X116031856Y-65625011D01*
X116021912Y-65555853D01*
X116050937Y-65492297D01*
X116056969Y-65485819D01*
X116202439Y-65340349D01*
X116651392Y-64891394D01*
X116658770Y-64884592D01*
X116699100Y-64850337D01*
X116747107Y-64787182D01*
X116749149Y-64784572D01*
X116798842Y-64722754D01*
X116798843Y-64722752D01*
X116799424Y-64721843D01*
X116810449Y-64704069D01*
X116811049Y-64703071D01*
X116811049Y-64703069D01*
X116811054Y-64703064D01*
X116844371Y-64631048D01*
X116845814Y-64628040D01*
X116881036Y-64557020D01*
X116881434Y-64555935D01*
X116888389Y-64536183D01*
X116888729Y-64535172D01*
X116888732Y-64535167D01*
X116905781Y-64457706D01*
X116906546Y-64454443D01*
X116907587Y-64450259D01*
X116925684Y-64377495D01*
X116925684Y-64377491D01*
X116925685Y-64377488D01*
X116925830Y-64376426D01*
X116928371Y-64355677D01*
X116928500Y-64354497D01*
X116928500Y-64275226D01*
X116928545Y-64271869D01*
X116930693Y-64192564D01*
X116930608Y-64191520D01*
X116928500Y-64169352D01*
X116928500Y-62803488D01*
X116948185Y-62736449D01*
X117000989Y-62690694D01*
X117070147Y-62680750D01*
X117127541Y-62704772D01*
X117164796Y-62733092D01*
X117167394Y-62735123D01*
X117229246Y-62784842D01*
X117229252Y-62784845D01*
X117230183Y-62785440D01*
X117248023Y-62796504D01*
X117248938Y-62797055D01*
X117320915Y-62830355D01*
X117323890Y-62831779D01*
X117394979Y-62867036D01*
X117394984Y-62867037D01*
X117394988Y-62867039D01*
X117396127Y-62867458D01*
X117415776Y-62874376D01*
X117416835Y-62874733D01*
X117494281Y-62891779D01*
X117497545Y-62892543D01*
X117574505Y-62911684D01*
X117574507Y-62911684D01*
X117575594Y-62911832D01*
X117596375Y-62914377D01*
X117597502Y-62914499D01*
X117597503Y-62914500D01*
X117676773Y-62914500D01*
X117680130Y-62914545D01*
X117759432Y-62916693D01*
X117759432Y-62916692D01*
X117759435Y-62916693D01*
X117760479Y-62916608D01*
X117782648Y-62914500D01*
X134783686Y-62914500D01*
X134793748Y-62914908D01*
X134846459Y-62919201D01*
X134925040Y-62908493D01*
X134928366Y-62908086D01*
X135007202Y-62899514D01*
X135007208Y-62899511D01*
X135008328Y-62899266D01*
X135028599Y-62894515D01*
X135029755Y-62894227D01*
X135029760Y-62894227D01*
X135059126Y-62883438D01*
X135104214Y-62866874D01*
X135107368Y-62865762D01*
X135182513Y-62840444D01*
X135182522Y-62840438D01*
X135183643Y-62839920D01*
X135202415Y-62830923D01*
X135203396Y-62830436D01*
X135203408Y-62830432D01*
X135270264Y-62787697D01*
X135273003Y-62785997D01*
X135341028Y-62745070D01*
X135341035Y-62745062D01*
X135341961Y-62744360D01*
X135358368Y-62731533D01*
X135359273Y-62730804D01*
X135359281Y-62730800D01*
X135415382Y-62674697D01*
X135417714Y-62672427D01*
X135475333Y-62617849D01*
X135475337Y-62617841D01*
X135476043Y-62617012D01*
X135490197Y-62599882D01*
X135901261Y-62188819D01*
X135962584Y-62155334D01*
X135988942Y-62152500D01*
X187324394Y-62152500D01*
X187334456Y-62152908D01*
X187387167Y-62157201D01*
X187465748Y-62146493D01*
X187469074Y-62146086D01*
X187547910Y-62137514D01*
X187547916Y-62137511D01*
X187549036Y-62137266D01*
X187569307Y-62132515D01*
X187570463Y-62132227D01*
X187570468Y-62132227D01*
X187599834Y-62121438D01*
X187644922Y-62104874D01*
X187648076Y-62103762D01*
X187723221Y-62078444D01*
X187723230Y-62078438D01*
X187724351Y-62077920D01*
X187743123Y-62068923D01*
X187744104Y-62068436D01*
X187744116Y-62068432D01*
X187810972Y-62025697D01*
X187813711Y-62023997D01*
X187881736Y-61983070D01*
X187881743Y-61983062D01*
X187882669Y-61982360D01*
X187899076Y-61969533D01*
X187899981Y-61968804D01*
X187899989Y-61968800D01*
X187956090Y-61912697D01*
X187958422Y-61910427D01*
X188016041Y-61855849D01*
X188016045Y-61855841D01*
X188016751Y-61855012D01*
X188030905Y-61837882D01*
X188529969Y-61338819D01*
X188591292Y-61305334D01*
X188617650Y-61302500D01*
X191476394Y-61302500D01*
X191486456Y-61302908D01*
X191539167Y-61307201D01*
X191617748Y-61296493D01*
X191621074Y-61296086D01*
X191699910Y-61287514D01*
X191699916Y-61287511D01*
X191701036Y-61287266D01*
X191721307Y-61282515D01*
X191722463Y-61282227D01*
X191722468Y-61282227D01*
X191751834Y-61271438D01*
X191796922Y-61254874D01*
X191800076Y-61253762D01*
X191875221Y-61228444D01*
X191875230Y-61228438D01*
X191876351Y-61227920D01*
X191895123Y-61218923D01*
X191896104Y-61218436D01*
X191896116Y-61218432D01*
X191962972Y-61175697D01*
X191965711Y-61173997D01*
X192033736Y-61133070D01*
X192033743Y-61133062D01*
X192034669Y-61132360D01*
X192051076Y-61119533D01*
X192051981Y-61118804D01*
X192051989Y-61118800D01*
X192108091Y-61062696D01*
X192110422Y-61060427D01*
X192168041Y-61005849D01*
X192168044Y-61005843D01*
X192168757Y-61005005D01*
X192182904Y-60987883D01*
X192573398Y-60597389D01*
X192580793Y-60590573D01*
X192621100Y-60556337D01*
X192669134Y-60493147D01*
X192671104Y-60490627D01*
X192720841Y-60428754D01*
X192720843Y-60428748D01*
X192721480Y-60427753D01*
X192732406Y-60410138D01*
X192733046Y-60409074D01*
X192733054Y-60409064D01*
X192766392Y-60337003D01*
X192767780Y-60334106D01*
X192803036Y-60263021D01*
X192803038Y-60263012D01*
X192803452Y-60261886D01*
X192810389Y-60242183D01*
X192810729Y-60241172D01*
X192810732Y-60241167D01*
X192827781Y-60163706D01*
X192828546Y-60160443D01*
X192834618Y-60136030D01*
X192847684Y-60083495D01*
X192847684Y-60083491D01*
X192847685Y-60083488D01*
X192847830Y-60082426D01*
X192850371Y-60061677D01*
X192850500Y-60060497D01*
X192850500Y-59981226D01*
X192850545Y-59977869D01*
X192852693Y-59898564D01*
X192852608Y-59897520D01*
X192850500Y-59875352D01*
X192850500Y-59023693D01*
X192870185Y-58956654D01*
X192881116Y-58942112D01*
X192906124Y-58913488D01*
X192965056Y-58875955D01*
X193034925Y-58876241D01*
X193085195Y-58905446D01*
X193149500Y-58966928D01*
X193217176Y-59031633D01*
X193405033Y-59155636D01*
X193612004Y-59244100D01*
X193612007Y-59244101D01*
X193612012Y-59244103D01*
X193831463Y-59294191D01*
X194056330Y-59304290D01*
X194279387Y-59274075D01*
X194493464Y-59204517D01*
X194691681Y-59097852D01*
X194867666Y-58957508D01*
X195015765Y-58787996D01*
X195131215Y-58594764D01*
X195210307Y-58384024D01*
X195230255Y-58274102D01*
X195250500Y-58162549D01*
X195250500Y-58106129D01*
X198750000Y-58106129D01*
X198765116Y-58274096D01*
X198765117Y-58274102D01*
X198824973Y-58490984D01*
X198824978Y-58490997D01*
X198922598Y-58693708D01*
X198922602Y-58693716D01*
X199054851Y-58875741D01*
X199054857Y-58875749D01*
X199217486Y-59031237D01*
X199405266Y-59155191D01*
X199612169Y-59243624D01*
X199612178Y-59243627D01*
X199749999Y-59275084D01*
X199750000Y-59275084D01*
X199750000Y-58375277D01*
X199833740Y-58423625D01*
X199965992Y-58453810D01*
X200101265Y-58443673D01*
X200227541Y-58394113D01*
X200250000Y-58376202D01*
X200250000Y-59277549D01*
X200279267Y-59273586D01*
X200279273Y-59273585D01*
X200493268Y-59204054D01*
X200691401Y-59097434D01*
X200691404Y-59097432D01*
X200867319Y-58957145D01*
X200906090Y-58912768D01*
X200965021Y-58875233D01*
X201034890Y-58875517D01*
X201085164Y-58904724D01*
X201217489Y-59031240D01*
X201405266Y-59155191D01*
X201612169Y-59243624D01*
X201612178Y-59243627D01*
X201749999Y-59275084D01*
X201750000Y-59275084D01*
X201750000Y-58375277D01*
X201833740Y-58423625D01*
X201965992Y-58453810D01*
X202101265Y-58443673D01*
X202227541Y-58394113D01*
X202250000Y-58376202D01*
X202250000Y-59277549D01*
X202279267Y-59273586D01*
X202279273Y-59273585D01*
X202493268Y-59204054D01*
X202691401Y-59097434D01*
X202691404Y-59097432D01*
X202867320Y-58957145D01*
X203015352Y-58787707D01*
X203015359Y-58787699D01*
X203130759Y-58594553D01*
X203130761Y-58594548D01*
X203209824Y-58383889D01*
X203209824Y-58383888D01*
X203250000Y-58162505D01*
X203250000Y-58106155D01*
X210749500Y-58106155D01*
X210754113Y-58157416D01*
X210764622Y-58274186D01*
X210764623Y-58274192D01*
X210824503Y-58491160D01*
X210824508Y-58491173D01*
X210922167Y-58693966D01*
X210922171Y-58693974D01*
X211054473Y-58876072D01*
X211054479Y-58876079D01*
X211111191Y-58930301D01*
X211146044Y-58990857D01*
X211149500Y-59019928D01*
X211149500Y-59306392D01*
X211149091Y-59316456D01*
X211144798Y-59369164D01*
X211155502Y-59447732D01*
X211155910Y-59451062D01*
X211164486Y-59529912D01*
X211164710Y-59530930D01*
X211169525Y-59551473D01*
X211169774Y-59552471D01*
X211197113Y-59626891D01*
X211198227Y-59630053D01*
X211213560Y-59675556D01*
X211223556Y-59705221D01*
X211223557Y-59705223D01*
X211223558Y-59705225D01*
X211224001Y-59706185D01*
X211233146Y-59725266D01*
X211233564Y-59726109D01*
X211233567Y-59726114D01*
X211233568Y-59726116D01*
X211262573Y-59771494D01*
X211276267Y-59792918D01*
X211278036Y-59795771D01*
X211318927Y-59863733D01*
X211319538Y-59864536D01*
X211332578Y-59881216D01*
X211333197Y-59881986D01*
X211333199Y-59881988D01*
X211333200Y-59881989D01*
X211389302Y-59938091D01*
X211391572Y-59940423D01*
X211430223Y-59981226D01*
X211446155Y-59998045D01*
X211446950Y-59998720D01*
X211464118Y-60012907D01*
X212222592Y-60771380D01*
X212229419Y-60778785D01*
X212263663Y-60819100D01*
X212311353Y-60855353D01*
X212326796Y-60867092D01*
X212329394Y-60869123D01*
X212391246Y-60918842D01*
X212391252Y-60918845D01*
X212392183Y-60919440D01*
X212410023Y-60930504D01*
X212410938Y-60931055D01*
X212482915Y-60964355D01*
X212485890Y-60965779D01*
X212556979Y-61001036D01*
X212556984Y-61001037D01*
X212556988Y-61001039D01*
X212558127Y-61001458D01*
X212577776Y-61008376D01*
X212578835Y-61008733D01*
X212656281Y-61025779D01*
X212659545Y-61026543D01*
X212736505Y-61045684D01*
X212736507Y-61045684D01*
X212737594Y-61045832D01*
X212758375Y-61048377D01*
X212759502Y-61048499D01*
X212759503Y-61048500D01*
X212838773Y-61048500D01*
X212842130Y-61048545D01*
X212921432Y-61050693D01*
X212921432Y-61050692D01*
X212921435Y-61050693D01*
X212922479Y-61050608D01*
X212944648Y-61048500D01*
X225142394Y-61048500D01*
X225152456Y-61048908D01*
X225205167Y-61053201D01*
X225283748Y-61042493D01*
X225287074Y-61042086D01*
X225365910Y-61033514D01*
X225365916Y-61033511D01*
X225367036Y-61033266D01*
X225387307Y-61028515D01*
X225388463Y-61028227D01*
X225388468Y-61028227D01*
X225417834Y-61017438D01*
X225462922Y-61000874D01*
X225466076Y-60999762D01*
X225541221Y-60974444D01*
X225541230Y-60974438D01*
X225542351Y-60973920D01*
X225561123Y-60964923D01*
X225562104Y-60964436D01*
X225562116Y-60964432D01*
X225628972Y-60921697D01*
X225631711Y-60919997D01*
X225699736Y-60879070D01*
X225699743Y-60879062D01*
X225700669Y-60878360D01*
X225717076Y-60865533D01*
X225717981Y-60864804D01*
X225717989Y-60864800D01*
X225774091Y-60808696D01*
X225776422Y-60806427D01*
X225834041Y-60751849D01*
X225834044Y-60751843D01*
X225834757Y-60751005D01*
X225848904Y-60733883D01*
X229208769Y-57374017D01*
X229270092Y-57340533D01*
X229296450Y-57337699D01*
X229583902Y-57337699D01*
X229583907Y-57337699D01*
X229667982Y-57327140D01*
X229800948Y-57272063D01*
X229867867Y-57220079D01*
X230340084Y-56747863D01*
X230392064Y-56680948D01*
X230447140Y-56547982D01*
X230457700Y-56463909D01*
X230457699Y-55796093D01*
X230447140Y-55712018D01*
X230392063Y-55579052D01*
X230340079Y-55512133D01*
X229867863Y-55039916D01*
X229867862Y-55039915D01*
X229867854Y-55039908D01*
X229800949Y-54987936D01*
X229705738Y-54948499D01*
X229667982Y-54932860D01*
X229583909Y-54922300D01*
X228916097Y-54922300D01*
X228832018Y-54932860D01*
X228699052Y-54987936D01*
X228632133Y-55039921D01*
X228632126Y-55039927D01*
X228159917Y-55512135D01*
X228159908Y-55512145D01*
X228107936Y-55579050D01*
X228052860Y-55712018D01*
X228042300Y-55796087D01*
X228042300Y-56083548D01*
X228022615Y-56150587D01*
X228005981Y-56171229D01*
X224866030Y-59311181D01*
X224804707Y-59344666D01*
X224778349Y-59347500D01*
X218719864Y-59347500D01*
X218652825Y-59327815D01*
X218607070Y-59275011D01*
X218597126Y-59205853D01*
X218626151Y-59142297D01*
X218661105Y-59114306D01*
X218671066Y-59108945D01*
X218691681Y-59097852D01*
X218867666Y-58957508D01*
X219015765Y-58787996D01*
X219131215Y-58594764D01*
X219210307Y-58384024D01*
X219230255Y-58274102D01*
X219250500Y-58162549D01*
X219250500Y-56893852D01*
X219250500Y-56893845D01*
X219235377Y-56725812D01*
X219225622Y-56690465D01*
X219175496Y-56508839D01*
X219175491Y-56508826D01*
X219077832Y-56306033D01*
X219077828Y-56306025D01*
X218945526Y-56123927D01*
X218945525Y-56123925D01*
X218915559Y-56095275D01*
X218782825Y-55968368D01*
X218782823Y-55968366D01*
X218594966Y-55844363D01*
X218387995Y-55755899D01*
X218387982Y-55755895D01*
X218168542Y-55705810D01*
X218168538Y-55705809D01*
X218168537Y-55705809D01*
X218168536Y-55705808D01*
X218168531Y-55705808D01*
X217943674Y-55695710D01*
X217943673Y-55695710D01*
X217943670Y-55695710D01*
X217720613Y-55725925D01*
X217720610Y-55725925D01*
X217720609Y-55725926D01*
X217506534Y-55795483D01*
X217308321Y-55902146D01*
X217308318Y-55902148D01*
X217132337Y-56042488D01*
X217132329Y-56042496D01*
X217093874Y-56086511D01*
X217034942Y-56124044D01*
X216965073Y-56123758D01*
X216914803Y-56094552D01*
X216860349Y-56042489D01*
X216782825Y-55968368D01*
X216782823Y-55968366D01*
X216594966Y-55844363D01*
X216387995Y-55755899D01*
X216387982Y-55755895D01*
X216168542Y-55705810D01*
X216168538Y-55705809D01*
X216168537Y-55705809D01*
X216168536Y-55705808D01*
X216168531Y-55705808D01*
X215943674Y-55695710D01*
X215943673Y-55695710D01*
X215943670Y-55695710D01*
X215720613Y-55725925D01*
X215720610Y-55725925D01*
X215720609Y-55725926D01*
X215506534Y-55795483D01*
X215308321Y-55902146D01*
X215308318Y-55902148D01*
X215132337Y-56042488D01*
X215132329Y-56042496D01*
X215093874Y-56086511D01*
X215034942Y-56124044D01*
X214965073Y-56123758D01*
X214914803Y-56094552D01*
X214860349Y-56042489D01*
X214782825Y-55968368D01*
X214782823Y-55968366D01*
X214594966Y-55844363D01*
X214387995Y-55755899D01*
X214387982Y-55755895D01*
X214168542Y-55705810D01*
X214168538Y-55705809D01*
X214168537Y-55705809D01*
X214168536Y-55705808D01*
X214168531Y-55705808D01*
X213943674Y-55695710D01*
X213943673Y-55695710D01*
X213943670Y-55695710D01*
X213720613Y-55725925D01*
X213720610Y-55725925D01*
X213720609Y-55725926D01*
X213506534Y-55795483D01*
X213308321Y-55902146D01*
X213308318Y-55902148D01*
X213132337Y-56042488D01*
X213132329Y-56042496D01*
X213093874Y-56086511D01*
X213034942Y-56124044D01*
X212965073Y-56123758D01*
X212914803Y-56094552D01*
X212860349Y-56042489D01*
X212782825Y-55968368D01*
X212782823Y-55968366D01*
X212594966Y-55844363D01*
X212387995Y-55755899D01*
X212387982Y-55755895D01*
X212168542Y-55705810D01*
X212168538Y-55705809D01*
X212168537Y-55705809D01*
X212168536Y-55705808D01*
X212168531Y-55705808D01*
X211943674Y-55695710D01*
X211943673Y-55695710D01*
X211943670Y-55695710D01*
X211720613Y-55725925D01*
X211720610Y-55725925D01*
X211720609Y-55725926D01*
X211506534Y-55795483D01*
X211308321Y-55902146D01*
X211308318Y-55902148D01*
X211132336Y-56042489D01*
X211051590Y-56134910D01*
X210984235Y-56212004D01*
X210868785Y-56405236D01*
X210852998Y-56447299D01*
X210789692Y-56615976D01*
X210749500Y-56837450D01*
X210749500Y-56837453D01*
X210749500Y-58106155D01*
X203250000Y-58106155D01*
X203250000Y-57750000D01*
X202450000Y-57750000D01*
X202450000Y-57250000D01*
X203250000Y-57250000D01*
X203250000Y-56893874D01*
X203249999Y-56893870D01*
X203234883Y-56725903D01*
X203234882Y-56725897D01*
X203175026Y-56509015D01*
X203175021Y-56509002D01*
X203077401Y-56306291D01*
X203077397Y-56306283D01*
X202945148Y-56124258D01*
X202945142Y-56124250D01*
X202782513Y-55968762D01*
X202594733Y-55844808D01*
X202387830Y-55756375D01*
X202387823Y-55756373D01*
X202250000Y-55724915D01*
X202250000Y-56624722D01*
X202166260Y-56576375D01*
X202034008Y-56546190D01*
X201898735Y-56556327D01*
X201772459Y-56605887D01*
X201750000Y-56623797D01*
X201750000Y-55722449D01*
X201749999Y-55722449D01*
X201720721Y-55726415D01*
X201506731Y-55795945D01*
X201308598Y-55902565D01*
X201308595Y-55902567D01*
X201132679Y-56042855D01*
X201093907Y-56087233D01*
X201034975Y-56124767D01*
X200965106Y-56124481D01*
X200914835Y-56095275D01*
X200782510Y-55968759D01*
X200594733Y-55844808D01*
X200387830Y-55756375D01*
X200387823Y-55756373D01*
X200250000Y-55724915D01*
X200250000Y-56624722D01*
X200166260Y-56576375D01*
X200034008Y-56546190D01*
X199898735Y-56556327D01*
X199772459Y-56605887D01*
X199750000Y-56623797D01*
X199750000Y-55722449D01*
X199749999Y-55722449D01*
X199720721Y-55726415D01*
X199506731Y-55795945D01*
X199308598Y-55902565D01*
X199308595Y-55902567D01*
X199132679Y-56042854D01*
X198984647Y-56212292D01*
X198984640Y-56212300D01*
X198869240Y-56405446D01*
X198869238Y-56405451D01*
X198790175Y-56616110D01*
X198790175Y-56616111D01*
X198750000Y-56837494D01*
X198750000Y-57250000D01*
X199550000Y-57250000D01*
X199550000Y-57750000D01*
X198750000Y-57750000D01*
X198750000Y-58106129D01*
X195250500Y-58106129D01*
X195250500Y-56893852D01*
X195250500Y-56893845D01*
X195235377Y-56725812D01*
X195225622Y-56690465D01*
X195175496Y-56508839D01*
X195175491Y-56508826D01*
X195077831Y-56306030D01*
X195077825Y-56306020D01*
X195024182Y-56232187D01*
X195000702Y-56166381D01*
X195000500Y-56159302D01*
X195000500Y-54948499D01*
X195000659Y-54942219D01*
X195001669Y-54922300D01*
X195004369Y-54869064D01*
X194993277Y-54796664D01*
X194992484Y-54790436D01*
X194985074Y-54717563D01*
X194985072Y-54717556D01*
X194980251Y-54702189D01*
X194975994Y-54683849D01*
X194973556Y-54667929D01*
X194948100Y-54599197D01*
X194946098Y-54593338D01*
X194924159Y-54523412D01*
X194916339Y-54509324D01*
X194908482Y-54492225D01*
X194902886Y-54477113D01*
X194864129Y-54414934D01*
X194860950Y-54409532D01*
X194841597Y-54374663D01*
X194826275Y-54306494D01*
X194850240Y-54240863D01*
X194905884Y-54198608D01*
X194950017Y-54190488D01*
X207187933Y-54190488D01*
X207231790Y-54199809D01*
X207232014Y-54199123D01*
X207238194Y-54201130D01*
X207238197Y-54201132D01*
X207423354Y-54240488D01*
X207423355Y-54240488D01*
X207612644Y-54240488D01*
X207612646Y-54240488D01*
X207797803Y-54201132D01*
X207970730Y-54124139D01*
X208123871Y-54012876D01*
X208250533Y-53872204D01*
X208345179Y-53708272D01*
X208389717Y-53571200D01*
X215355307Y-53571200D01*
X215374701Y-53842359D01*
X215374702Y-53842366D01*
X215432485Y-54107992D01*
X215432487Y-54108000D01*
X215506522Y-54306494D01*
X215527492Y-54362718D01*
X215657771Y-54601306D01*
X215657772Y-54601307D01*
X215657775Y-54601312D01*
X215820691Y-54818941D01*
X215820695Y-54818945D01*
X215820700Y-54818951D01*
X216012909Y-55011160D01*
X216012915Y-55011165D01*
X216012920Y-55011170D01*
X216230549Y-55174086D01*
X216230553Y-55174088D01*
X216230554Y-55174089D01*
X216469143Y-55304368D01*
X216469142Y-55304368D01*
X216469146Y-55304369D01*
X216469149Y-55304371D01*
X216723861Y-55399374D01*
X216989502Y-55457160D01*
X217241267Y-55475166D01*
X217260661Y-55476554D01*
X217260662Y-55476554D01*
X217260663Y-55476554D01*
X217278762Y-55475259D01*
X217531822Y-55457160D01*
X217797463Y-55399374D01*
X218052175Y-55304371D01*
X218052179Y-55304368D01*
X218052181Y-55304368D01*
X218171475Y-55239228D01*
X218290775Y-55174086D01*
X218508404Y-55011170D01*
X218700633Y-54818941D01*
X218863549Y-54601312D01*
X218961600Y-54421744D01*
X218993831Y-54362718D01*
X218993831Y-54362716D01*
X218993834Y-54362712D01*
X219088837Y-54108000D01*
X219146623Y-53842359D01*
X219166017Y-53571199D01*
X219146623Y-53300039D01*
X219088837Y-53034398D01*
X218993834Y-52779686D01*
X218993832Y-52779683D01*
X218993831Y-52779679D01*
X218863552Y-52541091D01*
X218863551Y-52541090D01*
X218863549Y-52541086D01*
X218700633Y-52323457D01*
X218700628Y-52323452D01*
X218700623Y-52323446D01*
X218508414Y-52131237D01*
X218508408Y-52131232D01*
X218508404Y-52131228D01*
X218290775Y-51968312D01*
X218290770Y-51968309D01*
X218290769Y-51968308D01*
X218052180Y-51838029D01*
X218052181Y-51838029D01*
X218002582Y-51819529D01*
X217797463Y-51743024D01*
X217797456Y-51743022D01*
X217797455Y-51743022D01*
X217531829Y-51685239D01*
X217531822Y-51685238D01*
X217260663Y-51665844D01*
X217260661Y-51665844D01*
X216989501Y-51685238D01*
X216989494Y-51685239D01*
X216723868Y-51743022D01*
X216723864Y-51743023D01*
X216723861Y-51743024D01*
X216596505Y-51790525D01*
X216469142Y-51838029D01*
X216230554Y-51968308D01*
X216230553Y-51968309D01*
X216012921Y-52131227D01*
X216012909Y-52131237D01*
X215820700Y-52323446D01*
X215820690Y-52323458D01*
X215657772Y-52541090D01*
X215657771Y-52541091D01*
X215527492Y-52779679D01*
X215517014Y-52807772D01*
X215432487Y-53034398D01*
X215432486Y-53034401D01*
X215432485Y-53034405D01*
X215374702Y-53300031D01*
X215374701Y-53300038D01*
X215355307Y-53571197D01*
X215355307Y-53571200D01*
X208389717Y-53571200D01*
X208403674Y-53528244D01*
X208423460Y-53339988D01*
X208403674Y-53151732D01*
X208345179Y-52971704D01*
X208250533Y-52807772D01*
X208123871Y-52667100D01*
X208113415Y-52659503D01*
X207970734Y-52555839D01*
X207970729Y-52555836D01*
X207797807Y-52478845D01*
X207797802Y-52478843D01*
X207642337Y-52445799D01*
X207612646Y-52439488D01*
X207423354Y-52439488D01*
X207393663Y-52445799D01*
X207238198Y-52478843D01*
X207232014Y-52480853D01*
X207231790Y-52480166D01*
X207187933Y-52489488D01*
X136945618Y-52489488D01*
X136935555Y-52489079D01*
X136931331Y-52488735D01*
X136882846Y-52484786D01*
X136882838Y-52484787D01*
X136804277Y-52495490D01*
X136800948Y-52495898D01*
X136740064Y-52502520D01*
X136722102Y-52504474D01*
X136722098Y-52504475D01*
X136721143Y-52504685D01*
X136700483Y-52509526D01*
X136699550Y-52509758D01*
X136625086Y-52537114D01*
X136621923Y-52538227D01*
X136546796Y-52563541D01*
X136545932Y-52563941D01*
X136526716Y-52573148D01*
X136525897Y-52573555D01*
X136459071Y-52616268D01*
X136456220Y-52618036D01*
X136388277Y-52658916D01*
X136387506Y-52659503D01*
X136370787Y-52672573D01*
X136370022Y-52673188D01*
X136370021Y-52673190D01*
X136370011Y-52673200D01*
X136315129Y-52728080D01*
X136313971Y-52729239D01*
X136311568Y-52731577D01*
X136253968Y-52786141D01*
X136253334Y-52786887D01*
X136239105Y-52804104D01*
X135570610Y-53472599D01*
X135563208Y-53479424D01*
X135522900Y-53513663D01*
X135474924Y-53576772D01*
X135472858Y-53579414D01*
X135423158Y-53641244D01*
X135422649Y-53642041D01*
X135411469Y-53660066D01*
X135410941Y-53660943D01*
X135377642Y-53732916D01*
X135376193Y-53735940D01*
X135340966Y-53806972D01*
X135340582Y-53808017D01*
X135333580Y-53827906D01*
X135333268Y-53828832D01*
X135316219Y-53906282D01*
X135315453Y-53909549D01*
X135296314Y-53986508D01*
X135296191Y-53987416D01*
X135293607Y-54008516D01*
X135293500Y-54009501D01*
X135293500Y-54088772D01*
X135293455Y-54092129D01*
X135291306Y-54171437D01*
X135291389Y-54172447D01*
X135293500Y-54194649D01*
X135293500Y-54293850D01*
X135287431Y-54332168D01*
X135273624Y-54374663D01*
X135258326Y-54421744D01*
X135238540Y-54610000D01*
X135258326Y-54798256D01*
X135258327Y-54798259D01*
X135316818Y-54978277D01*
X135316821Y-54978284D01*
X135411467Y-55142216D01*
X135440165Y-55174088D01*
X135538129Y-55282888D01*
X135691265Y-55394148D01*
X135691270Y-55394151D01*
X135864192Y-55471142D01*
X135864197Y-55471144D01*
X136049354Y-55510500D01*
X136049355Y-55510500D01*
X136238644Y-55510500D01*
X136238646Y-55510500D01*
X136423803Y-55471144D01*
X136596730Y-55394151D01*
X136749871Y-55282888D01*
X136876533Y-55142216D01*
X136971179Y-54978284D01*
X137029674Y-54798256D01*
X137049460Y-54610000D01*
X137035605Y-54478181D01*
X137048174Y-54409455D01*
X137071239Y-54377548D01*
X137221983Y-54226804D01*
X137283304Y-54193322D01*
X137309662Y-54190488D01*
X137897228Y-54190488D01*
X137964267Y-54210173D01*
X138010022Y-54262977D01*
X138019966Y-54332135D01*
X137990941Y-54395691D01*
X137984909Y-54402169D01*
X133225899Y-59161181D01*
X133164576Y-59194666D01*
X133138218Y-59197500D01*
X132921098Y-59197500D01*
X132854059Y-59177815D01*
X132808304Y-59125011D01*
X132798360Y-59055853D01*
X132827385Y-58992297D01*
X132843785Y-58976553D01*
X132867663Y-58957510D01*
X132867666Y-58957508D01*
X133015765Y-58787996D01*
X133131215Y-58594764D01*
X133210307Y-58384024D01*
X133230255Y-58274102D01*
X133250500Y-58162549D01*
X133250500Y-57320500D01*
X133270185Y-57253461D01*
X133322989Y-57207706D01*
X133374500Y-57196500D01*
X133798785Y-57196500D01*
X133820742Y-57199562D01*
X133829788Y-57200399D01*
X133829793Y-57200401D01*
X133866183Y-57197028D01*
X133877624Y-57196500D01*
X133885845Y-57196500D01*
X133888407Y-57196020D01*
X133893921Y-57194989D01*
X133905259Y-57193407D01*
X133941660Y-57190035D01*
X133941666Y-57190031D01*
X133950421Y-57187541D01*
X133959940Y-57184350D01*
X133968431Y-57181061D01*
X133968433Y-57181061D01*
X133999521Y-57161811D01*
X134009498Y-57156254D01*
X134042228Y-57139958D01*
X134042230Y-57139954D01*
X134049523Y-57134448D01*
X134057197Y-57128076D01*
X134063949Y-57121921D01*
X134063949Y-57121920D01*
X134063952Y-57121919D01*
X134085990Y-57092734D01*
X134093275Y-57083961D01*
X134117916Y-57056933D01*
X134117918Y-57056927D01*
X134122721Y-57049170D01*
X134127579Y-57040448D01*
X134131651Y-57032269D01*
X134131656Y-57032264D01*
X134141663Y-56997089D01*
X134145289Y-56986270D01*
X134158500Y-56952173D01*
X134158500Y-56952171D01*
X134158501Y-56952169D01*
X134160172Y-56943229D01*
X134161561Y-56933276D01*
X134162401Y-56924207D01*
X134159029Y-56887817D01*
X134158500Y-56876376D01*
X134158500Y-50462500D01*
X134178185Y-50395461D01*
X134230989Y-50349706D01*
X134282500Y-50338500D01*
X238589500Y-50338500D01*
X238656539Y-50358185D01*
X238702294Y-50410989D01*
X238713500Y-50462500D01*
X238713500Y-149689500D01*
X238693815Y-149756539D01*
X238641011Y-149802294D01*
X238589500Y-149813500D01*
X125138500Y-149813500D01*
X125071461Y-149793815D01*
X125025706Y-149741011D01*
X125014500Y-149689500D01*
X125014500Y-148649216D01*
X125017561Y-148627276D01*
X125018401Y-148618207D01*
X125015029Y-148581817D01*
X125014500Y-148570376D01*
X125014500Y-148562155D01*
X125012990Y-148554079D01*
X125011407Y-148542731D01*
X125008035Y-148506340D01*
X125005548Y-148497599D01*
X125002350Y-148488059D01*
X124999061Y-148479570D01*
X124999061Y-148479567D01*
X124999059Y-148479564D01*
X124999058Y-148479561D01*
X124979821Y-148448492D01*
X124974252Y-148438496D01*
X124957958Y-148405772D01*
X124957956Y-148405770D01*
X124957955Y-148405768D01*
X124952475Y-148398511D01*
X124946061Y-148390786D01*
X124939916Y-148384045D01*
X124910750Y-148362020D01*
X124901949Y-148354712D01*
X124874933Y-148330084D01*
X124874931Y-148330083D01*
X124874929Y-148330081D01*
X124867232Y-148325315D01*
X124858390Y-148320390D01*
X124850264Y-148316343D01*
X124815120Y-148306344D01*
X124804265Y-148302706D01*
X124770172Y-148289499D01*
X124761236Y-148287829D01*
X124751257Y-148286437D01*
X124742208Y-148285599D01*
X124742207Y-148285599D01*
X124705817Y-148288971D01*
X124694376Y-148289500D01*
X94039215Y-148289500D01*
X94017257Y-148286437D01*
X94008208Y-148285599D01*
X94008207Y-148285599D01*
X93971817Y-148288971D01*
X93960376Y-148289500D01*
X93952154Y-148289500D01*
X93944069Y-148291011D01*
X93932739Y-148292591D01*
X93896339Y-148295964D01*
X93887644Y-148298438D01*
X93878008Y-148301668D01*
X93869563Y-148304940D01*
X93838494Y-148324176D01*
X93828496Y-148329746D01*
X93795769Y-148346042D01*
X93788547Y-148351496D01*
X93780751Y-148357970D01*
X93774044Y-148364084D01*
X93752026Y-148393241D01*
X93744713Y-148402048D01*
X93720085Y-148429064D01*
X93715322Y-148436756D01*
X93710385Y-148445620D01*
X93706343Y-148453737D01*
X93696343Y-148488884D01*
X93692704Y-148499741D01*
X93679499Y-148533826D01*
X93677829Y-148542762D01*
X93676437Y-148552745D01*
X93675599Y-148561791D01*
X93675599Y-148561792D01*
X93675599Y-148561793D01*
X93677455Y-148581817D01*
X93678971Y-148598182D01*
X93679500Y-148609623D01*
X93679500Y-149689500D01*
X93659815Y-149756539D01*
X93607011Y-149802294D01*
X93555500Y-149813500D01*
X61130500Y-149813500D01*
X61063461Y-149793815D01*
X61017706Y-149741011D01*
X61006500Y-149689500D01*
X61006500Y-131897870D01*
X84499500Y-131897870D01*
X84499501Y-131897876D01*
X84505908Y-131957483D01*
X84556202Y-132092328D01*
X84556206Y-132092335D01*
X84642452Y-132207544D01*
X84642455Y-132207547D01*
X84757664Y-132293793D01*
X84757671Y-132293797D01*
X84892517Y-132344091D01*
X84892516Y-132344091D01*
X84899444Y-132344835D01*
X84952127Y-132350500D01*
X88047872Y-132350499D01*
X88107483Y-132344091D01*
X88242331Y-132293796D01*
X88357546Y-132207546D01*
X88443796Y-132092331D01*
X88494091Y-131957483D01*
X88500500Y-131897873D01*
X88500499Y-129302128D01*
X88494091Y-129242517D01*
X88489781Y-129230962D01*
X88443797Y-129107671D01*
X88443793Y-129107664D01*
X88357547Y-128992455D01*
X88357544Y-128992452D01*
X88242335Y-128906206D01*
X88242328Y-128906202D01*
X88107482Y-128855908D01*
X88107483Y-128855908D01*
X88047883Y-128849501D01*
X88047881Y-128849500D01*
X88047873Y-128849500D01*
X88047864Y-128849500D01*
X84952129Y-128849500D01*
X84952123Y-128849501D01*
X84892516Y-128855908D01*
X84757671Y-128906202D01*
X84757664Y-128906206D01*
X84642455Y-128992452D01*
X84642452Y-128992455D01*
X84556206Y-129107664D01*
X84556202Y-129107671D01*
X84505908Y-129242517D01*
X84499501Y-129302116D01*
X84499501Y-129302123D01*
X84499500Y-129302135D01*
X84499500Y-131897870D01*
X61006500Y-131897870D01*
X61006500Y-127500005D01*
X77994859Y-127500005D01*
X78015385Y-127747729D01*
X78015387Y-127747738D01*
X78076412Y-127988717D01*
X78176266Y-128216364D01*
X78276564Y-128369882D01*
X79016923Y-127629523D01*
X79040507Y-127709844D01*
X79118239Y-127830798D01*
X79226900Y-127924952D01*
X79357685Y-127984680D01*
X79367466Y-127986086D01*
X78629942Y-128723609D01*
X78676768Y-128760055D01*
X78676770Y-128760056D01*
X78895385Y-128878364D01*
X78895396Y-128878369D01*
X79130506Y-128959083D01*
X79375707Y-129000000D01*
X79624293Y-129000000D01*
X79869493Y-128959083D01*
X80104603Y-128878369D01*
X80104614Y-128878364D01*
X80323228Y-128760057D01*
X80323231Y-128760055D01*
X80370056Y-128723609D01*
X79632533Y-127986086D01*
X79642315Y-127984680D01*
X79773100Y-127924952D01*
X79881761Y-127830798D01*
X79959493Y-127709844D01*
X79983076Y-127629524D01*
X80723434Y-128369882D01*
X80823731Y-128216369D01*
X80923587Y-127988717D01*
X80984612Y-127747738D01*
X80984614Y-127747729D01*
X81005141Y-127500005D01*
X92494357Y-127500005D01*
X92514890Y-127747812D01*
X92514892Y-127747824D01*
X92575936Y-127988881D01*
X92675826Y-128216606D01*
X92811833Y-128424782D01*
X92811836Y-128424785D01*
X92980256Y-128607738D01*
X93176491Y-128760474D01*
X93176493Y-128760475D01*
X93394332Y-128878364D01*
X93395190Y-128878828D01*
X93614141Y-128953994D01*
X93628964Y-128959083D01*
X93630386Y-128959571D01*
X93875665Y-129000500D01*
X94124335Y-129000500D01*
X94369614Y-128959571D01*
X94604810Y-128878828D01*
X94823509Y-128760474D01*
X95019744Y-128607738D01*
X95188164Y-128424785D01*
X95324173Y-128216607D01*
X95424063Y-127988881D01*
X95485108Y-127747821D01*
X95485455Y-127743631D01*
X95505643Y-127500005D01*
X95505643Y-127499994D01*
X95485109Y-127252187D01*
X95485107Y-127252175D01*
X95424063Y-127011118D01*
X95324173Y-126783393D01*
X95188166Y-126575217D01*
X95070325Y-126447208D01*
X95019744Y-126392262D01*
X94930194Y-126322562D01*
X94918623Y-126313556D01*
X94877810Y-126256846D01*
X94873697Y-126227249D01*
X94132533Y-125486086D01*
X94142315Y-125484680D01*
X94273100Y-125424952D01*
X94381761Y-125330798D01*
X94459493Y-125209844D01*
X94483076Y-125129524D01*
X95223434Y-125869882D01*
X95323731Y-125716369D01*
X95423587Y-125488717D01*
X95484612Y-125247738D01*
X95484614Y-125247729D01*
X95505141Y-125000005D01*
X95505141Y-124999994D01*
X95484614Y-124752270D01*
X95484612Y-124752261D01*
X95423587Y-124511282D01*
X95323732Y-124283632D01*
X95211515Y-124111870D01*
X95191328Y-124044981D01*
X95210508Y-123977795D01*
X95241013Y-123944782D01*
X95242329Y-123943796D01*
X95242331Y-123943796D01*
X95357546Y-123857546D01*
X95443796Y-123742331D01*
X95494091Y-123607483D01*
X95500500Y-123547873D01*
X95500499Y-121452128D01*
X95494091Y-121392517D01*
X95479097Y-121352317D01*
X95443797Y-121257671D01*
X95443793Y-121257664D01*
X95357547Y-121142455D01*
X95357544Y-121142452D01*
X95242335Y-121056206D01*
X95242328Y-121056202D01*
X95107482Y-121005908D01*
X95107483Y-121005908D01*
X95047883Y-120999501D01*
X95047881Y-120999500D01*
X95047873Y-120999500D01*
X95047864Y-120999500D01*
X92952129Y-120999500D01*
X92952123Y-120999501D01*
X92892516Y-121005908D01*
X92757671Y-121056202D01*
X92757664Y-121056206D01*
X92642455Y-121142452D01*
X92642452Y-121142455D01*
X92556206Y-121257664D01*
X92556202Y-121257671D01*
X92505908Y-121392517D01*
X92499501Y-121452116D01*
X92499501Y-121452123D01*
X92499500Y-121452135D01*
X92499500Y-123547870D01*
X92499501Y-123547876D01*
X92505908Y-123607483D01*
X92556202Y-123742328D01*
X92556206Y-123742335D01*
X92642452Y-123857544D01*
X92642455Y-123857547D01*
X92758986Y-123944783D01*
X92800857Y-124000717D01*
X92805841Y-124070408D01*
X92788484Y-124111870D01*
X92676267Y-124283631D01*
X92576412Y-124511282D01*
X92515387Y-124752261D01*
X92515385Y-124752270D01*
X92494859Y-124999994D01*
X92494859Y-125000005D01*
X92515385Y-125247729D01*
X92515387Y-125247738D01*
X92576412Y-125488717D01*
X92676266Y-125716364D01*
X92776564Y-125869882D01*
X93516922Y-125129523D01*
X93540507Y-125209844D01*
X93618239Y-125330798D01*
X93726900Y-125424952D01*
X93857685Y-125484680D01*
X93867466Y-125486086D01*
X93124100Y-126229450D01*
X93113482Y-126276148D01*
X93081376Y-126313556D01*
X92980255Y-126392262D01*
X92811833Y-126575217D01*
X92675826Y-126783393D01*
X92575936Y-127011118D01*
X92514892Y-127252175D01*
X92514890Y-127252187D01*
X92494357Y-127499994D01*
X92494357Y-127500005D01*
X81005141Y-127500005D01*
X81005141Y-127499994D01*
X80984614Y-127252270D01*
X80984612Y-127252261D01*
X80923587Y-127011282D01*
X80823731Y-126783630D01*
X80723434Y-126630116D01*
X79983076Y-127370475D01*
X79959493Y-127290156D01*
X79881761Y-127169202D01*
X79773100Y-127075048D01*
X79642315Y-127015320D01*
X79632534Y-127013913D01*
X80370057Y-126276390D01*
X80370056Y-126276389D01*
X80323229Y-126239943D01*
X80104614Y-126121635D01*
X80104603Y-126121630D01*
X79869493Y-126040916D01*
X79624293Y-126000000D01*
X79375707Y-126000000D01*
X79130506Y-126040916D01*
X78895396Y-126121630D01*
X78895390Y-126121632D01*
X78676761Y-126239949D01*
X78629942Y-126276388D01*
X78629942Y-126276390D01*
X79367466Y-127013913D01*
X79357685Y-127015320D01*
X79226900Y-127075048D01*
X79118239Y-127169202D01*
X79040507Y-127290156D01*
X79016923Y-127370475D01*
X78276564Y-126630116D01*
X78176267Y-126783632D01*
X78076412Y-127011282D01*
X78015387Y-127252261D01*
X78015385Y-127252270D01*
X77994859Y-127499994D01*
X77994859Y-127500005D01*
X61006500Y-127500005D01*
X61006500Y-122500005D01*
X77994357Y-122500005D01*
X78014890Y-122747812D01*
X78014892Y-122747824D01*
X78075936Y-122988881D01*
X78175826Y-123216606D01*
X78311833Y-123424782D01*
X78311836Y-123424785D01*
X78480256Y-123607738D01*
X78676491Y-123760474D01*
X78895190Y-123878828D01*
X79130386Y-123959571D01*
X79375665Y-124000500D01*
X79624335Y-124000500D01*
X79869614Y-123959571D01*
X80104810Y-123878828D01*
X80323509Y-123760474D01*
X80519744Y-123607738D01*
X80688164Y-123424785D01*
X80824173Y-123216607D01*
X80924063Y-122988881D01*
X80985108Y-122747821D01*
X81005643Y-122500000D01*
X80997490Y-122401610D01*
X80985109Y-122252187D01*
X80985107Y-122252175D01*
X80924063Y-122011118D01*
X80824173Y-121783393D01*
X80688166Y-121575217D01*
X80600802Y-121480315D01*
X80519744Y-121392262D01*
X80323509Y-121239526D01*
X80323507Y-121239525D01*
X80323506Y-121239524D01*
X80104811Y-121121172D01*
X80104802Y-121121169D01*
X79869616Y-121040429D01*
X79624335Y-120999500D01*
X79375665Y-120999500D01*
X79130383Y-121040429D01*
X78895197Y-121121169D01*
X78895188Y-121121172D01*
X78676493Y-121239524D01*
X78480257Y-121392261D01*
X78311833Y-121575217D01*
X78175826Y-121783393D01*
X78075936Y-122011118D01*
X78014892Y-122252175D01*
X78014890Y-122252187D01*
X77994357Y-122499994D01*
X77994357Y-122500005D01*
X61006500Y-122500005D01*
X61006500Y-120697870D01*
X84499500Y-120697870D01*
X84499501Y-120697876D01*
X84505908Y-120757483D01*
X84556202Y-120892328D01*
X84556206Y-120892335D01*
X84642452Y-121007544D01*
X84642455Y-121007547D01*
X84757664Y-121093793D01*
X84757671Y-121093797D01*
X84892517Y-121144091D01*
X84892516Y-121144091D01*
X84899444Y-121144835D01*
X84952127Y-121150500D01*
X88047872Y-121150499D01*
X88107483Y-121144091D01*
X88242331Y-121093796D01*
X88357546Y-121007546D01*
X88443796Y-120892331D01*
X88494091Y-120757483D01*
X88500500Y-120697873D01*
X88500499Y-118102128D01*
X88494091Y-118042517D01*
X88493087Y-118039826D01*
X88443797Y-117907671D01*
X88443793Y-117907664D01*
X88357547Y-117792455D01*
X88357544Y-117792452D01*
X88242335Y-117706206D01*
X88242328Y-117706202D01*
X88107482Y-117655908D01*
X88107483Y-117655908D01*
X88047883Y-117649501D01*
X88047881Y-117649500D01*
X88047873Y-117649500D01*
X88047864Y-117649500D01*
X84952129Y-117649500D01*
X84952123Y-117649501D01*
X84892516Y-117655908D01*
X84757671Y-117706202D01*
X84757664Y-117706206D01*
X84642455Y-117792452D01*
X84642452Y-117792455D01*
X84556206Y-117907664D01*
X84556202Y-117907671D01*
X84505908Y-118042517D01*
X84499501Y-118102116D01*
X84499501Y-118102123D01*
X84499500Y-118102135D01*
X84499500Y-120697870D01*
X61006500Y-120697870D01*
X61006500Y-87334831D01*
X97897624Y-87334831D01*
X97902018Y-87404689D01*
X97902202Y-87408577D01*
X97904402Y-87478567D01*
X97905623Y-87486270D01*
X97905384Y-87486307D01*
X97906246Y-87491245D01*
X97906483Y-87491200D01*
X97907944Y-87498864D01*
X97929580Y-87565452D01*
X97930725Y-87569174D01*
X97950255Y-87636396D01*
X97953354Y-87643558D01*
X97953132Y-87643653D01*
X97955193Y-87648219D01*
X97955413Y-87648116D01*
X97958730Y-87655166D01*
X97958732Y-87655171D01*
X97958734Y-87655174D01*
X97958735Y-87655176D01*
X97996237Y-87714270D01*
X97998271Y-87717590D01*
X98033914Y-87777859D01*
X98038702Y-87784031D01*
X98038508Y-87784180D01*
X98041634Y-87788081D01*
X98041822Y-87787926D01*
X98046795Y-87793937D01*
X98097833Y-87841865D01*
X98100630Y-87844576D01*
X98627181Y-88371126D01*
X98660666Y-88432449D01*
X98663500Y-88458807D01*
X98663500Y-134577442D01*
X98661732Y-134593453D01*
X98661974Y-134593476D01*
X98661240Y-134601242D01*
X98663439Y-134671210D01*
X98663500Y-134675105D01*
X98663500Y-134703868D01*
X98663501Y-134703886D01*
X98664053Y-134708259D01*
X98664968Y-134719889D01*
X98666402Y-134765515D01*
X98666403Y-134765518D01*
X98672323Y-134785896D01*
X98676268Y-134804944D01*
X98678928Y-134826002D01*
X98678931Y-134826013D01*
X98695737Y-134868462D01*
X98699520Y-134879511D01*
X98712254Y-134923343D01*
X98712255Y-134923345D01*
X98723060Y-134941614D01*
X98731617Y-134959082D01*
X98737226Y-134973248D01*
X98739432Y-134978820D01*
X98766266Y-135015754D01*
X98772678Y-135025516D01*
X98795919Y-135064813D01*
X98795923Y-135064817D01*
X98810925Y-135079819D01*
X98823563Y-135094617D01*
X98836033Y-135111781D01*
X98836036Y-135111785D01*
X98871213Y-135140885D01*
X98879854Y-135148748D01*
X101233781Y-137502675D01*
X101267266Y-137563998D01*
X101270100Y-137590356D01*
X101270100Y-139675462D01*
X101250415Y-139742501D01*
X101197611Y-139788256D01*
X101128453Y-139798200D01*
X101105837Y-139792743D01*
X100988893Y-139752596D01*
X100903000Y-139738263D01*
X100903000Y-140634702D01*
X100797592Y-140586565D01*
X100689334Y-140571000D01*
X100616666Y-140571000D01*
X100508408Y-140586565D01*
X100403000Y-140634702D01*
X100403000Y-139738263D01*
X100402999Y-139738263D01*
X100317106Y-139752596D01*
X100103375Y-139825970D01*
X100103369Y-139825972D01*
X99904623Y-139933529D01*
X99726296Y-140072327D01*
X99726284Y-140072338D01*
X99573240Y-140238587D01*
X99449639Y-140427774D01*
X99358864Y-140634721D01*
X99309666Y-140829000D01*
X100209804Y-140829000D01*
X100186155Y-140865799D01*
X100145000Y-141005961D01*
X100145000Y-141152039D01*
X100186155Y-141292201D01*
X100209804Y-141329000D01*
X99309666Y-141329000D01*
X99358864Y-141523278D01*
X99449639Y-141730225D01*
X99573240Y-141919412D01*
X99726284Y-142085661D01*
X99726296Y-142085672D01*
X99904623Y-142224470D01*
X99904632Y-142224476D01*
X99932691Y-142239661D01*
X99982282Y-142288880D01*
X99997389Y-142357097D01*
X99973218Y-142422653D01*
X99932692Y-142457769D01*
X99904356Y-142473103D01*
X99904353Y-142473105D01*
X99725955Y-142611959D01*
X99725950Y-142611963D01*
X99572850Y-142778272D01*
X99572842Y-142778283D01*
X99449198Y-142967533D01*
X99358388Y-143174560D01*
X99302892Y-143393710D01*
X99284225Y-143618993D01*
X99284225Y-143619006D01*
X99302892Y-143844289D01*
X99358388Y-144063439D01*
X99449198Y-144270466D01*
X99572842Y-144459716D01*
X99572850Y-144459727D01*
X99676752Y-144572593D01*
X99725954Y-144626040D01*
X99904351Y-144764893D01*
X100103169Y-144872488D01*
X100103172Y-144872489D01*
X100316982Y-144945890D01*
X100316984Y-144945890D01*
X100316986Y-144945891D01*
X100539967Y-144983100D01*
X100539968Y-144983100D01*
X100766032Y-144983100D01*
X100766033Y-144983100D01*
X100989014Y-144945891D01*
X101202831Y-144872488D01*
X101401649Y-144764893D01*
X101580046Y-144626040D01*
X101733156Y-144459719D01*
X101819193Y-144328028D01*
X101872338Y-144282675D01*
X101941569Y-144273251D01*
X102004905Y-144302753D01*
X102026804Y-144328025D01*
X102112844Y-144459719D01*
X102112849Y-144459724D01*
X102112850Y-144459727D01*
X102216752Y-144572593D01*
X102265954Y-144626040D01*
X102444351Y-144764893D01*
X102643169Y-144872488D01*
X102643172Y-144872489D01*
X102856982Y-144945890D01*
X102856984Y-144945890D01*
X102856986Y-144945891D01*
X103079967Y-144983100D01*
X103079968Y-144983100D01*
X103306032Y-144983100D01*
X103306033Y-144983100D01*
X103529014Y-144945891D01*
X103742831Y-144872488D01*
X103941649Y-144764893D01*
X104120046Y-144626040D01*
X104273156Y-144459719D01*
X104359193Y-144328028D01*
X104412338Y-144282675D01*
X104481569Y-144273251D01*
X104544905Y-144302753D01*
X104566804Y-144328025D01*
X104652844Y-144459719D01*
X104652849Y-144459724D01*
X104652850Y-144459727D01*
X104756752Y-144572593D01*
X104805954Y-144626040D01*
X104984351Y-144764893D01*
X105183169Y-144872488D01*
X105183172Y-144872489D01*
X105396982Y-144945890D01*
X105396984Y-144945890D01*
X105396986Y-144945891D01*
X105619967Y-144983100D01*
X105619968Y-144983100D01*
X105846032Y-144983100D01*
X105846033Y-144983100D01*
X106069014Y-144945891D01*
X106282831Y-144872488D01*
X106481649Y-144764893D01*
X106660046Y-144626040D01*
X106813156Y-144459719D01*
X106899193Y-144328028D01*
X106952338Y-144282675D01*
X107021569Y-144273251D01*
X107084905Y-144302753D01*
X107106804Y-144328025D01*
X107192844Y-144459719D01*
X107192849Y-144459724D01*
X107192850Y-144459727D01*
X107296752Y-144572593D01*
X107345954Y-144626040D01*
X107524351Y-144764893D01*
X107723169Y-144872488D01*
X107723172Y-144872489D01*
X107936982Y-144945890D01*
X107936984Y-144945890D01*
X107936986Y-144945891D01*
X108159967Y-144983100D01*
X108159968Y-144983100D01*
X108386032Y-144983100D01*
X108386033Y-144983100D01*
X108609014Y-144945891D01*
X108822831Y-144872488D01*
X109021649Y-144764893D01*
X109200046Y-144626040D01*
X109353156Y-144459719D01*
X109439193Y-144328028D01*
X109492338Y-144282675D01*
X109561569Y-144273251D01*
X109624905Y-144302753D01*
X109646804Y-144328025D01*
X109732844Y-144459719D01*
X109732849Y-144459724D01*
X109732850Y-144459727D01*
X109836752Y-144572593D01*
X109885954Y-144626040D01*
X110064351Y-144764893D01*
X110263169Y-144872488D01*
X110263172Y-144872489D01*
X110476982Y-144945890D01*
X110476984Y-144945890D01*
X110476986Y-144945891D01*
X110699967Y-144983100D01*
X110699968Y-144983100D01*
X110926032Y-144983100D01*
X110926033Y-144983100D01*
X111149014Y-144945891D01*
X111362831Y-144872488D01*
X111561649Y-144764893D01*
X111740046Y-144626040D01*
X111893156Y-144459719D01*
X111979193Y-144328028D01*
X112032338Y-144282675D01*
X112101569Y-144273251D01*
X112164905Y-144302753D01*
X112186804Y-144328025D01*
X112272844Y-144459719D01*
X112272849Y-144459724D01*
X112272850Y-144459727D01*
X112376752Y-144572593D01*
X112425954Y-144626040D01*
X112604351Y-144764893D01*
X112803169Y-144872488D01*
X112803172Y-144872489D01*
X113016982Y-144945890D01*
X113016984Y-144945890D01*
X113016986Y-144945891D01*
X113239967Y-144983100D01*
X113239968Y-144983100D01*
X113466032Y-144983100D01*
X113466033Y-144983100D01*
X113689014Y-144945891D01*
X113902831Y-144872488D01*
X114101649Y-144764893D01*
X114280046Y-144626040D01*
X114433156Y-144459719D01*
X114519193Y-144328028D01*
X114572338Y-144282675D01*
X114641569Y-144273251D01*
X114704905Y-144302753D01*
X114726804Y-144328025D01*
X114812844Y-144459719D01*
X114812849Y-144459724D01*
X114812850Y-144459727D01*
X114916752Y-144572593D01*
X114965954Y-144626040D01*
X115144351Y-144764893D01*
X115343169Y-144872488D01*
X115343172Y-144872489D01*
X115556982Y-144945890D01*
X115556984Y-144945890D01*
X115556986Y-144945891D01*
X115779967Y-144983100D01*
X115779968Y-144983100D01*
X116006032Y-144983100D01*
X116006033Y-144983100D01*
X116229014Y-144945891D01*
X116442831Y-144872488D01*
X116641649Y-144764893D01*
X116820046Y-144626040D01*
X116874435Y-144566957D01*
X116934320Y-144530969D01*
X117004158Y-144533069D01*
X117061774Y-144572593D01*
X117081845Y-144607609D01*
X117125602Y-144724928D01*
X117125606Y-144724935D01*
X117211852Y-144840144D01*
X117211855Y-144840147D01*
X117327064Y-144926393D01*
X117327071Y-144926397D01*
X117461917Y-144976691D01*
X117461916Y-144976691D01*
X117468844Y-144977435D01*
X117521527Y-144983100D01*
X119344472Y-144983099D01*
X119404083Y-144976691D01*
X119538931Y-144926396D01*
X119654146Y-144840146D01*
X119740396Y-144724931D01*
X119790691Y-144590083D01*
X119797100Y-144530473D01*
X119797099Y-142707528D01*
X119790691Y-142647917D01*
X119784154Y-142630391D01*
X119740397Y-142513071D01*
X119740393Y-142513064D01*
X119654147Y-142397855D01*
X119654144Y-142397852D01*
X119538935Y-142311606D01*
X119538928Y-142311602D01*
X119423510Y-142268554D01*
X119367576Y-142226683D01*
X119343159Y-142161218D01*
X119358011Y-142092945D01*
X119375614Y-142068388D01*
X119512762Y-141919408D01*
X119636360Y-141730225D01*
X119727135Y-141523278D01*
X119776334Y-141329000D01*
X118876196Y-141329000D01*
X118899845Y-141292201D01*
X118941000Y-141152039D01*
X118941000Y-141005961D01*
X118899845Y-140865799D01*
X118876196Y-140829000D01*
X119776334Y-140829000D01*
X119727135Y-140634721D01*
X119636360Y-140427774D01*
X119512759Y-140238587D01*
X119359715Y-140072338D01*
X119359703Y-140072327D01*
X119181376Y-139933529D01*
X118982630Y-139825972D01*
X118982624Y-139825970D01*
X118768893Y-139752596D01*
X118683000Y-139738263D01*
X118683000Y-140634702D01*
X118577592Y-140586565D01*
X118469334Y-140571000D01*
X118396666Y-140571000D01*
X118288408Y-140586565D01*
X118183000Y-140634702D01*
X118183000Y-139738263D01*
X118182999Y-139738263D01*
X118097106Y-139752596D01*
X117883375Y-139825970D01*
X117883369Y-139825972D01*
X117684623Y-139933529D01*
X117506296Y-140072327D01*
X117506284Y-140072338D01*
X117353242Y-140238585D01*
X117266809Y-140370882D01*
X117213662Y-140416238D01*
X117144431Y-140425662D01*
X117081095Y-140396160D01*
X117059191Y-140370882D01*
X116972757Y-140238585D01*
X116819715Y-140072338D01*
X116819703Y-140072327D01*
X116641376Y-139933529D01*
X116442630Y-139825972D01*
X116442624Y-139825970D01*
X116228893Y-139752596D01*
X116143000Y-139738263D01*
X116143000Y-140634702D01*
X116037592Y-140586565D01*
X115929334Y-140571000D01*
X115856666Y-140571000D01*
X115748408Y-140586565D01*
X115643000Y-140634702D01*
X115643000Y-139738263D01*
X115642999Y-139738263D01*
X115557106Y-139752596D01*
X115372294Y-139816042D01*
X115302495Y-139819192D01*
X115242074Y-139784106D01*
X115225299Y-139761882D01*
X115219807Y-139752596D01*
X115216339Y-139746732D01*
X115207779Y-139729258D01*
X115206751Y-139726662D01*
X115199968Y-139709529D01*
X115173133Y-139672593D01*
X115166723Y-139662835D01*
X115143482Y-139623537D01*
X115143481Y-139623535D01*
X115128475Y-139608529D01*
X115115835Y-139593730D01*
X115103361Y-139576560D01*
X115068180Y-139547456D01*
X115059540Y-139539594D01*
X114566434Y-139046488D01*
X114556361Y-139033914D01*
X114556174Y-139034070D01*
X114551198Y-139028054D01*
X114500167Y-138980134D01*
X114497369Y-138977423D01*
X114477035Y-138957089D01*
X114473548Y-138954384D01*
X114464669Y-138946800D01*
X114431396Y-138915554D01*
X114431388Y-138915548D01*
X114412792Y-138905325D01*
X114396531Y-138894644D01*
X114379763Y-138881637D01*
X114363409Y-138874560D01*
X114337853Y-138863501D01*
X114327394Y-138858377D01*
X114287368Y-138836373D01*
X114287365Y-138836372D01*
X114266801Y-138831092D01*
X114248396Y-138824790D01*
X114228927Y-138816365D01*
X114228921Y-138816363D01*
X114183837Y-138809223D01*
X114172398Y-138806854D01*
X114128180Y-138795500D01*
X114128177Y-138795500D01*
X114106955Y-138795500D01*
X114087555Y-138793973D01*
X114066596Y-138790653D01*
X114066595Y-138790653D01*
X114031475Y-138793973D01*
X114021140Y-138794950D01*
X114009470Y-138795500D01*
X113096808Y-138795500D01*
X113029769Y-138775815D01*
X113009127Y-138759181D01*
X106317739Y-132067793D01*
X106851599Y-132067793D01*
X106853455Y-132087817D01*
X106854971Y-132104182D01*
X106855500Y-132115623D01*
X106855500Y-132123843D01*
X106855501Y-132123854D01*
X106857011Y-132131937D01*
X106858591Y-132143264D01*
X106861964Y-132179658D01*
X106864443Y-132188372D01*
X106867667Y-132197989D01*
X106870938Y-132206432D01*
X106874359Y-132211957D01*
X106887897Y-132233822D01*
X106890177Y-132237503D01*
X106895746Y-132247502D01*
X106899819Y-132255680D01*
X106912041Y-132280228D01*
X106917526Y-132287490D01*
X106923957Y-132295235D01*
X106930080Y-132301951D01*
X106959249Y-132323979D01*
X106968061Y-132331296D01*
X106995069Y-132355918D01*
X107002797Y-132360702D01*
X107011580Y-132365594D01*
X107019732Y-132369653D01*
X107019736Y-132369656D01*
X107054895Y-132379659D01*
X107065742Y-132383295D01*
X107099827Y-132396500D01*
X107099828Y-132396500D01*
X107108755Y-132398169D01*
X107118742Y-132399562D01*
X107127788Y-132400399D01*
X107127793Y-132400401D01*
X107164183Y-132397028D01*
X107175624Y-132396500D01*
X116096785Y-132396500D01*
X116118742Y-132399562D01*
X116127788Y-132400399D01*
X116127793Y-132400401D01*
X116164183Y-132397028D01*
X116175624Y-132396500D01*
X116183845Y-132396500D01*
X116186407Y-132396020D01*
X116191921Y-132394989D01*
X116203259Y-132393407D01*
X116239660Y-132390035D01*
X116239666Y-132390031D01*
X116248421Y-132387541D01*
X116257940Y-132384350D01*
X116266431Y-132381061D01*
X116266433Y-132381061D01*
X116297521Y-132361811D01*
X116307498Y-132356254D01*
X116340228Y-132339958D01*
X116340230Y-132339954D01*
X116347523Y-132334448D01*
X116355197Y-132328076D01*
X116361949Y-132321921D01*
X116361949Y-132321920D01*
X116361952Y-132321919D01*
X116383990Y-132292734D01*
X116391275Y-132283961D01*
X116415916Y-132256933D01*
X116415918Y-132256927D01*
X116420721Y-132249170D01*
X116425579Y-132240448D01*
X116429651Y-132232269D01*
X116429656Y-132232264D01*
X116439663Y-132197089D01*
X116443292Y-132186264D01*
X116456500Y-132152173D01*
X116456500Y-132152171D01*
X116456501Y-132152169D01*
X116458172Y-132143229D01*
X116459561Y-132133276D01*
X116460401Y-132124207D01*
X116457029Y-132087817D01*
X116456500Y-132076376D01*
X116456500Y-131939793D01*
X126033599Y-131939793D01*
X126035238Y-131957482D01*
X126036971Y-131976182D01*
X126037500Y-131987623D01*
X126037500Y-131995843D01*
X126037501Y-131995854D01*
X126039011Y-132003937D01*
X126040591Y-132015264D01*
X126043964Y-132051658D01*
X126046443Y-132060372D01*
X126049667Y-132069989D01*
X126052938Y-132078432D01*
X126052939Y-132078433D01*
X126068933Y-132104265D01*
X126072177Y-132109503D01*
X126077746Y-132119502D01*
X126082442Y-132128931D01*
X126094041Y-132152228D01*
X126099526Y-132159490D01*
X126105957Y-132167235D01*
X126112080Y-132173951D01*
X126141249Y-132195979D01*
X126150057Y-132203293D01*
X126154723Y-132207546D01*
X126177069Y-132227918D01*
X126184797Y-132232702D01*
X126193580Y-132237594D01*
X126201732Y-132241653D01*
X126201736Y-132241656D01*
X126236895Y-132251659D01*
X126247742Y-132255295D01*
X126281827Y-132268500D01*
X126281828Y-132268500D01*
X126290755Y-132270169D01*
X126300742Y-132271562D01*
X126309788Y-132272399D01*
X126309793Y-132272401D01*
X126346183Y-132269028D01*
X126357624Y-132268500D01*
X135278785Y-132268500D01*
X135300742Y-132271562D01*
X135309788Y-132272399D01*
X135309793Y-132272401D01*
X135346183Y-132269028D01*
X135357624Y-132268500D01*
X135365845Y-132268500D01*
X135368407Y-132268020D01*
X135373921Y-132266989D01*
X135385259Y-132265407D01*
X135421660Y-132262035D01*
X135421666Y-132262031D01*
X135430421Y-132259541D01*
X135439940Y-132256350D01*
X135448431Y-132253061D01*
X135448433Y-132253061D01*
X135479521Y-132233811D01*
X135489498Y-132228254D01*
X135522228Y-132211958D01*
X135522230Y-132211954D01*
X135529523Y-132206448D01*
X135537197Y-132200076D01*
X135543949Y-132193921D01*
X135543949Y-132193920D01*
X135543952Y-132193919D01*
X135565990Y-132164734D01*
X135573275Y-132155961D01*
X135597916Y-132128933D01*
X135597918Y-132128927D01*
X135602721Y-132121170D01*
X135607579Y-132112448D01*
X135611651Y-132104269D01*
X135611656Y-132104264D01*
X135621663Y-132069089D01*
X135625289Y-132058270D01*
X135638500Y-132024173D01*
X135638500Y-132024171D01*
X135638501Y-132024169D01*
X135640172Y-132015229D01*
X135641561Y-132005276D01*
X135642401Y-131996207D01*
X135639029Y-131959817D01*
X135638500Y-131948376D01*
X135638500Y-131096997D01*
X135658185Y-131029958D01*
X135710989Y-130984203D01*
X135780147Y-130974259D01*
X135843703Y-131003284D01*
X135850181Y-131009316D01*
X136024594Y-131183729D01*
X136024612Y-131183745D01*
X136253682Y-131355224D01*
X136253690Y-131355229D01*
X136504833Y-131492364D01*
X136504832Y-131492364D01*
X136504836Y-131492365D01*
X136504839Y-131492367D01*
X136772954Y-131592369D01*
X136772960Y-131592370D01*
X136772962Y-131592371D01*
X137052566Y-131653195D01*
X137052568Y-131653195D01*
X137052572Y-131653196D01*
X137306220Y-131671337D01*
X137337999Y-131673610D01*
X137338000Y-131673610D01*
X137338001Y-131673610D01*
X137366595Y-131671564D01*
X137623428Y-131653196D01*
X137633804Y-131650939D01*
X137903037Y-131592371D01*
X137903037Y-131592370D01*
X137903046Y-131592369D01*
X138171161Y-131492367D01*
X138422315Y-131355226D01*
X138651395Y-131183739D01*
X138853739Y-130981395D01*
X139025226Y-130752315D01*
X139162367Y-130501161D01*
X139262369Y-130233046D01*
X139323196Y-129953428D01*
X139343610Y-129668000D01*
X139323196Y-129382572D01*
X139321081Y-129372851D01*
X139262371Y-129102962D01*
X139262370Y-129102960D01*
X139262369Y-129102954D01*
X139162367Y-128834839D01*
X139121760Y-128760474D01*
X139025229Y-128583690D01*
X139025224Y-128583682D01*
X138853745Y-128354612D01*
X138853729Y-128354594D01*
X138651405Y-128152270D01*
X138651387Y-128152254D01*
X138422317Y-127980775D01*
X138422309Y-127980770D01*
X138171166Y-127843635D01*
X138171167Y-127843635D01*
X138028411Y-127790390D01*
X137903046Y-127743631D01*
X137903043Y-127743630D01*
X137903037Y-127743628D01*
X137623433Y-127682804D01*
X137338001Y-127662390D01*
X137337999Y-127662390D01*
X137052566Y-127682804D01*
X136772962Y-127743628D01*
X136504833Y-127843635D01*
X136253690Y-127980770D01*
X136253682Y-127980775D01*
X136024612Y-128152254D01*
X136024594Y-128152270D01*
X135850181Y-128326684D01*
X135788858Y-128360169D01*
X135719166Y-128355185D01*
X135663233Y-128313313D01*
X135638816Y-128247849D01*
X135638500Y-128239003D01*
X135638500Y-126319208D01*
X135658185Y-126252169D01*
X135710989Y-126206414D01*
X135753746Y-126198699D01*
X136660803Y-125291641D01*
X136684059Y-125345553D01*
X136788756Y-125486185D01*
X136923062Y-125598882D01*
X137014665Y-125644886D01*
X136111436Y-126548115D01*
X136253960Y-126654807D01*
X136253961Y-126654808D01*
X136505042Y-126791908D01*
X136505041Y-126791908D01*
X136773104Y-126891890D01*
X137052637Y-126952699D01*
X137337999Y-126973109D01*
X137338001Y-126973109D01*
X137623362Y-126952699D01*
X137902895Y-126891890D01*
X138170958Y-126791908D01*
X138422047Y-126654803D01*
X138564561Y-126548116D01*
X138564562Y-126548115D01*
X137663946Y-125647498D01*
X137676891Y-125642787D01*
X137823373Y-125546445D01*
X137943688Y-125418918D01*
X138016447Y-125292894D01*
X138918115Y-126194562D01*
X138918116Y-126194561D01*
X139024803Y-126052047D01*
X139161908Y-125800958D01*
X139261890Y-125532895D01*
X139322699Y-125253362D01*
X139343109Y-124968001D01*
X139343109Y-124967998D01*
X139322699Y-124682637D01*
X139261890Y-124403104D01*
X139161908Y-124135041D01*
X139024808Y-123883961D01*
X139024807Y-123883960D01*
X138918115Y-123741436D01*
X138015195Y-124644356D01*
X137991941Y-124590447D01*
X137887244Y-124449815D01*
X137752938Y-124337118D01*
X137661333Y-124291112D01*
X138564562Y-123387883D01*
X138564561Y-123387882D01*
X138422046Y-123281196D01*
X138422038Y-123281191D01*
X138170957Y-123144091D01*
X138170958Y-123144091D01*
X137902895Y-123044109D01*
X137623362Y-122983300D01*
X137338001Y-122962891D01*
X137337999Y-122962891D01*
X137052637Y-122983300D01*
X136773104Y-123044109D01*
X136505041Y-123144091D01*
X136253961Y-123281191D01*
X136253953Y-123281196D01*
X136111437Y-123387882D01*
X136111436Y-123387883D01*
X137012054Y-124288501D01*
X136999109Y-124293213D01*
X136852627Y-124389555D01*
X136732312Y-124517082D01*
X136659552Y-124643105D01*
X135752910Y-123736463D01*
X135703073Y-123725622D01*
X135653668Y-123676217D01*
X135638500Y-123616790D01*
X135638500Y-121696997D01*
X135658185Y-121629958D01*
X135710989Y-121584203D01*
X135780147Y-121574259D01*
X135843703Y-121603284D01*
X135850181Y-121609316D01*
X136024594Y-121783729D01*
X136024612Y-121783745D01*
X136253682Y-121955224D01*
X136253690Y-121955229D01*
X136504833Y-122092364D01*
X136504832Y-122092364D01*
X136504836Y-122092365D01*
X136504839Y-122092367D01*
X136772954Y-122192369D01*
X136772960Y-122192370D01*
X136772962Y-122192371D01*
X137052566Y-122253195D01*
X137052568Y-122253195D01*
X137052572Y-122253196D01*
X137306220Y-122271337D01*
X137337999Y-122273610D01*
X137338000Y-122273610D01*
X137338001Y-122273610D01*
X137366595Y-122271564D01*
X137623428Y-122253196D01*
X137628067Y-122252187D01*
X137903037Y-122192371D01*
X137903037Y-122192370D01*
X137903046Y-122192369D01*
X138171161Y-122092367D01*
X138422315Y-121955226D01*
X138651395Y-121783739D01*
X138853739Y-121581395D01*
X139025226Y-121352315D01*
X139162367Y-121101161D01*
X139262369Y-120833046D01*
X139323196Y-120553428D01*
X139343610Y-120268000D01*
X139323196Y-119982572D01*
X139290215Y-119830962D01*
X139262371Y-119702962D01*
X139262370Y-119702960D01*
X139262369Y-119702954D01*
X139162367Y-119434839D01*
X139095122Y-119311690D01*
X139025229Y-119183690D01*
X139025224Y-119183682D01*
X138853745Y-118954612D01*
X138853729Y-118954594D01*
X138651405Y-118752270D01*
X138651387Y-118752254D01*
X138422317Y-118580775D01*
X138422309Y-118580770D01*
X138171166Y-118443635D01*
X138171167Y-118443635D01*
X138028411Y-118390390D01*
X137903046Y-118343631D01*
X137903043Y-118343630D01*
X137903037Y-118343628D01*
X137623433Y-118282804D01*
X137338001Y-118262390D01*
X137337999Y-118262390D01*
X137052566Y-118282804D01*
X136772962Y-118343628D01*
X136504833Y-118443635D01*
X136253690Y-118580770D01*
X136253682Y-118580775D01*
X136024612Y-118752254D01*
X136024594Y-118752270D01*
X135850181Y-118926684D01*
X135788858Y-118960169D01*
X135719166Y-118955185D01*
X135663233Y-118913313D01*
X135638816Y-118847849D01*
X135638500Y-118839003D01*
X135638500Y-118027216D01*
X135641561Y-118005276D01*
X135642401Y-117996207D01*
X135639029Y-117959817D01*
X135638500Y-117948376D01*
X135638500Y-117940155D01*
X135636990Y-117932079D01*
X135635407Y-117920731D01*
X135632035Y-117884340D01*
X135629548Y-117875599D01*
X135626350Y-117866059D01*
X135623061Y-117857570D01*
X135623061Y-117857567D01*
X135623059Y-117857564D01*
X135623058Y-117857561D01*
X135603821Y-117826492D01*
X135598252Y-117816496D01*
X135581958Y-117783772D01*
X135581956Y-117783770D01*
X135581955Y-117783768D01*
X135576475Y-117776511D01*
X135570061Y-117768786D01*
X135563916Y-117762045D01*
X135534750Y-117740020D01*
X135525949Y-117732712D01*
X135498933Y-117708084D01*
X135498931Y-117708083D01*
X135498929Y-117708081D01*
X135491232Y-117703315D01*
X135482390Y-117698390D01*
X135474264Y-117694343D01*
X135439120Y-117684344D01*
X135428265Y-117680706D01*
X135394172Y-117667499D01*
X135385236Y-117665829D01*
X135375257Y-117664437D01*
X135366208Y-117663599D01*
X135366207Y-117663599D01*
X135332493Y-117666723D01*
X135329817Y-117666971D01*
X135318376Y-117667500D01*
X126397215Y-117667500D01*
X126375257Y-117664437D01*
X126366208Y-117663599D01*
X126366207Y-117663599D01*
X126332493Y-117666723D01*
X126329817Y-117666971D01*
X126318376Y-117667500D01*
X126310154Y-117667500D01*
X126302069Y-117669011D01*
X126290739Y-117670591D01*
X126254339Y-117673964D01*
X126245644Y-117676438D01*
X126236008Y-117679668D01*
X126227563Y-117682940D01*
X126196494Y-117702176D01*
X126186496Y-117707746D01*
X126153769Y-117724042D01*
X126146547Y-117729496D01*
X126138751Y-117735970D01*
X126132044Y-117742084D01*
X126110026Y-117771241D01*
X126102713Y-117780048D01*
X126078085Y-117807064D01*
X126073322Y-117814756D01*
X126068385Y-117823620D01*
X126064343Y-117831737D01*
X126054343Y-117866884D01*
X126050704Y-117877741D01*
X126037499Y-117911826D01*
X126035829Y-117920762D01*
X126034437Y-117930745D01*
X126033599Y-117939791D01*
X126033599Y-117939792D01*
X126033599Y-117939793D01*
X126034961Y-117954492D01*
X126036971Y-117976182D01*
X126037500Y-117987623D01*
X126037500Y-131908784D01*
X126034437Y-131930745D01*
X126033599Y-131939791D01*
X126033599Y-131939792D01*
X126033599Y-131939793D01*
X116456500Y-131939793D01*
X116456500Y-131224997D01*
X116476185Y-131157958D01*
X116528989Y-131112203D01*
X116598147Y-131102259D01*
X116661703Y-131131284D01*
X116668181Y-131137316D01*
X116842594Y-131311729D01*
X116842612Y-131311745D01*
X117071682Y-131483224D01*
X117071690Y-131483229D01*
X117322833Y-131620364D01*
X117322832Y-131620364D01*
X117322836Y-131620365D01*
X117322839Y-131620367D01*
X117590954Y-131720369D01*
X117590960Y-131720370D01*
X117590962Y-131720371D01*
X117870566Y-131781195D01*
X117870568Y-131781195D01*
X117870572Y-131781196D01*
X118124220Y-131799337D01*
X118155999Y-131801610D01*
X118156000Y-131801610D01*
X118156001Y-131801610D01*
X118184595Y-131799564D01*
X118441428Y-131781196D01*
X118721046Y-131720369D01*
X118989161Y-131620367D01*
X119240315Y-131483226D01*
X119469395Y-131311739D01*
X119671739Y-131109395D01*
X119843226Y-130880315D01*
X119980367Y-130629161D01*
X120080369Y-130361046D01*
X120141196Y-130081428D01*
X120161610Y-129796000D01*
X120141196Y-129510572D01*
X120113351Y-129382572D01*
X120080371Y-129230962D01*
X120080370Y-129230960D01*
X120080369Y-129230954D01*
X119980367Y-128962839D01*
X119934494Y-128878830D01*
X119843229Y-128711690D01*
X119843224Y-128711682D01*
X119671745Y-128482612D01*
X119671729Y-128482594D01*
X119469405Y-128280270D01*
X119469387Y-128280254D01*
X119240317Y-128108775D01*
X119240309Y-128108770D01*
X118989166Y-127971635D01*
X118989167Y-127971635D01*
X118864005Y-127924952D01*
X118721046Y-127871631D01*
X118721043Y-127871630D01*
X118721037Y-127871628D01*
X118441433Y-127810804D01*
X118156001Y-127790390D01*
X118155999Y-127790390D01*
X117870566Y-127810804D01*
X117590962Y-127871628D01*
X117322833Y-127971635D01*
X117071690Y-128108770D01*
X117071682Y-128108775D01*
X116842612Y-128280254D01*
X116842594Y-128280270D01*
X116668181Y-128454684D01*
X116606858Y-128488169D01*
X116537166Y-128483185D01*
X116481233Y-128441313D01*
X116456816Y-128375849D01*
X116456500Y-128367003D01*
X116456500Y-126447208D01*
X116476185Y-126380169D01*
X116528989Y-126334414D01*
X116571746Y-126326699D01*
X117478803Y-125419641D01*
X117502059Y-125473553D01*
X117606756Y-125614185D01*
X117741062Y-125726882D01*
X117832665Y-125772886D01*
X116929436Y-126676115D01*
X117071960Y-126782807D01*
X117071961Y-126782808D01*
X117323042Y-126919908D01*
X117323041Y-126919908D01*
X117591104Y-127019890D01*
X117870637Y-127080699D01*
X118155999Y-127101109D01*
X118156001Y-127101109D01*
X118441362Y-127080699D01*
X118720895Y-127019890D01*
X118988958Y-126919908D01*
X119240047Y-126782803D01*
X119382561Y-126676116D01*
X119382562Y-126676115D01*
X118481946Y-125775498D01*
X118494891Y-125770787D01*
X118641373Y-125674445D01*
X118761688Y-125546918D01*
X118834447Y-125420894D01*
X119736115Y-126322562D01*
X119736116Y-126322561D01*
X119842803Y-126180047D01*
X119979908Y-125928958D01*
X120079890Y-125660895D01*
X120140699Y-125381362D01*
X120161109Y-125096001D01*
X120161109Y-125095998D01*
X120140699Y-124810637D01*
X120079890Y-124531104D01*
X119979908Y-124263041D01*
X119842808Y-124011961D01*
X119842807Y-124011960D01*
X119736115Y-123869436D01*
X118833195Y-124772356D01*
X118809941Y-124718447D01*
X118705244Y-124577815D01*
X118570938Y-124465118D01*
X118479333Y-124419112D01*
X119382562Y-123515883D01*
X119382561Y-123515882D01*
X119240046Y-123409196D01*
X119240038Y-123409191D01*
X118988957Y-123272091D01*
X118988958Y-123272091D01*
X118720895Y-123172109D01*
X118441362Y-123111300D01*
X118156001Y-123090891D01*
X118155999Y-123090891D01*
X117870637Y-123111300D01*
X117591104Y-123172109D01*
X117323041Y-123272091D01*
X117071961Y-123409191D01*
X117071953Y-123409196D01*
X116929437Y-123515882D01*
X116929436Y-123515883D01*
X117830054Y-124416501D01*
X117817109Y-124421213D01*
X117670627Y-124517555D01*
X117550312Y-124645082D01*
X117477552Y-124771105D01*
X116570910Y-123864463D01*
X116521073Y-123853622D01*
X116471668Y-123804217D01*
X116456500Y-123744790D01*
X116456500Y-121824997D01*
X116476185Y-121757958D01*
X116528989Y-121712203D01*
X116598147Y-121702259D01*
X116661703Y-121731284D01*
X116668181Y-121737316D01*
X116842594Y-121911729D01*
X116842612Y-121911745D01*
X117071682Y-122083224D01*
X117071690Y-122083229D01*
X117322833Y-122220364D01*
X117322832Y-122220364D01*
X117322836Y-122220365D01*
X117322839Y-122220367D01*
X117590954Y-122320369D01*
X117590960Y-122320370D01*
X117590962Y-122320371D01*
X117870566Y-122381195D01*
X117870568Y-122381195D01*
X117870572Y-122381196D01*
X118124220Y-122399337D01*
X118155999Y-122401610D01*
X118156000Y-122401610D01*
X118156001Y-122401610D01*
X118184595Y-122399564D01*
X118441428Y-122381196D01*
X118721046Y-122320369D01*
X118989161Y-122220367D01*
X119240315Y-122083226D01*
X119469395Y-121911739D01*
X119671739Y-121709395D01*
X119843226Y-121480315D01*
X119980367Y-121229161D01*
X120080369Y-120961046D01*
X120124652Y-120757482D01*
X120141195Y-120681433D01*
X120141195Y-120681432D01*
X120141196Y-120681428D01*
X120161610Y-120396000D01*
X120141196Y-120110572D01*
X120113351Y-119982572D01*
X120080371Y-119830962D01*
X120080370Y-119830960D01*
X120080369Y-119830954D01*
X119980367Y-119562839D01*
X119910473Y-119434839D01*
X119843229Y-119311690D01*
X119843224Y-119311682D01*
X119671745Y-119082612D01*
X119671729Y-119082594D01*
X119469405Y-118880270D01*
X119469387Y-118880254D01*
X119240317Y-118708775D01*
X119240309Y-118708770D01*
X118989166Y-118571635D01*
X118989167Y-118571635D01*
X118881915Y-118531632D01*
X118721046Y-118471631D01*
X118721043Y-118471630D01*
X118721037Y-118471628D01*
X118441433Y-118410804D01*
X118156001Y-118390390D01*
X118155999Y-118390390D01*
X117870566Y-118410804D01*
X117590962Y-118471628D01*
X117322833Y-118571635D01*
X117071690Y-118708770D01*
X117071682Y-118708775D01*
X116842612Y-118880254D01*
X116842594Y-118880270D01*
X116668181Y-119054684D01*
X116606858Y-119088169D01*
X116537166Y-119083185D01*
X116481233Y-119041313D01*
X116456816Y-118975849D01*
X116456500Y-118967003D01*
X116456500Y-118155216D01*
X116459561Y-118133276D01*
X116460401Y-118124207D01*
X116457029Y-118087817D01*
X116456500Y-118076376D01*
X116456500Y-118068155D01*
X116454990Y-118060079D01*
X116453407Y-118048731D01*
X116450035Y-118012340D01*
X116447548Y-118003599D01*
X116444350Y-117994059D01*
X116441061Y-117985570D01*
X116441061Y-117985567D01*
X116441059Y-117985564D01*
X116441058Y-117985561D01*
X116421821Y-117954492D01*
X116416252Y-117944496D01*
X116399958Y-117911772D01*
X116399956Y-117911770D01*
X116399955Y-117911768D01*
X116394475Y-117904511D01*
X116388061Y-117896786D01*
X116381916Y-117890045D01*
X116352750Y-117868020D01*
X116343949Y-117860712D01*
X116316933Y-117836084D01*
X116316931Y-117836083D01*
X116316929Y-117836081D01*
X116309232Y-117831315D01*
X116300390Y-117826390D01*
X116292264Y-117822343D01*
X116257120Y-117812344D01*
X116246265Y-117808706D01*
X116212172Y-117795499D01*
X116203236Y-117793829D01*
X116193257Y-117792437D01*
X116184208Y-117791599D01*
X116184207Y-117791599D01*
X116147817Y-117794971D01*
X116136376Y-117795500D01*
X107215215Y-117795500D01*
X107193257Y-117792437D01*
X107184208Y-117791599D01*
X107184207Y-117791599D01*
X107147817Y-117794971D01*
X107136376Y-117795500D01*
X107128154Y-117795500D01*
X107120069Y-117797011D01*
X107108739Y-117798591D01*
X107072339Y-117801964D01*
X107063644Y-117804438D01*
X107054008Y-117807668D01*
X107045563Y-117810940D01*
X107014494Y-117830176D01*
X107004496Y-117835746D01*
X106971769Y-117852042D01*
X106964547Y-117857496D01*
X106956751Y-117863970D01*
X106950044Y-117870084D01*
X106928026Y-117899241D01*
X106920713Y-117908048D01*
X106896085Y-117935064D01*
X106891322Y-117942756D01*
X106886385Y-117951620D01*
X106882343Y-117959737D01*
X106872343Y-117994884D01*
X106868704Y-118005741D01*
X106855499Y-118039826D01*
X106853829Y-118048762D01*
X106852437Y-118058745D01*
X106851599Y-118067791D01*
X106851599Y-118067792D01*
X106851599Y-118067793D01*
X106853455Y-118087817D01*
X106854971Y-118104182D01*
X106855500Y-118115623D01*
X106855500Y-132036784D01*
X106852437Y-132058745D01*
X106851599Y-132067791D01*
X106851599Y-132067792D01*
X106851599Y-132067793D01*
X106317739Y-132067793D01*
X102770819Y-128520873D01*
X102737334Y-128459550D01*
X102734500Y-128433192D01*
X102734500Y-113999683D01*
X114461739Y-113999683D01*
X114465318Y-114065678D01*
X114465500Y-114072391D01*
X114465500Y-114092117D01*
X114467632Y-114111726D01*
X114468176Y-114118412D01*
X114471755Y-114184406D01*
X114475272Y-114197078D01*
X114479061Y-114216824D01*
X114480484Y-114229905D01*
X114480486Y-114229910D01*
X114498726Y-114284045D01*
X114501592Y-114292549D01*
X114503556Y-114298945D01*
X114511159Y-114326328D01*
X114521247Y-114362662D01*
X114521247Y-114362664D01*
X114527406Y-114374280D01*
X114535356Y-114392760D01*
X114539552Y-114405211D01*
X114539554Y-114405215D01*
X114539556Y-114405221D01*
X114539558Y-114405225D01*
X114539559Y-114405226D01*
X114573632Y-114461858D01*
X114576936Y-114467701D01*
X114599753Y-114510738D01*
X114607901Y-114526105D01*
X114607902Y-114526108D01*
X114616409Y-114536123D01*
X114628147Y-114552464D01*
X114634927Y-114563733D01*
X114634930Y-114563736D01*
X114680413Y-114611751D01*
X114684870Y-114616721D01*
X114727663Y-114667100D01*
X114738131Y-114675058D01*
X114753105Y-114688491D01*
X114762151Y-114698041D01*
X114816872Y-114735143D01*
X114822323Y-114739059D01*
X114874936Y-114779054D01*
X114874937Y-114779054D01*
X114874938Y-114779055D01*
X114874942Y-114779057D01*
X114886866Y-114784574D01*
X114904386Y-114794479D01*
X114915269Y-114801857D01*
X114915272Y-114801859D01*
X114926660Y-114806396D01*
X114976693Y-114826331D01*
X114982815Y-114828964D01*
X115042833Y-114856732D01*
X115055672Y-114859558D01*
X115074912Y-114865464D01*
X115087125Y-114870331D01*
X115152370Y-114881026D01*
X115158904Y-114882280D01*
X115223503Y-114896500D01*
X115236653Y-114896500D01*
X115256714Y-114898133D01*
X115269683Y-114900260D01*
X115335678Y-114896681D01*
X115342391Y-114896500D01*
X116001933Y-114896500D01*
X116045790Y-114905821D01*
X116046014Y-114905135D01*
X116052194Y-114907142D01*
X116052197Y-114907144D01*
X116237354Y-114946500D01*
X116237355Y-114946500D01*
X116426644Y-114946500D01*
X116426646Y-114946500D01*
X116611803Y-114907144D01*
X116784730Y-114830151D01*
X116937871Y-114718888D01*
X117064533Y-114578216D01*
X117159179Y-114414284D01*
X117217674Y-114234256D01*
X117237460Y-114046000D01*
X117217674Y-113857744D01*
X117159179Y-113677716D01*
X117064533Y-113513784D01*
X116937871Y-113373112D01*
X116937870Y-113373111D01*
X116784734Y-113261851D01*
X116784729Y-113261848D01*
X116611807Y-113184857D01*
X116611802Y-113184855D01*
X116447671Y-113149969D01*
X116426646Y-113145500D01*
X116290500Y-113145500D01*
X116223461Y-113125815D01*
X116177706Y-113073011D01*
X116166500Y-113021500D01*
X116166500Y-106426000D01*
X119998540Y-106426000D01*
X120018326Y-106614256D01*
X120018327Y-106614259D01*
X120076818Y-106794277D01*
X120076821Y-106794284D01*
X120171467Y-106958216D01*
X120289407Y-107089201D01*
X120298129Y-107098888D01*
X120451265Y-107210148D01*
X120451270Y-107210151D01*
X120624192Y-107287142D01*
X120624197Y-107287144D01*
X120809354Y-107326500D01*
X120833192Y-107326500D01*
X120900231Y-107346185D01*
X120920873Y-107362819D01*
X121233181Y-107675127D01*
X121266666Y-107736450D01*
X121269500Y-107762808D01*
X121269500Y-122773078D01*
X121249815Y-122840117D01*
X121237650Y-122856050D01*
X121187466Y-122911785D01*
X121092821Y-123075715D01*
X121092818Y-123075722D01*
X121047042Y-123216607D01*
X121034326Y-123255744D01*
X121014540Y-123444000D01*
X121034326Y-123632256D01*
X121034327Y-123632259D01*
X121092818Y-123812277D01*
X121092821Y-123812284D01*
X121187467Y-123976216D01*
X121272278Y-124070408D01*
X121314129Y-124116888D01*
X121467265Y-124228148D01*
X121467270Y-124228151D01*
X121640192Y-124305142D01*
X121640197Y-124305144D01*
X121825354Y-124344500D01*
X121825355Y-124344500D01*
X122014644Y-124344500D01*
X122014646Y-124344500D01*
X122199803Y-124305144D01*
X122372730Y-124228151D01*
X122525871Y-124116888D01*
X122652533Y-123976216D01*
X122747179Y-123812284D01*
X122805674Y-123632256D01*
X122825460Y-123444000D01*
X122805674Y-123255744D01*
X122747179Y-123075716D01*
X122652533Y-122911784D01*
X122602350Y-122856050D01*
X122572120Y-122793058D01*
X122570500Y-122773078D01*
X122570500Y-107527502D01*
X122572268Y-107511489D01*
X122572026Y-107511467D01*
X122572758Y-107503711D01*
X122572760Y-107503704D01*
X122570561Y-107433736D01*
X122570500Y-107429841D01*
X122570500Y-107401077D01*
X122570499Y-107401070D01*
X122569949Y-107396716D01*
X122569030Y-107385054D01*
X122567597Y-107339431D01*
X122561676Y-107319053D01*
X122557731Y-107300004D01*
X122555071Y-107278942D01*
X122538263Y-107236491D01*
X122534480Y-107225442D01*
X122521743Y-107181600D01*
X122510940Y-107163334D01*
X122502378Y-107145856D01*
X122494568Y-107126129D01*
X122494565Y-107126125D01*
X122467730Y-107089189D01*
X122461331Y-107079448D01*
X122438081Y-107040135D01*
X122438079Y-107040133D01*
X122438078Y-107040131D01*
X122423075Y-107025129D01*
X122410435Y-107010330D01*
X122409052Y-107008427D01*
X122397963Y-106993163D01*
X122397961Y-106993160D01*
X122362780Y-106964056D01*
X122354140Y-106956194D01*
X121838808Y-106440862D01*
X121805323Y-106379539D01*
X121803168Y-106366141D01*
X121797975Y-106316734D01*
X121789674Y-106237744D01*
X121731179Y-106057716D01*
X121636533Y-105893784D01*
X121509871Y-105753112D01*
X121493787Y-105741426D01*
X121356734Y-105641851D01*
X121356729Y-105641848D01*
X121183807Y-105564857D01*
X121183802Y-105564855D01*
X121038001Y-105533865D01*
X120998646Y-105525500D01*
X120809354Y-105525500D01*
X120776897Y-105532398D01*
X120624197Y-105564855D01*
X120624192Y-105564857D01*
X120451270Y-105641848D01*
X120451265Y-105641851D01*
X120298129Y-105753111D01*
X120171466Y-105893785D01*
X120076821Y-106057715D01*
X120076818Y-106057722D01*
X120028394Y-106206757D01*
X120018326Y-106237744D01*
X119998540Y-106426000D01*
X116166500Y-106426000D01*
X116166500Y-106067651D01*
X116186185Y-106000612D01*
X116202819Y-105979970D01*
X118933970Y-103248819D01*
X118995293Y-103215334D01*
X119021651Y-103212500D01*
X137630192Y-103212500D01*
X137697231Y-103232185D01*
X137742986Y-103284989D01*
X137752930Y-103354147D01*
X137723905Y-103417703D01*
X137717873Y-103424181D01*
X128798873Y-112343181D01*
X128737550Y-112376666D01*
X128711192Y-112379500D01*
X128438975Y-112379500D01*
X128371936Y-112359815D01*
X128366090Y-112355818D01*
X128214734Y-112245851D01*
X128214729Y-112245848D01*
X128041807Y-112168857D01*
X128041802Y-112168855D01*
X127896001Y-112137865D01*
X127856646Y-112129500D01*
X127667354Y-112129500D01*
X127634897Y-112136398D01*
X127482197Y-112168855D01*
X127482192Y-112168857D01*
X127309270Y-112245848D01*
X127309265Y-112245851D01*
X127156129Y-112357111D01*
X127029466Y-112497785D01*
X126934821Y-112661715D01*
X126934818Y-112661722D01*
X126876327Y-112841740D01*
X126876326Y-112841744D01*
X126856540Y-113030000D01*
X126876326Y-113218256D01*
X126876327Y-113218259D01*
X126934818Y-113398277D01*
X126934821Y-113398284D01*
X127029467Y-113562216D01*
X127134647Y-113679030D01*
X127156129Y-113702888D01*
X127309265Y-113814148D01*
X127309270Y-113814151D01*
X127482192Y-113891142D01*
X127482197Y-113891144D01*
X127667354Y-113930500D01*
X127667355Y-113930500D01*
X127856644Y-113930500D01*
X127856646Y-113930500D01*
X128041803Y-113891144D01*
X128214730Y-113814151D01*
X128366090Y-113704182D01*
X128431896Y-113680702D01*
X128438975Y-113680500D01*
X128946495Y-113680500D01*
X128962505Y-113682267D01*
X128962528Y-113682026D01*
X128970289Y-113682758D01*
X128970296Y-113682760D01*
X129040262Y-113680560D01*
X129044157Y-113680500D01*
X129072925Y-113680500D01*
X129077287Y-113679948D01*
X129088939Y-113679030D01*
X129134569Y-113677597D01*
X129154956Y-113671673D01*
X129173996Y-113667731D01*
X129195058Y-113665071D01*
X129237520Y-113648258D01*
X129248557Y-113644480D01*
X129292398Y-113631744D01*
X129310665Y-113620939D01*
X129328136Y-113612380D01*
X129347871Y-113604568D01*
X129384816Y-113577725D01*
X129394558Y-113571326D01*
X129433865Y-113548081D01*
X129448870Y-113533075D01*
X129463668Y-113520436D01*
X129472823Y-113513785D01*
X129480837Y-113507963D01*
X129509946Y-113472774D01*
X129517790Y-113464154D01*
X139171127Y-103810819D01*
X139232450Y-103777334D01*
X139258808Y-103774500D01*
X143443192Y-103774500D01*
X143510231Y-103794185D01*
X143530873Y-103810819D01*
X143867845Y-104147791D01*
X143901330Y-104209114D01*
X143896346Y-104278806D01*
X143854474Y-104334739D01*
X143789010Y-104359156D01*
X143769362Y-104359001D01*
X143767238Y-104358815D01*
X143764000Y-104358532D01*
X143763999Y-104358532D01*
X143763998Y-104358532D01*
X143537313Y-104378364D01*
X143537302Y-104378366D01*
X143317511Y-104437258D01*
X143317502Y-104437261D01*
X143111267Y-104533431D01*
X143111265Y-104533432D01*
X142924858Y-104663954D01*
X142763954Y-104824858D01*
X142633432Y-105011265D01*
X142633431Y-105011267D01*
X142537261Y-105217502D01*
X142537258Y-105217511D01*
X142478366Y-105437302D01*
X142478364Y-105437313D01*
X142458532Y-105663998D01*
X142458532Y-105664001D01*
X142478364Y-105890686D01*
X142478366Y-105890697D01*
X142537258Y-106110488D01*
X142537261Y-106110497D01*
X142633431Y-106316732D01*
X142633432Y-106316734D01*
X142763954Y-106503141D01*
X142924858Y-106664045D01*
X142924861Y-106664047D01*
X143111266Y-106794568D01*
X143317504Y-106890739D01*
X143537308Y-106949635D01*
X143764000Y-106969468D01*
X143769352Y-106968999D01*
X143837850Y-106982763D01*
X143888035Y-107031375D01*
X143903972Y-107099403D01*
X143880601Y-107165248D01*
X143867844Y-107180208D01*
X141840483Y-109207569D01*
X141827910Y-109217643D01*
X141828065Y-109217830D01*
X141822058Y-109222799D01*
X141774133Y-109273833D01*
X141771427Y-109276625D01*
X141751090Y-109296963D01*
X141751077Y-109296978D01*
X141748373Y-109300463D01*
X141740806Y-109309322D01*
X141709552Y-109342607D01*
X141699322Y-109361213D01*
X141688646Y-109377464D01*
X141675640Y-109394232D01*
X141675636Y-109394238D01*
X141657508Y-109436130D01*
X141652369Y-109446619D01*
X141630372Y-109486630D01*
X141630372Y-109486631D01*
X141625091Y-109507199D01*
X141618791Y-109525601D01*
X141610364Y-109545073D01*
X141603223Y-109590162D01*
X141600854Y-109601600D01*
X141589500Y-109645817D01*
X141589500Y-109667044D01*
X141587973Y-109686444D01*
X141584653Y-109707403D01*
X141588950Y-109752858D01*
X141589500Y-109764528D01*
X141589500Y-134026494D01*
X141587732Y-134042505D01*
X141587974Y-134042528D01*
X141587240Y-134050294D01*
X141589439Y-134120262D01*
X141589500Y-134124157D01*
X141589500Y-134152920D01*
X141589501Y-134152938D01*
X141590053Y-134157311D01*
X141590968Y-134168941D01*
X141592402Y-134214567D01*
X141592403Y-134214570D01*
X141598323Y-134234948D01*
X141602268Y-134253996D01*
X141604928Y-134275054D01*
X141604931Y-134275065D01*
X141621737Y-134317514D01*
X141625520Y-134328563D01*
X141638254Y-134372395D01*
X141638255Y-134372397D01*
X141649060Y-134390666D01*
X141657617Y-134408134D01*
X141663226Y-134422300D01*
X141665432Y-134427872D01*
X141692266Y-134464806D01*
X141698678Y-134474568D01*
X141721919Y-134513865D01*
X141721923Y-134513869D01*
X141736925Y-134528871D01*
X141749563Y-134543669D01*
X141762033Y-134560833D01*
X141762036Y-134560837D01*
X141797213Y-134589937D01*
X141805854Y-134597800D01*
X144767564Y-137559510D01*
X144777635Y-137572080D01*
X144777822Y-137571926D01*
X144782795Y-137577937D01*
X144833832Y-137625864D01*
X144836629Y-137628575D01*
X144856967Y-137648913D01*
X144860450Y-137651615D01*
X144869326Y-137659196D01*
X144895145Y-137683441D01*
X144902607Y-137690448D01*
X144902610Y-137690450D01*
X144902612Y-137690451D01*
X144921207Y-137700674D01*
X144937468Y-137711356D01*
X144954232Y-137724359D01*
X144954236Y-137724362D01*
X144996138Y-137742494D01*
X145006612Y-137747625D01*
X145046632Y-137769627D01*
X145067204Y-137774908D01*
X145085594Y-137781205D01*
X145105074Y-137789635D01*
X145150175Y-137796777D01*
X145161586Y-137799141D01*
X145205823Y-137810500D01*
X145227045Y-137810500D01*
X145246444Y-137812026D01*
X145267405Y-137815347D01*
X145312860Y-137811050D01*
X145324530Y-137810500D01*
X167725025Y-137810500D01*
X167792064Y-137830185D01*
X167797910Y-137834182D01*
X167949265Y-137944148D01*
X167949270Y-137944151D01*
X168122192Y-138021142D01*
X168122197Y-138021144D01*
X168307354Y-138060500D01*
X168307355Y-138060500D01*
X168496644Y-138060500D01*
X168496646Y-138060500D01*
X168681803Y-138021144D01*
X168854730Y-137944151D01*
X169007871Y-137832888D01*
X169134533Y-137692216D01*
X169190956Y-137594488D01*
X169241518Y-137546276D01*
X169310125Y-137533052D01*
X169374990Y-137559019D01*
X169386021Y-137568810D01*
X170875283Y-139058072D01*
X170894989Y-139083753D01*
X170971465Y-139216214D01*
X171098129Y-139356888D01*
X171251265Y-139468148D01*
X171251270Y-139468151D01*
X171424192Y-139545142D01*
X171424197Y-139545144D01*
X171609354Y-139584500D01*
X171609355Y-139584500D01*
X171798644Y-139584500D01*
X171798646Y-139584500D01*
X171983803Y-139545144D01*
X172156730Y-139468151D01*
X172309871Y-139356888D01*
X172436533Y-139216216D01*
X172531179Y-139052284D01*
X172589674Y-138872256D01*
X172609460Y-138684000D01*
X172589674Y-138495744D01*
X172531179Y-138315716D01*
X172436533Y-138151784D01*
X172309871Y-138011112D01*
X172309870Y-138011111D01*
X172156730Y-137899848D01*
X172116269Y-137881834D01*
X172079024Y-137856236D01*
X166702970Y-132480181D01*
X166669485Y-132418858D01*
X166674469Y-132349166D01*
X166716341Y-132293233D01*
X166781805Y-132268816D01*
X166790651Y-132268500D01*
X173604785Y-132268500D01*
X173626742Y-132271562D01*
X173635788Y-132272399D01*
X173635793Y-132272401D01*
X173672183Y-132269028D01*
X173683624Y-132268500D01*
X173691845Y-132268500D01*
X173694407Y-132268020D01*
X173699921Y-132266989D01*
X173711259Y-132265407D01*
X173747660Y-132262035D01*
X173747666Y-132262031D01*
X173756421Y-132259541D01*
X173765940Y-132256350D01*
X173774431Y-132253061D01*
X173774433Y-132253061D01*
X173805521Y-132233811D01*
X173815498Y-132228254D01*
X173848228Y-132211958D01*
X173848230Y-132211954D01*
X173855523Y-132206448D01*
X173863197Y-132200076D01*
X173869949Y-132193921D01*
X173869949Y-132193920D01*
X173869952Y-132193919D01*
X173891990Y-132164734D01*
X173899275Y-132155961D01*
X173923916Y-132128933D01*
X173923918Y-132128927D01*
X173928721Y-132121170D01*
X173933579Y-132112448D01*
X173937651Y-132104269D01*
X173937656Y-132104264D01*
X173947663Y-132069089D01*
X173951289Y-132058270D01*
X173964500Y-132024173D01*
X173964500Y-132024171D01*
X173964501Y-132024169D01*
X173966172Y-132015229D01*
X173967561Y-132005276D01*
X173968401Y-131996207D01*
X173965029Y-131959817D01*
X173964500Y-131948376D01*
X173964500Y-131939793D01*
X183409599Y-131939793D01*
X183411238Y-131957482D01*
X183412971Y-131976182D01*
X183413500Y-131987623D01*
X183413500Y-131995843D01*
X183413501Y-131995854D01*
X183415011Y-132003937D01*
X183416591Y-132015264D01*
X183419964Y-132051658D01*
X183422443Y-132060372D01*
X183425667Y-132069989D01*
X183428938Y-132078432D01*
X183428939Y-132078433D01*
X183444933Y-132104265D01*
X183448177Y-132109503D01*
X183453746Y-132119502D01*
X183458442Y-132128931D01*
X183470041Y-132152228D01*
X183475526Y-132159490D01*
X183481957Y-132167235D01*
X183488080Y-132173951D01*
X183517249Y-132195979D01*
X183526057Y-132203293D01*
X183530723Y-132207546D01*
X183553069Y-132227918D01*
X183560797Y-132232702D01*
X183569580Y-132237594D01*
X183577732Y-132241653D01*
X183577736Y-132241656D01*
X183612895Y-132251659D01*
X183623742Y-132255295D01*
X183657827Y-132268500D01*
X183657828Y-132268500D01*
X183666755Y-132270169D01*
X183676742Y-132271562D01*
X183685788Y-132272399D01*
X183685793Y-132272401D01*
X183722183Y-132269028D01*
X183733624Y-132268500D01*
X192654785Y-132268500D01*
X192676742Y-132271562D01*
X192685788Y-132272399D01*
X192685793Y-132272401D01*
X192722183Y-132269028D01*
X192733624Y-132268500D01*
X192741845Y-132268500D01*
X192744407Y-132268020D01*
X192749921Y-132266989D01*
X192761259Y-132265407D01*
X192797660Y-132262035D01*
X192797666Y-132262031D01*
X192806421Y-132259541D01*
X192815940Y-132256350D01*
X192824431Y-132253061D01*
X192824433Y-132253061D01*
X192855521Y-132233811D01*
X192865498Y-132228254D01*
X192898228Y-132211958D01*
X192898230Y-132211954D01*
X192905523Y-132206448D01*
X192913197Y-132200076D01*
X192919949Y-132193921D01*
X192919949Y-132193920D01*
X192919952Y-132193919D01*
X192941990Y-132164734D01*
X192949275Y-132155961D01*
X192973916Y-132128933D01*
X192973918Y-132128927D01*
X192978721Y-132121170D01*
X192983579Y-132112448D01*
X192987651Y-132104269D01*
X192987656Y-132104264D01*
X192997663Y-132069089D01*
X193001289Y-132058270D01*
X193014500Y-132024173D01*
X193014500Y-132024171D01*
X193014501Y-132024169D01*
X193016172Y-132015229D01*
X193017561Y-132005276D01*
X193018401Y-131996207D01*
X193015029Y-131959817D01*
X193014500Y-131948376D01*
X193014500Y-131897870D01*
X211499500Y-131897870D01*
X211499501Y-131897876D01*
X211505908Y-131957483D01*
X211556202Y-132092328D01*
X211556206Y-132092335D01*
X211642452Y-132207544D01*
X211642455Y-132207547D01*
X211757664Y-132293793D01*
X211757671Y-132293797D01*
X211892517Y-132344091D01*
X211892516Y-132344091D01*
X211899444Y-132344835D01*
X211952127Y-132350500D01*
X215047872Y-132350499D01*
X215107483Y-132344091D01*
X215242331Y-132293796D01*
X215357546Y-132207546D01*
X215443796Y-132092331D01*
X215494091Y-131957483D01*
X215500500Y-131897873D01*
X215500499Y-129302128D01*
X215494091Y-129242517D01*
X215489781Y-129230962D01*
X215443797Y-129107671D01*
X215443793Y-129107664D01*
X215357547Y-128992455D01*
X215357544Y-128992452D01*
X215242335Y-128906206D01*
X215242328Y-128906202D01*
X215107482Y-128855908D01*
X215107483Y-128855908D01*
X215047883Y-128849501D01*
X215047881Y-128849500D01*
X215047873Y-128849500D01*
X215047864Y-128849500D01*
X211952129Y-128849500D01*
X211952123Y-128849501D01*
X211892516Y-128855908D01*
X211757671Y-128906202D01*
X211757664Y-128906206D01*
X211642455Y-128992452D01*
X211642452Y-128992455D01*
X211556206Y-129107664D01*
X211556202Y-129107671D01*
X211505908Y-129242517D01*
X211499501Y-129302116D01*
X211499501Y-129302123D01*
X211499500Y-129302135D01*
X211499500Y-131897870D01*
X193014500Y-131897870D01*
X193014500Y-131096997D01*
X193034185Y-131029958D01*
X193086989Y-130984203D01*
X193156147Y-130974259D01*
X193219703Y-131003284D01*
X193226181Y-131009316D01*
X193400594Y-131183729D01*
X193400612Y-131183745D01*
X193629682Y-131355224D01*
X193629690Y-131355229D01*
X193880833Y-131492364D01*
X193880832Y-131492364D01*
X193880836Y-131492365D01*
X193880839Y-131492367D01*
X194148954Y-131592369D01*
X194148960Y-131592370D01*
X194148962Y-131592371D01*
X194428566Y-131653195D01*
X194428568Y-131653195D01*
X194428572Y-131653196D01*
X194682220Y-131671337D01*
X194713999Y-131673610D01*
X194714000Y-131673610D01*
X194714001Y-131673610D01*
X194742595Y-131671564D01*
X194999428Y-131653196D01*
X195009804Y-131650939D01*
X195279037Y-131592371D01*
X195279037Y-131592370D01*
X195279046Y-131592369D01*
X195547161Y-131492367D01*
X195798315Y-131355226D01*
X196027395Y-131183739D01*
X196229739Y-130981395D01*
X196401226Y-130752315D01*
X196538367Y-130501161D01*
X196638369Y-130233046D01*
X196699196Y-129953428D01*
X196719610Y-129668000D01*
X196699196Y-129382572D01*
X196697081Y-129372851D01*
X196638371Y-129102962D01*
X196638370Y-129102960D01*
X196638369Y-129102954D01*
X196538367Y-128834839D01*
X196497760Y-128760474D01*
X196401229Y-128583690D01*
X196401224Y-128583682D01*
X196229745Y-128354612D01*
X196229729Y-128354594D01*
X196027405Y-128152270D01*
X196027387Y-128152254D01*
X195798317Y-127980775D01*
X195798309Y-127980770D01*
X195547166Y-127843635D01*
X195547167Y-127843635D01*
X195404411Y-127790390D01*
X195279046Y-127743631D01*
X195279043Y-127743630D01*
X195279037Y-127743628D01*
X194999433Y-127682804D01*
X194714001Y-127662390D01*
X194713999Y-127662390D01*
X194428566Y-127682804D01*
X194148962Y-127743628D01*
X193880833Y-127843635D01*
X193629690Y-127980770D01*
X193629682Y-127980775D01*
X193400612Y-128152254D01*
X193400594Y-128152270D01*
X193226181Y-128326684D01*
X193164858Y-128360169D01*
X193095166Y-128355185D01*
X193039233Y-128313313D01*
X193014816Y-128247849D01*
X193014500Y-128239003D01*
X193014500Y-127500005D01*
X204994859Y-127500005D01*
X205015385Y-127747729D01*
X205015387Y-127747738D01*
X205076412Y-127988717D01*
X205176266Y-128216364D01*
X205276564Y-128369882D01*
X206016923Y-127629523D01*
X206040507Y-127709844D01*
X206118239Y-127830798D01*
X206226900Y-127924952D01*
X206357685Y-127984680D01*
X206367466Y-127986086D01*
X205629942Y-128723609D01*
X205676768Y-128760055D01*
X205676770Y-128760056D01*
X205895385Y-128878364D01*
X205895396Y-128878369D01*
X206130506Y-128959083D01*
X206375707Y-129000000D01*
X206624293Y-129000000D01*
X206869493Y-128959083D01*
X207104603Y-128878369D01*
X207104614Y-128878364D01*
X207323228Y-128760057D01*
X207323231Y-128760055D01*
X207370056Y-128723609D01*
X206632533Y-127986086D01*
X206642315Y-127984680D01*
X206773100Y-127924952D01*
X206881761Y-127830798D01*
X206959493Y-127709844D01*
X206983076Y-127629524D01*
X207723434Y-128369882D01*
X207823731Y-128216369D01*
X207923587Y-127988717D01*
X207984612Y-127747738D01*
X207984614Y-127747729D01*
X208005141Y-127500005D01*
X219494357Y-127500005D01*
X219514890Y-127747812D01*
X219514892Y-127747824D01*
X219575936Y-127988881D01*
X219675826Y-128216606D01*
X219811833Y-128424782D01*
X219811836Y-128424785D01*
X219980256Y-128607738D01*
X220176491Y-128760474D01*
X220176493Y-128760475D01*
X220394332Y-128878364D01*
X220395190Y-128878828D01*
X220614141Y-128953994D01*
X220628964Y-128959083D01*
X220630386Y-128959571D01*
X220875665Y-129000500D01*
X221124335Y-129000500D01*
X221369614Y-128959571D01*
X221604810Y-128878828D01*
X221823509Y-128760474D01*
X222019744Y-128607738D01*
X222188164Y-128424785D01*
X222324173Y-128216607D01*
X222424063Y-127988881D01*
X222485108Y-127747821D01*
X222485455Y-127743631D01*
X222505643Y-127500005D01*
X222505643Y-127499994D01*
X222485109Y-127252187D01*
X222485107Y-127252175D01*
X222424063Y-127011118D01*
X222324173Y-126783393D01*
X222188166Y-126575217D01*
X222070325Y-126447208D01*
X222019744Y-126392262D01*
X221930194Y-126322562D01*
X221918623Y-126313556D01*
X221877810Y-126256846D01*
X221873697Y-126227249D01*
X221132533Y-125486086D01*
X221142315Y-125484680D01*
X221273100Y-125424952D01*
X221381761Y-125330798D01*
X221459493Y-125209844D01*
X221483076Y-125129524D01*
X222223434Y-125869882D01*
X222323731Y-125716369D01*
X222423587Y-125488717D01*
X222484612Y-125247738D01*
X222484614Y-125247729D01*
X222505141Y-125000005D01*
X222505141Y-124999994D01*
X222484614Y-124752270D01*
X222484612Y-124752261D01*
X222423587Y-124511282D01*
X222323732Y-124283632D01*
X222211515Y-124111870D01*
X222191328Y-124044981D01*
X222210508Y-123977795D01*
X222241013Y-123944782D01*
X222242329Y-123943796D01*
X222242331Y-123943796D01*
X222357546Y-123857546D01*
X222443796Y-123742331D01*
X222494091Y-123607483D01*
X222500500Y-123547873D01*
X222500499Y-121452128D01*
X222494091Y-121392517D01*
X222479097Y-121352317D01*
X222443797Y-121257671D01*
X222443793Y-121257664D01*
X222357547Y-121142455D01*
X222357544Y-121142452D01*
X222242335Y-121056206D01*
X222242328Y-121056202D01*
X222107482Y-121005908D01*
X222107483Y-121005908D01*
X222047883Y-120999501D01*
X222047881Y-120999500D01*
X222047873Y-120999500D01*
X222047864Y-120999500D01*
X219952129Y-120999500D01*
X219952123Y-120999501D01*
X219892516Y-121005908D01*
X219757671Y-121056202D01*
X219757664Y-121056206D01*
X219642455Y-121142452D01*
X219642452Y-121142455D01*
X219556206Y-121257664D01*
X219556202Y-121257671D01*
X219505908Y-121392517D01*
X219499501Y-121452116D01*
X219499501Y-121452123D01*
X219499500Y-121452135D01*
X219499500Y-123547870D01*
X219499501Y-123547876D01*
X219505908Y-123607483D01*
X219556202Y-123742328D01*
X219556206Y-123742335D01*
X219642452Y-123857544D01*
X219642455Y-123857547D01*
X219758986Y-123944783D01*
X219800857Y-124000717D01*
X219805841Y-124070408D01*
X219788484Y-124111870D01*
X219676267Y-124283631D01*
X219576412Y-124511282D01*
X219515387Y-124752261D01*
X219515385Y-124752270D01*
X219494859Y-124999994D01*
X219494859Y-125000005D01*
X219515385Y-125247729D01*
X219515387Y-125247738D01*
X219576412Y-125488717D01*
X219676266Y-125716364D01*
X219776564Y-125869882D01*
X220516922Y-125129523D01*
X220540507Y-125209844D01*
X220618239Y-125330798D01*
X220726900Y-125424952D01*
X220857685Y-125484680D01*
X220867466Y-125486086D01*
X220124100Y-126229450D01*
X220113482Y-126276148D01*
X220081376Y-126313556D01*
X219980255Y-126392262D01*
X219811833Y-126575217D01*
X219675826Y-126783393D01*
X219575936Y-127011118D01*
X219514892Y-127252175D01*
X219514890Y-127252187D01*
X219494357Y-127499994D01*
X219494357Y-127500005D01*
X208005141Y-127500005D01*
X208005141Y-127499994D01*
X207984614Y-127252270D01*
X207984612Y-127252261D01*
X207923587Y-127011282D01*
X207823731Y-126783630D01*
X207723434Y-126630116D01*
X206983076Y-127370475D01*
X206959493Y-127290156D01*
X206881761Y-127169202D01*
X206773100Y-127075048D01*
X206642315Y-127015320D01*
X206632534Y-127013913D01*
X207370057Y-126276390D01*
X207370056Y-126276389D01*
X207323229Y-126239943D01*
X207104614Y-126121635D01*
X207104603Y-126121630D01*
X206869493Y-126040916D01*
X206624293Y-126000000D01*
X206375707Y-126000000D01*
X206130506Y-126040916D01*
X205895396Y-126121630D01*
X205895390Y-126121632D01*
X205676761Y-126239949D01*
X205629942Y-126276388D01*
X205629942Y-126276390D01*
X206367466Y-127013913D01*
X206357685Y-127015320D01*
X206226900Y-127075048D01*
X206118239Y-127169202D01*
X206040507Y-127290156D01*
X206016923Y-127370475D01*
X205276564Y-126630116D01*
X205176267Y-126783632D01*
X205076412Y-127011282D01*
X205015387Y-127252261D01*
X205015385Y-127252270D01*
X204994859Y-127499994D01*
X204994859Y-127500005D01*
X193014500Y-127500005D01*
X193014500Y-126319208D01*
X193034185Y-126252169D01*
X193086989Y-126206414D01*
X193129746Y-126198699D01*
X194036803Y-125291641D01*
X194060059Y-125345553D01*
X194164756Y-125486185D01*
X194299062Y-125598882D01*
X194390665Y-125644886D01*
X193487436Y-126548115D01*
X193629960Y-126654807D01*
X193629961Y-126654808D01*
X193881042Y-126791908D01*
X193881041Y-126791908D01*
X194149104Y-126891890D01*
X194428637Y-126952699D01*
X194713999Y-126973109D01*
X194714001Y-126973109D01*
X194999362Y-126952699D01*
X195278895Y-126891890D01*
X195546958Y-126791908D01*
X195798047Y-126654803D01*
X195940561Y-126548116D01*
X195940562Y-126548115D01*
X195039946Y-125647498D01*
X195052891Y-125642787D01*
X195199373Y-125546445D01*
X195319688Y-125418918D01*
X195392447Y-125292894D01*
X196294115Y-126194562D01*
X196294116Y-126194561D01*
X196400803Y-126052047D01*
X196537908Y-125800958D01*
X196637890Y-125532895D01*
X196698699Y-125253362D01*
X196719109Y-124968001D01*
X196719109Y-124967998D01*
X196698699Y-124682637D01*
X196637890Y-124403104D01*
X196537908Y-124135041D01*
X196400808Y-123883961D01*
X196400807Y-123883960D01*
X196294115Y-123741436D01*
X195391195Y-124644356D01*
X195367941Y-124590447D01*
X195263244Y-124449815D01*
X195128938Y-124337118D01*
X195037333Y-124291112D01*
X195940562Y-123387883D01*
X195940561Y-123387882D01*
X195798046Y-123281196D01*
X195798038Y-123281191D01*
X195546957Y-123144091D01*
X195546958Y-123144091D01*
X195278895Y-123044109D01*
X194999362Y-122983300D01*
X194714001Y-122962891D01*
X194713999Y-122962891D01*
X194428637Y-122983300D01*
X194149104Y-123044109D01*
X193881041Y-123144091D01*
X193629961Y-123281191D01*
X193629953Y-123281196D01*
X193487437Y-123387882D01*
X193487436Y-123387883D01*
X194388054Y-124288501D01*
X194375109Y-124293213D01*
X194228627Y-124389555D01*
X194108312Y-124517082D01*
X194035552Y-124643105D01*
X193128910Y-123736463D01*
X193079073Y-123725622D01*
X193029668Y-123676217D01*
X193014500Y-123616790D01*
X193014500Y-122500005D01*
X204994357Y-122500005D01*
X205014890Y-122747812D01*
X205014892Y-122747824D01*
X205075936Y-122988881D01*
X205175826Y-123216606D01*
X205311833Y-123424782D01*
X205311836Y-123424785D01*
X205480256Y-123607738D01*
X205676491Y-123760474D01*
X205895190Y-123878828D01*
X206130386Y-123959571D01*
X206375665Y-124000500D01*
X206624335Y-124000500D01*
X206869614Y-123959571D01*
X207104810Y-123878828D01*
X207323509Y-123760474D01*
X207519744Y-123607738D01*
X207688164Y-123424785D01*
X207824173Y-123216607D01*
X207924063Y-122988881D01*
X207985108Y-122747821D01*
X208005643Y-122500000D01*
X207997490Y-122401610D01*
X207985109Y-122252187D01*
X207985107Y-122252175D01*
X207924063Y-122011118D01*
X207824173Y-121783393D01*
X207688166Y-121575217D01*
X207600802Y-121480315D01*
X207519744Y-121392262D01*
X207323509Y-121239526D01*
X207323507Y-121239525D01*
X207323506Y-121239524D01*
X207104811Y-121121172D01*
X207104802Y-121121169D01*
X206869616Y-121040429D01*
X206624335Y-120999500D01*
X206375665Y-120999500D01*
X206130383Y-121040429D01*
X205895197Y-121121169D01*
X205895188Y-121121172D01*
X205676493Y-121239524D01*
X205480257Y-121392261D01*
X205311833Y-121575217D01*
X205175826Y-121783393D01*
X205075936Y-122011118D01*
X205014892Y-122252175D01*
X205014890Y-122252187D01*
X204994357Y-122499994D01*
X204994357Y-122500005D01*
X193014500Y-122500005D01*
X193014500Y-121696997D01*
X193034185Y-121629958D01*
X193086989Y-121584203D01*
X193156147Y-121574259D01*
X193219703Y-121603284D01*
X193226181Y-121609316D01*
X193400594Y-121783729D01*
X193400612Y-121783745D01*
X193629682Y-121955224D01*
X193629690Y-121955229D01*
X193880833Y-122092364D01*
X193880832Y-122092364D01*
X193880836Y-122092365D01*
X193880839Y-122092367D01*
X194148954Y-122192369D01*
X194148960Y-122192370D01*
X194148962Y-122192371D01*
X194428566Y-122253195D01*
X194428568Y-122253195D01*
X194428572Y-122253196D01*
X194682220Y-122271337D01*
X194713999Y-122273610D01*
X194714000Y-122273610D01*
X194714001Y-122273610D01*
X194742595Y-122271564D01*
X194999428Y-122253196D01*
X195004067Y-122252187D01*
X195279037Y-122192371D01*
X195279037Y-122192370D01*
X195279046Y-122192369D01*
X195547161Y-122092367D01*
X195798315Y-121955226D01*
X196027395Y-121783739D01*
X196229739Y-121581395D01*
X196401226Y-121352315D01*
X196538367Y-121101161D01*
X196638369Y-120833046D01*
X196667775Y-120697870D01*
X211499500Y-120697870D01*
X211499501Y-120697876D01*
X211505908Y-120757483D01*
X211556202Y-120892328D01*
X211556206Y-120892335D01*
X211642452Y-121007544D01*
X211642455Y-121007547D01*
X211757664Y-121093793D01*
X211757671Y-121093797D01*
X211892517Y-121144091D01*
X211892516Y-121144091D01*
X211899444Y-121144835D01*
X211952127Y-121150500D01*
X215047872Y-121150499D01*
X215107483Y-121144091D01*
X215242331Y-121093796D01*
X215357546Y-121007546D01*
X215443796Y-120892331D01*
X215494091Y-120757483D01*
X215500500Y-120697873D01*
X215500499Y-118102128D01*
X215494091Y-118042517D01*
X215493087Y-118039826D01*
X215443797Y-117907671D01*
X215443793Y-117907664D01*
X215357547Y-117792455D01*
X215357544Y-117792452D01*
X215242335Y-117706206D01*
X215242328Y-117706202D01*
X215107482Y-117655908D01*
X215107483Y-117655908D01*
X215047883Y-117649501D01*
X215047881Y-117649500D01*
X215047873Y-117649500D01*
X215047864Y-117649500D01*
X211952129Y-117649500D01*
X211952123Y-117649501D01*
X211892516Y-117655908D01*
X211757671Y-117706202D01*
X211757664Y-117706206D01*
X211642455Y-117792452D01*
X211642452Y-117792455D01*
X211556206Y-117907664D01*
X211556202Y-117907671D01*
X211505908Y-118042517D01*
X211499501Y-118102116D01*
X211499501Y-118102123D01*
X211499500Y-118102135D01*
X211499500Y-120697870D01*
X196667775Y-120697870D01*
X196699196Y-120553428D01*
X196719610Y-120268000D01*
X196699196Y-119982572D01*
X196666215Y-119830962D01*
X196638371Y-119702962D01*
X196638370Y-119702960D01*
X196638369Y-119702954D01*
X196538367Y-119434839D01*
X196471122Y-119311690D01*
X196401229Y-119183690D01*
X196401224Y-119183682D01*
X196229745Y-118954612D01*
X196229729Y-118954594D01*
X196027405Y-118752270D01*
X196027387Y-118752254D01*
X195798317Y-118580775D01*
X195798309Y-118580770D01*
X195547166Y-118443635D01*
X195547167Y-118443635D01*
X195404411Y-118390390D01*
X195279046Y-118343631D01*
X195279043Y-118343630D01*
X195279037Y-118343628D01*
X194999433Y-118282804D01*
X194714001Y-118262390D01*
X194713999Y-118262390D01*
X194428566Y-118282804D01*
X194148962Y-118343628D01*
X193880833Y-118443635D01*
X193629690Y-118580770D01*
X193629682Y-118580775D01*
X193400612Y-118752254D01*
X193400594Y-118752270D01*
X193226181Y-118926684D01*
X193164858Y-118960169D01*
X193095166Y-118955185D01*
X193039233Y-118913313D01*
X193014816Y-118847849D01*
X193014500Y-118839003D01*
X193014500Y-118027216D01*
X193017561Y-118005276D01*
X193018401Y-117996207D01*
X193015029Y-117959817D01*
X193014500Y-117948376D01*
X193014500Y-117940155D01*
X193012990Y-117932079D01*
X193011407Y-117920731D01*
X193008035Y-117884340D01*
X193005548Y-117875599D01*
X193002350Y-117866059D01*
X192999061Y-117857570D01*
X192999061Y-117857567D01*
X192999059Y-117857564D01*
X192999058Y-117857561D01*
X192979821Y-117826492D01*
X192974252Y-117816496D01*
X192957958Y-117783772D01*
X192957956Y-117783770D01*
X192957955Y-117783768D01*
X192952475Y-117776511D01*
X192946061Y-117768786D01*
X192939916Y-117762045D01*
X192910750Y-117740020D01*
X192901949Y-117732712D01*
X192874933Y-117708084D01*
X192874931Y-117708083D01*
X192874929Y-117708081D01*
X192867232Y-117703315D01*
X192858390Y-117698390D01*
X192850264Y-117694343D01*
X192815120Y-117684344D01*
X192804265Y-117680706D01*
X192770172Y-117667499D01*
X192761236Y-117665829D01*
X192751257Y-117664437D01*
X192742208Y-117663599D01*
X192742207Y-117663599D01*
X192708493Y-117666723D01*
X192705817Y-117666971D01*
X192694376Y-117667500D01*
X183773215Y-117667500D01*
X183751257Y-117664437D01*
X183742208Y-117663599D01*
X183742207Y-117663599D01*
X183708493Y-117666723D01*
X183705817Y-117666971D01*
X183694376Y-117667500D01*
X183686154Y-117667500D01*
X183678069Y-117669011D01*
X183666739Y-117670591D01*
X183630339Y-117673964D01*
X183621644Y-117676438D01*
X183612008Y-117679668D01*
X183603563Y-117682940D01*
X183572494Y-117702176D01*
X183562496Y-117707746D01*
X183529769Y-117724042D01*
X183522547Y-117729496D01*
X183514751Y-117735970D01*
X183508044Y-117742084D01*
X183486026Y-117771241D01*
X183478713Y-117780048D01*
X183454085Y-117807064D01*
X183449322Y-117814756D01*
X183444385Y-117823620D01*
X183440343Y-117831737D01*
X183430343Y-117866884D01*
X183426704Y-117877741D01*
X183413499Y-117911826D01*
X183411829Y-117920762D01*
X183410437Y-117930745D01*
X183409599Y-117939791D01*
X183409599Y-117939792D01*
X183409599Y-117939793D01*
X183410961Y-117954492D01*
X183412971Y-117976182D01*
X183413500Y-117987623D01*
X183413500Y-131908784D01*
X183410437Y-131930745D01*
X183409599Y-131939791D01*
X183409599Y-131939792D01*
X183409599Y-131939793D01*
X173964500Y-131939793D01*
X173964500Y-131096997D01*
X173984185Y-131029958D01*
X174036989Y-130984203D01*
X174106147Y-130974259D01*
X174169703Y-131003284D01*
X174176181Y-131009316D01*
X174350594Y-131183729D01*
X174350612Y-131183745D01*
X174579682Y-131355224D01*
X174579690Y-131355229D01*
X174830833Y-131492364D01*
X174830832Y-131492364D01*
X174830836Y-131492365D01*
X174830839Y-131492367D01*
X175098954Y-131592369D01*
X175098960Y-131592370D01*
X175098962Y-131592371D01*
X175378566Y-131653195D01*
X175378568Y-131653195D01*
X175378572Y-131653196D01*
X175632220Y-131671337D01*
X175663999Y-131673610D01*
X175664000Y-131673610D01*
X175664001Y-131673610D01*
X175692595Y-131671564D01*
X175949428Y-131653196D01*
X175959804Y-131650939D01*
X176229037Y-131592371D01*
X176229037Y-131592370D01*
X176229046Y-131592369D01*
X176497161Y-131492367D01*
X176748315Y-131355226D01*
X176977395Y-131183739D01*
X177179739Y-130981395D01*
X177351226Y-130752315D01*
X177488367Y-130501161D01*
X177588369Y-130233046D01*
X177649196Y-129953428D01*
X177669610Y-129668000D01*
X177649196Y-129382572D01*
X177647081Y-129372851D01*
X177588371Y-129102962D01*
X177588370Y-129102960D01*
X177588369Y-129102954D01*
X177488367Y-128834839D01*
X177447760Y-128760474D01*
X177351229Y-128583690D01*
X177351224Y-128583682D01*
X177179745Y-128354612D01*
X177179729Y-128354594D01*
X176977405Y-128152270D01*
X176977387Y-128152254D01*
X176748317Y-127980775D01*
X176748309Y-127980770D01*
X176497166Y-127843635D01*
X176497167Y-127843635D01*
X176354411Y-127790390D01*
X176229046Y-127743631D01*
X176229043Y-127743630D01*
X176229037Y-127743628D01*
X175949433Y-127682804D01*
X175664001Y-127662390D01*
X175663999Y-127662390D01*
X175378566Y-127682804D01*
X175098962Y-127743628D01*
X174830833Y-127843635D01*
X174579690Y-127980770D01*
X174579682Y-127980775D01*
X174350612Y-128152254D01*
X174350594Y-128152270D01*
X174176181Y-128326684D01*
X174114858Y-128360169D01*
X174045166Y-128355185D01*
X173989233Y-128313313D01*
X173964816Y-128247849D01*
X173964500Y-128239003D01*
X173964500Y-126319208D01*
X173984185Y-126252169D01*
X174036989Y-126206414D01*
X174079746Y-126198699D01*
X174986803Y-125291641D01*
X175010059Y-125345553D01*
X175114756Y-125486185D01*
X175249062Y-125598882D01*
X175340665Y-125644886D01*
X174437436Y-126548115D01*
X174579960Y-126654807D01*
X174579961Y-126654808D01*
X174831042Y-126791908D01*
X174831041Y-126791908D01*
X175099104Y-126891890D01*
X175378637Y-126952699D01*
X175663999Y-126973109D01*
X175664001Y-126973109D01*
X175949362Y-126952699D01*
X176228895Y-126891890D01*
X176496958Y-126791908D01*
X176748047Y-126654803D01*
X176890561Y-126548116D01*
X176890562Y-126548115D01*
X175989946Y-125647498D01*
X176002891Y-125642787D01*
X176149373Y-125546445D01*
X176269688Y-125418918D01*
X176342447Y-125292894D01*
X177244115Y-126194562D01*
X177244116Y-126194561D01*
X177350803Y-126052047D01*
X177487908Y-125800958D01*
X177587890Y-125532895D01*
X177648699Y-125253362D01*
X177669109Y-124968001D01*
X177669109Y-124967998D01*
X177648699Y-124682637D01*
X177587890Y-124403104D01*
X177487908Y-124135041D01*
X177350808Y-123883961D01*
X177350807Y-123883960D01*
X177244115Y-123741436D01*
X176341195Y-124644356D01*
X176317941Y-124590447D01*
X176213244Y-124449815D01*
X176078938Y-124337118D01*
X175987333Y-124291112D01*
X176890562Y-123387883D01*
X176890561Y-123387882D01*
X176748046Y-123281196D01*
X176748038Y-123281191D01*
X176496957Y-123144091D01*
X176496958Y-123144091D01*
X176228895Y-123044109D01*
X175949362Y-122983300D01*
X175664001Y-122962891D01*
X175663999Y-122962891D01*
X175378637Y-122983300D01*
X175099104Y-123044109D01*
X174831041Y-123144091D01*
X174579961Y-123281191D01*
X174579953Y-123281196D01*
X174437437Y-123387882D01*
X174437436Y-123387883D01*
X175338054Y-124288501D01*
X175325109Y-124293213D01*
X175178627Y-124389555D01*
X175058312Y-124517082D01*
X174985552Y-124643105D01*
X174078910Y-123736463D01*
X174029073Y-123725622D01*
X173979668Y-123676217D01*
X173964500Y-123616790D01*
X173964500Y-121696997D01*
X173984185Y-121629958D01*
X174036989Y-121584203D01*
X174106147Y-121574259D01*
X174169703Y-121603284D01*
X174176181Y-121609316D01*
X174350594Y-121783729D01*
X174350612Y-121783745D01*
X174579682Y-121955224D01*
X174579690Y-121955229D01*
X174830833Y-122092364D01*
X174830832Y-122092364D01*
X174830836Y-122092365D01*
X174830839Y-122092367D01*
X175098954Y-122192369D01*
X175098960Y-122192370D01*
X175098962Y-122192371D01*
X175378566Y-122253195D01*
X175378568Y-122253195D01*
X175378572Y-122253196D01*
X175632220Y-122271337D01*
X175663999Y-122273610D01*
X175664000Y-122273610D01*
X175664001Y-122273610D01*
X175692595Y-122271564D01*
X175949428Y-122253196D01*
X175954067Y-122252187D01*
X176229037Y-122192371D01*
X176229037Y-122192370D01*
X176229046Y-122192369D01*
X176497161Y-122092367D01*
X176748315Y-121955226D01*
X176977395Y-121783739D01*
X177179739Y-121581395D01*
X177351226Y-121352315D01*
X177488367Y-121101161D01*
X177588369Y-120833046D01*
X177649196Y-120553428D01*
X177669610Y-120268000D01*
X177649196Y-119982572D01*
X177616215Y-119830962D01*
X177588371Y-119702962D01*
X177588370Y-119702960D01*
X177588369Y-119702954D01*
X177488367Y-119434839D01*
X177421122Y-119311690D01*
X177351229Y-119183690D01*
X177351224Y-119183682D01*
X177179745Y-118954612D01*
X177179729Y-118954594D01*
X176977405Y-118752270D01*
X176977387Y-118752254D01*
X176748317Y-118580775D01*
X176748309Y-118580770D01*
X176497166Y-118443635D01*
X176497167Y-118443635D01*
X176354411Y-118390390D01*
X176229046Y-118343631D01*
X176229043Y-118343630D01*
X176229037Y-118343628D01*
X175949433Y-118282804D01*
X175664001Y-118262390D01*
X175663999Y-118262390D01*
X175378566Y-118282804D01*
X175098962Y-118343628D01*
X174830833Y-118443635D01*
X174579690Y-118580770D01*
X174579682Y-118580775D01*
X174350612Y-118752254D01*
X174350594Y-118752270D01*
X174176181Y-118926684D01*
X174114858Y-118960169D01*
X174045166Y-118955185D01*
X173989233Y-118913313D01*
X173964816Y-118847849D01*
X173964500Y-118839003D01*
X173964500Y-118027216D01*
X173967561Y-118005276D01*
X173968401Y-117996207D01*
X173965029Y-117959817D01*
X173964500Y-117948376D01*
X173964500Y-117940155D01*
X173962990Y-117932079D01*
X173961407Y-117920731D01*
X173958035Y-117884340D01*
X173955548Y-117875599D01*
X173952350Y-117866059D01*
X173949061Y-117857570D01*
X173949061Y-117857567D01*
X173949059Y-117857564D01*
X173949058Y-117857561D01*
X173929821Y-117826492D01*
X173924252Y-117816496D01*
X173907958Y-117783772D01*
X173907956Y-117783770D01*
X173907955Y-117783768D01*
X173902475Y-117776511D01*
X173896061Y-117768786D01*
X173889916Y-117762045D01*
X173860750Y-117740020D01*
X173851949Y-117732712D01*
X173824933Y-117708084D01*
X173824931Y-117708083D01*
X173824929Y-117708081D01*
X173817232Y-117703315D01*
X173808390Y-117698390D01*
X173800264Y-117694343D01*
X173765120Y-117684344D01*
X173754265Y-117680706D01*
X173720172Y-117667499D01*
X173711236Y-117665829D01*
X173701257Y-117664437D01*
X173692208Y-117663599D01*
X173692207Y-117663599D01*
X173658493Y-117666723D01*
X173655817Y-117666971D01*
X173644376Y-117667500D01*
X164723215Y-117667500D01*
X164701257Y-117664437D01*
X164692208Y-117663599D01*
X164692207Y-117663599D01*
X164658493Y-117666723D01*
X164655817Y-117666971D01*
X164644376Y-117667500D01*
X164636154Y-117667500D01*
X164628069Y-117669011D01*
X164616739Y-117670591D01*
X164580339Y-117673964D01*
X164571644Y-117676438D01*
X164562008Y-117679668D01*
X164553563Y-117682940D01*
X164522494Y-117702176D01*
X164512496Y-117707746D01*
X164479769Y-117724042D01*
X164472547Y-117729496D01*
X164464751Y-117735970D01*
X164458044Y-117742084D01*
X164436026Y-117771241D01*
X164428713Y-117780048D01*
X164404085Y-117807064D01*
X164399322Y-117814756D01*
X164394385Y-117823620D01*
X164390343Y-117831737D01*
X164380343Y-117866884D01*
X164376704Y-117877741D01*
X164363499Y-117911826D01*
X164361829Y-117920762D01*
X164360437Y-117930745D01*
X164359599Y-117939791D01*
X164359599Y-117939792D01*
X164359599Y-117939793D01*
X164360961Y-117954492D01*
X164362971Y-117976182D01*
X164363500Y-117987623D01*
X164363500Y-130801745D01*
X164343815Y-130868784D01*
X164291011Y-130914539D01*
X164221853Y-130924483D01*
X164158297Y-130895458D01*
X164151819Y-130889426D01*
X159890819Y-126628426D01*
X159857334Y-126567103D01*
X159854500Y-126540745D01*
X159854500Y-114685439D01*
X159874185Y-114618400D01*
X159926989Y-114572645D01*
X159935168Y-114569257D01*
X160046326Y-114527798D01*
X160046326Y-114527797D01*
X160046331Y-114527796D01*
X160161546Y-114441546D01*
X160247796Y-114326331D01*
X160298091Y-114191483D01*
X160304500Y-114131873D01*
X160304499Y-113237649D01*
X160324183Y-113170611D01*
X160340814Y-113149973D01*
X160981391Y-112509395D01*
X160988786Y-112502579D01*
X161019906Y-112476146D01*
X161029100Y-112468337D01*
X161077106Y-112405184D01*
X161079131Y-112402593D01*
X161128842Y-112340753D01*
X161128842Y-112340751D01*
X161128844Y-112340750D01*
X161129432Y-112339829D01*
X161140426Y-112322105D01*
X161141045Y-112321075D01*
X161141054Y-112321064D01*
X161174356Y-112249079D01*
X161175795Y-112246077D01*
X161211037Y-112175021D01*
X161211038Y-112175015D01*
X161211040Y-112175012D01*
X161211440Y-112173923D01*
X161218329Y-112154361D01*
X161218729Y-112153172D01*
X161218732Y-112153167D01*
X161235781Y-112075709D01*
X161236546Y-112072445D01*
X161237201Y-112069812D01*
X161255684Y-111995494D01*
X161255684Y-111995490D01*
X161255833Y-111994400D01*
X161258371Y-111973677D01*
X161258500Y-111972497D01*
X161258500Y-111893226D01*
X161258545Y-111889869D01*
X161260693Y-111810564D01*
X161260608Y-111809520D01*
X161258500Y-111787352D01*
X161258500Y-105122050D01*
X161258909Y-105111985D01*
X161263201Y-105059277D01*
X161252490Y-104980668D01*
X161252086Y-104977363D01*
X161243513Y-104898529D01*
X161243280Y-104897470D01*
X161238497Y-104877065D01*
X161238227Y-104875976D01*
X161210877Y-104801530D01*
X161209762Y-104798363D01*
X161207683Y-104792195D01*
X161184444Y-104723223D01*
X161184441Y-104723219D01*
X161184441Y-104723217D01*
X161184006Y-104722275D01*
X161174895Y-104703262D01*
X161174432Y-104702328D01*
X161131721Y-104635508D01*
X161129950Y-104632653D01*
X161089068Y-104564705D01*
X161088457Y-104563902D01*
X161075493Y-104547318D01*
X161074804Y-104546462D01*
X161074800Y-104546455D01*
X161018731Y-104490386D01*
X161016388Y-104487979D01*
X160961849Y-104430402D01*
X160961088Y-104429756D01*
X160943881Y-104415536D01*
X158316957Y-101788612D01*
X158310129Y-101781206D01*
X158275892Y-101740899D01*
X158253334Y-101723751D01*
X158212758Y-101692906D01*
X158210178Y-101690889D01*
X158148310Y-101641158D01*
X158147410Y-101640583D01*
X158129575Y-101629520D01*
X158128620Y-101628946D01*
X158056640Y-101595644D01*
X158053636Y-101594205D01*
X158022270Y-101578649D01*
X157982576Y-101558963D01*
X157981537Y-101558582D01*
X157961716Y-101551602D01*
X157960721Y-101551267D01*
X157883289Y-101534223D01*
X157880020Y-101533457D01*
X157803045Y-101514314D01*
X157802140Y-101514191D01*
X157781062Y-101511610D01*
X157780057Y-101511501D01*
X157780053Y-101511500D01*
X157780048Y-101511500D01*
X157700783Y-101511500D01*
X157697426Y-101511455D01*
X157618120Y-101509306D01*
X157617076Y-101509391D01*
X157594908Y-101511500D01*
X118657606Y-101511500D01*
X118647543Y-101511091D01*
X118643319Y-101510747D01*
X118594834Y-101506798D01*
X118594826Y-101506799D01*
X118516265Y-101517502D01*
X118512936Y-101517910D01*
X118452052Y-101524532D01*
X118434090Y-101526486D01*
X118434086Y-101526487D01*
X118433131Y-101526697D01*
X118412471Y-101531538D01*
X118411538Y-101531770D01*
X118337074Y-101559126D01*
X118333911Y-101560239D01*
X118258784Y-101585553D01*
X118257920Y-101585953D01*
X118238721Y-101595152D01*
X118237882Y-101595569D01*
X118171082Y-101638267D01*
X118168228Y-101640037D01*
X118100268Y-101680927D01*
X118099489Y-101681519D01*
X118082764Y-101694595D01*
X118082014Y-101695198D01*
X118025978Y-101751233D01*
X118023575Y-101753571D01*
X117965956Y-101808153D01*
X117965346Y-101808871D01*
X117951091Y-101826119D01*
X114742610Y-105034599D01*
X114735208Y-105041424D01*
X114694900Y-105075663D01*
X114646924Y-105138772D01*
X114644858Y-105141414D01*
X114595158Y-105203244D01*
X114594649Y-105204041D01*
X114583469Y-105222066D01*
X114582941Y-105222943D01*
X114549642Y-105294916D01*
X114548193Y-105297940D01*
X114512966Y-105368972D01*
X114512582Y-105370017D01*
X114505580Y-105389906D01*
X114505268Y-105390832D01*
X114488219Y-105468282D01*
X114487453Y-105471549D01*
X114468314Y-105548508D01*
X114468191Y-105549416D01*
X114465607Y-105570516D01*
X114465500Y-105571501D01*
X114465500Y-105650772D01*
X114465455Y-105654129D01*
X114463306Y-105733437D01*
X114463389Y-105734447D01*
X114465500Y-105756649D01*
X114465500Y-113966653D01*
X114463866Y-113986715D01*
X114461740Y-113999681D01*
X114461739Y-113999683D01*
X102734500Y-113999683D01*
X102734500Y-92546808D01*
X102754185Y-92479769D01*
X102770819Y-92459127D01*
X103103127Y-92126819D01*
X103164450Y-92093334D01*
X103190808Y-92090500D01*
X165776509Y-92090500D01*
X165792519Y-92092267D01*
X165792542Y-92092026D01*
X165800303Y-92092758D01*
X165800310Y-92092760D01*
X165870276Y-92090560D01*
X165874171Y-92090500D01*
X165902939Y-92090500D01*
X165907301Y-92089948D01*
X165918953Y-92089030D01*
X165964583Y-92087597D01*
X165964586Y-92087596D01*
X165964587Y-92087596D01*
X165972289Y-92086377D01*
X165972586Y-92088254D01*
X166014816Y-92086704D01*
X166014909Y-92085821D01*
X166021110Y-92086473D01*
X166021221Y-92086469D01*
X166021264Y-92086477D01*
X166021366Y-92086499D01*
X166021367Y-92086500D01*
X166021368Y-92086500D01*
X166210658Y-92086500D01*
X166210660Y-92086500D01*
X166395817Y-92047144D01*
X166568744Y-91970151D01*
X166721885Y-91858888D01*
X166848547Y-91718216D01*
X166943193Y-91554284D01*
X167001688Y-91374256D01*
X167021474Y-91186000D01*
X167001688Y-90997744D01*
X166959909Y-90869165D01*
X166957915Y-90799327D01*
X166993995Y-90739494D01*
X167027401Y-90717571D01*
X167070197Y-90698518D01*
X167181722Y-90617490D01*
X167247524Y-90594012D01*
X167315578Y-90609837D01*
X167327474Y-90617481D01*
X167439009Y-90698516D01*
X167441270Y-90700159D01*
X167614192Y-90777150D01*
X167614197Y-90777152D01*
X167799354Y-90816508D01*
X167799355Y-90816508D01*
X167988644Y-90816508D01*
X167988646Y-90816508D01*
X168173803Y-90777152D01*
X168346730Y-90700159D01*
X168499871Y-90588896D01*
X168626533Y-90448224D01*
X168721179Y-90284292D01*
X168779674Y-90104264D01*
X168799460Y-89916008D01*
X168779674Y-89727752D01*
X168721179Y-89547724D01*
X168626533Y-89383792D01*
X168499871Y-89243120D01*
X168499870Y-89243119D01*
X168346734Y-89131859D01*
X168346729Y-89131856D01*
X168173807Y-89054865D01*
X168173802Y-89054863D01*
X168074676Y-89033794D01*
X168013194Y-89000602D01*
X167979418Y-88939439D01*
X167984070Y-88869724D01*
X168025675Y-88813592D01*
X168091022Y-88788863D01*
X168100457Y-88788504D01*
X175091025Y-88788504D01*
X175158064Y-88808189D01*
X175163910Y-88812186D01*
X175315265Y-88922152D01*
X175315270Y-88922155D01*
X175488192Y-88999146D01*
X175488194Y-88999147D01*
X175488195Y-88999147D01*
X175488197Y-88999148D01*
X175503750Y-89002454D01*
X175565232Y-89035644D01*
X175599010Y-89096805D01*
X175594360Y-89166520D01*
X175565653Y-89211425D01*
X174351146Y-90425932D01*
X174348899Y-90428124D01*
X174285446Y-90488442D01*
X174251745Y-90536861D01*
X174246074Y-90544382D01*
X174208802Y-90590092D01*
X174208798Y-90590098D01*
X174194709Y-90617068D01*
X174186582Y-90630483D01*
X174169202Y-90655455D01*
X174145938Y-90709665D01*
X174141898Y-90718172D01*
X174114590Y-90770451D01*
X174114590Y-90770452D01*
X174106220Y-90799701D01*
X174100959Y-90814479D01*
X174088959Y-90842443D01*
X174077088Y-90900211D01*
X174074842Y-90909360D01*
X174058613Y-90966077D01*
X174056302Y-90996426D01*
X174054122Y-91011966D01*
X174048000Y-91041758D01*
X174048000Y-91100740D01*
X174047642Y-91110156D01*
X174043162Y-91168974D01*
X174047006Y-91199149D01*
X174048000Y-91214817D01*
X174048000Y-105651741D01*
X174028315Y-105718780D01*
X174011681Y-105739422D01*
X174010008Y-105741094D01*
X173879769Y-105927095D01*
X173825192Y-105970719D01*
X173755693Y-105977912D01*
X173693339Y-105946390D01*
X173676619Y-105927094D01*
X173546613Y-105741426D01*
X173546608Y-105741420D01*
X173379582Y-105574394D01*
X173186078Y-105438899D01*
X172971992Y-105339070D01*
X172971986Y-105339067D01*
X172758500Y-105281864D01*
X172758500Y-106466618D01*
X172665131Y-106427944D01*
X172547823Y-106412500D01*
X172469177Y-106412500D01*
X172351869Y-106427944D01*
X172258500Y-106466618D01*
X172258500Y-105281864D01*
X172258499Y-105281864D01*
X172045013Y-105339067D01*
X172045007Y-105339070D01*
X171830922Y-105438899D01*
X171830920Y-105438900D01*
X171637426Y-105574386D01*
X171515365Y-105696447D01*
X171454042Y-105729931D01*
X171384350Y-105724947D01*
X171328417Y-105683075D01*
X171311502Y-105652098D01*
X171311007Y-105650772D01*
X171277205Y-105560141D01*
X171262297Y-105520171D01*
X171262293Y-105520164D01*
X171176047Y-105404955D01*
X171176044Y-105404952D01*
X171060835Y-105318706D01*
X171060828Y-105318702D01*
X170925982Y-105268408D01*
X170925983Y-105268408D01*
X170866383Y-105262001D01*
X170866381Y-105262000D01*
X170866373Y-105262000D01*
X170866364Y-105262000D01*
X169070629Y-105262000D01*
X169070623Y-105262001D01*
X169011016Y-105268408D01*
X168876171Y-105318702D01*
X168876164Y-105318706D01*
X168760955Y-105404952D01*
X168760952Y-105404955D01*
X168674706Y-105520164D01*
X168674702Y-105520171D01*
X168624408Y-105655017D01*
X168618001Y-105714616D01*
X168618000Y-105714635D01*
X168618000Y-108310370D01*
X168618001Y-108310376D01*
X168624408Y-108369983D01*
X168674702Y-108504828D01*
X168674706Y-108504835D01*
X168760952Y-108620044D01*
X168760955Y-108620047D01*
X168876164Y-108706293D01*
X168876171Y-108706297D01*
X169011017Y-108756591D01*
X169011016Y-108756591D01*
X169017944Y-108757335D01*
X169070627Y-108763000D01*
X170866372Y-108762999D01*
X170925983Y-108756591D01*
X171060831Y-108706296D01*
X171176046Y-108620046D01*
X171262296Y-108504831D01*
X171311502Y-108372901D01*
X171353372Y-108316968D01*
X171418837Y-108292550D01*
X171487110Y-108307401D01*
X171515365Y-108328553D01*
X171637417Y-108450605D01*
X171830921Y-108586100D01*
X172045007Y-108685929D01*
X172045016Y-108685933D01*
X172258500Y-108743134D01*
X172258500Y-107558381D01*
X172351869Y-107597056D01*
X172469177Y-107612500D01*
X172547823Y-107612500D01*
X172665131Y-107597056D01*
X172758500Y-107558381D01*
X172758500Y-108743133D01*
X172971983Y-108685933D01*
X172971992Y-108685929D01*
X173186077Y-108586100D01*
X173186079Y-108586099D01*
X173379573Y-108450613D01*
X173379579Y-108450608D01*
X173546608Y-108283579D01*
X173546613Y-108283573D01*
X173676619Y-108097905D01*
X173731196Y-108054280D01*
X173800694Y-108047086D01*
X173863049Y-108078609D01*
X173879769Y-108097905D01*
X174010005Y-108283902D01*
X174096087Y-108369983D01*
X174177099Y-108450995D01*
X174273884Y-108518765D01*
X174370665Y-108586532D01*
X174370667Y-108586533D01*
X174370670Y-108586535D01*
X174584837Y-108686403D01*
X174813092Y-108747563D01*
X174989534Y-108763000D01*
X175048499Y-108768159D01*
X175048500Y-108768159D01*
X175048501Y-108768159D01*
X175107466Y-108763000D01*
X175283908Y-108747563D01*
X175512163Y-108686403D01*
X175726329Y-108586535D01*
X175919901Y-108450995D01*
X176086995Y-108283901D01*
X176222535Y-108090329D01*
X176322403Y-107876163D01*
X176383563Y-107647908D01*
X176399000Y-107471466D01*
X176399000Y-106553534D01*
X176383563Y-106377092D01*
X176322403Y-106148837D01*
X176222535Y-105934671D01*
X176217231Y-105927095D01*
X176086994Y-105741097D01*
X176085319Y-105739422D01*
X176084815Y-105738500D01*
X176083514Y-105736949D01*
X176083825Y-105736687D01*
X176051834Y-105678099D01*
X176049000Y-105651741D01*
X176049000Y-91609283D01*
X176068685Y-91542244D01*
X176085319Y-91521602D01*
X181500921Y-86106000D01*
X218296540Y-86106000D01*
X218316326Y-86294256D01*
X218316327Y-86294259D01*
X218374818Y-86474277D01*
X218374821Y-86474284D01*
X218469466Y-86638215D01*
X218519649Y-86693948D01*
X218549880Y-86756940D01*
X218551500Y-86776921D01*
X218551500Y-89322494D01*
X218549732Y-89338505D01*
X218549974Y-89338528D01*
X218549240Y-89346294D01*
X218549240Y-89346296D01*
X218550419Y-89383793D01*
X218551439Y-89416262D01*
X218551500Y-89420157D01*
X218551500Y-89448920D01*
X218551501Y-89448938D01*
X218552053Y-89453311D01*
X218552968Y-89464941D01*
X218554402Y-89510567D01*
X218554403Y-89510570D01*
X218560323Y-89530948D01*
X218564268Y-89549996D01*
X218566928Y-89571054D01*
X218566931Y-89571065D01*
X218583737Y-89613514D01*
X218587520Y-89624563D01*
X218600254Y-89668395D01*
X218600255Y-89668397D01*
X218611060Y-89686666D01*
X218619617Y-89704134D01*
X218625226Y-89718300D01*
X218627432Y-89723872D01*
X218654266Y-89760806D01*
X218660678Y-89770568D01*
X218683919Y-89809865D01*
X218683923Y-89809869D01*
X218698925Y-89824871D01*
X218711563Y-89839669D01*
X218724033Y-89856833D01*
X218724036Y-89856837D01*
X218759213Y-89885937D01*
X218767854Y-89893800D01*
X222839191Y-93965137D01*
X222872676Y-94026460D01*
X222874830Y-94039851D01*
X222888326Y-94168256D01*
X222888327Y-94168259D01*
X222946818Y-94348277D01*
X222946821Y-94348284D01*
X223041467Y-94512216D01*
X223168129Y-94652888D01*
X223321265Y-94764148D01*
X223321270Y-94764151D01*
X223494192Y-94841142D01*
X223494197Y-94841144D01*
X223679354Y-94880500D01*
X223679355Y-94880500D01*
X223868644Y-94880500D01*
X223868646Y-94880500D01*
X224053803Y-94841144D01*
X224226730Y-94764151D01*
X224379871Y-94652888D01*
X224506533Y-94512216D01*
X224601179Y-94348284D01*
X224659674Y-94168256D01*
X224679460Y-93980000D01*
X224659674Y-93791744D01*
X224601179Y-93611716D01*
X224506533Y-93447784D01*
X224379871Y-93307112D01*
X224379870Y-93307111D01*
X224226734Y-93195851D01*
X224226729Y-93195848D01*
X224053807Y-93118857D01*
X224053802Y-93118855D01*
X223908001Y-93087865D01*
X223868646Y-93079500D01*
X223868645Y-93079500D01*
X223844808Y-93079500D01*
X223777769Y-93059815D01*
X223757127Y-93043181D01*
X219888819Y-89174873D01*
X219855334Y-89113550D01*
X219852500Y-89087192D01*
X219852500Y-86776921D01*
X219872185Y-86709882D01*
X219884351Y-86693948D01*
X219934533Y-86638216D01*
X220029179Y-86474284D01*
X220087674Y-86294256D01*
X220107460Y-86106000D01*
X220087674Y-85917744D01*
X220029179Y-85737716D01*
X219934533Y-85573784D01*
X219807871Y-85433112D01*
X219807870Y-85433111D01*
X219654734Y-85321851D01*
X219654729Y-85321848D01*
X219481807Y-85244857D01*
X219481802Y-85244855D01*
X219336001Y-85213865D01*
X219296646Y-85205500D01*
X219107354Y-85205500D01*
X219074897Y-85212398D01*
X218922197Y-85244855D01*
X218922192Y-85244857D01*
X218749270Y-85321848D01*
X218749265Y-85321851D01*
X218596129Y-85433111D01*
X218469466Y-85573785D01*
X218374821Y-85737715D01*
X218374818Y-85737722D01*
X218316327Y-85917740D01*
X218316326Y-85917744D01*
X218296540Y-86106000D01*
X181500921Y-86106000D01*
X182401421Y-85205500D01*
X195791407Y-71815514D01*
X196894054Y-71815514D01*
X196913840Y-72003770D01*
X196913841Y-72003773D01*
X196972332Y-72183791D01*
X196972335Y-72183798D01*
X197066981Y-72347730D01*
X197168145Y-72460084D01*
X197193643Y-72488402D01*
X197346779Y-72599662D01*
X197346784Y-72599665D01*
X197519706Y-72676656D01*
X197519711Y-72676658D01*
X197704868Y-72716014D01*
X197704869Y-72716014D01*
X197894158Y-72716014D01*
X197894160Y-72716014D01*
X198079317Y-72676658D01*
X198252244Y-72599665D01*
X198405385Y-72488402D01*
X198532047Y-72347730D01*
X198536223Y-72340497D01*
X198586792Y-72292283D01*
X198643609Y-72278500D01*
X203285025Y-72278500D01*
X203352064Y-72298185D01*
X203357910Y-72302182D01*
X203509265Y-72412148D01*
X203509270Y-72412151D01*
X203682192Y-72489142D01*
X203682197Y-72489144D01*
X203867354Y-72528500D01*
X203867355Y-72528500D01*
X204056644Y-72528500D01*
X204056646Y-72528500D01*
X204241803Y-72489144D01*
X204414730Y-72412151D01*
X204567871Y-72300888D01*
X204694533Y-72160216D01*
X204789179Y-71996284D01*
X204847674Y-71816256D01*
X204859483Y-71703902D01*
X228042300Y-71703902D01*
X228052860Y-71787981D01*
X228107936Y-71920947D01*
X228107937Y-71920948D01*
X228159921Y-71987867D01*
X228159927Y-71987873D01*
X228632135Y-72460082D01*
X228632145Y-72460091D01*
X228699050Y-72512063D01*
X228699051Y-72512063D01*
X228699052Y-72512064D01*
X228832018Y-72567140D01*
X228916091Y-72577700D01*
X229583907Y-72577699D01*
X229667982Y-72567140D01*
X229800948Y-72512063D01*
X229867867Y-72460079D01*
X230340084Y-71987863D01*
X230392064Y-71920948D01*
X230447140Y-71787982D01*
X230457700Y-71703909D01*
X230457699Y-71036093D01*
X230447140Y-70952018D01*
X230392063Y-70819052D01*
X230340079Y-70752133D01*
X229867863Y-70279916D01*
X229867862Y-70279915D01*
X229867854Y-70279908D01*
X229800949Y-70227936D01*
X229734465Y-70200398D01*
X229667982Y-70172860D01*
X229583909Y-70162300D01*
X228916097Y-70162300D01*
X228832018Y-70172860D01*
X228699052Y-70227936D01*
X228632133Y-70279921D01*
X228632126Y-70279927D01*
X228159917Y-70752135D01*
X228159908Y-70752145D01*
X228107936Y-70819050D01*
X228052860Y-70952018D01*
X228042300Y-71036087D01*
X228042300Y-71703902D01*
X204859483Y-71703902D01*
X204867460Y-71628000D01*
X204847674Y-71439744D01*
X204789179Y-71259716D01*
X204694533Y-71095784D01*
X204567871Y-70955112D01*
X204566850Y-70954370D01*
X204414734Y-70843851D01*
X204414729Y-70843848D01*
X204241807Y-70766857D01*
X204241802Y-70766855D01*
X204096001Y-70735865D01*
X204056646Y-70727500D01*
X203867354Y-70727500D01*
X203834897Y-70734398D01*
X203682197Y-70766855D01*
X203682192Y-70766857D01*
X203509270Y-70843848D01*
X203509265Y-70843851D01*
X203357910Y-70953818D01*
X203292104Y-70977298D01*
X203285025Y-70977500D01*
X198157624Y-70977500D01*
X198107188Y-70966779D01*
X198097879Y-70962634D01*
X198079316Y-70954369D01*
X197933515Y-70923379D01*
X197894160Y-70915014D01*
X197704868Y-70915014D01*
X197672411Y-70921912D01*
X197519711Y-70954369D01*
X197519706Y-70954371D01*
X197346784Y-71031362D01*
X197346779Y-71031365D01*
X197193643Y-71142625D01*
X197066980Y-71283299D01*
X196972335Y-71447229D01*
X196972332Y-71447236D01*
X196913841Y-71627254D01*
X196913840Y-71627258D01*
X196894054Y-71815514D01*
X195791407Y-71815514D01*
X205213340Y-62393581D01*
X205309698Y-62275407D01*
X205403909Y-62095049D01*
X205459886Y-61899418D01*
X205475337Y-61696524D01*
X205449630Y-61494672D01*
X205383816Y-61302128D01*
X205380499Y-61296494D01*
X205280593Y-61126778D01*
X205280592Y-61126777D01*
X205280590Y-61126773D01*
X205144179Y-60975787D01*
X205142350Y-60974444D01*
X204980171Y-60855353D01*
X204980164Y-60855349D01*
X204795274Y-60770397D01*
X204795261Y-60770392D01*
X204597053Y-60724397D01*
X204393638Y-60719244D01*
X204393635Y-60719244D01*
X204193350Y-60755140D01*
X204193345Y-60755142D01*
X204004383Y-60830623D01*
X204004371Y-60830629D01*
X203834482Y-60942596D01*
X176839343Y-87937735D01*
X176778020Y-87971220D01*
X176708328Y-87966236D01*
X176652395Y-87924364D01*
X176633732Y-87888375D01*
X176600206Y-87785192D01*
X176595181Y-87769725D01*
X176595178Y-87769719D01*
X176500533Y-87605788D01*
X176373871Y-87465116D01*
X176373870Y-87465115D01*
X176220734Y-87353855D01*
X176220729Y-87353852D01*
X176047807Y-87276861D01*
X176047802Y-87276859D01*
X175902001Y-87245869D01*
X175862646Y-87237504D01*
X175781250Y-87237504D01*
X175714211Y-87217819D01*
X175668456Y-87165015D01*
X175657929Y-87126465D01*
X175653888Y-87088016D01*
X175637674Y-86933744D01*
X175579179Y-86753716D01*
X175484533Y-86589784D01*
X175357871Y-86449112D01*
X175357870Y-86449111D01*
X175204734Y-86337851D01*
X175204729Y-86337848D01*
X175031807Y-86260857D01*
X175031802Y-86260855D01*
X174886001Y-86229865D01*
X174846646Y-86221500D01*
X174657354Y-86221500D01*
X174624897Y-86228398D01*
X174472197Y-86260855D01*
X174472192Y-86260857D01*
X174299270Y-86337848D01*
X174299265Y-86337851D01*
X174146129Y-86449111D01*
X174019466Y-86589785D01*
X173976907Y-86663500D01*
X173926340Y-86711715D01*
X173869520Y-86725500D01*
X98612955Y-86725500D01*
X98593555Y-86723973D01*
X98572596Y-86720653D01*
X98572595Y-86720653D01*
X98537475Y-86723973D01*
X98527140Y-86724950D01*
X98515470Y-86725500D01*
X98511075Y-86725500D01*
X98511071Y-86725500D01*
X98511061Y-86725501D01*
X98482511Y-86729106D01*
X98478651Y-86729532D01*
X98408972Y-86736120D01*
X98401356Y-86737823D01*
X98401303Y-86737586D01*
X98396436Y-86738754D01*
X98396497Y-86738990D01*
X98388933Y-86740931D01*
X98323840Y-86766704D01*
X98320196Y-86768081D01*
X98254336Y-86791791D01*
X98247390Y-86795331D01*
X98247281Y-86795117D01*
X98242846Y-86797465D01*
X98242962Y-86797675D01*
X98236129Y-86801431D01*
X98179484Y-86842585D01*
X98176302Y-86844821D01*
X98118398Y-86884174D01*
X98112546Y-86889334D01*
X98112387Y-86889153D01*
X98108686Y-86892520D01*
X98108851Y-86892695D01*
X98103165Y-86898034D01*
X98058515Y-86952005D01*
X98055988Y-86954964D01*
X98009706Y-87007461D01*
X98005324Y-87013909D01*
X98005126Y-87013774D01*
X98002374Y-87017963D01*
X98002577Y-87018092D01*
X97998399Y-87024674D01*
X97968592Y-87088016D01*
X97966880Y-87091510D01*
X97935093Y-87153897D01*
X97932450Y-87161240D01*
X97932223Y-87161158D01*
X97930599Y-87165899D01*
X97930830Y-87165974D01*
X97928419Y-87173392D01*
X97915304Y-87242139D01*
X97914516Y-87245948D01*
X97899239Y-87314301D01*
X97898505Y-87322067D01*
X97898265Y-87322044D01*
X97897873Y-87327029D01*
X97898114Y-87327045D01*
X97897624Y-87334831D01*
X61006500Y-87334831D01*
X61006500Y-50462500D01*
X61026185Y-50395461D01*
X61078989Y-50349706D01*
X61130500Y-50338500D01*
X94317500Y-50338500D01*
X94384539Y-50358185D01*
G37*
G04 #@! TD.AperFunction*
G04 #@! TA.AperFunction,Conductor*
G36*
X125833740Y-58423625D02*
G01*
X125965992Y-58453810D01*
X126101265Y-58443673D01*
X126227541Y-58394113D01*
X126250000Y-58376202D01*
X126250000Y-59277549D01*
X126279267Y-59273586D01*
X126279273Y-59273585D01*
X126493268Y-59204054D01*
X126691401Y-59097434D01*
X126691404Y-59097432D01*
X126867319Y-58957145D01*
X126905760Y-58913145D01*
X126964690Y-58875610D01*
X127034560Y-58875894D01*
X127084833Y-58905100D01*
X127138754Y-58956654D01*
X127217176Y-59031633D01*
X127405033Y-59155636D01*
X127612004Y-59244100D01*
X127612007Y-59244101D01*
X127612012Y-59244103D01*
X127831463Y-59294191D01*
X128056330Y-59304290D01*
X128279387Y-59274075D01*
X128493464Y-59204517D01*
X128691681Y-59097852D01*
X128798189Y-59012914D01*
X128862873Y-58986507D01*
X128931569Y-58999262D01*
X128982463Y-59047133D01*
X128999500Y-59109862D01*
X128999500Y-59881721D01*
X128999460Y-59884861D01*
X128997243Y-59972362D01*
X128997243Y-59972371D01*
X129007648Y-60030420D01*
X129008956Y-60039748D01*
X129014925Y-60098430D01*
X129014927Y-60098444D01*
X129024033Y-60127468D01*
X129027772Y-60142701D01*
X129033142Y-60172653D01*
X129033142Y-60172655D01*
X129055020Y-60227424D01*
X129058177Y-60236292D01*
X129075841Y-60292588D01*
X129075842Y-60292589D01*
X129075844Y-60292595D01*
X129090603Y-60319185D01*
X129097336Y-60333361D01*
X129108622Y-60361614D01*
X129108627Y-60361624D01*
X129141080Y-60410866D01*
X129145962Y-60418923D01*
X129174588Y-60470498D01*
X129174589Y-60470500D01*
X129175682Y-60471773D01*
X129194410Y-60493588D01*
X129203855Y-60506115D01*
X129220599Y-60531521D01*
X129262299Y-60573220D01*
X129268704Y-60580131D01*
X129303730Y-60620930D01*
X129307134Y-60624895D01*
X129331187Y-60643513D01*
X129342968Y-60653889D01*
X129584450Y-60895371D01*
X129586643Y-60897620D01*
X129646941Y-60961053D01*
X129685262Y-60987725D01*
X129729041Y-61042179D01*
X129736429Y-61111657D01*
X129705083Y-61174100D01*
X129644953Y-61209683D01*
X129614425Y-61213500D01*
X118093651Y-61213500D01*
X118026612Y-61193815D01*
X118005970Y-61177181D01*
X116964819Y-60136030D01*
X116931334Y-60074707D01*
X116928500Y-60048349D01*
X116928500Y-59045743D01*
X116948185Y-58978704D01*
X117000989Y-58932949D01*
X117070147Y-58923005D01*
X117133703Y-58952030D01*
X117138192Y-58956117D01*
X117201482Y-59016628D01*
X117217175Y-59031632D01*
X117310841Y-59093460D01*
X117405033Y-59155636D01*
X117612004Y-59244100D01*
X117612007Y-59244101D01*
X117612012Y-59244103D01*
X117831463Y-59294191D01*
X118056330Y-59304290D01*
X118279387Y-59274075D01*
X118493464Y-59204517D01*
X118691681Y-59097852D01*
X118867666Y-58957508D01*
X118906123Y-58913489D01*
X118965054Y-58875956D01*
X119034923Y-58876240D01*
X119085195Y-58905446D01*
X119149500Y-58966928D01*
X119217176Y-59031633D01*
X119405033Y-59155636D01*
X119612004Y-59244100D01*
X119612007Y-59244101D01*
X119612012Y-59244103D01*
X119831463Y-59294191D01*
X120056330Y-59304290D01*
X120279387Y-59274075D01*
X120493464Y-59204517D01*
X120691681Y-59097852D01*
X120867666Y-58957508D01*
X120906454Y-58913111D01*
X120965381Y-58875578D01*
X121035250Y-58875862D01*
X121085525Y-58905069D01*
X121217489Y-59031240D01*
X121405266Y-59155191D01*
X121612169Y-59243624D01*
X121612178Y-59243627D01*
X121749999Y-59275084D01*
X121750000Y-59275084D01*
X121750000Y-58375277D01*
X121833740Y-58423625D01*
X121965992Y-58453810D01*
X122101265Y-58443673D01*
X122227541Y-58394113D01*
X122250000Y-58376202D01*
X122250000Y-59277549D01*
X122279267Y-59273586D01*
X122279273Y-59273585D01*
X122493268Y-59204054D01*
X122691401Y-59097434D01*
X122691404Y-59097432D01*
X122867319Y-58957145D01*
X122905760Y-58913145D01*
X122964690Y-58875610D01*
X123034560Y-58875894D01*
X123084833Y-58905100D01*
X123138754Y-58956654D01*
X123217176Y-59031633D01*
X123405033Y-59155636D01*
X123612004Y-59244100D01*
X123612007Y-59244101D01*
X123612012Y-59244103D01*
X123831463Y-59294191D01*
X124056330Y-59304290D01*
X124279387Y-59274075D01*
X124493464Y-59204517D01*
X124691681Y-59097852D01*
X124867666Y-58957508D01*
X124906454Y-58913111D01*
X124965381Y-58875578D01*
X125035250Y-58875862D01*
X125085525Y-58905069D01*
X125217489Y-59031240D01*
X125405266Y-59155191D01*
X125612169Y-59243624D01*
X125612178Y-59243627D01*
X125749999Y-59275084D01*
X125750000Y-59275084D01*
X125750000Y-58375277D01*
X125833740Y-58423625D01*
G37*
G04 #@! TD.AperFunction*
M02*
