G04 #@! TF.GenerationSoftware,KiCad,Pcbnew,7.0.10*
G04 #@! TF.CreationDate,2024-01-22T16:50:30+01:00*
G04 #@! TF.ProjectId,GP1294-Teens4,47503132-3934-42d5-9465-656e73342e6b,1.0.0*
G04 #@! TF.SameCoordinates,Original*
G04 #@! TF.FileFunction,Profile,NP*
%FSLAX46Y46*%
G04 Gerber Fmt 4.6, Leading zero omitted, Abs format (unit mm)*
G04 Created by KiCad (PCBNEW 7.0.10) date 2024-01-22 16:50:30*
%MOMM*%
%LPD*%
G01*
G04 APERTURE LIST*
G04 #@! TA.AperFunction,Profile*
%ADD10C,0.100000*%
G04 #@! TD*
G04 #@! TA.AperFunction,Profile*
%ADD11C,0.050000*%
G04 #@! TD*
G04 APERTURE END LIST*
D10*
X60700000Y-50200000D02*
X239200000Y-50200000D01*
X239200000Y-150116000D01*
X60700000Y-150116000D01*
X60700000Y-50200000D01*
X93980000Y-148590000D02*
X93980000Y-150114000D01*
X124714000Y-148590000D02*
X93980000Y-148590000D01*
X124714000Y-150114000D02*
X124714000Y-148590000D01*
D11*
X135338000Y-117968000D02*
X126338000Y-117968000D01*
X126338000Y-117968000D02*
X126338000Y-131968000D01*
X126338000Y-131968000D02*
X135338000Y-131968000D01*
X135338000Y-131968000D02*
X135338000Y-117968000D01*
X173664000Y-117968000D02*
X164664000Y-117968000D01*
X164664000Y-117968000D02*
X164664000Y-131968000D01*
X164664000Y-131968000D02*
X173664000Y-131968000D01*
X173664000Y-131968000D02*
X173664000Y-117968000D01*
X192714000Y-117968000D02*
X183714000Y-117968000D01*
X183714000Y-117968000D02*
X183714000Y-131968000D01*
X183714000Y-131968000D02*
X192714000Y-131968000D01*
X192714000Y-131968000D02*
X192714000Y-117968000D01*
X116156000Y-118096000D02*
X107156000Y-118096000D01*
X107156000Y-118096000D02*
X107156000Y-132096000D01*
X107156000Y-132096000D02*
X116156000Y-132096000D01*
X116156000Y-132096000D02*
X116156000Y-118096000D01*
X154473020Y-117958285D02*
X145473020Y-117958285D01*
X145473020Y-117958285D02*
X145473020Y-131958285D01*
X145473020Y-131958285D02*
X154473020Y-131958285D01*
X154473020Y-131958285D02*
X154473020Y-117958285D01*
M02*
