G04 #@! TF.GenerationSoftware,KiCad,Pcbnew,7.0.10*
G04 #@! TF.CreationDate,2024-01-22T16:50:30+01:00*
G04 #@! TF.ProjectId,GP1294-Teens4,47503132-3934-42d5-9465-656e73342e6b,1.0.0*
G04 #@! TF.SameCoordinates,Original*
G04 #@! TF.FileFunction,Soldermask,Top*
G04 #@! TF.FilePolarity,Negative*
%FSLAX46Y46*%
G04 Gerber Fmt 4.6, Leading zero omitted, Abs format (unit mm)*
G04 Created by KiCad (PCBNEW 7.0.10) date 2024-01-22 16:50:30*
%MOMM*%
%LPD*%
G01*
G04 APERTURE LIST*
G04 Aperture macros list*
%AMRoundRect*
0 Rectangle with rounded corners*
0 $1 Rounding radius*
0 $2 $3 $4 $5 $6 $7 $8 $9 X,Y pos of 4 corners*
0 Add a 4 corners polygon primitive as box body*
4,1,4,$2,$3,$4,$5,$6,$7,$8,$9,$2,$3,0*
0 Add four circle primitives for the rounded corners*
1,1,$1+$1,$2,$3*
1,1,$1+$1,$4,$5*
1,1,$1+$1,$6,$7*
1,1,$1+$1,$8,$9*
0 Add four rect primitives between the rounded corners*
20,1,$1+$1,$2,$3,$4,$5,0*
20,1,$1+$1,$4,$5,$6,$7,0*
20,1,$1+$1,$6,$7,$8,$9,0*
20,1,$1+$1,$8,$9,$2,$3,0*%
%AMFreePoly0*
4,1,17,0.328853,0.743121,0.743121,0.328853,0.758000,0.292932,0.758000,-0.292932,0.743121,-0.328853,0.328853,-0.743121,0.292932,-0.758000,-0.292932,-0.758000,-0.328853,-0.743121,-0.743121,-0.328853,-0.758000,-0.292932,-0.758000,0.292932,-0.743121,0.328853,-0.328853,0.743121,-0.292932,0.758000,0.292932,0.758000,0.328853,0.743121,0.328853,0.743121,$1*%
G04 Aperture macros list end*
%ADD10RoundRect,0.200000X0.275000X-0.200000X0.275000X0.200000X-0.275000X0.200000X-0.275000X-0.200000X0*%
%ADD11RoundRect,0.050800X0.800000X0.901500X-0.800000X0.901500X-0.800000X-0.901500X0.800000X-0.901500X0*%
%ADD12RoundRect,0.050800X-0.533400X-1.079500X0.533400X-1.079500X0.533400X1.079500X-0.533400X1.079500X0*%
%ADD13RoundRect,0.050800X-5.400000X-5.205000X5.400000X-5.205000X5.400000X5.205000X-5.400000X5.205000X0*%
%ADD14RoundRect,0.050800X1.925000X2.750000X-1.925000X2.750000X-1.925000X-2.750000X1.925000X-2.750000X0*%
%ADD15O,3.149600X1.625600*%
%ADD16RoundRect,0.050800X1.500000X0.800000X-1.500000X0.800000X-1.500000X-0.800000X1.500000X-0.800000X0*%
%ADD17RoundRect,0.200000X-0.200000X-0.275000X0.200000X-0.275000X0.200000X0.275000X-0.200000X0.275000X0*%
%ADD18R,1.700000X2.500000*%
%ADD19O,1.700000X2.500000*%
%ADD20RoundRect,0.200000X0.200000X0.275000X-0.200000X0.275000X-0.200000X-0.275000X0.200000X-0.275000X0*%
%ADD21RoundRect,0.050800X-0.800000X-0.901500X0.800000X-0.901500X0.800000X0.901500X-0.800000X0.901500X0*%
%ADD22RoundRect,0.050800X0.800000X0.900000X-0.800000X0.900000X-0.800000X-0.900000X0.800000X-0.900000X0*%
%ADD23RoundRect,0.150000X-0.150000X0.725000X-0.150000X-0.725000X0.150000X-0.725000X0.150000X0.725000X0*%
%ADD24RoundRect,0.050800X-1.200000X-1.200000X1.200000X-1.200000X1.200000X1.200000X-1.200000X1.200000X0*%
%ADD25RoundRect,0.050800X-0.800000X-0.900000X0.800000X-0.900000X0.800000X0.900000X-0.800000X0.900000X0*%
%ADD26FreePoly0,270.000000*%
%ADD27RoundRect,0.050800X-0.800000X2.000000X-0.800000X-2.000000X0.800000X-2.000000X0.800000X2.000000X0*%
%ADD28RoundRect,0.050800X-0.600000X-1.350000X0.600000X-1.350000X0.600000X1.350000X-0.600000X1.350000X0*%
%ADD29R,1.600000X1.600000*%
%ADD30O,1.600000X1.600000*%
%ADD31O,4.000000X1.500000*%
%ADD32RoundRect,0.050800X-1.016000X0.330200X-1.016000X-0.330200X1.016000X-0.330200X1.016000X0.330200X0*%
%ADD33RoundRect,0.150000X0.150000X-0.725000X0.150000X0.725000X-0.150000X0.725000X-0.150000X-0.725000X0*%
%ADD34RoundRect,0.050800X-1.100000X0.300000X-1.100000X-0.300000X1.100000X-0.300000X1.100000X0.300000X0*%
%ADD35RoundRect,0.050800X-1.125000X2.250000X-1.125000X-2.250000X1.125000X-2.250000X1.125000X2.250000X0*%
%ADD36R,2.000000X2.000000*%
%ADD37C,2.000000*%
%ADD38R,3.000000X2.500000*%
%ADD39R,1.727200X1.727200*%
%ADD40O,1.727200X1.727200*%
%ADD41C,3.000000*%
%ADD42O,1.500000X2.600000*%
G04 APERTURE END LIST*
D10*
X139192000Y-113538000D03*
X139192000Y-111888000D03*
D11*
X193040000Y-78486000D03*
X190196000Y-78486000D03*
D12*
X227736400Y-90373200D03*
X229438200Y-90373200D03*
X231140000Y-90373200D03*
X232841800Y-90373200D03*
X234543600Y-90373200D03*
D13*
X231140000Y-82042000D03*
D14*
X235861000Y-101854000D03*
X225911000Y-101854000D03*
D15*
X68500000Y-70250000D03*
X68500000Y-67710000D03*
X68500000Y-65170000D03*
X68500000Y-62630000D03*
D16*
X204810000Y-83566000D03*
X209210000Y-83566000D03*
D17*
X166244000Y-71628000D03*
X167894000Y-71628000D03*
D18*
X169968500Y-107012500D03*
D19*
X172508500Y-107012500D03*
X175048500Y-107012500D03*
D11*
X193040000Y-69342000D03*
X190196000Y-69342000D03*
D20*
X176910000Y-69088000D03*
X175260000Y-69088000D03*
D21*
X190094000Y-75184000D03*
X192938000Y-75184000D03*
D17*
X166307000Y-69088000D03*
X167957000Y-69088000D03*
D21*
X214072000Y-74168000D03*
X216916000Y-74168000D03*
D22*
X192916000Y-72136000D03*
X190116000Y-72136000D03*
D23*
X109220000Y-104648000D03*
X107950000Y-104648000D03*
X106680000Y-104648000D03*
X105410000Y-104648000D03*
X104140000Y-104648000D03*
X102870000Y-104648000D03*
X101600000Y-104648000D03*
X100330000Y-104648000D03*
X100330000Y-109798000D03*
X101600000Y-109798000D03*
X102870000Y-109798000D03*
X104140000Y-109798000D03*
X105410000Y-109798000D03*
X106680000Y-109798000D03*
X107950000Y-109798000D03*
X109220000Y-109798000D03*
D24*
X209210000Y-88646000D03*
X204810000Y-88646000D03*
D16*
X204556000Y-97536000D03*
X208956000Y-97536000D03*
D22*
X203076000Y-62230000D03*
X200276000Y-62230000D03*
D25*
X169288000Y-100076000D03*
X172088000Y-100076000D03*
D26*
X229250000Y-56130000D03*
X229250000Y-71370000D03*
D27*
X132588000Y-145036000D03*
X132588000Y-138936000D03*
D28*
X194192000Y-88900000D03*
X198492000Y-88900000D03*
D29*
X135128000Y-113538000D03*
D30*
X132588000Y-113538000D03*
X130048000Y-113538000D03*
X127508000Y-113538000D03*
X124968000Y-113538000D03*
X122428000Y-113538000D03*
X119888000Y-113538000D03*
X119888000Y-105918000D03*
X122428000Y-105918000D03*
X124968000Y-105918000D03*
X127508000Y-105918000D03*
X130048000Y-105918000D03*
X132588000Y-105918000D03*
X135128000Y-105918000D03*
D31*
X162348000Y-51328000D03*
X162348000Y-53868000D03*
X162348000Y-56408000D03*
X162348000Y-58948000D03*
X162348000Y-61488000D03*
X162348000Y-64028000D03*
X162348000Y-66568000D03*
X162348000Y-69108000D03*
X162348000Y-71648000D03*
X162348000Y-74188000D03*
X162348000Y-76728000D03*
X162348000Y-79268000D03*
X162348000Y-81808000D03*
X162348000Y-84348000D03*
X180848000Y-84328000D03*
X180848000Y-81788000D03*
X180848000Y-79248000D03*
X180848000Y-76708000D03*
X180848000Y-74168000D03*
X180848000Y-71628000D03*
X180848000Y-69088000D03*
X180848000Y-66548000D03*
X180848000Y-64008000D03*
X180848000Y-61468000D03*
X180848000Y-58928000D03*
X180848000Y-56388000D03*
X180848000Y-53848000D03*
X180848000Y-51308000D03*
D32*
X198602600Y-66548000D03*
X198602600Y-67818000D03*
X198602600Y-69088000D03*
X198602600Y-70358000D03*
X198602600Y-71628000D03*
X198602600Y-72898000D03*
X198602600Y-74168000D03*
X204749400Y-74168000D03*
X204749400Y-72898000D03*
X204749400Y-71628000D03*
X204749400Y-70358000D03*
X204749400Y-69088000D03*
X204749400Y-67818000D03*
X204749400Y-66548000D03*
D33*
X176022000Y-146628000D03*
X177292000Y-146628000D03*
X178562000Y-146628000D03*
X179832000Y-146628000D03*
X181102000Y-146628000D03*
X182372000Y-146628000D03*
X183642000Y-146628000D03*
X184912000Y-146628000D03*
X184912000Y-141478000D03*
X183642000Y-141478000D03*
X182372000Y-141478000D03*
X181102000Y-141478000D03*
X179832000Y-141478000D03*
X178562000Y-141478000D03*
X177292000Y-141478000D03*
X176022000Y-141478000D03*
D34*
X212792000Y-66421000D03*
X212792000Y-67691000D03*
X212792000Y-68961000D03*
X212792000Y-70231000D03*
X217992000Y-70231000D03*
X217992000Y-68961000D03*
X217992000Y-67691000D03*
X217992000Y-66421000D03*
D35*
X192959000Y-96266000D03*
X199725000Y-96266000D03*
D24*
X198374000Y-83566000D03*
X193974000Y-83566000D03*
D22*
X193040000Y-66294000D03*
X190240000Y-66294000D03*
D20*
X176847000Y-71628000D03*
X175197000Y-71628000D03*
D36*
X221000000Y-122500000D03*
D37*
X221000000Y-127500000D03*
X221000000Y-125000000D03*
D38*
X213500000Y-130600000D03*
X213500000Y-119400000D03*
D37*
X206500000Y-122500000D03*
X206500000Y-127500000D03*
D39*
X118433000Y-143619000D03*
D40*
X118433000Y-141079000D03*
X115893000Y-143619000D03*
X115893000Y-141079000D03*
X113353000Y-143619000D03*
X113353000Y-141079000D03*
X110813000Y-143619000D03*
X110813000Y-141079000D03*
X108273000Y-143619000D03*
X108273000Y-141079000D03*
X105733000Y-143619000D03*
X105733000Y-141079000D03*
X103193000Y-143619000D03*
X103193000Y-141079000D03*
X100653000Y-143619000D03*
X100653000Y-141079000D03*
D41*
X137338000Y-120268000D03*
X137338000Y-124968000D03*
X137338000Y-129668000D03*
D36*
X94000000Y-122500000D03*
D37*
X94000000Y-127500000D03*
X94000000Y-125000000D03*
D38*
X86500000Y-130600000D03*
X86500000Y-119400000D03*
D37*
X79500000Y-122500000D03*
X79500000Y-127500000D03*
D41*
X175664000Y-120268000D03*
X175664000Y-124968000D03*
X175664000Y-129668000D03*
X194714000Y-120268000D03*
X194714000Y-124968000D03*
X194714000Y-129668000D03*
D42*
X82000000Y-57500000D03*
X84000000Y-57500000D03*
X86000000Y-57500000D03*
X88000000Y-57500000D03*
X98000000Y-57500000D03*
X100000000Y-57500000D03*
X102000000Y-57500000D03*
X104000000Y-57500000D03*
X106000000Y-57500000D03*
X108000000Y-57500000D03*
X110000000Y-57500000D03*
X112000000Y-57500000D03*
X114000000Y-57500000D03*
X116000000Y-57500000D03*
X118000000Y-57500000D03*
X120000000Y-57500000D03*
X122000000Y-57500000D03*
X124000000Y-57500000D03*
X126000000Y-57500000D03*
X128000000Y-57500000D03*
X130000000Y-57500000D03*
X132000000Y-57500000D03*
X190000000Y-57500000D03*
X192000000Y-57500000D03*
X194000000Y-57500000D03*
X200000000Y-57500000D03*
X202000000Y-57500000D03*
X212000000Y-57500000D03*
X214000000Y-57500000D03*
X216000000Y-57500000D03*
X218000000Y-57500000D03*
D41*
X118156000Y-120396000D03*
X118156000Y-125096000D03*
X118156000Y-129796000D03*
X156473020Y-120258285D03*
X156473020Y-124958285D03*
X156473020Y-129658285D03*
M02*
