G04 #@! TF.GenerationSoftware,KiCad,Pcbnew,7.0.10*
G04 #@! TF.CreationDate,2024-01-22T16:50:30+01:00*
G04 #@! TF.ProjectId,GP1294-Teens4,47503132-3934-42d5-9465-656e73342e6b,1.0.0*
G04 #@! TF.SameCoordinates,Original*
G04 #@! TF.FileFunction,Copper,L2,Bot*
G04 #@! TF.FilePolarity,Positive*
%FSLAX46Y46*%
G04 Gerber Fmt 4.6, Leading zero omitted, Abs format (unit mm)*
G04 Created by KiCad (PCBNEW 7.0.10) date 2024-01-22 16:50:30*
%MOMM*%
%LPD*%
G01*
G04 APERTURE LIST*
G04 Aperture macros list*
%AMOutline5P*
0 Free polygon, 5 corners , with rotation*
0 The origin of the aperture is its center*
0 number of corners: always 5*
0 $1 to $10 corner X, Y*
0 $11 Rotation angle, in degrees counterclockwise*
0 create outline with 5 corners*
4,1,5,$1,$2,$3,$4,$5,$6,$7,$8,$9,$10,$1,$2,$11*%
%AMOutline6P*
0 Free polygon, 6 corners , with rotation*
0 The origin of the aperture is its center*
0 number of corners: always 6*
0 $1 to $12 corner X, Y*
0 $13 Rotation angle, in degrees counterclockwise*
0 create outline with 6 corners*
4,1,6,$1,$2,$3,$4,$5,$6,$7,$8,$9,$10,$11,$12,$1,$2,$13*%
%AMOutline7P*
0 Free polygon, 7 corners , with rotation*
0 The origin of the aperture is its center*
0 number of corners: always 7*
0 $1 to $14 corner X, Y*
0 $15 Rotation angle, in degrees counterclockwise*
0 create outline with 7 corners*
4,1,7,$1,$2,$3,$4,$5,$6,$7,$8,$9,$10,$11,$12,$13,$14,$1,$2,$15*%
%AMOutline8P*
0 Free polygon, 8 corners , with rotation*
0 The origin of the aperture is its center*
0 number of corners: always 8*
0 $1 to $16 corner X, Y*
0 $17 Rotation angle, in degrees counterclockwise*
0 create outline with 8 corners*
4,1,8,$1,$2,$3,$4,$5,$6,$7,$8,$9,$10,$11,$12,$13,$14,$15,$16,$1,$2,$17*%
G04 Aperture macros list end*
G04 #@! TA.AperFunction,ComponentPad*
%ADD10O,3.048000X1.524000*%
G04 #@! TD*
G04 #@! TA.AperFunction,ComponentPad*
%ADD11R,1.700000X2.500000*%
G04 #@! TD*
G04 #@! TA.AperFunction,ComponentPad*
%ADD12O,1.700000X2.500000*%
G04 #@! TD*
G04 #@! TA.AperFunction,ComponentPad*
%ADD13Outline8P,-0.707200X0.292932X-0.292932X0.707200X0.292932X0.707200X0.707200X0.292932X0.707200X-0.292932X0.292932X-0.707200X-0.292932X-0.707200X-0.707200X-0.292932X270.000000*%
G04 #@! TD*
G04 #@! TA.AperFunction,ComponentPad*
%ADD14R,1.600000X1.600000*%
G04 #@! TD*
G04 #@! TA.AperFunction,ComponentPad*
%ADD15O,1.600000X1.600000*%
G04 #@! TD*
G04 #@! TA.AperFunction,ComponentPad*
%ADD16R,2.000000X2.000000*%
G04 #@! TD*
G04 #@! TA.AperFunction,ComponentPad*
%ADD17C,2.000000*%
G04 #@! TD*
G04 #@! TA.AperFunction,ComponentPad*
%ADD18R,3.000000X2.500000*%
G04 #@! TD*
G04 #@! TA.AperFunction,ComponentPad*
%ADD19R,1.727200X1.727200*%
G04 #@! TD*
G04 #@! TA.AperFunction,ComponentPad*
%ADD20O,1.727200X1.727200*%
G04 #@! TD*
G04 #@! TA.AperFunction,ComponentPad*
%ADD21C,3.000000*%
G04 #@! TD*
G04 #@! TA.AperFunction,ComponentPad*
%ADD22O,1.500000X2.600000*%
G04 #@! TD*
G04 #@! TA.AperFunction,ViaPad*
%ADD23C,5.000000*%
G04 #@! TD*
G04 APERTURE END LIST*
D10*
X68500000Y-70250000D03*
X68500000Y-67710000D03*
X68500000Y-65170000D03*
X68500000Y-62630000D03*
D11*
X169968500Y-107012500D03*
D12*
X172508500Y-107012500D03*
X175048500Y-107012500D03*
D13*
X229250000Y-56130000D03*
X229250000Y-71370000D03*
D14*
X135128000Y-113538000D03*
D15*
X132588000Y-113538000D03*
X130048000Y-113538000D03*
X127508000Y-113538000D03*
X124968000Y-113538000D03*
X122428000Y-113538000D03*
X119888000Y-113538000D03*
X119888000Y-105918000D03*
X122428000Y-105918000D03*
X124968000Y-105918000D03*
X127508000Y-105918000D03*
X130048000Y-105918000D03*
X132588000Y-105918000D03*
X135128000Y-105918000D03*
D16*
X221000000Y-122500000D03*
D17*
X221000000Y-127500000D03*
X221000000Y-125000000D03*
D18*
X213500000Y-130600000D03*
X213500000Y-119400000D03*
D17*
X206500000Y-122500000D03*
X206500000Y-127500000D03*
D19*
X118433000Y-143619000D03*
D20*
X118433000Y-141079000D03*
X115893000Y-143619000D03*
X115893000Y-141079000D03*
X113353000Y-143619000D03*
X113353000Y-141079000D03*
X110813000Y-143619000D03*
X110813000Y-141079000D03*
X108273000Y-143619000D03*
X108273000Y-141079000D03*
X105733000Y-143619000D03*
X105733000Y-141079000D03*
X103193000Y-143619000D03*
X103193000Y-141079000D03*
X100653000Y-143619000D03*
X100653000Y-141079000D03*
D21*
X137338000Y-120268000D03*
X137338000Y-124968000D03*
X137338000Y-129668000D03*
D16*
X94000000Y-122500000D03*
D17*
X94000000Y-127500000D03*
X94000000Y-125000000D03*
D18*
X86500000Y-130600000D03*
X86500000Y-119400000D03*
D17*
X79500000Y-122500000D03*
X79500000Y-127500000D03*
D21*
X175664000Y-120268000D03*
X175664000Y-124968000D03*
X175664000Y-129668000D03*
X194714000Y-120268000D03*
X194714000Y-124968000D03*
X194714000Y-129668000D03*
D22*
X82000000Y-57500000D03*
X84000000Y-57500000D03*
X86000000Y-57500000D03*
X88000000Y-57500000D03*
X98000000Y-57500000D03*
X100000000Y-57500000D03*
X102000000Y-57500000D03*
X104000000Y-57500000D03*
X106000000Y-57500000D03*
X108000000Y-57500000D03*
X110000000Y-57500000D03*
X112000000Y-57500000D03*
X114000000Y-57500000D03*
X116000000Y-57500000D03*
X118000000Y-57500000D03*
X120000000Y-57500000D03*
X122000000Y-57500000D03*
X124000000Y-57500000D03*
X126000000Y-57500000D03*
X128000000Y-57500000D03*
X130000000Y-57500000D03*
X132000000Y-57500000D03*
X190000000Y-57500000D03*
X192000000Y-57500000D03*
X194000000Y-57500000D03*
X200000000Y-57500000D03*
X202000000Y-57500000D03*
X212000000Y-57500000D03*
X214000000Y-57500000D03*
X216000000Y-57500000D03*
X218000000Y-57500000D03*
D21*
X118156000Y-120396000D03*
X118156000Y-125096000D03*
X118156000Y-129796000D03*
X156473020Y-120258285D03*
X156473020Y-124958285D03*
X156473020Y-129658285D03*
D23*
X235966000Y-53594000D03*
X235966000Y-146812000D03*
X64014276Y-147004204D03*
X217528856Y-146853391D03*
X64104279Y-53582403D03*
G04 #@! TA.AperFunction,Conductor*
G36*
X102726155Y-140865799D02*
G01*
X102685000Y-141005961D01*
X102685000Y-141152039D01*
X102726155Y-141292201D01*
X102749804Y-141329000D01*
X101096196Y-141329000D01*
X101119845Y-141292201D01*
X101161000Y-141152039D01*
X101161000Y-141005961D01*
X101119845Y-140865799D01*
X101096196Y-140829000D01*
X102749804Y-140829000D01*
X102726155Y-140865799D01*
G37*
G04 #@! TD.AperFunction*
G04 #@! TA.AperFunction,Conductor*
G36*
X105266155Y-140865799D02*
G01*
X105225000Y-141005961D01*
X105225000Y-141152039D01*
X105266155Y-141292201D01*
X105289804Y-141329000D01*
X103636196Y-141329000D01*
X103659845Y-141292201D01*
X103701000Y-141152039D01*
X103701000Y-141005961D01*
X103659845Y-140865799D01*
X103636196Y-140829000D01*
X105289804Y-140829000D01*
X105266155Y-140865799D01*
G37*
G04 #@! TD.AperFunction*
G04 #@! TA.AperFunction,Conductor*
G36*
X107806155Y-140865799D02*
G01*
X107765000Y-141005961D01*
X107765000Y-141152039D01*
X107806155Y-141292201D01*
X107829804Y-141329000D01*
X106176196Y-141329000D01*
X106199845Y-141292201D01*
X106241000Y-141152039D01*
X106241000Y-141005961D01*
X106199845Y-140865799D01*
X106176196Y-140829000D01*
X107829804Y-140829000D01*
X107806155Y-140865799D01*
G37*
G04 #@! TD.AperFunction*
G04 #@! TA.AperFunction,Conductor*
G36*
X110346155Y-140865799D02*
G01*
X110305000Y-141005961D01*
X110305000Y-141152039D01*
X110346155Y-141292201D01*
X110369804Y-141329000D01*
X108716196Y-141329000D01*
X108739845Y-141292201D01*
X108781000Y-141152039D01*
X108781000Y-141005961D01*
X108739845Y-140865799D01*
X108716196Y-140829000D01*
X110369804Y-140829000D01*
X110346155Y-140865799D01*
G37*
G04 #@! TD.AperFunction*
G04 #@! TA.AperFunction,Conductor*
G36*
X112886155Y-140865799D02*
G01*
X112845000Y-141005961D01*
X112845000Y-141152039D01*
X112886155Y-141292201D01*
X112909804Y-141329000D01*
X111256196Y-141329000D01*
X111279845Y-141292201D01*
X111321000Y-141152039D01*
X111321000Y-141005961D01*
X111279845Y-140865799D01*
X111256196Y-140829000D01*
X112909804Y-140829000D01*
X112886155Y-140865799D01*
G37*
G04 #@! TD.AperFunction*
G04 #@! TA.AperFunction,Conductor*
G36*
X115426155Y-140865799D02*
G01*
X115385000Y-141005961D01*
X115385000Y-141152039D01*
X115426155Y-141292201D01*
X115449804Y-141329000D01*
X113796196Y-141329000D01*
X113819845Y-141292201D01*
X113861000Y-141152039D01*
X113861000Y-141005961D01*
X113819845Y-140865799D01*
X113796196Y-140829000D01*
X115449804Y-140829000D01*
X115426155Y-140865799D01*
G37*
G04 #@! TD.AperFunction*
G04 #@! TA.AperFunction,Conductor*
G36*
X117966155Y-140865799D02*
G01*
X117925000Y-141005961D01*
X117925000Y-141152039D01*
X117966155Y-141292201D01*
X117989804Y-141329000D01*
X116336196Y-141329000D01*
X116359845Y-141292201D01*
X116401000Y-141152039D01*
X116401000Y-141005961D01*
X116359845Y-140865799D01*
X116336196Y-140829000D01*
X117989804Y-140829000D01*
X117966155Y-140865799D01*
G37*
G04 #@! TD.AperFunction*
G04 #@! TA.AperFunction,Conductor*
G36*
X68750000Y-64725702D02*
G01*
X68644592Y-64677565D01*
X68536334Y-64662000D01*
X68463666Y-64662000D01*
X68355408Y-64677565D01*
X68250000Y-64725702D01*
X68250000Y-63074297D01*
X68355408Y-63122435D01*
X68463666Y-63138000D01*
X68536334Y-63138000D01*
X68644592Y-63122435D01*
X68750000Y-63074297D01*
X68750000Y-64725702D01*
G37*
G04 #@! TD.AperFunction*
G04 #@! TA.AperFunction,Conductor*
G36*
X201550000Y-57750000D02*
G01*
X200450000Y-57750000D01*
X200450000Y-57250000D01*
X201550000Y-57250000D01*
X201550000Y-57750000D01*
G37*
G04 #@! TD.AperFunction*
G04 #@! TA.AperFunction,Conductor*
G36*
X238842539Y-50520185D02*
G01*
X238888294Y-50572989D01*
X238899500Y-50624500D01*
X238899500Y-149691500D01*
X238879815Y-149758539D01*
X238827011Y-149804294D01*
X238775500Y-149815500D01*
X125138500Y-149815500D01*
X125071461Y-149795815D01*
X125025706Y-149743011D01*
X125014500Y-149691500D01*
X125014500Y-148649216D01*
X125017561Y-148627276D01*
X125018401Y-148618207D01*
X125015029Y-148581817D01*
X125014500Y-148570376D01*
X125014500Y-148562155D01*
X125012990Y-148554079D01*
X125011407Y-148542731D01*
X125008035Y-148506340D01*
X125005548Y-148497599D01*
X125002350Y-148488059D01*
X124999061Y-148479570D01*
X124999061Y-148479567D01*
X124999059Y-148479564D01*
X124999058Y-148479561D01*
X124979821Y-148448492D01*
X124974252Y-148438496D01*
X124957958Y-148405772D01*
X124957956Y-148405770D01*
X124957955Y-148405768D01*
X124952475Y-148398511D01*
X124946061Y-148390786D01*
X124939916Y-148384045D01*
X124910750Y-148362020D01*
X124901949Y-148354712D01*
X124874933Y-148330084D01*
X124874931Y-148330083D01*
X124874929Y-148330081D01*
X124867232Y-148325315D01*
X124858390Y-148320390D01*
X124850264Y-148316343D01*
X124815120Y-148306344D01*
X124804265Y-148302706D01*
X124770172Y-148289499D01*
X124761236Y-148287829D01*
X124751257Y-148286437D01*
X124742208Y-148285599D01*
X124742207Y-148285599D01*
X124705817Y-148288971D01*
X124694376Y-148289500D01*
X94039215Y-148289500D01*
X94017257Y-148286437D01*
X94008208Y-148285599D01*
X94008207Y-148285599D01*
X93971817Y-148288971D01*
X93960376Y-148289500D01*
X93952154Y-148289500D01*
X93944069Y-148291011D01*
X93932739Y-148292591D01*
X93896339Y-148295964D01*
X93887644Y-148298438D01*
X93878008Y-148301668D01*
X93869563Y-148304940D01*
X93838494Y-148324176D01*
X93828496Y-148329746D01*
X93795769Y-148346042D01*
X93788547Y-148351496D01*
X93780751Y-148357970D01*
X93774044Y-148364084D01*
X93752026Y-148393241D01*
X93744713Y-148402048D01*
X93720085Y-148429064D01*
X93715322Y-148436756D01*
X93710385Y-148445620D01*
X93706343Y-148453737D01*
X93696343Y-148488884D01*
X93692704Y-148499741D01*
X93679499Y-148533826D01*
X93677829Y-148542762D01*
X93676437Y-148552745D01*
X93675599Y-148561791D01*
X93675599Y-148561792D01*
X93675599Y-148561793D01*
X93677455Y-148581817D01*
X93678971Y-148598182D01*
X93679500Y-148609623D01*
X93679500Y-149691500D01*
X93659815Y-149758539D01*
X93607011Y-149804294D01*
X93555500Y-149815500D01*
X61124500Y-149815500D01*
X61057461Y-149795815D01*
X61011706Y-149743011D01*
X61000500Y-149691500D01*
X61000500Y-143619006D01*
X99284225Y-143619006D01*
X99302892Y-143844289D01*
X99358388Y-144063439D01*
X99449198Y-144270466D01*
X99572842Y-144459716D01*
X99572850Y-144459727D01*
X99676752Y-144572593D01*
X99725954Y-144626040D01*
X99904351Y-144764893D01*
X100103169Y-144872488D01*
X100103172Y-144872489D01*
X100316982Y-144945890D01*
X100316984Y-144945890D01*
X100316986Y-144945891D01*
X100539967Y-144983100D01*
X100539968Y-144983100D01*
X100766032Y-144983100D01*
X100766033Y-144983100D01*
X100989014Y-144945891D01*
X101202831Y-144872488D01*
X101401649Y-144764893D01*
X101580046Y-144626040D01*
X101733156Y-144459719D01*
X101819193Y-144328028D01*
X101872338Y-144282675D01*
X101941569Y-144273251D01*
X102004905Y-144302753D01*
X102026804Y-144328025D01*
X102112844Y-144459719D01*
X102112849Y-144459724D01*
X102112850Y-144459727D01*
X102216752Y-144572593D01*
X102265954Y-144626040D01*
X102444351Y-144764893D01*
X102643169Y-144872488D01*
X102643172Y-144872489D01*
X102856982Y-144945890D01*
X102856984Y-144945890D01*
X102856986Y-144945891D01*
X103079967Y-144983100D01*
X103079968Y-144983100D01*
X103306032Y-144983100D01*
X103306033Y-144983100D01*
X103529014Y-144945891D01*
X103742831Y-144872488D01*
X103941649Y-144764893D01*
X104120046Y-144626040D01*
X104273156Y-144459719D01*
X104359193Y-144328028D01*
X104412338Y-144282675D01*
X104481569Y-144273251D01*
X104544905Y-144302753D01*
X104566804Y-144328025D01*
X104652844Y-144459719D01*
X104652849Y-144459724D01*
X104652850Y-144459727D01*
X104756752Y-144572593D01*
X104805954Y-144626040D01*
X104984351Y-144764893D01*
X105183169Y-144872488D01*
X105183172Y-144872489D01*
X105396982Y-144945890D01*
X105396984Y-144945890D01*
X105396986Y-144945891D01*
X105619967Y-144983100D01*
X105619968Y-144983100D01*
X105846032Y-144983100D01*
X105846033Y-144983100D01*
X106069014Y-144945891D01*
X106282831Y-144872488D01*
X106481649Y-144764893D01*
X106660046Y-144626040D01*
X106813156Y-144459719D01*
X106899193Y-144328028D01*
X106952338Y-144282675D01*
X107021569Y-144273251D01*
X107084905Y-144302753D01*
X107106804Y-144328025D01*
X107192844Y-144459719D01*
X107192849Y-144459724D01*
X107192850Y-144459727D01*
X107296752Y-144572593D01*
X107345954Y-144626040D01*
X107524351Y-144764893D01*
X107723169Y-144872488D01*
X107723172Y-144872489D01*
X107936982Y-144945890D01*
X107936984Y-144945890D01*
X107936986Y-144945891D01*
X108159967Y-144983100D01*
X108159968Y-144983100D01*
X108386032Y-144983100D01*
X108386033Y-144983100D01*
X108609014Y-144945891D01*
X108822831Y-144872488D01*
X109021649Y-144764893D01*
X109200046Y-144626040D01*
X109353156Y-144459719D01*
X109439193Y-144328028D01*
X109492338Y-144282675D01*
X109561569Y-144273251D01*
X109624905Y-144302753D01*
X109646804Y-144328025D01*
X109732844Y-144459719D01*
X109732849Y-144459724D01*
X109732850Y-144459727D01*
X109836752Y-144572593D01*
X109885954Y-144626040D01*
X110064351Y-144764893D01*
X110263169Y-144872488D01*
X110263172Y-144872489D01*
X110476982Y-144945890D01*
X110476984Y-144945890D01*
X110476986Y-144945891D01*
X110699967Y-144983100D01*
X110699968Y-144983100D01*
X110926032Y-144983100D01*
X110926033Y-144983100D01*
X111149014Y-144945891D01*
X111362831Y-144872488D01*
X111561649Y-144764893D01*
X111740046Y-144626040D01*
X111893156Y-144459719D01*
X111979193Y-144328028D01*
X112032338Y-144282675D01*
X112101569Y-144273251D01*
X112164905Y-144302753D01*
X112186804Y-144328025D01*
X112272844Y-144459719D01*
X112272849Y-144459724D01*
X112272850Y-144459727D01*
X112376752Y-144572593D01*
X112425954Y-144626040D01*
X112604351Y-144764893D01*
X112803169Y-144872488D01*
X112803172Y-144872489D01*
X113016982Y-144945890D01*
X113016984Y-144945890D01*
X113016986Y-144945891D01*
X113239967Y-144983100D01*
X113239968Y-144983100D01*
X113466032Y-144983100D01*
X113466033Y-144983100D01*
X113689014Y-144945891D01*
X113902831Y-144872488D01*
X114101649Y-144764893D01*
X114280046Y-144626040D01*
X114433156Y-144459719D01*
X114519193Y-144328028D01*
X114572338Y-144282675D01*
X114641569Y-144273251D01*
X114704905Y-144302753D01*
X114726804Y-144328025D01*
X114812844Y-144459719D01*
X114812849Y-144459724D01*
X114812850Y-144459727D01*
X114916752Y-144572593D01*
X114965954Y-144626040D01*
X115144351Y-144764893D01*
X115343169Y-144872488D01*
X115343172Y-144872489D01*
X115556982Y-144945890D01*
X115556984Y-144945890D01*
X115556986Y-144945891D01*
X115779967Y-144983100D01*
X115779968Y-144983100D01*
X116006032Y-144983100D01*
X116006033Y-144983100D01*
X116229014Y-144945891D01*
X116442831Y-144872488D01*
X116641649Y-144764893D01*
X116820046Y-144626040D01*
X116874435Y-144566957D01*
X116934320Y-144530969D01*
X117004158Y-144533069D01*
X117061774Y-144572593D01*
X117081845Y-144607609D01*
X117125602Y-144724928D01*
X117125606Y-144724935D01*
X117211852Y-144840144D01*
X117211855Y-144840147D01*
X117327064Y-144926393D01*
X117327071Y-144926397D01*
X117461917Y-144976691D01*
X117461916Y-144976691D01*
X117468844Y-144977435D01*
X117521527Y-144983100D01*
X119344472Y-144983099D01*
X119404083Y-144976691D01*
X119538931Y-144926396D01*
X119654146Y-144840146D01*
X119740396Y-144724931D01*
X119790691Y-144590083D01*
X119797100Y-144530473D01*
X119797099Y-142707528D01*
X119790691Y-142647917D01*
X119784154Y-142630391D01*
X119740397Y-142513071D01*
X119740393Y-142513064D01*
X119654147Y-142397855D01*
X119654144Y-142397852D01*
X119538935Y-142311606D01*
X119538928Y-142311602D01*
X119423510Y-142268554D01*
X119367576Y-142226683D01*
X119343159Y-142161218D01*
X119358011Y-142092945D01*
X119375614Y-142068388D01*
X119512762Y-141919408D01*
X119636360Y-141730225D01*
X119727135Y-141523278D01*
X119776334Y-141329000D01*
X118876196Y-141329000D01*
X118899845Y-141292201D01*
X118941000Y-141152039D01*
X118941000Y-141005961D01*
X118899845Y-140865799D01*
X118876196Y-140829000D01*
X119776334Y-140829000D01*
X119727135Y-140634721D01*
X119636360Y-140427774D01*
X119512759Y-140238587D01*
X119359715Y-140072338D01*
X119359703Y-140072327D01*
X119181376Y-139933529D01*
X118982630Y-139825972D01*
X118982624Y-139825970D01*
X118768893Y-139752596D01*
X118683000Y-139738263D01*
X118683000Y-140634702D01*
X118577592Y-140586565D01*
X118469334Y-140571000D01*
X118396666Y-140571000D01*
X118288408Y-140586565D01*
X118183000Y-140634702D01*
X118183000Y-139738263D01*
X118182999Y-139738263D01*
X118097106Y-139752596D01*
X117883375Y-139825970D01*
X117883369Y-139825972D01*
X117684623Y-139933529D01*
X117506296Y-140072327D01*
X117506284Y-140072338D01*
X117353242Y-140238585D01*
X117266809Y-140370882D01*
X117213662Y-140416238D01*
X117144431Y-140425662D01*
X117081095Y-140396160D01*
X117059191Y-140370882D01*
X116972757Y-140238585D01*
X116819715Y-140072338D01*
X116819703Y-140072327D01*
X116641376Y-139933529D01*
X116442630Y-139825972D01*
X116442624Y-139825970D01*
X116228893Y-139752596D01*
X116143000Y-139738263D01*
X116143000Y-140634702D01*
X116037592Y-140586565D01*
X115929334Y-140571000D01*
X115856666Y-140571000D01*
X115748408Y-140586565D01*
X115643000Y-140634702D01*
X115643000Y-139738263D01*
X115642999Y-139738263D01*
X115557106Y-139752596D01*
X115343375Y-139825970D01*
X115343369Y-139825972D01*
X115144623Y-139933529D01*
X114966296Y-140072327D01*
X114966284Y-140072338D01*
X114813242Y-140238585D01*
X114726809Y-140370882D01*
X114673662Y-140416238D01*
X114604431Y-140425662D01*
X114541095Y-140396160D01*
X114519191Y-140370882D01*
X114432757Y-140238585D01*
X114279715Y-140072338D01*
X114279703Y-140072327D01*
X114101376Y-139933529D01*
X113902630Y-139825972D01*
X113902624Y-139825970D01*
X113688893Y-139752596D01*
X113603000Y-139738263D01*
X113603000Y-140634702D01*
X113497592Y-140586565D01*
X113389334Y-140571000D01*
X113316666Y-140571000D01*
X113208408Y-140586565D01*
X113103000Y-140634702D01*
X113103000Y-139738263D01*
X113102999Y-139738263D01*
X113017106Y-139752596D01*
X112803375Y-139825970D01*
X112803369Y-139825972D01*
X112604623Y-139933529D01*
X112426296Y-140072327D01*
X112426284Y-140072338D01*
X112273242Y-140238585D01*
X112186809Y-140370882D01*
X112133662Y-140416238D01*
X112064431Y-140425662D01*
X112001095Y-140396160D01*
X111979191Y-140370882D01*
X111892757Y-140238585D01*
X111739715Y-140072338D01*
X111739703Y-140072327D01*
X111561376Y-139933529D01*
X111362630Y-139825972D01*
X111362624Y-139825970D01*
X111148893Y-139752596D01*
X111063000Y-139738263D01*
X111063000Y-140634702D01*
X110957592Y-140586565D01*
X110849334Y-140571000D01*
X110776666Y-140571000D01*
X110668408Y-140586565D01*
X110563000Y-140634702D01*
X110563000Y-139738263D01*
X110562999Y-139738263D01*
X110477106Y-139752596D01*
X110263375Y-139825970D01*
X110263369Y-139825972D01*
X110064623Y-139933529D01*
X109886296Y-140072327D01*
X109886284Y-140072338D01*
X109733242Y-140238585D01*
X109646809Y-140370882D01*
X109593662Y-140416238D01*
X109524431Y-140425662D01*
X109461095Y-140396160D01*
X109439191Y-140370882D01*
X109352757Y-140238585D01*
X109199715Y-140072338D01*
X109199703Y-140072327D01*
X109021376Y-139933529D01*
X108822630Y-139825972D01*
X108822624Y-139825970D01*
X108608893Y-139752596D01*
X108523000Y-139738263D01*
X108523000Y-140634702D01*
X108417592Y-140586565D01*
X108309334Y-140571000D01*
X108236666Y-140571000D01*
X108128408Y-140586565D01*
X108023000Y-140634702D01*
X108023000Y-139738263D01*
X108022999Y-139738263D01*
X107937106Y-139752596D01*
X107723375Y-139825970D01*
X107723369Y-139825972D01*
X107524623Y-139933529D01*
X107346296Y-140072327D01*
X107346284Y-140072338D01*
X107193242Y-140238585D01*
X107106809Y-140370882D01*
X107053662Y-140416238D01*
X106984431Y-140425662D01*
X106921095Y-140396160D01*
X106899191Y-140370882D01*
X106812757Y-140238585D01*
X106659715Y-140072338D01*
X106659703Y-140072327D01*
X106481376Y-139933529D01*
X106282630Y-139825972D01*
X106282624Y-139825970D01*
X106068893Y-139752596D01*
X105983000Y-139738263D01*
X105983000Y-140634702D01*
X105877592Y-140586565D01*
X105769334Y-140571000D01*
X105696666Y-140571000D01*
X105588408Y-140586565D01*
X105483000Y-140634702D01*
X105483000Y-139738263D01*
X105482999Y-139738263D01*
X105397106Y-139752596D01*
X105183375Y-139825970D01*
X105183369Y-139825972D01*
X104984623Y-139933529D01*
X104806296Y-140072327D01*
X104806284Y-140072338D01*
X104653242Y-140238585D01*
X104566809Y-140370882D01*
X104513662Y-140416238D01*
X104444431Y-140425662D01*
X104381095Y-140396160D01*
X104359191Y-140370882D01*
X104272757Y-140238585D01*
X104119715Y-140072338D01*
X104119703Y-140072327D01*
X103941376Y-139933529D01*
X103742630Y-139825972D01*
X103742624Y-139825970D01*
X103528893Y-139752596D01*
X103443000Y-139738263D01*
X103443000Y-140634702D01*
X103337592Y-140586565D01*
X103229334Y-140571000D01*
X103156666Y-140571000D01*
X103048408Y-140586565D01*
X102943000Y-140634702D01*
X102943000Y-139738263D01*
X102942999Y-139738263D01*
X102857106Y-139752596D01*
X102643375Y-139825970D01*
X102643369Y-139825972D01*
X102444623Y-139933529D01*
X102266296Y-140072327D01*
X102266284Y-140072338D01*
X102113242Y-140238585D01*
X102026809Y-140370882D01*
X101973662Y-140416238D01*
X101904431Y-140425662D01*
X101841095Y-140396160D01*
X101819191Y-140370882D01*
X101732757Y-140238585D01*
X101579715Y-140072338D01*
X101579703Y-140072327D01*
X101401376Y-139933529D01*
X101202630Y-139825972D01*
X101202624Y-139825970D01*
X100988893Y-139752596D01*
X100903000Y-139738263D01*
X100903000Y-140634702D01*
X100797592Y-140586565D01*
X100689334Y-140571000D01*
X100616666Y-140571000D01*
X100508408Y-140586565D01*
X100403000Y-140634702D01*
X100403000Y-139738263D01*
X100402999Y-139738263D01*
X100317106Y-139752596D01*
X100103375Y-139825970D01*
X100103369Y-139825972D01*
X99904623Y-139933529D01*
X99726296Y-140072327D01*
X99726284Y-140072338D01*
X99573240Y-140238587D01*
X99449639Y-140427774D01*
X99358864Y-140634721D01*
X99309666Y-140829000D01*
X100209804Y-140829000D01*
X100186155Y-140865799D01*
X100145000Y-141005961D01*
X100145000Y-141152039D01*
X100186155Y-141292201D01*
X100209804Y-141329000D01*
X99309666Y-141329000D01*
X99358864Y-141523278D01*
X99449639Y-141730225D01*
X99573240Y-141919412D01*
X99726284Y-142085661D01*
X99726296Y-142085672D01*
X99904623Y-142224470D01*
X99904632Y-142224476D01*
X99932691Y-142239661D01*
X99982282Y-142288880D01*
X99997389Y-142357097D01*
X99973218Y-142422653D01*
X99932692Y-142457769D01*
X99904356Y-142473103D01*
X99904353Y-142473105D01*
X99725955Y-142611959D01*
X99725950Y-142611963D01*
X99572850Y-142778272D01*
X99572842Y-142778283D01*
X99449198Y-142967533D01*
X99358388Y-143174560D01*
X99302892Y-143393710D01*
X99284225Y-143618993D01*
X99284225Y-143619006D01*
X61000500Y-143619006D01*
X61000500Y-131897870D01*
X84499500Y-131897870D01*
X84499501Y-131897876D01*
X84505908Y-131957483D01*
X84556202Y-132092328D01*
X84556206Y-132092335D01*
X84642452Y-132207544D01*
X84642455Y-132207547D01*
X84757664Y-132293793D01*
X84757671Y-132293797D01*
X84892517Y-132344091D01*
X84892516Y-132344091D01*
X84899444Y-132344835D01*
X84952127Y-132350500D01*
X88047872Y-132350499D01*
X88107483Y-132344091D01*
X88242331Y-132293796D01*
X88357546Y-132207546D01*
X88443796Y-132092331D01*
X88452948Y-132067793D01*
X106851599Y-132067793D01*
X106853455Y-132087817D01*
X106854971Y-132104182D01*
X106855500Y-132115623D01*
X106855500Y-132123843D01*
X106855501Y-132123854D01*
X106857011Y-132131937D01*
X106858591Y-132143264D01*
X106861964Y-132179658D01*
X106864443Y-132188372D01*
X106867667Y-132197989D01*
X106870938Y-132206432D01*
X106874359Y-132211957D01*
X106887897Y-132233822D01*
X106890177Y-132237503D01*
X106895746Y-132247502D01*
X106899819Y-132255680D01*
X106912041Y-132280228D01*
X106917526Y-132287490D01*
X106923957Y-132295235D01*
X106930080Y-132301951D01*
X106959249Y-132323979D01*
X106968061Y-132331296D01*
X106995069Y-132355918D01*
X107002797Y-132360702D01*
X107011580Y-132365594D01*
X107019732Y-132369653D01*
X107019736Y-132369656D01*
X107054895Y-132379659D01*
X107065742Y-132383295D01*
X107099827Y-132396500D01*
X107099828Y-132396500D01*
X107108755Y-132398169D01*
X107118742Y-132399562D01*
X107127788Y-132400399D01*
X107127793Y-132400401D01*
X107164183Y-132397028D01*
X107175624Y-132396500D01*
X116096785Y-132396500D01*
X116118742Y-132399562D01*
X116127788Y-132400399D01*
X116127793Y-132400401D01*
X116164183Y-132397028D01*
X116175624Y-132396500D01*
X116183845Y-132396500D01*
X116186407Y-132396020D01*
X116191921Y-132394989D01*
X116203259Y-132393407D01*
X116239660Y-132390035D01*
X116239666Y-132390031D01*
X116248421Y-132387541D01*
X116257940Y-132384350D01*
X116266431Y-132381061D01*
X116266433Y-132381061D01*
X116297521Y-132361811D01*
X116307498Y-132356254D01*
X116340228Y-132339958D01*
X116340230Y-132339954D01*
X116347523Y-132334448D01*
X116355197Y-132328076D01*
X116361949Y-132321921D01*
X116361949Y-132321920D01*
X116361952Y-132321919D01*
X116383990Y-132292734D01*
X116391275Y-132283961D01*
X116415916Y-132256933D01*
X116415918Y-132256927D01*
X116420721Y-132249170D01*
X116425579Y-132240448D01*
X116429651Y-132232269D01*
X116429656Y-132232264D01*
X116439663Y-132197089D01*
X116443292Y-132186264D01*
X116456500Y-132152173D01*
X116456500Y-132152171D01*
X116456501Y-132152169D01*
X116458172Y-132143229D01*
X116459561Y-132133276D01*
X116460401Y-132124207D01*
X116457029Y-132087817D01*
X116456500Y-132076376D01*
X116456500Y-131939793D01*
X126033599Y-131939793D01*
X126035238Y-131957482D01*
X126036971Y-131976182D01*
X126037500Y-131987623D01*
X126037500Y-131995843D01*
X126037501Y-131995854D01*
X126039011Y-132003937D01*
X126040591Y-132015264D01*
X126043964Y-132051658D01*
X126046443Y-132060372D01*
X126049667Y-132069989D01*
X126052938Y-132078432D01*
X126052939Y-132078433D01*
X126068933Y-132104265D01*
X126072177Y-132109503D01*
X126077746Y-132119502D01*
X126082442Y-132128931D01*
X126094041Y-132152228D01*
X126099526Y-132159490D01*
X126105957Y-132167235D01*
X126112080Y-132173951D01*
X126141249Y-132195979D01*
X126150057Y-132203293D01*
X126154723Y-132207546D01*
X126177069Y-132227918D01*
X126184797Y-132232702D01*
X126193580Y-132237594D01*
X126201732Y-132241653D01*
X126201736Y-132241656D01*
X126236895Y-132251659D01*
X126247742Y-132255295D01*
X126281827Y-132268500D01*
X126281828Y-132268500D01*
X126290755Y-132270169D01*
X126300742Y-132271562D01*
X126309788Y-132272399D01*
X126309793Y-132272401D01*
X126346183Y-132269028D01*
X126357624Y-132268500D01*
X135278785Y-132268500D01*
X135300742Y-132271562D01*
X135309788Y-132272399D01*
X135309793Y-132272401D01*
X135346183Y-132269028D01*
X135357624Y-132268500D01*
X135365845Y-132268500D01*
X135368407Y-132268020D01*
X135373921Y-132266989D01*
X135385259Y-132265407D01*
X135421660Y-132262035D01*
X135421666Y-132262031D01*
X135430421Y-132259541D01*
X135439940Y-132256350D01*
X135448431Y-132253061D01*
X135448433Y-132253061D01*
X135479521Y-132233811D01*
X135489498Y-132228254D01*
X135522228Y-132211958D01*
X135522230Y-132211954D01*
X135529523Y-132206448D01*
X135537197Y-132200076D01*
X135543949Y-132193921D01*
X135543949Y-132193920D01*
X135543952Y-132193919D01*
X135565990Y-132164734D01*
X135573275Y-132155961D01*
X135597916Y-132128933D01*
X135597918Y-132128927D01*
X135602721Y-132121170D01*
X135607579Y-132112448D01*
X135611651Y-132104269D01*
X135611656Y-132104264D01*
X135621663Y-132069089D01*
X135625289Y-132058270D01*
X135638500Y-132024173D01*
X135638500Y-132024171D01*
X135638501Y-132024169D01*
X135640172Y-132015229D01*
X135641561Y-132005276D01*
X135642401Y-131996207D01*
X135639029Y-131959817D01*
X135638500Y-131948376D01*
X135638500Y-131930078D01*
X145168619Y-131930078D01*
X145171375Y-131959817D01*
X145171991Y-131966467D01*
X145172520Y-131977908D01*
X145172520Y-131986128D01*
X145172521Y-131986139D01*
X145174031Y-131994222D01*
X145175611Y-132005549D01*
X145178984Y-132041943D01*
X145181463Y-132050657D01*
X145184687Y-132060274D01*
X145187958Y-132068717D01*
X145193974Y-132078433D01*
X145203953Y-132094550D01*
X145207197Y-132099788D01*
X145212766Y-132109787D01*
X145218751Y-132121806D01*
X145229061Y-132142513D01*
X145234546Y-132149775D01*
X145240977Y-132157520D01*
X145247100Y-132164236D01*
X145276269Y-132186264D01*
X145285077Y-132193578D01*
X145285454Y-132193921D01*
X145312089Y-132218203D01*
X145319817Y-132222987D01*
X145328600Y-132227879D01*
X145336752Y-132231938D01*
X145336756Y-132231941D01*
X145371915Y-132241944D01*
X145382762Y-132245580D01*
X145416847Y-132258785D01*
X145416848Y-132258785D01*
X145425775Y-132260454D01*
X145435762Y-132261847D01*
X145444808Y-132262684D01*
X145444813Y-132262686D01*
X145481203Y-132259313D01*
X145492644Y-132258785D01*
X154413805Y-132258785D01*
X154435762Y-132261847D01*
X154444808Y-132262684D01*
X154444813Y-132262686D01*
X154481203Y-132259313D01*
X154492644Y-132258785D01*
X154500865Y-132258785D01*
X154503427Y-132258305D01*
X154508941Y-132257274D01*
X154520279Y-132255692D01*
X154556680Y-132252320D01*
X154556686Y-132252316D01*
X154565441Y-132249826D01*
X154574960Y-132246635D01*
X154583451Y-132243346D01*
X154583453Y-132243346D01*
X154614541Y-132224096D01*
X154624518Y-132218539D01*
X154657248Y-132202243D01*
X154657250Y-132202239D01*
X154664543Y-132196733D01*
X154672217Y-132190361D01*
X154678969Y-132184206D01*
X154678969Y-132184205D01*
X154678972Y-132184204D01*
X154701010Y-132155019D01*
X154708295Y-132146246D01*
X154732936Y-132119218D01*
X154732938Y-132119212D01*
X154737741Y-132111455D01*
X154742599Y-132102733D01*
X154746671Y-132094554D01*
X154746676Y-132094549D01*
X154756683Y-132059374D01*
X154760309Y-132048555D01*
X154773520Y-132014458D01*
X154773520Y-132014456D01*
X154773521Y-132014454D01*
X154775192Y-132005514D01*
X154776581Y-131995561D01*
X154777421Y-131986492D01*
X154774049Y-131950102D01*
X154773572Y-131939793D01*
X164359599Y-131939793D01*
X164361238Y-131957482D01*
X164362971Y-131976182D01*
X164363500Y-131987623D01*
X164363500Y-131995843D01*
X164363501Y-131995854D01*
X164365011Y-132003937D01*
X164366591Y-132015264D01*
X164369964Y-132051658D01*
X164372443Y-132060372D01*
X164375667Y-132069989D01*
X164378938Y-132078432D01*
X164378939Y-132078433D01*
X164394933Y-132104265D01*
X164398177Y-132109503D01*
X164403746Y-132119502D01*
X164408442Y-132128931D01*
X164420041Y-132152228D01*
X164425526Y-132159490D01*
X164431957Y-132167235D01*
X164438080Y-132173951D01*
X164467249Y-132195979D01*
X164476057Y-132203293D01*
X164480723Y-132207546D01*
X164503069Y-132227918D01*
X164510797Y-132232702D01*
X164519580Y-132237594D01*
X164527732Y-132241653D01*
X164527736Y-132241656D01*
X164562895Y-132251659D01*
X164573742Y-132255295D01*
X164607827Y-132268500D01*
X164607828Y-132268500D01*
X164616755Y-132270169D01*
X164626742Y-132271562D01*
X164635788Y-132272399D01*
X164635793Y-132272401D01*
X164672183Y-132269028D01*
X164683624Y-132268500D01*
X173604785Y-132268500D01*
X173626742Y-132271562D01*
X173635788Y-132272399D01*
X173635793Y-132272401D01*
X173672183Y-132269028D01*
X173683624Y-132268500D01*
X173691845Y-132268500D01*
X173694407Y-132268020D01*
X173699921Y-132266989D01*
X173711259Y-132265407D01*
X173747660Y-132262035D01*
X173747666Y-132262031D01*
X173756421Y-132259541D01*
X173765940Y-132256350D01*
X173774431Y-132253061D01*
X173774433Y-132253061D01*
X173805521Y-132233811D01*
X173815498Y-132228254D01*
X173848228Y-132211958D01*
X173848230Y-132211954D01*
X173855523Y-132206448D01*
X173863197Y-132200076D01*
X173869949Y-132193921D01*
X173869949Y-132193920D01*
X173869952Y-132193919D01*
X173891990Y-132164734D01*
X173899275Y-132155961D01*
X173923916Y-132128933D01*
X173923918Y-132128927D01*
X173928721Y-132121170D01*
X173933579Y-132112448D01*
X173937651Y-132104269D01*
X173937656Y-132104264D01*
X173947663Y-132069089D01*
X173951289Y-132058270D01*
X173964500Y-132024173D01*
X173964500Y-132024171D01*
X173964501Y-132024169D01*
X173966172Y-132015229D01*
X173967561Y-132005276D01*
X173968401Y-131996207D01*
X173965029Y-131959817D01*
X173964500Y-131948376D01*
X173964500Y-131939793D01*
X183409599Y-131939793D01*
X183411238Y-131957482D01*
X183412971Y-131976182D01*
X183413500Y-131987623D01*
X183413500Y-131995843D01*
X183413501Y-131995854D01*
X183415011Y-132003937D01*
X183416591Y-132015264D01*
X183419964Y-132051658D01*
X183422443Y-132060372D01*
X183425667Y-132069989D01*
X183428938Y-132078432D01*
X183428939Y-132078433D01*
X183444933Y-132104265D01*
X183448177Y-132109503D01*
X183453746Y-132119502D01*
X183458442Y-132128931D01*
X183470041Y-132152228D01*
X183475526Y-132159490D01*
X183481957Y-132167235D01*
X183488080Y-132173951D01*
X183517249Y-132195979D01*
X183526057Y-132203293D01*
X183530723Y-132207546D01*
X183553069Y-132227918D01*
X183560797Y-132232702D01*
X183569580Y-132237594D01*
X183577732Y-132241653D01*
X183577736Y-132241656D01*
X183612895Y-132251659D01*
X183623742Y-132255295D01*
X183657827Y-132268500D01*
X183657828Y-132268500D01*
X183666755Y-132270169D01*
X183676742Y-132271562D01*
X183685788Y-132272399D01*
X183685793Y-132272401D01*
X183722183Y-132269028D01*
X183733624Y-132268500D01*
X192654785Y-132268500D01*
X192676742Y-132271562D01*
X192685788Y-132272399D01*
X192685793Y-132272401D01*
X192722183Y-132269028D01*
X192733624Y-132268500D01*
X192741845Y-132268500D01*
X192744407Y-132268020D01*
X192749921Y-132266989D01*
X192761259Y-132265407D01*
X192797660Y-132262035D01*
X192797666Y-132262031D01*
X192806421Y-132259541D01*
X192815940Y-132256350D01*
X192824431Y-132253061D01*
X192824433Y-132253061D01*
X192855521Y-132233811D01*
X192865498Y-132228254D01*
X192898228Y-132211958D01*
X192898230Y-132211954D01*
X192905523Y-132206448D01*
X192913197Y-132200076D01*
X192919949Y-132193921D01*
X192919949Y-132193920D01*
X192919952Y-132193919D01*
X192941990Y-132164734D01*
X192949275Y-132155961D01*
X192973916Y-132128933D01*
X192973918Y-132128927D01*
X192978721Y-132121170D01*
X192983579Y-132112448D01*
X192987651Y-132104269D01*
X192987656Y-132104264D01*
X192997663Y-132069089D01*
X193001289Y-132058270D01*
X193014500Y-132024173D01*
X193014500Y-132024171D01*
X193014501Y-132024169D01*
X193016172Y-132015229D01*
X193017561Y-132005276D01*
X193018401Y-131996207D01*
X193015029Y-131959817D01*
X193014500Y-131948376D01*
X193014500Y-131897870D01*
X211499500Y-131897870D01*
X211499501Y-131897876D01*
X211505908Y-131957483D01*
X211556202Y-132092328D01*
X211556206Y-132092335D01*
X211642452Y-132207544D01*
X211642455Y-132207547D01*
X211757664Y-132293793D01*
X211757671Y-132293797D01*
X211892517Y-132344091D01*
X211892516Y-132344091D01*
X211899444Y-132344835D01*
X211952127Y-132350500D01*
X215047872Y-132350499D01*
X215107483Y-132344091D01*
X215242331Y-132293796D01*
X215357546Y-132207546D01*
X215443796Y-132092331D01*
X215494091Y-131957483D01*
X215500500Y-131897873D01*
X215500499Y-129302128D01*
X215494091Y-129242517D01*
X215489781Y-129230962D01*
X215443797Y-129107671D01*
X215443793Y-129107664D01*
X215357547Y-128992455D01*
X215357544Y-128992452D01*
X215242335Y-128906206D01*
X215242328Y-128906202D01*
X215107482Y-128855908D01*
X215107483Y-128855908D01*
X215047883Y-128849501D01*
X215047881Y-128849500D01*
X215047873Y-128849500D01*
X215047864Y-128849500D01*
X211952129Y-128849500D01*
X211952123Y-128849501D01*
X211892516Y-128855908D01*
X211757671Y-128906202D01*
X211757664Y-128906206D01*
X211642455Y-128992452D01*
X211642452Y-128992455D01*
X211556206Y-129107664D01*
X211556202Y-129107671D01*
X211505908Y-129242517D01*
X211499501Y-129302116D01*
X211499501Y-129302123D01*
X211499500Y-129302135D01*
X211499500Y-131897870D01*
X193014500Y-131897870D01*
X193014500Y-131096997D01*
X193034185Y-131029958D01*
X193086989Y-130984203D01*
X193156147Y-130974259D01*
X193219703Y-131003284D01*
X193226181Y-131009316D01*
X193400594Y-131183729D01*
X193400612Y-131183745D01*
X193629682Y-131355224D01*
X193629690Y-131355229D01*
X193880833Y-131492364D01*
X193880832Y-131492364D01*
X193880836Y-131492365D01*
X193880839Y-131492367D01*
X194148954Y-131592369D01*
X194148960Y-131592370D01*
X194148962Y-131592371D01*
X194428566Y-131653195D01*
X194428568Y-131653195D01*
X194428572Y-131653196D01*
X194682220Y-131671337D01*
X194713999Y-131673610D01*
X194714000Y-131673610D01*
X194714001Y-131673610D01*
X194743502Y-131671500D01*
X194999428Y-131653196D01*
X195024165Y-131647815D01*
X195279037Y-131592371D01*
X195279037Y-131592370D01*
X195279046Y-131592369D01*
X195547161Y-131492367D01*
X195798315Y-131355226D01*
X196027395Y-131183739D01*
X196229739Y-130981395D01*
X196401226Y-130752315D01*
X196538367Y-130501161D01*
X196638369Y-130233046D01*
X196699196Y-129953428D01*
X196719610Y-129668000D01*
X196699196Y-129382572D01*
X196697081Y-129372851D01*
X196638371Y-129102962D01*
X196638370Y-129102960D01*
X196638369Y-129102954D01*
X196538367Y-128834839D01*
X196497760Y-128760474D01*
X196401229Y-128583690D01*
X196401224Y-128583682D01*
X196229745Y-128354612D01*
X196229729Y-128354594D01*
X196027405Y-128152270D01*
X196027387Y-128152254D01*
X195798317Y-127980775D01*
X195798309Y-127980770D01*
X195547166Y-127843635D01*
X195547167Y-127843635D01*
X195404411Y-127790390D01*
X195279046Y-127743631D01*
X195279043Y-127743630D01*
X195279037Y-127743628D01*
X194999433Y-127682804D01*
X194714001Y-127662390D01*
X194713999Y-127662390D01*
X194428566Y-127682804D01*
X194148962Y-127743628D01*
X193880833Y-127843635D01*
X193629690Y-127980770D01*
X193629682Y-127980775D01*
X193400612Y-128152254D01*
X193400594Y-128152270D01*
X193226181Y-128326684D01*
X193164858Y-128360169D01*
X193095166Y-128355185D01*
X193039233Y-128313313D01*
X193014816Y-128247849D01*
X193014500Y-128239003D01*
X193014500Y-127500005D01*
X204994859Y-127500005D01*
X205015385Y-127747729D01*
X205015387Y-127747738D01*
X205076412Y-127988717D01*
X205176266Y-128216364D01*
X205276564Y-128369882D01*
X206016923Y-127629523D01*
X206040507Y-127709844D01*
X206118239Y-127830798D01*
X206226900Y-127924952D01*
X206357685Y-127984680D01*
X206367466Y-127986086D01*
X205629942Y-128723609D01*
X205676768Y-128760055D01*
X205676770Y-128760056D01*
X205895385Y-128878364D01*
X205895396Y-128878369D01*
X206130506Y-128959083D01*
X206375707Y-129000000D01*
X206624293Y-129000000D01*
X206869493Y-128959083D01*
X207104603Y-128878369D01*
X207104614Y-128878364D01*
X207323228Y-128760057D01*
X207323231Y-128760055D01*
X207370056Y-128723609D01*
X206632533Y-127986086D01*
X206642315Y-127984680D01*
X206773100Y-127924952D01*
X206881761Y-127830798D01*
X206959493Y-127709844D01*
X206983076Y-127629524D01*
X207723434Y-128369882D01*
X207823731Y-128216369D01*
X207923587Y-127988717D01*
X207984612Y-127747738D01*
X207984614Y-127747729D01*
X208005141Y-127500005D01*
X219494357Y-127500005D01*
X219514890Y-127747812D01*
X219514892Y-127747824D01*
X219575936Y-127988881D01*
X219675826Y-128216606D01*
X219811833Y-128424782D01*
X219811836Y-128424785D01*
X219980256Y-128607738D01*
X220176491Y-128760474D01*
X220176493Y-128760475D01*
X220394332Y-128878364D01*
X220395190Y-128878828D01*
X220614141Y-128953994D01*
X220628964Y-128959083D01*
X220630386Y-128959571D01*
X220875665Y-129000500D01*
X221124335Y-129000500D01*
X221369614Y-128959571D01*
X221604810Y-128878828D01*
X221823509Y-128760474D01*
X222019744Y-128607738D01*
X222188164Y-128424785D01*
X222324173Y-128216607D01*
X222424063Y-127988881D01*
X222485108Y-127747821D01*
X222485455Y-127743631D01*
X222505643Y-127500005D01*
X222505643Y-127499994D01*
X222485109Y-127252187D01*
X222485107Y-127252175D01*
X222424063Y-127011118D01*
X222324173Y-126783393D01*
X222188166Y-126575217D01*
X222070325Y-126447208D01*
X222019744Y-126392262D01*
X221930194Y-126322562D01*
X221918623Y-126313556D01*
X221877810Y-126256846D01*
X221873697Y-126227249D01*
X221132533Y-125486086D01*
X221142315Y-125484680D01*
X221273100Y-125424952D01*
X221381761Y-125330798D01*
X221459493Y-125209844D01*
X221483076Y-125129524D01*
X222223434Y-125869882D01*
X222323731Y-125716369D01*
X222423587Y-125488717D01*
X222484612Y-125247738D01*
X222484614Y-125247729D01*
X222505141Y-125000005D01*
X222505141Y-124999994D01*
X222484614Y-124752270D01*
X222484612Y-124752261D01*
X222423587Y-124511282D01*
X222323732Y-124283632D01*
X222211515Y-124111870D01*
X222191328Y-124044981D01*
X222210508Y-123977795D01*
X222241013Y-123944782D01*
X222242329Y-123943796D01*
X222242331Y-123943796D01*
X222357546Y-123857546D01*
X222443796Y-123742331D01*
X222494091Y-123607483D01*
X222500500Y-123547873D01*
X222500499Y-121452128D01*
X222494091Y-121392517D01*
X222479097Y-121352317D01*
X222443797Y-121257671D01*
X222443793Y-121257664D01*
X222357547Y-121142455D01*
X222357544Y-121142452D01*
X222242335Y-121056206D01*
X222242328Y-121056202D01*
X222107482Y-121005908D01*
X222107483Y-121005908D01*
X222047883Y-120999501D01*
X222047881Y-120999500D01*
X222047873Y-120999500D01*
X222047864Y-120999500D01*
X219952129Y-120999500D01*
X219952123Y-120999501D01*
X219892516Y-121005908D01*
X219757671Y-121056202D01*
X219757664Y-121056206D01*
X219642455Y-121142452D01*
X219642452Y-121142455D01*
X219556206Y-121257664D01*
X219556202Y-121257671D01*
X219505908Y-121392517D01*
X219499501Y-121452116D01*
X219499501Y-121452123D01*
X219499500Y-121452135D01*
X219499500Y-123547870D01*
X219499501Y-123547876D01*
X219505908Y-123607483D01*
X219556202Y-123742328D01*
X219556206Y-123742335D01*
X219642452Y-123857544D01*
X219642455Y-123857547D01*
X219758986Y-123944783D01*
X219800857Y-124000717D01*
X219805841Y-124070408D01*
X219788484Y-124111870D01*
X219676267Y-124283631D01*
X219576412Y-124511282D01*
X219515387Y-124752261D01*
X219515385Y-124752270D01*
X219494859Y-124999994D01*
X219494859Y-125000005D01*
X219515385Y-125247729D01*
X219515387Y-125247738D01*
X219576412Y-125488717D01*
X219676266Y-125716364D01*
X219776564Y-125869882D01*
X220516922Y-125129523D01*
X220540507Y-125209844D01*
X220618239Y-125330798D01*
X220726900Y-125424952D01*
X220857685Y-125484680D01*
X220867466Y-125486086D01*
X220124100Y-126229450D01*
X220113482Y-126276148D01*
X220081376Y-126313556D01*
X219980255Y-126392262D01*
X219811833Y-126575217D01*
X219675826Y-126783393D01*
X219575936Y-127011118D01*
X219514892Y-127252175D01*
X219514890Y-127252187D01*
X219494357Y-127499994D01*
X219494357Y-127500005D01*
X208005141Y-127500005D01*
X208005141Y-127499994D01*
X207984614Y-127252270D01*
X207984612Y-127252261D01*
X207923587Y-127011282D01*
X207823731Y-126783630D01*
X207723434Y-126630116D01*
X206983076Y-127370475D01*
X206959493Y-127290156D01*
X206881761Y-127169202D01*
X206773100Y-127075048D01*
X206642315Y-127015320D01*
X206632534Y-127013913D01*
X207370057Y-126276390D01*
X207370056Y-126276389D01*
X207323229Y-126239943D01*
X207104614Y-126121635D01*
X207104603Y-126121630D01*
X206869493Y-126040916D01*
X206624293Y-126000000D01*
X206375707Y-126000000D01*
X206130506Y-126040916D01*
X205895396Y-126121630D01*
X205895390Y-126121632D01*
X205676761Y-126239949D01*
X205629942Y-126276388D01*
X205629942Y-126276390D01*
X206367466Y-127013913D01*
X206357685Y-127015320D01*
X206226900Y-127075048D01*
X206118239Y-127169202D01*
X206040507Y-127290156D01*
X206016923Y-127370475D01*
X205276564Y-126630116D01*
X205176267Y-126783632D01*
X205076412Y-127011282D01*
X205015387Y-127252261D01*
X205015385Y-127252270D01*
X204994859Y-127499994D01*
X204994859Y-127500005D01*
X193014500Y-127500005D01*
X193014500Y-126319208D01*
X193034185Y-126252169D01*
X193086989Y-126206414D01*
X193129746Y-126198699D01*
X194036803Y-125291641D01*
X194060059Y-125345553D01*
X194164756Y-125486185D01*
X194299062Y-125598882D01*
X194390665Y-125644886D01*
X193487436Y-126548115D01*
X193629960Y-126654807D01*
X193629961Y-126654808D01*
X193881042Y-126791908D01*
X193881041Y-126791908D01*
X194149104Y-126891890D01*
X194428637Y-126952699D01*
X194713999Y-126973109D01*
X194714001Y-126973109D01*
X194999362Y-126952699D01*
X195278895Y-126891890D01*
X195546958Y-126791908D01*
X195798047Y-126654803D01*
X195940561Y-126548116D01*
X195940562Y-126548115D01*
X195039946Y-125647498D01*
X195052891Y-125642787D01*
X195199373Y-125546445D01*
X195319688Y-125418918D01*
X195392447Y-125292894D01*
X196294115Y-126194562D01*
X196294116Y-126194561D01*
X196400803Y-126052047D01*
X196537908Y-125800958D01*
X196637890Y-125532895D01*
X196698699Y-125253362D01*
X196719109Y-124968001D01*
X196719109Y-124967998D01*
X196698699Y-124682637D01*
X196637890Y-124403104D01*
X196537908Y-124135041D01*
X196400808Y-123883961D01*
X196400807Y-123883960D01*
X196294115Y-123741436D01*
X195391195Y-124644356D01*
X195367941Y-124590447D01*
X195263244Y-124449815D01*
X195128938Y-124337118D01*
X195037333Y-124291112D01*
X195940562Y-123387883D01*
X195940561Y-123387882D01*
X195798046Y-123281196D01*
X195798038Y-123281191D01*
X195546957Y-123144091D01*
X195546958Y-123144091D01*
X195278895Y-123044109D01*
X194999362Y-122983300D01*
X194714001Y-122962891D01*
X194713999Y-122962891D01*
X194428637Y-122983300D01*
X194149104Y-123044109D01*
X193881041Y-123144091D01*
X193629961Y-123281191D01*
X193629953Y-123281196D01*
X193487437Y-123387882D01*
X193487436Y-123387883D01*
X194388054Y-124288501D01*
X194375109Y-124293213D01*
X194228627Y-124389555D01*
X194108312Y-124517082D01*
X194035552Y-124643105D01*
X193128910Y-123736463D01*
X193079073Y-123725622D01*
X193029668Y-123676217D01*
X193014500Y-123616790D01*
X193014500Y-122500005D01*
X204994357Y-122500005D01*
X205014890Y-122747812D01*
X205014892Y-122747824D01*
X205075936Y-122988881D01*
X205175826Y-123216606D01*
X205311833Y-123424782D01*
X205311836Y-123424785D01*
X205480256Y-123607738D01*
X205676491Y-123760474D01*
X205895190Y-123878828D01*
X206130386Y-123959571D01*
X206375665Y-124000500D01*
X206624335Y-124000500D01*
X206869614Y-123959571D01*
X207104810Y-123878828D01*
X207323509Y-123760474D01*
X207519744Y-123607738D01*
X207688164Y-123424785D01*
X207824173Y-123216607D01*
X207924063Y-122988881D01*
X207985108Y-122747821D01*
X208005643Y-122500000D01*
X207997490Y-122401610D01*
X207985109Y-122252187D01*
X207985107Y-122252175D01*
X207924063Y-122011118D01*
X207824173Y-121783393D01*
X207688166Y-121575217D01*
X207600802Y-121480315D01*
X207519744Y-121392262D01*
X207323509Y-121239526D01*
X207323507Y-121239525D01*
X207323506Y-121239524D01*
X207104811Y-121121172D01*
X207104802Y-121121169D01*
X206869616Y-121040429D01*
X206624335Y-120999500D01*
X206375665Y-120999500D01*
X206130383Y-121040429D01*
X205895197Y-121121169D01*
X205895188Y-121121172D01*
X205676493Y-121239524D01*
X205480257Y-121392261D01*
X205311833Y-121575217D01*
X205175826Y-121783393D01*
X205075936Y-122011118D01*
X205014892Y-122252175D01*
X205014890Y-122252187D01*
X204994357Y-122499994D01*
X204994357Y-122500005D01*
X193014500Y-122500005D01*
X193014500Y-121696997D01*
X193034185Y-121629958D01*
X193086989Y-121584203D01*
X193156147Y-121574259D01*
X193219703Y-121603284D01*
X193226181Y-121609316D01*
X193400594Y-121783729D01*
X193400612Y-121783745D01*
X193629682Y-121955224D01*
X193629690Y-121955229D01*
X193880833Y-122092364D01*
X193880832Y-122092364D01*
X193880836Y-122092365D01*
X193880839Y-122092367D01*
X194148954Y-122192369D01*
X194148960Y-122192370D01*
X194148962Y-122192371D01*
X194428566Y-122253195D01*
X194428568Y-122253195D01*
X194428572Y-122253196D01*
X194682220Y-122271337D01*
X194713999Y-122273610D01*
X194714000Y-122273610D01*
X194714001Y-122273610D01*
X194742595Y-122271564D01*
X194999428Y-122253196D01*
X195004067Y-122252187D01*
X195279037Y-122192371D01*
X195279037Y-122192370D01*
X195279046Y-122192369D01*
X195547161Y-122092367D01*
X195798315Y-121955226D01*
X196027395Y-121783739D01*
X196229739Y-121581395D01*
X196401226Y-121352315D01*
X196538367Y-121101161D01*
X196638369Y-120833046D01*
X196667775Y-120697870D01*
X211499500Y-120697870D01*
X211499501Y-120697876D01*
X211505908Y-120757483D01*
X211556202Y-120892328D01*
X211556206Y-120892335D01*
X211642452Y-121007544D01*
X211642455Y-121007547D01*
X211757664Y-121093793D01*
X211757671Y-121093797D01*
X211892517Y-121144091D01*
X211892516Y-121144091D01*
X211899444Y-121144835D01*
X211952127Y-121150500D01*
X215047872Y-121150499D01*
X215107483Y-121144091D01*
X215242331Y-121093796D01*
X215357546Y-121007546D01*
X215443796Y-120892331D01*
X215494091Y-120757483D01*
X215500500Y-120697873D01*
X215500499Y-118102128D01*
X215494091Y-118042517D01*
X215493087Y-118039826D01*
X215443797Y-117907671D01*
X215443793Y-117907664D01*
X215357547Y-117792455D01*
X215357544Y-117792452D01*
X215242335Y-117706206D01*
X215242328Y-117706202D01*
X215107482Y-117655908D01*
X215107483Y-117655908D01*
X215047883Y-117649501D01*
X215047881Y-117649500D01*
X215047873Y-117649500D01*
X215047864Y-117649500D01*
X211952129Y-117649500D01*
X211952123Y-117649501D01*
X211892516Y-117655908D01*
X211757671Y-117706202D01*
X211757664Y-117706206D01*
X211642455Y-117792452D01*
X211642452Y-117792455D01*
X211556206Y-117907664D01*
X211556202Y-117907671D01*
X211505908Y-118042517D01*
X211499501Y-118102116D01*
X211499501Y-118102123D01*
X211499500Y-118102135D01*
X211499500Y-120697870D01*
X196667775Y-120697870D01*
X196699196Y-120553428D01*
X196719610Y-120268000D01*
X196699196Y-119982572D01*
X196697081Y-119972851D01*
X196638371Y-119702962D01*
X196638370Y-119702960D01*
X196638369Y-119702954D01*
X196538367Y-119434839D01*
X196471122Y-119311690D01*
X196401229Y-119183690D01*
X196401224Y-119183682D01*
X196229745Y-118954612D01*
X196229729Y-118954594D01*
X196027405Y-118752270D01*
X196027387Y-118752254D01*
X195798317Y-118580775D01*
X195798309Y-118580770D01*
X195547166Y-118443635D01*
X195547167Y-118443635D01*
X195404411Y-118390390D01*
X195279046Y-118343631D01*
X195279043Y-118343630D01*
X195279037Y-118343628D01*
X194999433Y-118282804D01*
X194714001Y-118262390D01*
X194713999Y-118262390D01*
X194428566Y-118282804D01*
X194148962Y-118343628D01*
X193880833Y-118443635D01*
X193629690Y-118580770D01*
X193629682Y-118580775D01*
X193400612Y-118752254D01*
X193400594Y-118752270D01*
X193226181Y-118926684D01*
X193164858Y-118960169D01*
X193095166Y-118955185D01*
X193039233Y-118913313D01*
X193014816Y-118847849D01*
X193014500Y-118839003D01*
X193014500Y-118027216D01*
X193017561Y-118005276D01*
X193018401Y-117996207D01*
X193015029Y-117959817D01*
X193014500Y-117948376D01*
X193014500Y-117940155D01*
X193012990Y-117932079D01*
X193011407Y-117920731D01*
X193008035Y-117884340D01*
X193005548Y-117875599D01*
X193002350Y-117866059D01*
X192999061Y-117857570D01*
X192999061Y-117857567D01*
X192999059Y-117857564D01*
X192999058Y-117857561D01*
X192979821Y-117826492D01*
X192974252Y-117816496D01*
X192957958Y-117783772D01*
X192957956Y-117783770D01*
X192957955Y-117783768D01*
X192952475Y-117776511D01*
X192946061Y-117768786D01*
X192939916Y-117762045D01*
X192910750Y-117740020D01*
X192901949Y-117732712D01*
X192874933Y-117708084D01*
X192874931Y-117708083D01*
X192874929Y-117708081D01*
X192867232Y-117703315D01*
X192858390Y-117698390D01*
X192850264Y-117694343D01*
X192815120Y-117684344D01*
X192804265Y-117680706D01*
X192770172Y-117667499D01*
X192761236Y-117665829D01*
X192751257Y-117664437D01*
X192742208Y-117663599D01*
X192742207Y-117663599D01*
X192708493Y-117666723D01*
X192705817Y-117666971D01*
X192694376Y-117667500D01*
X183773215Y-117667500D01*
X183751257Y-117664437D01*
X183742208Y-117663599D01*
X183742207Y-117663599D01*
X183708493Y-117666723D01*
X183705817Y-117666971D01*
X183694376Y-117667500D01*
X183686154Y-117667500D01*
X183678069Y-117669011D01*
X183666739Y-117670591D01*
X183630339Y-117673964D01*
X183621644Y-117676438D01*
X183612008Y-117679668D01*
X183603563Y-117682940D01*
X183572494Y-117702176D01*
X183562496Y-117707746D01*
X183529769Y-117724042D01*
X183522547Y-117729496D01*
X183514751Y-117735970D01*
X183508044Y-117742084D01*
X183486026Y-117771241D01*
X183478713Y-117780048D01*
X183454085Y-117807064D01*
X183449322Y-117814756D01*
X183444385Y-117823620D01*
X183440343Y-117831737D01*
X183430343Y-117866884D01*
X183426704Y-117877741D01*
X183413499Y-117911826D01*
X183411829Y-117920762D01*
X183410437Y-117930745D01*
X183409599Y-117939791D01*
X183409599Y-117939792D01*
X183409599Y-117939793D01*
X183410961Y-117954492D01*
X183412971Y-117976182D01*
X183413500Y-117987623D01*
X183413500Y-131908784D01*
X183410437Y-131930745D01*
X183409599Y-131939791D01*
X183409599Y-131939792D01*
X183409599Y-131939793D01*
X173964500Y-131939793D01*
X173964500Y-131096997D01*
X173984185Y-131029958D01*
X174036989Y-130984203D01*
X174106147Y-130974259D01*
X174169703Y-131003284D01*
X174176181Y-131009316D01*
X174350594Y-131183729D01*
X174350612Y-131183745D01*
X174579682Y-131355224D01*
X174579690Y-131355229D01*
X174830833Y-131492364D01*
X174830832Y-131492364D01*
X174830836Y-131492365D01*
X174830839Y-131492367D01*
X175098954Y-131592369D01*
X175098960Y-131592370D01*
X175098962Y-131592371D01*
X175378566Y-131653195D01*
X175378568Y-131653195D01*
X175378572Y-131653196D01*
X175632220Y-131671337D01*
X175663999Y-131673610D01*
X175664000Y-131673610D01*
X175664001Y-131673610D01*
X175693502Y-131671500D01*
X175949428Y-131653196D01*
X175974165Y-131647815D01*
X176229037Y-131592371D01*
X176229037Y-131592370D01*
X176229046Y-131592369D01*
X176497161Y-131492367D01*
X176748315Y-131355226D01*
X176977395Y-131183739D01*
X177179739Y-130981395D01*
X177351226Y-130752315D01*
X177488367Y-130501161D01*
X177588369Y-130233046D01*
X177649196Y-129953428D01*
X177669610Y-129668000D01*
X177649196Y-129382572D01*
X177647081Y-129372851D01*
X177588371Y-129102962D01*
X177588370Y-129102960D01*
X177588369Y-129102954D01*
X177488367Y-128834839D01*
X177447760Y-128760474D01*
X177351229Y-128583690D01*
X177351224Y-128583682D01*
X177179745Y-128354612D01*
X177179729Y-128354594D01*
X176977405Y-128152270D01*
X176977387Y-128152254D01*
X176748317Y-127980775D01*
X176748309Y-127980770D01*
X176497166Y-127843635D01*
X176497167Y-127843635D01*
X176354411Y-127790390D01*
X176229046Y-127743631D01*
X176229043Y-127743630D01*
X176229037Y-127743628D01*
X175949433Y-127682804D01*
X175664001Y-127662390D01*
X175663999Y-127662390D01*
X175378566Y-127682804D01*
X175098962Y-127743628D01*
X174830833Y-127843635D01*
X174579690Y-127980770D01*
X174579682Y-127980775D01*
X174350612Y-128152254D01*
X174350594Y-128152270D01*
X174176181Y-128326684D01*
X174114858Y-128360169D01*
X174045166Y-128355185D01*
X173989233Y-128313313D01*
X173964816Y-128247849D01*
X173964500Y-128239003D01*
X173964500Y-126319208D01*
X173984185Y-126252169D01*
X174036989Y-126206414D01*
X174079746Y-126198699D01*
X174986803Y-125291641D01*
X175010059Y-125345553D01*
X175114756Y-125486185D01*
X175249062Y-125598882D01*
X175340665Y-125644886D01*
X174437436Y-126548115D01*
X174579960Y-126654807D01*
X174579961Y-126654808D01*
X174831042Y-126791908D01*
X174831041Y-126791908D01*
X175099104Y-126891890D01*
X175378637Y-126952699D01*
X175663999Y-126973109D01*
X175664001Y-126973109D01*
X175949362Y-126952699D01*
X176228895Y-126891890D01*
X176496958Y-126791908D01*
X176748047Y-126654803D01*
X176890561Y-126548116D01*
X176890562Y-126548115D01*
X175989946Y-125647498D01*
X176002891Y-125642787D01*
X176149373Y-125546445D01*
X176269688Y-125418918D01*
X176342447Y-125292894D01*
X177244115Y-126194562D01*
X177244116Y-126194561D01*
X177350803Y-126052047D01*
X177487908Y-125800958D01*
X177587890Y-125532895D01*
X177648699Y-125253362D01*
X177669109Y-124968001D01*
X177669109Y-124967998D01*
X177648699Y-124682637D01*
X177587890Y-124403104D01*
X177487908Y-124135041D01*
X177350808Y-123883961D01*
X177350807Y-123883960D01*
X177244115Y-123741436D01*
X176341195Y-124644356D01*
X176317941Y-124590447D01*
X176213244Y-124449815D01*
X176078938Y-124337118D01*
X175987333Y-124291112D01*
X176890562Y-123387883D01*
X176890561Y-123387882D01*
X176748046Y-123281196D01*
X176748038Y-123281191D01*
X176496957Y-123144091D01*
X176496958Y-123144091D01*
X176228895Y-123044109D01*
X175949362Y-122983300D01*
X175664001Y-122962891D01*
X175663999Y-122962891D01*
X175378637Y-122983300D01*
X175099104Y-123044109D01*
X174831041Y-123144091D01*
X174579961Y-123281191D01*
X174579953Y-123281196D01*
X174437437Y-123387882D01*
X174437436Y-123387883D01*
X175338054Y-124288501D01*
X175325109Y-124293213D01*
X175178627Y-124389555D01*
X175058312Y-124517082D01*
X174985552Y-124643105D01*
X174078910Y-123736463D01*
X174029073Y-123725622D01*
X173979668Y-123676217D01*
X173964500Y-123616790D01*
X173964500Y-121696997D01*
X173984185Y-121629958D01*
X174036989Y-121584203D01*
X174106147Y-121574259D01*
X174169703Y-121603284D01*
X174176181Y-121609316D01*
X174350594Y-121783729D01*
X174350612Y-121783745D01*
X174579682Y-121955224D01*
X174579690Y-121955229D01*
X174830833Y-122092364D01*
X174830832Y-122092364D01*
X174830836Y-122092365D01*
X174830839Y-122092367D01*
X175098954Y-122192369D01*
X175098960Y-122192370D01*
X175098962Y-122192371D01*
X175378566Y-122253195D01*
X175378568Y-122253195D01*
X175378572Y-122253196D01*
X175632220Y-122271337D01*
X175663999Y-122273610D01*
X175664000Y-122273610D01*
X175664001Y-122273610D01*
X175692595Y-122271564D01*
X175949428Y-122253196D01*
X175954067Y-122252187D01*
X176229037Y-122192371D01*
X176229037Y-122192370D01*
X176229046Y-122192369D01*
X176497161Y-122092367D01*
X176748315Y-121955226D01*
X176977395Y-121783739D01*
X177179739Y-121581395D01*
X177351226Y-121352315D01*
X177488367Y-121101161D01*
X177588369Y-120833046D01*
X177649196Y-120553428D01*
X177669610Y-120268000D01*
X177649196Y-119982572D01*
X177647081Y-119972851D01*
X177588371Y-119702962D01*
X177588370Y-119702960D01*
X177588369Y-119702954D01*
X177488367Y-119434839D01*
X177421122Y-119311690D01*
X177351229Y-119183690D01*
X177351224Y-119183682D01*
X177179745Y-118954612D01*
X177179729Y-118954594D01*
X176977405Y-118752270D01*
X176977387Y-118752254D01*
X176748317Y-118580775D01*
X176748309Y-118580770D01*
X176497166Y-118443635D01*
X176497167Y-118443635D01*
X176354411Y-118390390D01*
X176229046Y-118343631D01*
X176229043Y-118343630D01*
X176229037Y-118343628D01*
X175949433Y-118282804D01*
X175664001Y-118262390D01*
X175663999Y-118262390D01*
X175378566Y-118282804D01*
X175098962Y-118343628D01*
X174830833Y-118443635D01*
X174579690Y-118580770D01*
X174579682Y-118580775D01*
X174350612Y-118752254D01*
X174350594Y-118752270D01*
X174176181Y-118926684D01*
X174114858Y-118960169D01*
X174045166Y-118955185D01*
X173989233Y-118913313D01*
X173964816Y-118847849D01*
X173964500Y-118839003D01*
X173964500Y-118027216D01*
X173967561Y-118005276D01*
X173968401Y-117996207D01*
X173965029Y-117959817D01*
X173964500Y-117948376D01*
X173964500Y-117940155D01*
X173962990Y-117932079D01*
X173961407Y-117920731D01*
X173958035Y-117884340D01*
X173955548Y-117875599D01*
X173952350Y-117866059D01*
X173949061Y-117857570D01*
X173949061Y-117857567D01*
X173949059Y-117857564D01*
X173949058Y-117857561D01*
X173929821Y-117826492D01*
X173924252Y-117816496D01*
X173907958Y-117783772D01*
X173907956Y-117783770D01*
X173907955Y-117783768D01*
X173902475Y-117776511D01*
X173896061Y-117768786D01*
X173889916Y-117762045D01*
X173860750Y-117740020D01*
X173851949Y-117732712D01*
X173824933Y-117708084D01*
X173824931Y-117708083D01*
X173824929Y-117708081D01*
X173817232Y-117703315D01*
X173808390Y-117698390D01*
X173800264Y-117694343D01*
X173765120Y-117684344D01*
X173754265Y-117680706D01*
X173720172Y-117667499D01*
X173711236Y-117665829D01*
X173701257Y-117664437D01*
X173692208Y-117663599D01*
X173692207Y-117663599D01*
X173658493Y-117666723D01*
X173655817Y-117666971D01*
X173644376Y-117667500D01*
X164723215Y-117667500D01*
X164701257Y-117664437D01*
X164692208Y-117663599D01*
X164692207Y-117663599D01*
X164658493Y-117666723D01*
X164655817Y-117666971D01*
X164644376Y-117667500D01*
X164636154Y-117667500D01*
X164628069Y-117669011D01*
X164616739Y-117670591D01*
X164580339Y-117673964D01*
X164571644Y-117676438D01*
X164562008Y-117679668D01*
X164553563Y-117682940D01*
X164522494Y-117702176D01*
X164512496Y-117707746D01*
X164479769Y-117724042D01*
X164472547Y-117729496D01*
X164464751Y-117735970D01*
X164458044Y-117742084D01*
X164436026Y-117771241D01*
X164428713Y-117780048D01*
X164404085Y-117807064D01*
X164399322Y-117814756D01*
X164394385Y-117823620D01*
X164390343Y-117831737D01*
X164380343Y-117866884D01*
X164376704Y-117877741D01*
X164363499Y-117911826D01*
X164361829Y-117920762D01*
X164360437Y-117930745D01*
X164359599Y-117939791D01*
X164359599Y-117939792D01*
X164359599Y-117939793D01*
X164360961Y-117954492D01*
X164362971Y-117976182D01*
X164363500Y-117987623D01*
X164363500Y-131908784D01*
X164360437Y-131930745D01*
X164359599Y-131939791D01*
X164359599Y-131939792D01*
X164359599Y-131939793D01*
X154773572Y-131939793D01*
X154773520Y-131938661D01*
X154773520Y-131087282D01*
X154793205Y-131020243D01*
X154846009Y-130974488D01*
X154915167Y-130964544D01*
X154978723Y-130993569D01*
X154985201Y-130999601D01*
X155159614Y-131174014D01*
X155159632Y-131174030D01*
X155388702Y-131345509D01*
X155388710Y-131345514D01*
X155639853Y-131482649D01*
X155639852Y-131482649D01*
X155639856Y-131482650D01*
X155639859Y-131482652D01*
X155907974Y-131582654D01*
X155907980Y-131582655D01*
X155907982Y-131582656D01*
X156187586Y-131643480D01*
X156187588Y-131643480D01*
X156187592Y-131643481D01*
X156441240Y-131661622D01*
X156473019Y-131663895D01*
X156473020Y-131663895D01*
X156473021Y-131663895D01*
X156501615Y-131661849D01*
X156758448Y-131643481D01*
X156783185Y-131638100D01*
X157038057Y-131582656D01*
X157038057Y-131582655D01*
X157038066Y-131582654D01*
X157306181Y-131482652D01*
X157557335Y-131345511D01*
X157786415Y-131174024D01*
X157988759Y-130971680D01*
X158160246Y-130742600D01*
X158297387Y-130491446D01*
X158397389Y-130223331D01*
X158458216Y-129943713D01*
X158478630Y-129658285D01*
X158458216Y-129372857D01*
X158442831Y-129302135D01*
X158397391Y-129093247D01*
X158397390Y-129093245D01*
X158397389Y-129093239D01*
X158297387Y-128825124D01*
X158262085Y-128760474D01*
X158160249Y-128573975D01*
X158160244Y-128573967D01*
X157988765Y-128344897D01*
X157988749Y-128344879D01*
X157786425Y-128142555D01*
X157786407Y-128142539D01*
X157557337Y-127971060D01*
X157557329Y-127971055D01*
X157306186Y-127833920D01*
X157306187Y-127833920D01*
X157189478Y-127790390D01*
X157038066Y-127733916D01*
X157038063Y-127733915D01*
X157038057Y-127733913D01*
X156758453Y-127673089D01*
X156473021Y-127652675D01*
X156473019Y-127652675D01*
X156187586Y-127673089D01*
X155907982Y-127733913D01*
X155639853Y-127833920D01*
X155388710Y-127971055D01*
X155388702Y-127971060D01*
X155159632Y-128142539D01*
X155159614Y-128142555D01*
X154985201Y-128316969D01*
X154923878Y-128350454D01*
X154854186Y-128345470D01*
X154798253Y-128303598D01*
X154773836Y-128238134D01*
X154773520Y-128229288D01*
X154773520Y-126309493D01*
X154793205Y-126242454D01*
X154846009Y-126196699D01*
X154888766Y-126188984D01*
X155795823Y-125281926D01*
X155819079Y-125335838D01*
X155923776Y-125476470D01*
X156058082Y-125589167D01*
X156149685Y-125635171D01*
X155246456Y-126538400D01*
X155388980Y-126645092D01*
X155388981Y-126645093D01*
X155640062Y-126782193D01*
X155640061Y-126782193D01*
X155908124Y-126882175D01*
X156187657Y-126942984D01*
X156473019Y-126963394D01*
X156473021Y-126963394D01*
X156758382Y-126942984D01*
X157037915Y-126882175D01*
X157305978Y-126782193D01*
X157557067Y-126645088D01*
X157699581Y-126538401D01*
X157699582Y-126538400D01*
X156798966Y-125637783D01*
X156811911Y-125633072D01*
X156958393Y-125536730D01*
X157078708Y-125409203D01*
X157151467Y-125283179D01*
X158053135Y-126184847D01*
X158053136Y-126184846D01*
X158159823Y-126042332D01*
X158296928Y-125791243D01*
X158396910Y-125523180D01*
X158457719Y-125243647D01*
X158478129Y-124958286D01*
X158478129Y-124958283D01*
X158457719Y-124672922D01*
X158396910Y-124393389D01*
X158296928Y-124125326D01*
X158159828Y-123874246D01*
X158159827Y-123874245D01*
X158053135Y-123731721D01*
X157150215Y-124634641D01*
X157126961Y-124580732D01*
X157022264Y-124440100D01*
X156887958Y-124327403D01*
X156796353Y-124281397D01*
X157699582Y-123378168D01*
X157699581Y-123378167D01*
X157557066Y-123271481D01*
X157557058Y-123271476D01*
X157305977Y-123134376D01*
X157305978Y-123134376D01*
X157037915Y-123034394D01*
X156758382Y-122973585D01*
X156473021Y-122953176D01*
X156473019Y-122953176D01*
X156187657Y-122973585D01*
X155908124Y-123034394D01*
X155640061Y-123134376D01*
X155388981Y-123271476D01*
X155388973Y-123271481D01*
X155246457Y-123378167D01*
X155246456Y-123378168D01*
X156147074Y-124278786D01*
X156134129Y-124283498D01*
X155987647Y-124379840D01*
X155867332Y-124507367D01*
X155794572Y-124633390D01*
X154887930Y-123726748D01*
X154838093Y-123715907D01*
X154788688Y-123666502D01*
X154773520Y-123607075D01*
X154773520Y-121687282D01*
X154793205Y-121620243D01*
X154846009Y-121574488D01*
X154915167Y-121564544D01*
X154978723Y-121593569D01*
X154985201Y-121599601D01*
X155159614Y-121774014D01*
X155159632Y-121774030D01*
X155388702Y-121945509D01*
X155388710Y-121945514D01*
X155639853Y-122082649D01*
X155639852Y-122082649D01*
X155639856Y-122082650D01*
X155639859Y-122082652D01*
X155907974Y-122182654D01*
X155907980Y-122182655D01*
X155907982Y-122182656D01*
X156187586Y-122243480D01*
X156187588Y-122243480D01*
X156187592Y-122243481D01*
X156441240Y-122261622D01*
X156473019Y-122263895D01*
X156473020Y-122263895D01*
X156473021Y-122263895D01*
X156501615Y-122261849D01*
X156758448Y-122243481D01*
X156864716Y-122220364D01*
X157038057Y-122182656D01*
X157038057Y-122182655D01*
X157038066Y-122182654D01*
X157306181Y-122082652D01*
X157557335Y-121945511D01*
X157786415Y-121774024D01*
X157988759Y-121571680D01*
X158160246Y-121342600D01*
X158297387Y-121091446D01*
X158397389Y-120823331D01*
X158411714Y-120757482D01*
X158458215Y-120543718D01*
X158458215Y-120543717D01*
X158458216Y-120543713D01*
X158478630Y-120258285D01*
X158458216Y-119972857D01*
X158399502Y-119702954D01*
X158397391Y-119693247D01*
X158397390Y-119693245D01*
X158397389Y-119693239D01*
X158297387Y-119425124D01*
X158247718Y-119334163D01*
X158160249Y-119173975D01*
X158160244Y-119173967D01*
X157988765Y-118944897D01*
X157988749Y-118944879D01*
X157786425Y-118742555D01*
X157786407Y-118742539D01*
X157557337Y-118571060D01*
X157557329Y-118571055D01*
X157306186Y-118433920D01*
X157306187Y-118433920D01*
X157169088Y-118382785D01*
X157038066Y-118333916D01*
X157038063Y-118333915D01*
X157038057Y-118333913D01*
X156758453Y-118273089D01*
X156473021Y-118252675D01*
X156473019Y-118252675D01*
X156187586Y-118273089D01*
X155907982Y-118333913D01*
X155639853Y-118433920D01*
X155388710Y-118571055D01*
X155388702Y-118571060D01*
X155159632Y-118742539D01*
X155159614Y-118742555D01*
X154985201Y-118916969D01*
X154923878Y-118950454D01*
X154854186Y-118945470D01*
X154798253Y-118903598D01*
X154773836Y-118838134D01*
X154773520Y-118829288D01*
X154773520Y-118017501D01*
X154776581Y-117995561D01*
X154777421Y-117986492D01*
X154774049Y-117950102D01*
X154773520Y-117938661D01*
X154773520Y-117930440D01*
X154772010Y-117922364D01*
X154770427Y-117911016D01*
X154767055Y-117874625D01*
X154764568Y-117865884D01*
X154761370Y-117856344D01*
X154758081Y-117847855D01*
X154758081Y-117847852D01*
X154758079Y-117847849D01*
X154758078Y-117847846D01*
X154738841Y-117816777D01*
X154733272Y-117806781D01*
X154716978Y-117774057D01*
X154716976Y-117774055D01*
X154716975Y-117774053D01*
X154711495Y-117766796D01*
X154705081Y-117759071D01*
X154698936Y-117752330D01*
X154669770Y-117730305D01*
X154660969Y-117722997D01*
X154633953Y-117698369D01*
X154633951Y-117698368D01*
X154633949Y-117698366D01*
X154626252Y-117693600D01*
X154617410Y-117688675D01*
X154609284Y-117684628D01*
X154574140Y-117674629D01*
X154563285Y-117670991D01*
X154529192Y-117657784D01*
X154520256Y-117656114D01*
X154510277Y-117654722D01*
X154501228Y-117653884D01*
X154501227Y-117653884D01*
X154464837Y-117657256D01*
X154453396Y-117657785D01*
X145532235Y-117657785D01*
X145510277Y-117654722D01*
X145501228Y-117653884D01*
X145501227Y-117653884D01*
X145464837Y-117657256D01*
X145453396Y-117657785D01*
X145445174Y-117657785D01*
X145437089Y-117659296D01*
X145425759Y-117660876D01*
X145389359Y-117664249D01*
X145380664Y-117666723D01*
X145371028Y-117669953D01*
X145362583Y-117673225D01*
X145331514Y-117692461D01*
X145321516Y-117698031D01*
X145288789Y-117714327D01*
X145281567Y-117719781D01*
X145273771Y-117726255D01*
X145267064Y-117732369D01*
X145245046Y-117761526D01*
X145237733Y-117770333D01*
X145213105Y-117797349D01*
X145208342Y-117805041D01*
X145203405Y-117813905D01*
X145199363Y-117822022D01*
X145189363Y-117857169D01*
X145185724Y-117868026D01*
X145172519Y-117902111D01*
X145170849Y-117911047D01*
X145169457Y-117921030D01*
X145168619Y-117930076D01*
X145168619Y-117930077D01*
X145168619Y-117930078D01*
X145169954Y-117944485D01*
X145171991Y-117966467D01*
X145172520Y-117977908D01*
X145172520Y-131899069D01*
X145169457Y-131921030D01*
X145168619Y-131930076D01*
X145168619Y-131930077D01*
X145168619Y-131930078D01*
X135638500Y-131930078D01*
X135638500Y-131096997D01*
X135658185Y-131029958D01*
X135710989Y-130984203D01*
X135780147Y-130974259D01*
X135843703Y-131003284D01*
X135850181Y-131009316D01*
X136024594Y-131183729D01*
X136024612Y-131183745D01*
X136253682Y-131355224D01*
X136253690Y-131355229D01*
X136504833Y-131492364D01*
X136504832Y-131492364D01*
X136504836Y-131492365D01*
X136504839Y-131492367D01*
X136772954Y-131592369D01*
X136772960Y-131592370D01*
X136772962Y-131592371D01*
X137052566Y-131653195D01*
X137052568Y-131653195D01*
X137052572Y-131653196D01*
X137306220Y-131671337D01*
X137337999Y-131673610D01*
X137338000Y-131673610D01*
X137338001Y-131673610D01*
X137367502Y-131671500D01*
X137623428Y-131653196D01*
X137648165Y-131647815D01*
X137903037Y-131592371D01*
X137903037Y-131592370D01*
X137903046Y-131592369D01*
X138171161Y-131492367D01*
X138422315Y-131355226D01*
X138651395Y-131183739D01*
X138853739Y-130981395D01*
X139025226Y-130752315D01*
X139162367Y-130501161D01*
X139262369Y-130233046D01*
X139323196Y-129953428D01*
X139343610Y-129668000D01*
X139323196Y-129382572D01*
X139321081Y-129372851D01*
X139262371Y-129102962D01*
X139262370Y-129102960D01*
X139262369Y-129102954D01*
X139162367Y-128834839D01*
X139121760Y-128760474D01*
X139025229Y-128583690D01*
X139025224Y-128583682D01*
X138853745Y-128354612D01*
X138853729Y-128354594D01*
X138651405Y-128152270D01*
X138651387Y-128152254D01*
X138422317Y-127980775D01*
X138422309Y-127980770D01*
X138171166Y-127843635D01*
X138171167Y-127843635D01*
X138028411Y-127790390D01*
X137903046Y-127743631D01*
X137903043Y-127743630D01*
X137903037Y-127743628D01*
X137623433Y-127682804D01*
X137338001Y-127662390D01*
X137337999Y-127662390D01*
X137052566Y-127682804D01*
X136772962Y-127743628D01*
X136504833Y-127843635D01*
X136253690Y-127980770D01*
X136253682Y-127980775D01*
X136024612Y-128152254D01*
X136024594Y-128152270D01*
X135850181Y-128326684D01*
X135788858Y-128360169D01*
X135719166Y-128355185D01*
X135663233Y-128313313D01*
X135638816Y-128247849D01*
X135638500Y-128239003D01*
X135638500Y-126319208D01*
X135658185Y-126252169D01*
X135710989Y-126206414D01*
X135753746Y-126198699D01*
X136660803Y-125291641D01*
X136684059Y-125345553D01*
X136788756Y-125486185D01*
X136923062Y-125598882D01*
X137014665Y-125644886D01*
X136111436Y-126548115D01*
X136253960Y-126654807D01*
X136253961Y-126654808D01*
X136505042Y-126791908D01*
X136505041Y-126791908D01*
X136773104Y-126891890D01*
X137052637Y-126952699D01*
X137337999Y-126973109D01*
X137338001Y-126973109D01*
X137623362Y-126952699D01*
X137902895Y-126891890D01*
X138170958Y-126791908D01*
X138422047Y-126654803D01*
X138564561Y-126548116D01*
X138564562Y-126548115D01*
X137663946Y-125647498D01*
X137676891Y-125642787D01*
X137823373Y-125546445D01*
X137943688Y-125418918D01*
X138016447Y-125292894D01*
X138918115Y-126194562D01*
X138918116Y-126194561D01*
X139024803Y-126052047D01*
X139161908Y-125800958D01*
X139261890Y-125532895D01*
X139322699Y-125253362D01*
X139343109Y-124968001D01*
X139343109Y-124967998D01*
X139322699Y-124682637D01*
X139261890Y-124403104D01*
X139161908Y-124135041D01*
X139024808Y-123883961D01*
X139024807Y-123883960D01*
X138918115Y-123741436D01*
X138015195Y-124644356D01*
X137991941Y-124590447D01*
X137887244Y-124449815D01*
X137752938Y-124337118D01*
X137661333Y-124291112D01*
X138564562Y-123387883D01*
X138564561Y-123387882D01*
X138422046Y-123281196D01*
X138422038Y-123281191D01*
X138170957Y-123144091D01*
X138170958Y-123144091D01*
X137902895Y-123044109D01*
X137623362Y-122983300D01*
X137338001Y-122962891D01*
X137337999Y-122962891D01*
X137052637Y-122983300D01*
X136773104Y-123044109D01*
X136505041Y-123144091D01*
X136253961Y-123281191D01*
X136253953Y-123281196D01*
X136111437Y-123387882D01*
X136111436Y-123387883D01*
X137012054Y-124288501D01*
X136999109Y-124293213D01*
X136852627Y-124389555D01*
X136732312Y-124517082D01*
X136659552Y-124643105D01*
X135752910Y-123736463D01*
X135703073Y-123725622D01*
X135653668Y-123676217D01*
X135638500Y-123616790D01*
X135638500Y-121696997D01*
X135658185Y-121629958D01*
X135710989Y-121584203D01*
X135780147Y-121574259D01*
X135843703Y-121603284D01*
X135850181Y-121609316D01*
X136024594Y-121783729D01*
X136024612Y-121783745D01*
X136253682Y-121955224D01*
X136253690Y-121955229D01*
X136504833Y-122092364D01*
X136504832Y-122092364D01*
X136504836Y-122092365D01*
X136504839Y-122092367D01*
X136772954Y-122192369D01*
X136772960Y-122192370D01*
X136772962Y-122192371D01*
X137052566Y-122253195D01*
X137052568Y-122253195D01*
X137052572Y-122253196D01*
X137306220Y-122271337D01*
X137337999Y-122273610D01*
X137338000Y-122273610D01*
X137338001Y-122273610D01*
X137366595Y-122271564D01*
X137623428Y-122253196D01*
X137628067Y-122252187D01*
X137903037Y-122192371D01*
X137903037Y-122192370D01*
X137903046Y-122192369D01*
X138171161Y-122092367D01*
X138422315Y-121955226D01*
X138651395Y-121783739D01*
X138853739Y-121581395D01*
X139025226Y-121352315D01*
X139162367Y-121101161D01*
X139262369Y-120833046D01*
X139323196Y-120553428D01*
X139343610Y-120268000D01*
X139323196Y-119982572D01*
X139321081Y-119972851D01*
X139262371Y-119702962D01*
X139262370Y-119702960D01*
X139262369Y-119702954D01*
X139162367Y-119434839D01*
X139095122Y-119311690D01*
X139025229Y-119183690D01*
X139025224Y-119183682D01*
X138853745Y-118954612D01*
X138853729Y-118954594D01*
X138651405Y-118752270D01*
X138651387Y-118752254D01*
X138422317Y-118580775D01*
X138422309Y-118580770D01*
X138171166Y-118443635D01*
X138171167Y-118443635D01*
X138028411Y-118390390D01*
X137903046Y-118343631D01*
X137903043Y-118343630D01*
X137903037Y-118343628D01*
X137623433Y-118282804D01*
X137338001Y-118262390D01*
X137337999Y-118262390D01*
X137052566Y-118282804D01*
X136772962Y-118343628D01*
X136504833Y-118443635D01*
X136253690Y-118580770D01*
X136253682Y-118580775D01*
X136024612Y-118752254D01*
X136024594Y-118752270D01*
X135850181Y-118926684D01*
X135788858Y-118960169D01*
X135719166Y-118955185D01*
X135663233Y-118913313D01*
X135638816Y-118847849D01*
X135638500Y-118839003D01*
X135638500Y-118027216D01*
X135641561Y-118005276D01*
X135642401Y-117996207D01*
X135639029Y-117959817D01*
X135638500Y-117948376D01*
X135638500Y-117940155D01*
X135636990Y-117932079D01*
X135635407Y-117920731D01*
X135632035Y-117884340D01*
X135629548Y-117875599D01*
X135626350Y-117866059D01*
X135623061Y-117857570D01*
X135623061Y-117857567D01*
X135623059Y-117857564D01*
X135623058Y-117857561D01*
X135603821Y-117826492D01*
X135598252Y-117816496D01*
X135581958Y-117783772D01*
X135581956Y-117783770D01*
X135581955Y-117783768D01*
X135576475Y-117776511D01*
X135570061Y-117768786D01*
X135563916Y-117762045D01*
X135534750Y-117740020D01*
X135525949Y-117732712D01*
X135498933Y-117708084D01*
X135498931Y-117708083D01*
X135498929Y-117708081D01*
X135491232Y-117703315D01*
X135482390Y-117698390D01*
X135474264Y-117694343D01*
X135439120Y-117684344D01*
X135428265Y-117680706D01*
X135394172Y-117667499D01*
X135385236Y-117665829D01*
X135375257Y-117664437D01*
X135366208Y-117663599D01*
X135366207Y-117663599D01*
X135332493Y-117666723D01*
X135329817Y-117666971D01*
X135318376Y-117667500D01*
X126397215Y-117667500D01*
X126375257Y-117664437D01*
X126366208Y-117663599D01*
X126366207Y-117663599D01*
X126332493Y-117666723D01*
X126329817Y-117666971D01*
X126318376Y-117667500D01*
X126310154Y-117667500D01*
X126302069Y-117669011D01*
X126290739Y-117670591D01*
X126254339Y-117673964D01*
X126245644Y-117676438D01*
X126236008Y-117679668D01*
X126227563Y-117682940D01*
X126196494Y-117702176D01*
X126186496Y-117707746D01*
X126153769Y-117724042D01*
X126146547Y-117729496D01*
X126138751Y-117735970D01*
X126132044Y-117742084D01*
X126110026Y-117771241D01*
X126102713Y-117780048D01*
X126078085Y-117807064D01*
X126073322Y-117814756D01*
X126068385Y-117823620D01*
X126064343Y-117831737D01*
X126054343Y-117866884D01*
X126050704Y-117877741D01*
X126037499Y-117911826D01*
X126035829Y-117920762D01*
X126034437Y-117930745D01*
X126033599Y-117939791D01*
X126033599Y-117939792D01*
X126033599Y-117939793D01*
X126034961Y-117954492D01*
X126036971Y-117976182D01*
X126037500Y-117987623D01*
X126037500Y-131908784D01*
X126034437Y-131930745D01*
X126033599Y-131939791D01*
X126033599Y-131939792D01*
X126033599Y-131939793D01*
X116456500Y-131939793D01*
X116456500Y-131224997D01*
X116476185Y-131157958D01*
X116528989Y-131112203D01*
X116598147Y-131102259D01*
X116661703Y-131131284D01*
X116668181Y-131137316D01*
X116842594Y-131311729D01*
X116842612Y-131311745D01*
X117071682Y-131483224D01*
X117071690Y-131483229D01*
X117322833Y-131620364D01*
X117322832Y-131620364D01*
X117322836Y-131620365D01*
X117322839Y-131620367D01*
X117590954Y-131720369D01*
X117590960Y-131720370D01*
X117590962Y-131720371D01*
X117870566Y-131781195D01*
X117870568Y-131781195D01*
X117870572Y-131781196D01*
X118124220Y-131799337D01*
X118155999Y-131801610D01*
X118156000Y-131801610D01*
X118156001Y-131801610D01*
X118184595Y-131799564D01*
X118441428Y-131781196D01*
X118466165Y-131775815D01*
X118721037Y-131720371D01*
X118721037Y-131720370D01*
X118721046Y-131720369D01*
X118989161Y-131620367D01*
X119240315Y-131483226D01*
X119469395Y-131311739D01*
X119671739Y-131109395D01*
X119843226Y-130880315D01*
X119980367Y-130629161D01*
X120080369Y-130361046D01*
X120141196Y-130081428D01*
X120161610Y-129796000D01*
X120141196Y-129510572D01*
X120113351Y-129382572D01*
X120080371Y-129230962D01*
X120080370Y-129230960D01*
X120080369Y-129230954D01*
X119980367Y-128962839D01*
X119934494Y-128878830D01*
X119843229Y-128711690D01*
X119843224Y-128711682D01*
X119671745Y-128482612D01*
X119671729Y-128482594D01*
X119469405Y-128280270D01*
X119469387Y-128280254D01*
X119240317Y-128108775D01*
X119240309Y-128108770D01*
X118989166Y-127971635D01*
X118989167Y-127971635D01*
X118864005Y-127924952D01*
X118721046Y-127871631D01*
X118721043Y-127871630D01*
X118721037Y-127871628D01*
X118441433Y-127810804D01*
X118156001Y-127790390D01*
X118155999Y-127790390D01*
X117870566Y-127810804D01*
X117590962Y-127871628D01*
X117322833Y-127971635D01*
X117071690Y-128108770D01*
X117071682Y-128108775D01*
X116842612Y-128280254D01*
X116842594Y-128280270D01*
X116668181Y-128454684D01*
X116606858Y-128488169D01*
X116537166Y-128483185D01*
X116481233Y-128441313D01*
X116456816Y-128375849D01*
X116456500Y-128367003D01*
X116456500Y-126447208D01*
X116476185Y-126380169D01*
X116528989Y-126334414D01*
X116571746Y-126326699D01*
X117478803Y-125419641D01*
X117502059Y-125473553D01*
X117606756Y-125614185D01*
X117741062Y-125726882D01*
X117832665Y-125772886D01*
X116929436Y-126676115D01*
X117071960Y-126782807D01*
X117071961Y-126782808D01*
X117323042Y-126919908D01*
X117323041Y-126919908D01*
X117591104Y-127019890D01*
X117870637Y-127080699D01*
X118155999Y-127101109D01*
X118156001Y-127101109D01*
X118441362Y-127080699D01*
X118720895Y-127019890D01*
X118988958Y-126919908D01*
X119240047Y-126782803D01*
X119382561Y-126676116D01*
X119382562Y-126676115D01*
X118481946Y-125775498D01*
X118494891Y-125770787D01*
X118641373Y-125674445D01*
X118761688Y-125546918D01*
X118834447Y-125420894D01*
X119736115Y-126322562D01*
X119736116Y-126322561D01*
X119842803Y-126180047D01*
X119979908Y-125928958D01*
X120079890Y-125660895D01*
X120140699Y-125381362D01*
X120161109Y-125096001D01*
X120161109Y-125095998D01*
X120140699Y-124810637D01*
X120079890Y-124531104D01*
X119979908Y-124263041D01*
X119842808Y-124011961D01*
X119842807Y-124011960D01*
X119736115Y-123869436D01*
X118833195Y-124772356D01*
X118809941Y-124718447D01*
X118705244Y-124577815D01*
X118570938Y-124465118D01*
X118479333Y-124419112D01*
X119382562Y-123515883D01*
X119382561Y-123515882D01*
X119240046Y-123409196D01*
X119240038Y-123409191D01*
X118988957Y-123272091D01*
X118988958Y-123272091D01*
X118720895Y-123172109D01*
X118441362Y-123111300D01*
X118156001Y-123090891D01*
X118155999Y-123090891D01*
X117870637Y-123111300D01*
X117591104Y-123172109D01*
X117323041Y-123272091D01*
X117071961Y-123409191D01*
X117071953Y-123409196D01*
X116929437Y-123515882D01*
X116929436Y-123515883D01*
X117830054Y-124416501D01*
X117817109Y-124421213D01*
X117670627Y-124517555D01*
X117550312Y-124645082D01*
X117477552Y-124771105D01*
X116570910Y-123864463D01*
X116521073Y-123853622D01*
X116471668Y-123804217D01*
X116456500Y-123744790D01*
X116456500Y-121824997D01*
X116476185Y-121757958D01*
X116528989Y-121712203D01*
X116598147Y-121702259D01*
X116661703Y-121731284D01*
X116668181Y-121737316D01*
X116842594Y-121911729D01*
X116842612Y-121911745D01*
X117071682Y-122083224D01*
X117071690Y-122083229D01*
X117322833Y-122220364D01*
X117322832Y-122220364D01*
X117322836Y-122220365D01*
X117322839Y-122220367D01*
X117590954Y-122320369D01*
X117590960Y-122320370D01*
X117590962Y-122320371D01*
X117870566Y-122381195D01*
X117870568Y-122381195D01*
X117870572Y-122381196D01*
X118124220Y-122399337D01*
X118155999Y-122401610D01*
X118156000Y-122401610D01*
X118156001Y-122401610D01*
X118184595Y-122399564D01*
X118441428Y-122381196D01*
X118721046Y-122320369D01*
X118989161Y-122220367D01*
X119240315Y-122083226D01*
X119469395Y-121911739D01*
X119671739Y-121709395D01*
X119843226Y-121480315D01*
X119980367Y-121229161D01*
X120080369Y-120961046D01*
X120124652Y-120757482D01*
X120141195Y-120681433D01*
X120141195Y-120681432D01*
X120141196Y-120681428D01*
X120161610Y-120396000D01*
X120141196Y-120110572D01*
X120113351Y-119982572D01*
X120080371Y-119830962D01*
X120080370Y-119830960D01*
X120080369Y-119830954D01*
X119980367Y-119562839D01*
X119910473Y-119434839D01*
X119843229Y-119311690D01*
X119843224Y-119311682D01*
X119671745Y-119082612D01*
X119671729Y-119082594D01*
X119469405Y-118880270D01*
X119469387Y-118880254D01*
X119240317Y-118708775D01*
X119240309Y-118708770D01*
X118989166Y-118571635D01*
X118989167Y-118571635D01*
X118852068Y-118520500D01*
X118721046Y-118471631D01*
X118721043Y-118471630D01*
X118721037Y-118471628D01*
X118441433Y-118410804D01*
X118156001Y-118390390D01*
X118155999Y-118390390D01*
X117870566Y-118410804D01*
X117590962Y-118471628D01*
X117322833Y-118571635D01*
X117071690Y-118708770D01*
X117071682Y-118708775D01*
X116842612Y-118880254D01*
X116842594Y-118880270D01*
X116668181Y-119054684D01*
X116606858Y-119088169D01*
X116537166Y-119083185D01*
X116481233Y-119041313D01*
X116456816Y-118975849D01*
X116456500Y-118967003D01*
X116456500Y-118155216D01*
X116459561Y-118133276D01*
X116460401Y-118124207D01*
X116457029Y-118087817D01*
X116456500Y-118076376D01*
X116456500Y-118068155D01*
X116454990Y-118060079D01*
X116453407Y-118048731D01*
X116450035Y-118012340D01*
X116447548Y-118003599D01*
X116444350Y-117994059D01*
X116441061Y-117985570D01*
X116441061Y-117985567D01*
X116441059Y-117985564D01*
X116441058Y-117985561D01*
X116421821Y-117954492D01*
X116416252Y-117944496D01*
X116399958Y-117911772D01*
X116399956Y-117911770D01*
X116399955Y-117911768D01*
X116394475Y-117904511D01*
X116388061Y-117896786D01*
X116381916Y-117890045D01*
X116352750Y-117868020D01*
X116343949Y-117860712D01*
X116316933Y-117836084D01*
X116316931Y-117836083D01*
X116316929Y-117836081D01*
X116309232Y-117831315D01*
X116300390Y-117826390D01*
X116292264Y-117822343D01*
X116257120Y-117812344D01*
X116246265Y-117808706D01*
X116212172Y-117795499D01*
X116203236Y-117793829D01*
X116193257Y-117792437D01*
X116184208Y-117791599D01*
X116184207Y-117791599D01*
X116147817Y-117794971D01*
X116136376Y-117795500D01*
X107215215Y-117795500D01*
X107193257Y-117792437D01*
X107184208Y-117791599D01*
X107184207Y-117791599D01*
X107147817Y-117794971D01*
X107136376Y-117795500D01*
X107128154Y-117795500D01*
X107120069Y-117797011D01*
X107108739Y-117798591D01*
X107072339Y-117801964D01*
X107063644Y-117804438D01*
X107054008Y-117807668D01*
X107045563Y-117810940D01*
X107014494Y-117830176D01*
X107004496Y-117835746D01*
X106971769Y-117852042D01*
X106964547Y-117857496D01*
X106956751Y-117863970D01*
X106950044Y-117870084D01*
X106928026Y-117899241D01*
X106920713Y-117908048D01*
X106896085Y-117935064D01*
X106891322Y-117942756D01*
X106886385Y-117951620D01*
X106882343Y-117959737D01*
X106872343Y-117994884D01*
X106868704Y-118005741D01*
X106855499Y-118039826D01*
X106853829Y-118048762D01*
X106852437Y-118058745D01*
X106851599Y-118067791D01*
X106851599Y-118067792D01*
X106851599Y-118067793D01*
X106853455Y-118087817D01*
X106854971Y-118104182D01*
X106855500Y-118115623D01*
X106855500Y-132036784D01*
X106852437Y-132058745D01*
X106851599Y-132067791D01*
X106851599Y-132067792D01*
X106851599Y-132067793D01*
X88452948Y-132067793D01*
X88494091Y-131957483D01*
X88500500Y-131897873D01*
X88500499Y-129302128D01*
X88494091Y-129242517D01*
X88489781Y-129230962D01*
X88443797Y-129107671D01*
X88443793Y-129107664D01*
X88357547Y-128992455D01*
X88357544Y-128992452D01*
X88242335Y-128906206D01*
X88242328Y-128906202D01*
X88107482Y-128855908D01*
X88107483Y-128855908D01*
X88047883Y-128849501D01*
X88047881Y-128849500D01*
X88047873Y-128849500D01*
X88047864Y-128849500D01*
X84952129Y-128849500D01*
X84952123Y-128849501D01*
X84892516Y-128855908D01*
X84757671Y-128906202D01*
X84757664Y-128906206D01*
X84642455Y-128992452D01*
X84642452Y-128992455D01*
X84556206Y-129107664D01*
X84556202Y-129107671D01*
X84505908Y-129242517D01*
X84499501Y-129302116D01*
X84499501Y-129302123D01*
X84499500Y-129302135D01*
X84499500Y-131897870D01*
X61000500Y-131897870D01*
X61000500Y-127500005D01*
X77994859Y-127500005D01*
X78015385Y-127747729D01*
X78015387Y-127747738D01*
X78076412Y-127988717D01*
X78176266Y-128216364D01*
X78276564Y-128369882D01*
X79016923Y-127629523D01*
X79040507Y-127709844D01*
X79118239Y-127830798D01*
X79226900Y-127924952D01*
X79357685Y-127984680D01*
X79367466Y-127986086D01*
X78629942Y-128723609D01*
X78676768Y-128760055D01*
X78676770Y-128760056D01*
X78895385Y-128878364D01*
X78895396Y-128878369D01*
X79130506Y-128959083D01*
X79375707Y-129000000D01*
X79624293Y-129000000D01*
X79869493Y-128959083D01*
X80104603Y-128878369D01*
X80104614Y-128878364D01*
X80323228Y-128760057D01*
X80323231Y-128760055D01*
X80370056Y-128723609D01*
X79632533Y-127986086D01*
X79642315Y-127984680D01*
X79773100Y-127924952D01*
X79881761Y-127830798D01*
X79959493Y-127709844D01*
X79983076Y-127629524D01*
X80723434Y-128369882D01*
X80823731Y-128216369D01*
X80923587Y-127988717D01*
X80984612Y-127747738D01*
X80984614Y-127747729D01*
X81005141Y-127500005D01*
X92494357Y-127500005D01*
X92514890Y-127747812D01*
X92514892Y-127747824D01*
X92575936Y-127988881D01*
X92675826Y-128216606D01*
X92811833Y-128424782D01*
X92811836Y-128424785D01*
X92980256Y-128607738D01*
X93176491Y-128760474D01*
X93176493Y-128760475D01*
X93394332Y-128878364D01*
X93395190Y-128878828D01*
X93614141Y-128953994D01*
X93628964Y-128959083D01*
X93630386Y-128959571D01*
X93875665Y-129000500D01*
X94124335Y-129000500D01*
X94369614Y-128959571D01*
X94604810Y-128878828D01*
X94823509Y-128760474D01*
X95019744Y-128607738D01*
X95188164Y-128424785D01*
X95324173Y-128216607D01*
X95424063Y-127988881D01*
X95485108Y-127747821D01*
X95485455Y-127743631D01*
X95505643Y-127500005D01*
X95505643Y-127499994D01*
X95485109Y-127252187D01*
X95485107Y-127252175D01*
X95424063Y-127011118D01*
X95324173Y-126783393D01*
X95188166Y-126575217D01*
X95070325Y-126447208D01*
X95019744Y-126392262D01*
X94930194Y-126322562D01*
X94918623Y-126313556D01*
X94877810Y-126256846D01*
X94873697Y-126227249D01*
X94132533Y-125486086D01*
X94142315Y-125484680D01*
X94273100Y-125424952D01*
X94381761Y-125330798D01*
X94459493Y-125209844D01*
X94483076Y-125129524D01*
X95223434Y-125869882D01*
X95323731Y-125716369D01*
X95423587Y-125488717D01*
X95484612Y-125247738D01*
X95484614Y-125247729D01*
X95505141Y-125000005D01*
X95505141Y-124999994D01*
X95484614Y-124752270D01*
X95484612Y-124752261D01*
X95423587Y-124511282D01*
X95323732Y-124283632D01*
X95211515Y-124111870D01*
X95191328Y-124044981D01*
X95210508Y-123977795D01*
X95241013Y-123944782D01*
X95242329Y-123943796D01*
X95242331Y-123943796D01*
X95357546Y-123857546D01*
X95443796Y-123742331D01*
X95494091Y-123607483D01*
X95500500Y-123547873D01*
X95500499Y-121452128D01*
X95494091Y-121392517D01*
X95479097Y-121352317D01*
X95443797Y-121257671D01*
X95443793Y-121257664D01*
X95357547Y-121142455D01*
X95357544Y-121142452D01*
X95242335Y-121056206D01*
X95242328Y-121056202D01*
X95107482Y-121005908D01*
X95107483Y-121005908D01*
X95047883Y-120999501D01*
X95047881Y-120999500D01*
X95047873Y-120999500D01*
X95047864Y-120999500D01*
X92952129Y-120999500D01*
X92952123Y-120999501D01*
X92892516Y-121005908D01*
X92757671Y-121056202D01*
X92757664Y-121056206D01*
X92642455Y-121142452D01*
X92642452Y-121142455D01*
X92556206Y-121257664D01*
X92556202Y-121257671D01*
X92505908Y-121392517D01*
X92499501Y-121452116D01*
X92499501Y-121452123D01*
X92499500Y-121452135D01*
X92499500Y-123547870D01*
X92499501Y-123547876D01*
X92505908Y-123607483D01*
X92556202Y-123742328D01*
X92556206Y-123742335D01*
X92642452Y-123857544D01*
X92642455Y-123857547D01*
X92758986Y-123944783D01*
X92800857Y-124000717D01*
X92805841Y-124070408D01*
X92788484Y-124111870D01*
X92676267Y-124283631D01*
X92576412Y-124511282D01*
X92515387Y-124752261D01*
X92515385Y-124752270D01*
X92494859Y-124999994D01*
X92494859Y-125000005D01*
X92515385Y-125247729D01*
X92515387Y-125247738D01*
X92576412Y-125488717D01*
X92676266Y-125716364D01*
X92776564Y-125869882D01*
X93516922Y-125129523D01*
X93540507Y-125209844D01*
X93618239Y-125330798D01*
X93726900Y-125424952D01*
X93857685Y-125484680D01*
X93867466Y-125486086D01*
X93124100Y-126229450D01*
X93113482Y-126276148D01*
X93081376Y-126313556D01*
X92980255Y-126392262D01*
X92811833Y-126575217D01*
X92675826Y-126783393D01*
X92575936Y-127011118D01*
X92514892Y-127252175D01*
X92514890Y-127252187D01*
X92494357Y-127499994D01*
X92494357Y-127500005D01*
X81005141Y-127500005D01*
X81005141Y-127499994D01*
X80984614Y-127252270D01*
X80984612Y-127252261D01*
X80923587Y-127011282D01*
X80823731Y-126783630D01*
X80723434Y-126630116D01*
X79983076Y-127370475D01*
X79959493Y-127290156D01*
X79881761Y-127169202D01*
X79773100Y-127075048D01*
X79642315Y-127015320D01*
X79632534Y-127013913D01*
X80370057Y-126276390D01*
X80370056Y-126276389D01*
X80323229Y-126239943D01*
X80104614Y-126121635D01*
X80104603Y-126121630D01*
X79869493Y-126040916D01*
X79624293Y-126000000D01*
X79375707Y-126000000D01*
X79130506Y-126040916D01*
X78895396Y-126121630D01*
X78895390Y-126121632D01*
X78676761Y-126239949D01*
X78629942Y-126276388D01*
X78629942Y-126276390D01*
X79367466Y-127013913D01*
X79357685Y-127015320D01*
X79226900Y-127075048D01*
X79118239Y-127169202D01*
X79040507Y-127290156D01*
X79016923Y-127370475D01*
X78276564Y-126630116D01*
X78176267Y-126783632D01*
X78076412Y-127011282D01*
X78015387Y-127252261D01*
X78015385Y-127252270D01*
X77994859Y-127499994D01*
X77994859Y-127500005D01*
X61000500Y-127500005D01*
X61000500Y-122500005D01*
X77994357Y-122500005D01*
X78014890Y-122747812D01*
X78014892Y-122747824D01*
X78075936Y-122988881D01*
X78175826Y-123216606D01*
X78311833Y-123424782D01*
X78311836Y-123424785D01*
X78480256Y-123607738D01*
X78676491Y-123760474D01*
X78895190Y-123878828D01*
X79130386Y-123959571D01*
X79375665Y-124000500D01*
X79624335Y-124000500D01*
X79869614Y-123959571D01*
X80104810Y-123878828D01*
X80323509Y-123760474D01*
X80519744Y-123607738D01*
X80688164Y-123424785D01*
X80824173Y-123216607D01*
X80924063Y-122988881D01*
X80985108Y-122747821D01*
X81005643Y-122500000D01*
X80997490Y-122401610D01*
X80985109Y-122252187D01*
X80985107Y-122252175D01*
X80924063Y-122011118D01*
X80824173Y-121783393D01*
X80688166Y-121575217D01*
X80600802Y-121480315D01*
X80519744Y-121392262D01*
X80323509Y-121239526D01*
X80323507Y-121239525D01*
X80323506Y-121239524D01*
X80104811Y-121121172D01*
X80104802Y-121121169D01*
X79869616Y-121040429D01*
X79624335Y-120999500D01*
X79375665Y-120999500D01*
X79130383Y-121040429D01*
X78895197Y-121121169D01*
X78895188Y-121121172D01*
X78676493Y-121239524D01*
X78480257Y-121392261D01*
X78311833Y-121575217D01*
X78175826Y-121783393D01*
X78075936Y-122011118D01*
X78014892Y-122252175D01*
X78014890Y-122252187D01*
X77994357Y-122499994D01*
X77994357Y-122500005D01*
X61000500Y-122500005D01*
X61000500Y-120697870D01*
X84499500Y-120697870D01*
X84499501Y-120697876D01*
X84505908Y-120757483D01*
X84556202Y-120892328D01*
X84556206Y-120892335D01*
X84642452Y-121007544D01*
X84642455Y-121007547D01*
X84757664Y-121093793D01*
X84757671Y-121093797D01*
X84892517Y-121144091D01*
X84892516Y-121144091D01*
X84899444Y-121144835D01*
X84952127Y-121150500D01*
X88047872Y-121150499D01*
X88107483Y-121144091D01*
X88242331Y-121093796D01*
X88357546Y-121007546D01*
X88443796Y-120892331D01*
X88494091Y-120757483D01*
X88500500Y-120697873D01*
X88500499Y-118102128D01*
X88494091Y-118042517D01*
X88493087Y-118039826D01*
X88443797Y-117907671D01*
X88443793Y-117907664D01*
X88357547Y-117792455D01*
X88357544Y-117792452D01*
X88242335Y-117706206D01*
X88242328Y-117706202D01*
X88107482Y-117655908D01*
X88107483Y-117655908D01*
X88047883Y-117649501D01*
X88047881Y-117649500D01*
X88047873Y-117649500D01*
X88047864Y-117649500D01*
X84952129Y-117649500D01*
X84952123Y-117649501D01*
X84892516Y-117655908D01*
X84757671Y-117706202D01*
X84757664Y-117706206D01*
X84642455Y-117792452D01*
X84642452Y-117792455D01*
X84556206Y-117907664D01*
X84556202Y-117907671D01*
X84505908Y-118042517D01*
X84499501Y-118102116D01*
X84499501Y-118102123D01*
X84499500Y-118102135D01*
X84499500Y-120697870D01*
X61000500Y-120697870D01*
X61000500Y-113538001D01*
X118582532Y-113538001D01*
X118602364Y-113764686D01*
X118602366Y-113764697D01*
X118661258Y-113984488D01*
X118661261Y-113984497D01*
X118757431Y-114190732D01*
X118757432Y-114190734D01*
X118887954Y-114377141D01*
X119048858Y-114538045D01*
X119048861Y-114538047D01*
X119235266Y-114668568D01*
X119441504Y-114764739D01*
X119661308Y-114823635D01*
X119823230Y-114837801D01*
X119887998Y-114843468D01*
X119888000Y-114843468D01*
X119888002Y-114843468D01*
X119944807Y-114838498D01*
X120114692Y-114823635D01*
X120334496Y-114764739D01*
X120540734Y-114668568D01*
X120727139Y-114538047D01*
X120888047Y-114377139D01*
X121018568Y-114190734D01*
X121045618Y-114132724D01*
X121091790Y-114080285D01*
X121158983Y-114061133D01*
X121225865Y-114081348D01*
X121270382Y-114132725D01*
X121297429Y-114190728D01*
X121297432Y-114190734D01*
X121427954Y-114377141D01*
X121588858Y-114538045D01*
X121588861Y-114538047D01*
X121775266Y-114668568D01*
X121981504Y-114764739D01*
X122201308Y-114823635D01*
X122363230Y-114837801D01*
X122427998Y-114843468D01*
X122428000Y-114843468D01*
X122428002Y-114843468D01*
X122484807Y-114838498D01*
X122654692Y-114823635D01*
X122874496Y-114764739D01*
X123080734Y-114668568D01*
X123267139Y-114538047D01*
X123428047Y-114377139D01*
X123558568Y-114190734D01*
X123585618Y-114132724D01*
X123631790Y-114080285D01*
X123698983Y-114061133D01*
X123765865Y-114081348D01*
X123810382Y-114132725D01*
X123837429Y-114190728D01*
X123837432Y-114190734D01*
X123967954Y-114377141D01*
X124128858Y-114538045D01*
X124128861Y-114538047D01*
X124315266Y-114668568D01*
X124521504Y-114764739D01*
X124741308Y-114823635D01*
X124903230Y-114837801D01*
X124967998Y-114843468D01*
X124968000Y-114843468D01*
X124968002Y-114843468D01*
X125024807Y-114838498D01*
X125194692Y-114823635D01*
X125414496Y-114764739D01*
X125620734Y-114668568D01*
X125807139Y-114538047D01*
X125968047Y-114377139D01*
X126098568Y-114190734D01*
X126125618Y-114132724D01*
X126171790Y-114080285D01*
X126238983Y-114061133D01*
X126305865Y-114081348D01*
X126350382Y-114132725D01*
X126377429Y-114190728D01*
X126377432Y-114190734D01*
X126507954Y-114377141D01*
X126668858Y-114538045D01*
X126668861Y-114538047D01*
X126855266Y-114668568D01*
X127061504Y-114764739D01*
X127281308Y-114823635D01*
X127443230Y-114837801D01*
X127507998Y-114843468D01*
X127508000Y-114843468D01*
X127508002Y-114843468D01*
X127564807Y-114838498D01*
X127734692Y-114823635D01*
X127954496Y-114764739D01*
X128160734Y-114668568D01*
X128347139Y-114538047D01*
X128508047Y-114377139D01*
X128638568Y-114190734D01*
X128665618Y-114132724D01*
X128711790Y-114080285D01*
X128778983Y-114061133D01*
X128845865Y-114081348D01*
X128890382Y-114132725D01*
X128917429Y-114190728D01*
X128917432Y-114190734D01*
X129047954Y-114377141D01*
X129208858Y-114538045D01*
X129208861Y-114538047D01*
X129395266Y-114668568D01*
X129601504Y-114764739D01*
X129821308Y-114823635D01*
X129983230Y-114837801D01*
X130047998Y-114843468D01*
X130048000Y-114843468D01*
X130048002Y-114843468D01*
X130104807Y-114838498D01*
X130274692Y-114823635D01*
X130494496Y-114764739D01*
X130700734Y-114668568D01*
X130887139Y-114538047D01*
X131048047Y-114377139D01*
X131178568Y-114190734D01*
X131205618Y-114132724D01*
X131251790Y-114080285D01*
X131318983Y-114061133D01*
X131385865Y-114081348D01*
X131430382Y-114132725D01*
X131457429Y-114190728D01*
X131457432Y-114190734D01*
X131587954Y-114377141D01*
X131748858Y-114538045D01*
X131748861Y-114538047D01*
X131935266Y-114668568D01*
X132141504Y-114764739D01*
X132361308Y-114823635D01*
X132523230Y-114837801D01*
X132587998Y-114843468D01*
X132588000Y-114843468D01*
X132588002Y-114843468D01*
X132644807Y-114838498D01*
X132814692Y-114823635D01*
X133034496Y-114764739D01*
X133240734Y-114668568D01*
X133427139Y-114538047D01*
X133588047Y-114377139D01*
X133605272Y-114352539D01*
X133659848Y-114308913D01*
X133729346Y-114301718D01*
X133791701Y-114333239D01*
X133827116Y-114393468D01*
X133830138Y-114410406D01*
X133833908Y-114445483D01*
X133884202Y-114580328D01*
X133884206Y-114580335D01*
X133970452Y-114695544D01*
X133970455Y-114695547D01*
X134085664Y-114781793D01*
X134085671Y-114781797D01*
X134220517Y-114832091D01*
X134220516Y-114832091D01*
X134227444Y-114832835D01*
X134280127Y-114838500D01*
X135975872Y-114838499D01*
X136035483Y-114832091D01*
X136170331Y-114781796D01*
X136285546Y-114695546D01*
X136371796Y-114580331D01*
X136422091Y-114445483D01*
X136428500Y-114385873D01*
X136428499Y-112690128D01*
X136422091Y-112630517D01*
X136387567Y-112537954D01*
X136371797Y-112495671D01*
X136371793Y-112495664D01*
X136285547Y-112380455D01*
X136285544Y-112380452D01*
X136170335Y-112294206D01*
X136170328Y-112294202D01*
X136035482Y-112243908D01*
X136035483Y-112243908D01*
X135975883Y-112237501D01*
X135975881Y-112237500D01*
X135975873Y-112237500D01*
X135975864Y-112237500D01*
X134280129Y-112237500D01*
X134280123Y-112237501D01*
X134220516Y-112243908D01*
X134085671Y-112294202D01*
X134085664Y-112294206D01*
X133970455Y-112380452D01*
X133970452Y-112380455D01*
X133884206Y-112495664D01*
X133884202Y-112495671D01*
X133833908Y-112630516D01*
X133830137Y-112665596D01*
X133803398Y-112730146D01*
X133746006Y-112769994D01*
X133676180Y-112772487D01*
X133616092Y-112736834D01*
X133605273Y-112723462D01*
X133588045Y-112698858D01*
X133427141Y-112537954D01*
X133240734Y-112407432D01*
X133240732Y-112407431D01*
X133034497Y-112311261D01*
X133034488Y-112311258D01*
X132814697Y-112252366D01*
X132814693Y-112252365D01*
X132814692Y-112252365D01*
X132814691Y-112252364D01*
X132814686Y-112252364D01*
X132588002Y-112232532D01*
X132587998Y-112232532D01*
X132361313Y-112252364D01*
X132361302Y-112252366D01*
X132141511Y-112311258D01*
X132141502Y-112311261D01*
X131935267Y-112407431D01*
X131935265Y-112407432D01*
X131748858Y-112537954D01*
X131587954Y-112698858D01*
X131457432Y-112885265D01*
X131457431Y-112885267D01*
X131430382Y-112943275D01*
X131384209Y-112995714D01*
X131317016Y-113014866D01*
X131250135Y-112994650D01*
X131205618Y-112943275D01*
X131178568Y-112885267D01*
X131178567Y-112885265D01*
X131048045Y-112698858D01*
X130887141Y-112537954D01*
X130700734Y-112407432D01*
X130700732Y-112407431D01*
X130494497Y-112311261D01*
X130494488Y-112311258D01*
X130274697Y-112252366D01*
X130274693Y-112252365D01*
X130274692Y-112252365D01*
X130274691Y-112252364D01*
X130274686Y-112252364D01*
X130048002Y-112232532D01*
X130047998Y-112232532D01*
X129821313Y-112252364D01*
X129821302Y-112252366D01*
X129601511Y-112311258D01*
X129601502Y-112311261D01*
X129395267Y-112407431D01*
X129395265Y-112407432D01*
X129208858Y-112537954D01*
X129047954Y-112698858D01*
X128917432Y-112885265D01*
X128917431Y-112885267D01*
X128890382Y-112943275D01*
X128844209Y-112995714D01*
X128777016Y-113014866D01*
X128710135Y-112994650D01*
X128665618Y-112943275D01*
X128638568Y-112885267D01*
X128638567Y-112885265D01*
X128508045Y-112698858D01*
X128347141Y-112537954D01*
X128160734Y-112407432D01*
X128160732Y-112407431D01*
X127954497Y-112311261D01*
X127954488Y-112311258D01*
X127734697Y-112252366D01*
X127734693Y-112252365D01*
X127734692Y-112252365D01*
X127734691Y-112252364D01*
X127734686Y-112252364D01*
X127508002Y-112232532D01*
X127507998Y-112232532D01*
X127281313Y-112252364D01*
X127281302Y-112252366D01*
X127061511Y-112311258D01*
X127061502Y-112311261D01*
X126855267Y-112407431D01*
X126855265Y-112407432D01*
X126668858Y-112537954D01*
X126507954Y-112698858D01*
X126377432Y-112885265D01*
X126377431Y-112885267D01*
X126350382Y-112943275D01*
X126304209Y-112995714D01*
X126237016Y-113014866D01*
X126170135Y-112994650D01*
X126125618Y-112943275D01*
X126098568Y-112885267D01*
X126098567Y-112885265D01*
X125968045Y-112698858D01*
X125807141Y-112537954D01*
X125620734Y-112407432D01*
X125620732Y-112407431D01*
X125414497Y-112311261D01*
X125414488Y-112311258D01*
X125194697Y-112252366D01*
X125194693Y-112252365D01*
X125194692Y-112252365D01*
X125194691Y-112252364D01*
X125194686Y-112252364D01*
X124968002Y-112232532D01*
X124967998Y-112232532D01*
X124741313Y-112252364D01*
X124741302Y-112252366D01*
X124521511Y-112311258D01*
X124521502Y-112311261D01*
X124315267Y-112407431D01*
X124315265Y-112407432D01*
X124128858Y-112537954D01*
X123967954Y-112698858D01*
X123837432Y-112885265D01*
X123837431Y-112885267D01*
X123810382Y-112943275D01*
X123764209Y-112995714D01*
X123697016Y-113014866D01*
X123630135Y-112994650D01*
X123585618Y-112943275D01*
X123558568Y-112885267D01*
X123558567Y-112885265D01*
X123428045Y-112698858D01*
X123267141Y-112537954D01*
X123080734Y-112407432D01*
X123080732Y-112407431D01*
X122874497Y-112311261D01*
X122874488Y-112311258D01*
X122654697Y-112252366D01*
X122654693Y-112252365D01*
X122654692Y-112252365D01*
X122654691Y-112252364D01*
X122654686Y-112252364D01*
X122428002Y-112232532D01*
X122427998Y-112232532D01*
X122201313Y-112252364D01*
X122201302Y-112252366D01*
X121981511Y-112311258D01*
X121981502Y-112311261D01*
X121775267Y-112407431D01*
X121775265Y-112407432D01*
X121588858Y-112537954D01*
X121427954Y-112698858D01*
X121297432Y-112885265D01*
X121297431Y-112885267D01*
X121270382Y-112943275D01*
X121224209Y-112995714D01*
X121157016Y-113014866D01*
X121090135Y-112994650D01*
X121045618Y-112943275D01*
X121018568Y-112885267D01*
X121018567Y-112885265D01*
X120888045Y-112698858D01*
X120727141Y-112537954D01*
X120540734Y-112407432D01*
X120540732Y-112407431D01*
X120334497Y-112311261D01*
X120334488Y-112311258D01*
X120114697Y-112252366D01*
X120114693Y-112252365D01*
X120114692Y-112252365D01*
X120114691Y-112252364D01*
X120114686Y-112252364D01*
X119888002Y-112232532D01*
X119887998Y-112232532D01*
X119661313Y-112252364D01*
X119661302Y-112252366D01*
X119441511Y-112311258D01*
X119441502Y-112311261D01*
X119235267Y-112407431D01*
X119235265Y-112407432D01*
X119048858Y-112537954D01*
X118887954Y-112698858D01*
X118757432Y-112885265D01*
X118757431Y-112885267D01*
X118661261Y-113091502D01*
X118661258Y-113091511D01*
X118602366Y-113311302D01*
X118602364Y-113311313D01*
X118582532Y-113537998D01*
X118582532Y-113538001D01*
X61000500Y-113538001D01*
X61000500Y-108310370D01*
X168618000Y-108310370D01*
X168618001Y-108310376D01*
X168624408Y-108369983D01*
X168674702Y-108504828D01*
X168674706Y-108504835D01*
X168760952Y-108620044D01*
X168760955Y-108620047D01*
X168876164Y-108706293D01*
X168876171Y-108706297D01*
X169011017Y-108756591D01*
X169011016Y-108756591D01*
X169017944Y-108757335D01*
X169070627Y-108763000D01*
X170866372Y-108762999D01*
X170925983Y-108756591D01*
X171060831Y-108706296D01*
X171176046Y-108620046D01*
X171262296Y-108504831D01*
X171311502Y-108372901D01*
X171353372Y-108316968D01*
X171418837Y-108292550D01*
X171487110Y-108307401D01*
X171515365Y-108328553D01*
X171637417Y-108450605D01*
X171830921Y-108586100D01*
X172045007Y-108685929D01*
X172045016Y-108685933D01*
X172258500Y-108743134D01*
X172258500Y-107558381D01*
X172351869Y-107597056D01*
X172469177Y-107612500D01*
X172547823Y-107612500D01*
X172665131Y-107597056D01*
X172758500Y-107558381D01*
X172758500Y-108743133D01*
X172971983Y-108685933D01*
X172971992Y-108685929D01*
X173186077Y-108586100D01*
X173186079Y-108586099D01*
X173379573Y-108450613D01*
X173379579Y-108450608D01*
X173546608Y-108283579D01*
X173546613Y-108283573D01*
X173676619Y-108097905D01*
X173731196Y-108054280D01*
X173800694Y-108047086D01*
X173863049Y-108078609D01*
X173879769Y-108097905D01*
X174010005Y-108283902D01*
X174096087Y-108369983D01*
X174177099Y-108450995D01*
X174273884Y-108518765D01*
X174370665Y-108586532D01*
X174370667Y-108586533D01*
X174370670Y-108586535D01*
X174584837Y-108686403D01*
X174813092Y-108747563D01*
X174989534Y-108763000D01*
X175048499Y-108768159D01*
X175048500Y-108768159D01*
X175048501Y-108768159D01*
X175107466Y-108763000D01*
X175283908Y-108747563D01*
X175512163Y-108686403D01*
X175726329Y-108586535D01*
X175919901Y-108450995D01*
X176086995Y-108283901D01*
X176222535Y-108090329D01*
X176322403Y-107876163D01*
X176383563Y-107647908D01*
X176399000Y-107471466D01*
X176399000Y-106553534D01*
X176383563Y-106377092D01*
X176322403Y-106148837D01*
X176222535Y-105934671D01*
X176217231Y-105927095D01*
X176086994Y-105741097D01*
X175919902Y-105574006D01*
X175919895Y-105574001D01*
X175726334Y-105438467D01*
X175726330Y-105438465D01*
X175726328Y-105438464D01*
X175512163Y-105338597D01*
X175512159Y-105338596D01*
X175512155Y-105338594D01*
X175283913Y-105277438D01*
X175283903Y-105277436D01*
X175048501Y-105256841D01*
X175048499Y-105256841D01*
X174813096Y-105277436D01*
X174813086Y-105277438D01*
X174584844Y-105338594D01*
X174584835Y-105338598D01*
X174370671Y-105438464D01*
X174370669Y-105438465D01*
X174177097Y-105574005D01*
X174010008Y-105741094D01*
X173879769Y-105927095D01*
X173825192Y-105970719D01*
X173755693Y-105977912D01*
X173693339Y-105946390D01*
X173676619Y-105927094D01*
X173546613Y-105741426D01*
X173546608Y-105741420D01*
X173379582Y-105574394D01*
X173186078Y-105438899D01*
X172971992Y-105339070D01*
X172971986Y-105339067D01*
X172758500Y-105281864D01*
X172758500Y-106466618D01*
X172665131Y-106427944D01*
X172547823Y-106412500D01*
X172469177Y-106412500D01*
X172351869Y-106427944D01*
X172258500Y-106466618D01*
X172258500Y-105281864D01*
X172258499Y-105281864D01*
X172045013Y-105339067D01*
X172045007Y-105339070D01*
X171830922Y-105438899D01*
X171830920Y-105438900D01*
X171637426Y-105574386D01*
X171515365Y-105696447D01*
X171454042Y-105729931D01*
X171384350Y-105724947D01*
X171328417Y-105683075D01*
X171311502Y-105652098D01*
X171262297Y-105520171D01*
X171262293Y-105520164D01*
X171176047Y-105404955D01*
X171176044Y-105404952D01*
X171060835Y-105318706D01*
X171060828Y-105318702D01*
X170925982Y-105268408D01*
X170925983Y-105268408D01*
X170866383Y-105262001D01*
X170866381Y-105262000D01*
X170866373Y-105262000D01*
X170866364Y-105262000D01*
X169070629Y-105262000D01*
X169070623Y-105262001D01*
X169011016Y-105268408D01*
X168876171Y-105318702D01*
X168876164Y-105318706D01*
X168760955Y-105404952D01*
X168760952Y-105404955D01*
X168674706Y-105520164D01*
X168674702Y-105520171D01*
X168624408Y-105655017D01*
X168618001Y-105714616D01*
X168618000Y-105714635D01*
X168618000Y-108310370D01*
X61000500Y-108310370D01*
X61000500Y-105918001D01*
X118582532Y-105918001D01*
X118602364Y-106144686D01*
X118602366Y-106144697D01*
X118661258Y-106364488D01*
X118661261Y-106364497D01*
X118757431Y-106570732D01*
X118757432Y-106570734D01*
X118887954Y-106757141D01*
X119048858Y-106918045D01*
X119048861Y-106918047D01*
X119235266Y-107048568D01*
X119441504Y-107144739D01*
X119661308Y-107203635D01*
X119823230Y-107217801D01*
X119887998Y-107223468D01*
X119888000Y-107223468D01*
X119888002Y-107223468D01*
X119944673Y-107218509D01*
X120114692Y-107203635D01*
X120334496Y-107144739D01*
X120540734Y-107048568D01*
X120727139Y-106918047D01*
X120888047Y-106757139D01*
X121018568Y-106570734D01*
X121045618Y-106512724D01*
X121091790Y-106460285D01*
X121158983Y-106441133D01*
X121225865Y-106461348D01*
X121270382Y-106512725D01*
X121297429Y-106570728D01*
X121297432Y-106570734D01*
X121427954Y-106757141D01*
X121588858Y-106918045D01*
X121588861Y-106918047D01*
X121775266Y-107048568D01*
X121981504Y-107144739D01*
X122201308Y-107203635D01*
X122363230Y-107217801D01*
X122427998Y-107223468D01*
X122428000Y-107223468D01*
X122428002Y-107223468D01*
X122484673Y-107218509D01*
X122654692Y-107203635D01*
X122874496Y-107144739D01*
X123080734Y-107048568D01*
X123267139Y-106918047D01*
X123428047Y-106757139D01*
X123558568Y-106570734D01*
X123585618Y-106512724D01*
X123631790Y-106460285D01*
X123698983Y-106441133D01*
X123765865Y-106461348D01*
X123810382Y-106512725D01*
X123837429Y-106570728D01*
X123837432Y-106570734D01*
X123967954Y-106757141D01*
X124128858Y-106918045D01*
X124128861Y-106918047D01*
X124315266Y-107048568D01*
X124521504Y-107144739D01*
X124741308Y-107203635D01*
X124903230Y-107217801D01*
X124967998Y-107223468D01*
X124968000Y-107223468D01*
X124968002Y-107223468D01*
X125024673Y-107218509D01*
X125194692Y-107203635D01*
X125414496Y-107144739D01*
X125620734Y-107048568D01*
X125807139Y-106918047D01*
X125968047Y-106757139D01*
X126098568Y-106570734D01*
X126125618Y-106512724D01*
X126171790Y-106460285D01*
X126238983Y-106441133D01*
X126305865Y-106461348D01*
X126350382Y-106512725D01*
X126377429Y-106570728D01*
X126377432Y-106570734D01*
X126507954Y-106757141D01*
X126668858Y-106918045D01*
X126668861Y-106918047D01*
X126855266Y-107048568D01*
X127061504Y-107144739D01*
X127281308Y-107203635D01*
X127443230Y-107217801D01*
X127507998Y-107223468D01*
X127508000Y-107223468D01*
X127508002Y-107223468D01*
X127564673Y-107218509D01*
X127734692Y-107203635D01*
X127954496Y-107144739D01*
X128160734Y-107048568D01*
X128347139Y-106918047D01*
X128508047Y-106757139D01*
X128638568Y-106570734D01*
X128665618Y-106512724D01*
X128711790Y-106460285D01*
X128778983Y-106441133D01*
X128845865Y-106461348D01*
X128890382Y-106512725D01*
X128917429Y-106570728D01*
X128917432Y-106570734D01*
X129047954Y-106757141D01*
X129208858Y-106918045D01*
X129208861Y-106918047D01*
X129395266Y-107048568D01*
X129601504Y-107144739D01*
X129821308Y-107203635D01*
X129983230Y-107217801D01*
X130047998Y-107223468D01*
X130048000Y-107223468D01*
X130048002Y-107223468D01*
X130104673Y-107218509D01*
X130274692Y-107203635D01*
X130494496Y-107144739D01*
X130700734Y-107048568D01*
X130887139Y-106918047D01*
X131048047Y-106757139D01*
X131178568Y-106570734D01*
X131205618Y-106512724D01*
X131251790Y-106460285D01*
X131318983Y-106441133D01*
X131385865Y-106461348D01*
X131430382Y-106512725D01*
X131457429Y-106570728D01*
X131457432Y-106570734D01*
X131587954Y-106757141D01*
X131748858Y-106918045D01*
X131748861Y-106918047D01*
X131935266Y-107048568D01*
X132141504Y-107144739D01*
X132361308Y-107203635D01*
X132523230Y-107217801D01*
X132587998Y-107223468D01*
X132588000Y-107223468D01*
X132588002Y-107223468D01*
X132644673Y-107218509D01*
X132814692Y-107203635D01*
X133034496Y-107144739D01*
X133240734Y-107048568D01*
X133427139Y-106918047D01*
X133588047Y-106757139D01*
X133718568Y-106570734D01*
X133745895Y-106512129D01*
X133792064Y-106459695D01*
X133859257Y-106440542D01*
X133926139Y-106460757D01*
X133970657Y-106512133D01*
X133997865Y-106570482D01*
X134128342Y-106756820D01*
X134289179Y-106917657D01*
X134475517Y-107048134D01*
X134681673Y-107144265D01*
X134681682Y-107144269D01*
X134877999Y-107196872D01*
X134878000Y-107196871D01*
X134878000Y-106233686D01*
X134889955Y-106245641D01*
X135002852Y-106303165D01*
X135096519Y-106318000D01*
X135159481Y-106318000D01*
X135253148Y-106303165D01*
X135366045Y-106245641D01*
X135378000Y-106233686D01*
X135378000Y-107196872D01*
X135574317Y-107144269D01*
X135574326Y-107144265D01*
X135780482Y-107048134D01*
X135966820Y-106917657D01*
X136127657Y-106756820D01*
X136258134Y-106570482D01*
X136354265Y-106364326D01*
X136354269Y-106364317D01*
X136406872Y-106168000D01*
X135443686Y-106168000D01*
X135455641Y-106156045D01*
X135513165Y-106043148D01*
X135532986Y-105918000D01*
X135513165Y-105792852D01*
X135455641Y-105679955D01*
X135443686Y-105668000D01*
X136406872Y-105668000D01*
X136406872Y-105667999D01*
X136354269Y-105471682D01*
X136354265Y-105471673D01*
X136258134Y-105265517D01*
X136127657Y-105079179D01*
X135966820Y-104918342D01*
X135780482Y-104787865D01*
X135574328Y-104691734D01*
X135378000Y-104639127D01*
X135378000Y-105602314D01*
X135366045Y-105590359D01*
X135253148Y-105532835D01*
X135159481Y-105518000D01*
X135096519Y-105518000D01*
X135002852Y-105532835D01*
X134889955Y-105590359D01*
X134878000Y-105602314D01*
X134878000Y-104639127D01*
X134681671Y-104691734D01*
X134475517Y-104787865D01*
X134289179Y-104918342D01*
X134128342Y-105079179D01*
X133997867Y-105265515D01*
X133970657Y-105323867D01*
X133924484Y-105376306D01*
X133857290Y-105395457D01*
X133790409Y-105375241D01*
X133745893Y-105323865D01*
X133743487Y-105318706D01*
X133718568Y-105265266D01*
X133588047Y-105078861D01*
X133588045Y-105078858D01*
X133427141Y-104917954D01*
X133240734Y-104787432D01*
X133240732Y-104787431D01*
X133034497Y-104691261D01*
X133034488Y-104691258D01*
X132814697Y-104632366D01*
X132814693Y-104632365D01*
X132814692Y-104632365D01*
X132814691Y-104632364D01*
X132814686Y-104632364D01*
X132588002Y-104612532D01*
X132587998Y-104612532D01*
X132361313Y-104632364D01*
X132361302Y-104632366D01*
X132141511Y-104691258D01*
X132141502Y-104691261D01*
X131935267Y-104787431D01*
X131935265Y-104787432D01*
X131748858Y-104917954D01*
X131587954Y-105078858D01*
X131457432Y-105265265D01*
X131457431Y-105265267D01*
X131451756Y-105277438D01*
X131432513Y-105318706D01*
X131430382Y-105323275D01*
X131384209Y-105375714D01*
X131317016Y-105394866D01*
X131250135Y-105374650D01*
X131205618Y-105323275D01*
X131178568Y-105265266D01*
X131048047Y-105078861D01*
X131048045Y-105078858D01*
X130887141Y-104917954D01*
X130700734Y-104787432D01*
X130700732Y-104787431D01*
X130494497Y-104691261D01*
X130494488Y-104691258D01*
X130274697Y-104632366D01*
X130274693Y-104632365D01*
X130274692Y-104632365D01*
X130274691Y-104632364D01*
X130274686Y-104632364D01*
X130048002Y-104612532D01*
X130047998Y-104612532D01*
X129821313Y-104632364D01*
X129821302Y-104632366D01*
X129601511Y-104691258D01*
X129601502Y-104691261D01*
X129395267Y-104787431D01*
X129395265Y-104787432D01*
X129208858Y-104917954D01*
X129047954Y-105078858D01*
X128917432Y-105265265D01*
X128917431Y-105265267D01*
X128911756Y-105277438D01*
X128892513Y-105318706D01*
X128890382Y-105323275D01*
X128844209Y-105375714D01*
X128777016Y-105394866D01*
X128710135Y-105374650D01*
X128665618Y-105323275D01*
X128638568Y-105265266D01*
X128508047Y-105078861D01*
X128508045Y-105078858D01*
X128347141Y-104917954D01*
X128160734Y-104787432D01*
X128160732Y-104787431D01*
X127954497Y-104691261D01*
X127954488Y-104691258D01*
X127734697Y-104632366D01*
X127734693Y-104632365D01*
X127734692Y-104632365D01*
X127734691Y-104632364D01*
X127734686Y-104632364D01*
X127508002Y-104612532D01*
X127507998Y-104612532D01*
X127281313Y-104632364D01*
X127281302Y-104632366D01*
X127061511Y-104691258D01*
X127061502Y-104691261D01*
X126855267Y-104787431D01*
X126855265Y-104787432D01*
X126668858Y-104917954D01*
X126507954Y-105078858D01*
X126377432Y-105265265D01*
X126377431Y-105265267D01*
X126371756Y-105277438D01*
X126352513Y-105318706D01*
X126350382Y-105323275D01*
X126304209Y-105375714D01*
X126237016Y-105394866D01*
X126170135Y-105374650D01*
X126125618Y-105323275D01*
X126098568Y-105265266D01*
X125968047Y-105078861D01*
X125968045Y-105078858D01*
X125807141Y-104917954D01*
X125620734Y-104787432D01*
X125620732Y-104787431D01*
X125414497Y-104691261D01*
X125414488Y-104691258D01*
X125194697Y-104632366D01*
X125194693Y-104632365D01*
X125194692Y-104632365D01*
X125194691Y-104632364D01*
X125194686Y-104632364D01*
X124968002Y-104612532D01*
X124967998Y-104612532D01*
X124741313Y-104632364D01*
X124741302Y-104632366D01*
X124521511Y-104691258D01*
X124521502Y-104691261D01*
X124315267Y-104787431D01*
X124315265Y-104787432D01*
X124128858Y-104917954D01*
X123967954Y-105078858D01*
X123837432Y-105265265D01*
X123837431Y-105265267D01*
X123831756Y-105277438D01*
X123812513Y-105318706D01*
X123810382Y-105323275D01*
X123764209Y-105375714D01*
X123697016Y-105394866D01*
X123630135Y-105374650D01*
X123585618Y-105323275D01*
X123558568Y-105265266D01*
X123428047Y-105078861D01*
X123428045Y-105078858D01*
X123267141Y-104917954D01*
X123080734Y-104787432D01*
X123080732Y-104787431D01*
X122874497Y-104691261D01*
X122874488Y-104691258D01*
X122654697Y-104632366D01*
X122654693Y-104632365D01*
X122654692Y-104632365D01*
X122654691Y-104632364D01*
X122654686Y-104632364D01*
X122428002Y-104612532D01*
X122427998Y-104612532D01*
X122201313Y-104632364D01*
X122201302Y-104632366D01*
X121981511Y-104691258D01*
X121981502Y-104691261D01*
X121775267Y-104787431D01*
X121775265Y-104787432D01*
X121588858Y-104917954D01*
X121427954Y-105078858D01*
X121297432Y-105265265D01*
X121297431Y-105265267D01*
X121291756Y-105277438D01*
X121272513Y-105318706D01*
X121270382Y-105323275D01*
X121224209Y-105375714D01*
X121157016Y-105394866D01*
X121090135Y-105374650D01*
X121045618Y-105323275D01*
X121018568Y-105265266D01*
X120888047Y-105078861D01*
X120888045Y-105078858D01*
X120727141Y-104917954D01*
X120540734Y-104787432D01*
X120540732Y-104787431D01*
X120334497Y-104691261D01*
X120334488Y-104691258D01*
X120114697Y-104632366D01*
X120114693Y-104632365D01*
X120114692Y-104632365D01*
X120114691Y-104632364D01*
X120114686Y-104632364D01*
X119888002Y-104612532D01*
X119887998Y-104612532D01*
X119661313Y-104632364D01*
X119661302Y-104632366D01*
X119441511Y-104691258D01*
X119441502Y-104691261D01*
X119235267Y-104787431D01*
X119235265Y-104787432D01*
X119048858Y-104917954D01*
X118887954Y-105078858D01*
X118757432Y-105265265D01*
X118757431Y-105265267D01*
X118661261Y-105471502D01*
X118661258Y-105471511D01*
X118602366Y-105691302D01*
X118602364Y-105691313D01*
X118582532Y-105917998D01*
X118582532Y-105918001D01*
X61000500Y-105918001D01*
X61000500Y-71703902D01*
X228042300Y-71703902D01*
X228052860Y-71787981D01*
X228107936Y-71920947D01*
X228107937Y-71920948D01*
X228159921Y-71987867D01*
X228159927Y-71987873D01*
X228632135Y-72460082D01*
X228632145Y-72460091D01*
X228699050Y-72512063D01*
X228699051Y-72512063D01*
X228699052Y-72512064D01*
X228832018Y-72567140D01*
X228916091Y-72577700D01*
X229583907Y-72577699D01*
X229667982Y-72567140D01*
X229800948Y-72512063D01*
X229867867Y-72460079D01*
X230340084Y-71987863D01*
X230392064Y-71920948D01*
X230447140Y-71787982D01*
X230457700Y-71703909D01*
X230457699Y-71036093D01*
X230447140Y-70952018D01*
X230392063Y-70819052D01*
X230340079Y-70752133D01*
X229867863Y-70279916D01*
X229867862Y-70279915D01*
X229867854Y-70279908D01*
X229800949Y-70227936D01*
X229716916Y-70193129D01*
X229667982Y-70172860D01*
X229583909Y-70162300D01*
X228916097Y-70162300D01*
X228832018Y-70172860D01*
X228699052Y-70227936D01*
X228632133Y-70279921D01*
X228632126Y-70279927D01*
X228159917Y-70752135D01*
X228159908Y-70752145D01*
X228107936Y-70819050D01*
X228052860Y-70952018D01*
X228042300Y-71036087D01*
X228042300Y-71703902D01*
X61000500Y-71703902D01*
X61000500Y-70306871D01*
X66471673Y-70306871D01*
X66487018Y-70420154D01*
X66502178Y-70532070D01*
X66572405Y-70748202D01*
X66680093Y-70948320D01*
X66821782Y-71125993D01*
X66911756Y-71204600D01*
X66992922Y-71275512D01*
X67188008Y-71392071D01*
X67400771Y-71471922D01*
X67624369Y-71512500D01*
X67624373Y-71512500D01*
X69318693Y-71512500D01*
X69318699Y-71512500D01*
X69477810Y-71498179D01*
X69488340Y-71497232D01*
X69707392Y-71436778D01*
X69707397Y-71436775D01*
X69707404Y-71436774D01*
X69912153Y-71338172D01*
X70096005Y-71204596D01*
X70253052Y-71040338D01*
X70378246Y-70850677D01*
X70467562Y-70641711D01*
X70518131Y-70420154D01*
X70528327Y-70193129D01*
X70497822Y-69967932D01*
X70427596Y-69751800D01*
X70319908Y-69551681D01*
X70246525Y-69459662D01*
X70178217Y-69374006D01*
X70007084Y-69224493D01*
X70007082Y-69224491D01*
X70007078Y-69224488D01*
X69958306Y-69195348D01*
X69811998Y-69107932D01*
X69811996Y-69107931D01*
X69811994Y-69107930D01*
X69811992Y-69107929D01*
X69778399Y-69095321D01*
X69722552Y-69053335D01*
X69698270Y-68987821D01*
X69713262Y-68919579D01*
X69762769Y-68870275D01*
X69768101Y-68867543D01*
X69912153Y-68798172D01*
X70096005Y-68664596D01*
X70253052Y-68500338D01*
X70378246Y-68310677D01*
X70467562Y-68101711D01*
X70518131Y-67880154D01*
X70528327Y-67653129D01*
X70497822Y-67427932D01*
X70427596Y-67211800D01*
X70319908Y-67011681D01*
X70246525Y-66919662D01*
X70178217Y-66834006D01*
X70007084Y-66684493D01*
X70007082Y-66684491D01*
X70007078Y-66684488D01*
X69958306Y-66655348D01*
X69811998Y-66567932D01*
X69811996Y-66567931D01*
X69811994Y-66567930D01*
X69811992Y-66567929D01*
X69777750Y-66555078D01*
X69721905Y-66513093D01*
X69697622Y-66447579D01*
X69712614Y-66379336D01*
X69762120Y-66330032D01*
X69767523Y-66327265D01*
X69911900Y-66257738D01*
X69911901Y-66257737D01*
X70095672Y-66124219D01*
X70095677Y-66124215D01*
X70252659Y-65960023D01*
X70377803Y-65770439D01*
X70467083Y-65561559D01*
X70467086Y-65561550D01*
X70499394Y-65420000D01*
X68943196Y-65420000D01*
X68966845Y-65383201D01*
X69008000Y-65243039D01*
X69008000Y-65096961D01*
X68966845Y-64956799D01*
X68943196Y-64920000D01*
X70501661Y-64920000D01*
X70497330Y-64888040D01*
X70497330Y-64888038D01*
X70427134Y-64671996D01*
X70319490Y-64471960D01*
X70319488Y-64471957D01*
X70177854Y-64294353D01*
X70006789Y-64144899D01*
X70006781Y-64144892D01*
X69811781Y-64028384D01*
X69811779Y-64028383D01*
X69777130Y-64015379D01*
X69721283Y-63973393D01*
X69697000Y-63907879D01*
X69711992Y-63839636D01*
X69761498Y-63790332D01*
X69766901Y-63787566D01*
X69911891Y-63717743D01*
X69911901Y-63717737D01*
X70095672Y-63584219D01*
X70095677Y-63584215D01*
X70252659Y-63420023D01*
X70377803Y-63230439D01*
X70467083Y-63021559D01*
X70467086Y-63021550D01*
X70499394Y-62880000D01*
X68943196Y-62880000D01*
X68966845Y-62843201D01*
X69008000Y-62703039D01*
X69008000Y-62556961D01*
X68966845Y-62416799D01*
X68943196Y-62380000D01*
X70501661Y-62380000D01*
X70497330Y-62348040D01*
X70497330Y-62348038D01*
X70427134Y-62131996D01*
X70319490Y-61931960D01*
X70319488Y-61931957D01*
X70177854Y-61754353D01*
X70006789Y-61604899D01*
X70006781Y-61604892D01*
X69811781Y-61488384D01*
X69811773Y-61488380D01*
X69599095Y-61408561D01*
X69375586Y-61368000D01*
X68750000Y-61368000D01*
X68750000Y-62185702D01*
X68644592Y-62137565D01*
X68536334Y-62122000D01*
X68463666Y-62122000D01*
X68355408Y-62137565D01*
X68250000Y-62185702D01*
X68250000Y-61368000D01*
X67681327Y-61368000D01*
X67511749Y-61383261D01*
X67292782Y-61443692D01*
X67292769Y-61443697D01*
X67088108Y-61542256D01*
X67088098Y-61542262D01*
X66904327Y-61675780D01*
X66904322Y-61675784D01*
X66747340Y-61839976D01*
X66622196Y-62029560D01*
X66532916Y-62238440D01*
X66532913Y-62238449D01*
X66500605Y-62379999D01*
X66500606Y-62380000D01*
X68056804Y-62380000D01*
X68033155Y-62416799D01*
X67992000Y-62556961D01*
X67992000Y-62703039D01*
X68033155Y-62843201D01*
X68056804Y-62880000D01*
X66498339Y-62880000D01*
X66502669Y-62911959D01*
X66502669Y-62911961D01*
X66572865Y-63128003D01*
X66680509Y-63328039D01*
X66680511Y-63328042D01*
X66822145Y-63505646D01*
X66993210Y-63655100D01*
X66993218Y-63655107D01*
X67188218Y-63771615D01*
X67188226Y-63771619D01*
X67222867Y-63784620D01*
X67278715Y-63826605D01*
X67302999Y-63892119D01*
X67288008Y-63960361D01*
X67238502Y-64009666D01*
X67233099Y-64012433D01*
X67088104Y-64082258D01*
X67088098Y-64082262D01*
X66904327Y-64215780D01*
X66904322Y-64215784D01*
X66747340Y-64379976D01*
X66622196Y-64569560D01*
X66532916Y-64778440D01*
X66532913Y-64778449D01*
X66500605Y-64919999D01*
X66500606Y-64920000D01*
X68056804Y-64920000D01*
X68033155Y-64956799D01*
X67992000Y-65096961D01*
X67992000Y-65243039D01*
X68033155Y-65383201D01*
X68056804Y-65420000D01*
X66498339Y-65420000D01*
X66502669Y-65451959D01*
X66502669Y-65451961D01*
X66572865Y-65668003D01*
X66680509Y-65868039D01*
X66680511Y-65868042D01*
X66822145Y-66045646D01*
X66993210Y-66195100D01*
X66993218Y-66195107D01*
X67188218Y-66311615D01*
X67188226Y-66311619D01*
X67222219Y-66324377D01*
X67278067Y-66366362D01*
X67302351Y-66431876D01*
X67287360Y-66500119D01*
X67237854Y-66549423D01*
X67232451Y-66552190D01*
X67087849Y-66621826D01*
X67087845Y-66621828D01*
X66904000Y-66755399D01*
X66903992Y-66755405D01*
X66746949Y-66919660D01*
X66621755Y-67109319D01*
X66532438Y-67318290D01*
X66532435Y-67318299D01*
X66481870Y-67539840D01*
X66481868Y-67539851D01*
X66476781Y-67653129D01*
X66471673Y-67766871D01*
X66487018Y-67880154D01*
X66502178Y-67992070D01*
X66572405Y-68208202D01*
X66680093Y-68408320D01*
X66821782Y-68585993D01*
X66911756Y-68664600D01*
X66992922Y-68735512D01*
X67188008Y-68852071D01*
X67221597Y-68864677D01*
X67277445Y-68906662D01*
X67301729Y-68972176D01*
X67286738Y-69040419D01*
X67237232Y-69089723D01*
X67231829Y-69092490D01*
X67087849Y-69161826D01*
X67087845Y-69161828D01*
X66904000Y-69295399D01*
X66903992Y-69295405D01*
X66746949Y-69459660D01*
X66621755Y-69649319D01*
X66532438Y-69858290D01*
X66532435Y-69858299D01*
X66481870Y-70079840D01*
X66481868Y-70079851D01*
X66472883Y-70279921D01*
X66471673Y-70306871D01*
X61000500Y-70306871D01*
X61000500Y-58106155D01*
X80749500Y-58106155D01*
X80754113Y-58157416D01*
X80764622Y-58274186D01*
X80764623Y-58274192D01*
X80824503Y-58491160D01*
X80824508Y-58491173D01*
X80922167Y-58693966D01*
X80922171Y-58693974D01*
X81054473Y-58876072D01*
X81054474Y-58876074D01*
X81054477Y-58876077D01*
X81054478Y-58876078D01*
X81084800Y-58905069D01*
X81217176Y-59031633D01*
X81405033Y-59155636D01*
X81612004Y-59244100D01*
X81612007Y-59244101D01*
X81612012Y-59244103D01*
X81831463Y-59294191D01*
X82056330Y-59304290D01*
X82279387Y-59274075D01*
X82493464Y-59204517D01*
X82691681Y-59097852D01*
X82867666Y-58957508D01*
X82906123Y-58913489D01*
X82965054Y-58875956D01*
X83034923Y-58876240D01*
X83085195Y-58905446D01*
X83203046Y-59018124D01*
X83217176Y-59031633D01*
X83405033Y-59155636D01*
X83612004Y-59244100D01*
X83612007Y-59244101D01*
X83612012Y-59244103D01*
X83831463Y-59294191D01*
X84056330Y-59304290D01*
X84279387Y-59274075D01*
X84493464Y-59204517D01*
X84691681Y-59097852D01*
X84867666Y-58957508D01*
X84906123Y-58913489D01*
X84965054Y-58875956D01*
X85034923Y-58876240D01*
X85085195Y-58905446D01*
X85203046Y-59018124D01*
X85217176Y-59031633D01*
X85405033Y-59155636D01*
X85612004Y-59244100D01*
X85612007Y-59244101D01*
X85612012Y-59244103D01*
X85831463Y-59294191D01*
X86056330Y-59304290D01*
X86279387Y-59274075D01*
X86493464Y-59204517D01*
X86691681Y-59097852D01*
X86867666Y-58957508D01*
X86906123Y-58913489D01*
X86965054Y-58875956D01*
X87034923Y-58876240D01*
X87085195Y-58905446D01*
X87203046Y-59018124D01*
X87217176Y-59031633D01*
X87405033Y-59155636D01*
X87612004Y-59244100D01*
X87612007Y-59244101D01*
X87612012Y-59244103D01*
X87831463Y-59294191D01*
X88056330Y-59304290D01*
X88279387Y-59274075D01*
X88493464Y-59204517D01*
X88691681Y-59097852D01*
X88867666Y-58957508D01*
X89015765Y-58787996D01*
X89131215Y-58594764D01*
X89210307Y-58384024D01*
X89230255Y-58274102D01*
X89250500Y-58162549D01*
X89250500Y-58106129D01*
X96750000Y-58106129D01*
X96765116Y-58274096D01*
X96765117Y-58274102D01*
X96824973Y-58490984D01*
X96824978Y-58490997D01*
X96922598Y-58693708D01*
X96922602Y-58693716D01*
X97054851Y-58875741D01*
X97054857Y-58875749D01*
X97217486Y-59031237D01*
X97405266Y-59155191D01*
X97612169Y-59243624D01*
X97612178Y-59243627D01*
X97749999Y-59275084D01*
X97750000Y-59275084D01*
X97750000Y-58375277D01*
X97833740Y-58423625D01*
X97965992Y-58453810D01*
X98101265Y-58443673D01*
X98227541Y-58394113D01*
X98250000Y-58376202D01*
X98250000Y-59277549D01*
X98279267Y-59273586D01*
X98279273Y-59273585D01*
X98493268Y-59204054D01*
X98691401Y-59097434D01*
X98691404Y-59097432D01*
X98867319Y-58957145D01*
X98905760Y-58913145D01*
X98964690Y-58875610D01*
X99034560Y-58875894D01*
X99084834Y-58905101D01*
X99217176Y-59031633D01*
X99405033Y-59155636D01*
X99612004Y-59244100D01*
X99612007Y-59244101D01*
X99612012Y-59244103D01*
X99831463Y-59294191D01*
X100056330Y-59304290D01*
X100279387Y-59274075D01*
X100493464Y-59204517D01*
X100691681Y-59097852D01*
X100867666Y-58957508D01*
X100906123Y-58913489D01*
X100965054Y-58875956D01*
X101034923Y-58876240D01*
X101085195Y-58905446D01*
X101203046Y-59018124D01*
X101217176Y-59031633D01*
X101405033Y-59155636D01*
X101612004Y-59244100D01*
X101612007Y-59244101D01*
X101612012Y-59244103D01*
X101831463Y-59294191D01*
X102056330Y-59304290D01*
X102279387Y-59274075D01*
X102493464Y-59204517D01*
X102691681Y-59097852D01*
X102867666Y-58957508D01*
X102906123Y-58913489D01*
X102965054Y-58875956D01*
X103034923Y-58876240D01*
X103085195Y-58905446D01*
X103203046Y-59018124D01*
X103217176Y-59031633D01*
X103405033Y-59155636D01*
X103612004Y-59244100D01*
X103612007Y-59244101D01*
X103612012Y-59244103D01*
X103831463Y-59294191D01*
X104056330Y-59304290D01*
X104279387Y-59274075D01*
X104493464Y-59204517D01*
X104691681Y-59097852D01*
X104867666Y-58957508D01*
X104906123Y-58913489D01*
X104965054Y-58875956D01*
X105034923Y-58876240D01*
X105085195Y-58905446D01*
X105203046Y-59018124D01*
X105217176Y-59031633D01*
X105405033Y-59155636D01*
X105612004Y-59244100D01*
X105612007Y-59244101D01*
X105612012Y-59244103D01*
X105831463Y-59294191D01*
X106056330Y-59304290D01*
X106279387Y-59274075D01*
X106493464Y-59204517D01*
X106691681Y-59097852D01*
X106867666Y-58957508D01*
X106906123Y-58913489D01*
X106965054Y-58875956D01*
X107034923Y-58876240D01*
X107085195Y-58905446D01*
X107203046Y-59018124D01*
X107217176Y-59031633D01*
X107405033Y-59155636D01*
X107612004Y-59244100D01*
X107612007Y-59244101D01*
X107612012Y-59244103D01*
X107831463Y-59294191D01*
X108056330Y-59304290D01*
X108279387Y-59274075D01*
X108493464Y-59204517D01*
X108691681Y-59097852D01*
X108867666Y-58957508D01*
X108906123Y-58913489D01*
X108965054Y-58875956D01*
X109034923Y-58876240D01*
X109085195Y-58905446D01*
X109203046Y-59018124D01*
X109217176Y-59031633D01*
X109405033Y-59155636D01*
X109612004Y-59244100D01*
X109612007Y-59244101D01*
X109612012Y-59244103D01*
X109831463Y-59294191D01*
X110056330Y-59304290D01*
X110279387Y-59274075D01*
X110493464Y-59204517D01*
X110691681Y-59097852D01*
X110867666Y-58957508D01*
X110906123Y-58913489D01*
X110965054Y-58875956D01*
X111034923Y-58876240D01*
X111085195Y-58905446D01*
X111203046Y-59018124D01*
X111217176Y-59031633D01*
X111405033Y-59155636D01*
X111612004Y-59244100D01*
X111612007Y-59244101D01*
X111612012Y-59244103D01*
X111831463Y-59294191D01*
X112056330Y-59304290D01*
X112279387Y-59274075D01*
X112493464Y-59204517D01*
X112691681Y-59097852D01*
X112867666Y-58957508D01*
X112906123Y-58913489D01*
X112965054Y-58875956D01*
X113034923Y-58876240D01*
X113085195Y-58905446D01*
X113203046Y-59018124D01*
X113217176Y-59031633D01*
X113405033Y-59155636D01*
X113612004Y-59244100D01*
X113612007Y-59244101D01*
X113612012Y-59244103D01*
X113831463Y-59294191D01*
X114056330Y-59304290D01*
X114279387Y-59274075D01*
X114493464Y-59204517D01*
X114691681Y-59097852D01*
X114867666Y-58957508D01*
X114906123Y-58913489D01*
X114965054Y-58875956D01*
X115034923Y-58876240D01*
X115085195Y-58905446D01*
X115203046Y-59018124D01*
X115217176Y-59031633D01*
X115405033Y-59155636D01*
X115612004Y-59244100D01*
X115612007Y-59244101D01*
X115612012Y-59244103D01*
X115831463Y-59294191D01*
X116056330Y-59304290D01*
X116279387Y-59274075D01*
X116493464Y-59204517D01*
X116691681Y-59097852D01*
X116867666Y-58957508D01*
X116906123Y-58913489D01*
X116965054Y-58875956D01*
X117034923Y-58876240D01*
X117085195Y-58905446D01*
X117203046Y-59018124D01*
X117217176Y-59031633D01*
X117405033Y-59155636D01*
X117612004Y-59244100D01*
X117612007Y-59244101D01*
X117612012Y-59244103D01*
X117831463Y-59294191D01*
X118056330Y-59304290D01*
X118279387Y-59274075D01*
X118493464Y-59204517D01*
X118691681Y-59097852D01*
X118867666Y-58957508D01*
X118906123Y-58913489D01*
X118965054Y-58875956D01*
X119034923Y-58876240D01*
X119085195Y-58905446D01*
X119203046Y-59018124D01*
X119217176Y-59031633D01*
X119405033Y-59155636D01*
X119612004Y-59244100D01*
X119612007Y-59244101D01*
X119612012Y-59244103D01*
X119831463Y-59294191D01*
X120056330Y-59304290D01*
X120279387Y-59274075D01*
X120493464Y-59204517D01*
X120691681Y-59097852D01*
X120867666Y-58957508D01*
X120906454Y-58913111D01*
X120965381Y-58875578D01*
X121035250Y-58875862D01*
X121085525Y-58905069D01*
X121217489Y-59031240D01*
X121405266Y-59155191D01*
X121612169Y-59243624D01*
X121612178Y-59243627D01*
X121749999Y-59275084D01*
X121750000Y-59275084D01*
X121750000Y-58375277D01*
X121833740Y-58423625D01*
X121965992Y-58453810D01*
X122101265Y-58443673D01*
X122227541Y-58394113D01*
X122250000Y-58376202D01*
X122250000Y-59277549D01*
X122279267Y-59273586D01*
X122279273Y-59273585D01*
X122493268Y-59204054D01*
X122691401Y-59097434D01*
X122691404Y-59097432D01*
X122867319Y-58957145D01*
X122905760Y-58913145D01*
X122964690Y-58875610D01*
X123034560Y-58875894D01*
X123084834Y-58905101D01*
X123217176Y-59031633D01*
X123405033Y-59155636D01*
X123612004Y-59244100D01*
X123612007Y-59244101D01*
X123612012Y-59244103D01*
X123831463Y-59294191D01*
X124056330Y-59304290D01*
X124279387Y-59274075D01*
X124493464Y-59204517D01*
X124691681Y-59097852D01*
X124867666Y-58957508D01*
X124906454Y-58913111D01*
X124965381Y-58875578D01*
X125035250Y-58875862D01*
X125085525Y-58905069D01*
X125217489Y-59031240D01*
X125405266Y-59155191D01*
X125612169Y-59243624D01*
X125612178Y-59243627D01*
X125749999Y-59275084D01*
X125750000Y-59275084D01*
X125750000Y-58375277D01*
X125833740Y-58423625D01*
X125965992Y-58453810D01*
X126101265Y-58443673D01*
X126227541Y-58394113D01*
X126250000Y-58376202D01*
X126250000Y-59277549D01*
X126279267Y-59273586D01*
X126279273Y-59273585D01*
X126493268Y-59204054D01*
X126691401Y-59097434D01*
X126691404Y-59097432D01*
X126867319Y-58957145D01*
X126905760Y-58913145D01*
X126964690Y-58875610D01*
X127034560Y-58875894D01*
X127084834Y-58905101D01*
X127217176Y-59031633D01*
X127405033Y-59155636D01*
X127612004Y-59244100D01*
X127612007Y-59244101D01*
X127612012Y-59244103D01*
X127831463Y-59294191D01*
X128056330Y-59304290D01*
X128279387Y-59274075D01*
X128493464Y-59204517D01*
X128691681Y-59097852D01*
X128867666Y-58957508D01*
X128906123Y-58913489D01*
X128965054Y-58875956D01*
X129034923Y-58876240D01*
X129085195Y-58905446D01*
X129203046Y-59018124D01*
X129217176Y-59031633D01*
X129405033Y-59155636D01*
X129612004Y-59244100D01*
X129612007Y-59244101D01*
X129612012Y-59244103D01*
X129831463Y-59294191D01*
X130056330Y-59304290D01*
X130279387Y-59274075D01*
X130493464Y-59204517D01*
X130691681Y-59097852D01*
X130867666Y-58957508D01*
X130906123Y-58913489D01*
X130965054Y-58875956D01*
X131034923Y-58876240D01*
X131085195Y-58905446D01*
X131203046Y-59018124D01*
X131217176Y-59031633D01*
X131405033Y-59155636D01*
X131612004Y-59244100D01*
X131612007Y-59244101D01*
X131612012Y-59244103D01*
X131831463Y-59294191D01*
X132056330Y-59304290D01*
X132279387Y-59274075D01*
X132493464Y-59204517D01*
X132691681Y-59097852D01*
X132867666Y-58957508D01*
X133015765Y-58787996D01*
X133131215Y-58594764D01*
X133210307Y-58384024D01*
X133230255Y-58274102D01*
X133250500Y-58162549D01*
X133250500Y-58106155D01*
X188749500Y-58106155D01*
X188754113Y-58157416D01*
X188764622Y-58274186D01*
X188764623Y-58274192D01*
X188824503Y-58491160D01*
X188824508Y-58491173D01*
X188922167Y-58693966D01*
X188922171Y-58693974D01*
X189054473Y-58876072D01*
X189054474Y-58876074D01*
X189054477Y-58876077D01*
X189054478Y-58876078D01*
X189084800Y-58905069D01*
X189217176Y-59031633D01*
X189405033Y-59155636D01*
X189612004Y-59244100D01*
X189612007Y-59244101D01*
X189612012Y-59244103D01*
X189831463Y-59294191D01*
X190056330Y-59304290D01*
X190279387Y-59274075D01*
X190493464Y-59204517D01*
X190691681Y-59097852D01*
X190867666Y-58957508D01*
X190906123Y-58913489D01*
X190965054Y-58875956D01*
X191034923Y-58876240D01*
X191085195Y-58905446D01*
X191203046Y-59018124D01*
X191217176Y-59031633D01*
X191405033Y-59155636D01*
X191612004Y-59244100D01*
X191612007Y-59244101D01*
X191612012Y-59244103D01*
X191831463Y-59294191D01*
X192056330Y-59304290D01*
X192279387Y-59274075D01*
X192493464Y-59204517D01*
X192691681Y-59097852D01*
X192867666Y-58957508D01*
X192906123Y-58913489D01*
X192965054Y-58875956D01*
X193034923Y-58876240D01*
X193085195Y-58905446D01*
X193203046Y-59018124D01*
X193217176Y-59031633D01*
X193405033Y-59155636D01*
X193612004Y-59244100D01*
X193612007Y-59244101D01*
X193612012Y-59244103D01*
X193831463Y-59294191D01*
X194056330Y-59304290D01*
X194279387Y-59274075D01*
X194493464Y-59204517D01*
X194691681Y-59097852D01*
X194867666Y-58957508D01*
X195015765Y-58787996D01*
X195131215Y-58594764D01*
X195210307Y-58384024D01*
X195230255Y-58274102D01*
X195250500Y-58162549D01*
X195250500Y-58106129D01*
X198750000Y-58106129D01*
X198765116Y-58274096D01*
X198765117Y-58274102D01*
X198824973Y-58490984D01*
X198824978Y-58490997D01*
X198922598Y-58693708D01*
X198922602Y-58693716D01*
X199054851Y-58875741D01*
X199054857Y-58875749D01*
X199217486Y-59031237D01*
X199405266Y-59155191D01*
X199612169Y-59243624D01*
X199612178Y-59243627D01*
X199749999Y-59275084D01*
X199750000Y-59275084D01*
X199750000Y-58375277D01*
X199833740Y-58423625D01*
X199965992Y-58453810D01*
X200101265Y-58443673D01*
X200227541Y-58394113D01*
X200250000Y-58376202D01*
X200250000Y-59277549D01*
X200279267Y-59273586D01*
X200279273Y-59273585D01*
X200493268Y-59204054D01*
X200691401Y-59097434D01*
X200691404Y-59097432D01*
X200867319Y-58957145D01*
X200906090Y-58912768D01*
X200965021Y-58875233D01*
X201034890Y-58875517D01*
X201085164Y-58904724D01*
X201217489Y-59031240D01*
X201405266Y-59155191D01*
X201612169Y-59243624D01*
X201612178Y-59243627D01*
X201749999Y-59275084D01*
X201750000Y-59275084D01*
X201750000Y-58375277D01*
X201833740Y-58423625D01*
X201965992Y-58453810D01*
X202101265Y-58443673D01*
X202227541Y-58394113D01*
X202250000Y-58376202D01*
X202250000Y-59277549D01*
X202279267Y-59273586D01*
X202279273Y-59273585D01*
X202493268Y-59204054D01*
X202691401Y-59097434D01*
X202691404Y-59097432D01*
X202867320Y-58957145D01*
X203015352Y-58787707D01*
X203015359Y-58787699D01*
X203130759Y-58594553D01*
X203130761Y-58594548D01*
X203209824Y-58383889D01*
X203209824Y-58383888D01*
X203250000Y-58162505D01*
X203250000Y-58106155D01*
X210749500Y-58106155D01*
X210754113Y-58157416D01*
X210764622Y-58274186D01*
X210764623Y-58274192D01*
X210824503Y-58491160D01*
X210824508Y-58491173D01*
X210922167Y-58693966D01*
X210922171Y-58693974D01*
X211054473Y-58876072D01*
X211054474Y-58876074D01*
X211054477Y-58876077D01*
X211054478Y-58876078D01*
X211084800Y-58905069D01*
X211217176Y-59031633D01*
X211405033Y-59155636D01*
X211612004Y-59244100D01*
X211612007Y-59244101D01*
X211612012Y-59244103D01*
X211831463Y-59294191D01*
X212056330Y-59304290D01*
X212279387Y-59274075D01*
X212493464Y-59204517D01*
X212691681Y-59097852D01*
X212867666Y-58957508D01*
X212906123Y-58913489D01*
X212965054Y-58875956D01*
X213034923Y-58876240D01*
X213085195Y-58905446D01*
X213203046Y-59018124D01*
X213217176Y-59031633D01*
X213405033Y-59155636D01*
X213612004Y-59244100D01*
X213612007Y-59244101D01*
X213612012Y-59244103D01*
X213831463Y-59294191D01*
X214056330Y-59304290D01*
X214279387Y-59274075D01*
X214493464Y-59204517D01*
X214691681Y-59097852D01*
X214867666Y-58957508D01*
X214906123Y-58913489D01*
X214965054Y-58875956D01*
X215034923Y-58876240D01*
X215085195Y-58905446D01*
X215203046Y-59018124D01*
X215217176Y-59031633D01*
X215405033Y-59155636D01*
X215612004Y-59244100D01*
X215612007Y-59244101D01*
X215612012Y-59244103D01*
X215831463Y-59294191D01*
X216056330Y-59304290D01*
X216279387Y-59274075D01*
X216493464Y-59204517D01*
X216691681Y-59097852D01*
X216867666Y-58957508D01*
X216906123Y-58913489D01*
X216965054Y-58875956D01*
X217034923Y-58876240D01*
X217085195Y-58905446D01*
X217203046Y-59018124D01*
X217217176Y-59031633D01*
X217405033Y-59155636D01*
X217612004Y-59244100D01*
X217612007Y-59244101D01*
X217612012Y-59244103D01*
X217831463Y-59294191D01*
X218056330Y-59304290D01*
X218279387Y-59274075D01*
X218493464Y-59204517D01*
X218691681Y-59097852D01*
X218867666Y-58957508D01*
X219015765Y-58787996D01*
X219131215Y-58594764D01*
X219210307Y-58384024D01*
X219230255Y-58274102D01*
X219250500Y-58162549D01*
X219250500Y-56893852D01*
X219250500Y-56893845D01*
X219235377Y-56725812D01*
X219225622Y-56690465D01*
X219175496Y-56508839D01*
X219175491Y-56508826D01*
X219153857Y-56463902D01*
X228042300Y-56463902D01*
X228052860Y-56547981D01*
X228107936Y-56680947D01*
X228107937Y-56680948D01*
X228159921Y-56747867D01*
X228159927Y-56747873D01*
X228632135Y-57220082D01*
X228632145Y-57220091D01*
X228699050Y-57272063D01*
X228699051Y-57272063D01*
X228699052Y-57272064D01*
X228832018Y-57327140D01*
X228916091Y-57337700D01*
X229583907Y-57337699D01*
X229667982Y-57327140D01*
X229800948Y-57272063D01*
X229867867Y-57220079D01*
X230340084Y-56747863D01*
X230392064Y-56680948D01*
X230447140Y-56547982D01*
X230457700Y-56463909D01*
X230457699Y-55796093D01*
X230447140Y-55712018D01*
X230392063Y-55579052D01*
X230340079Y-55512133D01*
X229867863Y-55039916D01*
X229867862Y-55039915D01*
X229867854Y-55039908D01*
X229800949Y-54987936D01*
X229734465Y-54960398D01*
X229667982Y-54932860D01*
X229583909Y-54922300D01*
X228916097Y-54922300D01*
X228832018Y-54932860D01*
X228699052Y-54987936D01*
X228632133Y-55039921D01*
X228632126Y-55039927D01*
X228159917Y-55512135D01*
X228159908Y-55512145D01*
X228107936Y-55579050D01*
X228052860Y-55712018D01*
X228042300Y-55796087D01*
X228042300Y-56463902D01*
X219153857Y-56463902D01*
X219077832Y-56306033D01*
X219077828Y-56306025D01*
X218945526Y-56123927D01*
X218945525Y-56123925D01*
X218915559Y-56095275D01*
X218782825Y-55968368D01*
X218782823Y-55968366D01*
X218594966Y-55844363D01*
X218387995Y-55755899D01*
X218387982Y-55755895D01*
X218168542Y-55705810D01*
X218168538Y-55705809D01*
X218168537Y-55705809D01*
X218168536Y-55705808D01*
X218168531Y-55705808D01*
X217943674Y-55695710D01*
X217943673Y-55695710D01*
X217943670Y-55695710D01*
X217720613Y-55725925D01*
X217720610Y-55725925D01*
X217720609Y-55725926D01*
X217506534Y-55795483D01*
X217308321Y-55902146D01*
X217308318Y-55902148D01*
X217132337Y-56042488D01*
X217132329Y-56042496D01*
X217093874Y-56086511D01*
X217034942Y-56124044D01*
X216965073Y-56123758D01*
X216914803Y-56094552D01*
X216860349Y-56042489D01*
X216782825Y-55968368D01*
X216782823Y-55968366D01*
X216594966Y-55844363D01*
X216387995Y-55755899D01*
X216387982Y-55755895D01*
X216168542Y-55705810D01*
X216168538Y-55705809D01*
X216168537Y-55705809D01*
X216168536Y-55705808D01*
X216168531Y-55705808D01*
X215943674Y-55695710D01*
X215943673Y-55695710D01*
X215943670Y-55695710D01*
X215720613Y-55725925D01*
X215720610Y-55725925D01*
X215720609Y-55725926D01*
X215506534Y-55795483D01*
X215308321Y-55902146D01*
X215308318Y-55902148D01*
X215132337Y-56042488D01*
X215132329Y-56042496D01*
X215093874Y-56086511D01*
X215034942Y-56124044D01*
X214965073Y-56123758D01*
X214914803Y-56094552D01*
X214860349Y-56042489D01*
X214782825Y-55968368D01*
X214782823Y-55968366D01*
X214594966Y-55844363D01*
X214387995Y-55755899D01*
X214387982Y-55755895D01*
X214168542Y-55705810D01*
X214168538Y-55705809D01*
X214168537Y-55705809D01*
X214168536Y-55705808D01*
X214168531Y-55705808D01*
X213943674Y-55695710D01*
X213943673Y-55695710D01*
X213943670Y-55695710D01*
X213720613Y-55725925D01*
X213720610Y-55725925D01*
X213720609Y-55725926D01*
X213506534Y-55795483D01*
X213308321Y-55902146D01*
X213308318Y-55902148D01*
X213132337Y-56042488D01*
X213132329Y-56042496D01*
X213093874Y-56086511D01*
X213034942Y-56124044D01*
X212965073Y-56123758D01*
X212914803Y-56094552D01*
X212860349Y-56042489D01*
X212782825Y-55968368D01*
X212782823Y-55968366D01*
X212594966Y-55844363D01*
X212387995Y-55755899D01*
X212387982Y-55755895D01*
X212168542Y-55705810D01*
X212168538Y-55705809D01*
X212168537Y-55705809D01*
X212168536Y-55705808D01*
X212168531Y-55705808D01*
X211943674Y-55695710D01*
X211943673Y-55695710D01*
X211943670Y-55695710D01*
X211720613Y-55725925D01*
X211720610Y-55725925D01*
X211720609Y-55725926D01*
X211506534Y-55795483D01*
X211308321Y-55902146D01*
X211308318Y-55902148D01*
X211132336Y-56042489D01*
X211061186Y-56123927D01*
X210984235Y-56212004D01*
X210868785Y-56405236D01*
X210852998Y-56447299D01*
X210789692Y-56615976D01*
X210749500Y-56837450D01*
X210749500Y-56837453D01*
X210749500Y-58106155D01*
X203250000Y-58106155D01*
X203250000Y-57750000D01*
X202450000Y-57750000D01*
X202450000Y-57250000D01*
X203250000Y-57250000D01*
X203250000Y-56893874D01*
X203249999Y-56893870D01*
X203234883Y-56725903D01*
X203234882Y-56725897D01*
X203175026Y-56509015D01*
X203175021Y-56509002D01*
X203077401Y-56306291D01*
X203077397Y-56306283D01*
X202945148Y-56124258D01*
X202945142Y-56124250D01*
X202782513Y-55968762D01*
X202594733Y-55844808D01*
X202387830Y-55756375D01*
X202387823Y-55756373D01*
X202250000Y-55724915D01*
X202250000Y-56624722D01*
X202166260Y-56576375D01*
X202034008Y-56546190D01*
X201898735Y-56556327D01*
X201772459Y-56605887D01*
X201750000Y-56623797D01*
X201750000Y-55722449D01*
X201749999Y-55722449D01*
X201720721Y-55726415D01*
X201506731Y-55795945D01*
X201308598Y-55902565D01*
X201308595Y-55902567D01*
X201132679Y-56042855D01*
X201093907Y-56087233D01*
X201034975Y-56124767D01*
X200965106Y-56124481D01*
X200914835Y-56095275D01*
X200782510Y-55968759D01*
X200594733Y-55844808D01*
X200387830Y-55756375D01*
X200387823Y-55756373D01*
X200250000Y-55724915D01*
X200250000Y-56624722D01*
X200166260Y-56576375D01*
X200034008Y-56546190D01*
X199898735Y-56556327D01*
X199772459Y-56605887D01*
X199750000Y-56623797D01*
X199750000Y-55722449D01*
X199749999Y-55722449D01*
X199720721Y-55726415D01*
X199506731Y-55795945D01*
X199308598Y-55902565D01*
X199308595Y-55902567D01*
X199132679Y-56042854D01*
X198984647Y-56212292D01*
X198984640Y-56212300D01*
X198869240Y-56405446D01*
X198869238Y-56405451D01*
X198790175Y-56616110D01*
X198790175Y-56616111D01*
X198750000Y-56837494D01*
X198750000Y-57250000D01*
X199550000Y-57250000D01*
X199550000Y-57750000D01*
X198750000Y-57750000D01*
X198750000Y-58106129D01*
X195250500Y-58106129D01*
X195250500Y-56893852D01*
X195250500Y-56893845D01*
X195235377Y-56725812D01*
X195225622Y-56690465D01*
X195175496Y-56508839D01*
X195175491Y-56508826D01*
X195077832Y-56306033D01*
X195077828Y-56306025D01*
X194945526Y-56123927D01*
X194945525Y-56123925D01*
X194915559Y-56095275D01*
X194782825Y-55968368D01*
X194782823Y-55968366D01*
X194594966Y-55844363D01*
X194387995Y-55755899D01*
X194387982Y-55755895D01*
X194168542Y-55705810D01*
X194168538Y-55705809D01*
X194168537Y-55705809D01*
X194168536Y-55705808D01*
X194168531Y-55705808D01*
X193943674Y-55695710D01*
X193943673Y-55695710D01*
X193943670Y-55695710D01*
X193720613Y-55725925D01*
X193720610Y-55725925D01*
X193720609Y-55725926D01*
X193506534Y-55795483D01*
X193308321Y-55902146D01*
X193308318Y-55902148D01*
X193132337Y-56042488D01*
X193132329Y-56042496D01*
X193093874Y-56086511D01*
X193034942Y-56124044D01*
X192965073Y-56123758D01*
X192914803Y-56094552D01*
X192860349Y-56042489D01*
X192782825Y-55968368D01*
X192782823Y-55968366D01*
X192594966Y-55844363D01*
X192387995Y-55755899D01*
X192387982Y-55755895D01*
X192168542Y-55705810D01*
X192168538Y-55705809D01*
X192168537Y-55705809D01*
X192168536Y-55705808D01*
X192168531Y-55705808D01*
X191943674Y-55695710D01*
X191943673Y-55695710D01*
X191943670Y-55695710D01*
X191720613Y-55725925D01*
X191720610Y-55725925D01*
X191720609Y-55725926D01*
X191506534Y-55795483D01*
X191308321Y-55902146D01*
X191308318Y-55902148D01*
X191132337Y-56042488D01*
X191132329Y-56042496D01*
X191093874Y-56086511D01*
X191034942Y-56124044D01*
X190965073Y-56123758D01*
X190914803Y-56094552D01*
X190860349Y-56042489D01*
X190782825Y-55968368D01*
X190782823Y-55968366D01*
X190594966Y-55844363D01*
X190387995Y-55755899D01*
X190387982Y-55755895D01*
X190168542Y-55705810D01*
X190168538Y-55705809D01*
X190168537Y-55705809D01*
X190168536Y-55705808D01*
X190168531Y-55705808D01*
X189943674Y-55695710D01*
X189943673Y-55695710D01*
X189943670Y-55695710D01*
X189720613Y-55725925D01*
X189720610Y-55725925D01*
X189720609Y-55725926D01*
X189506534Y-55795483D01*
X189308321Y-55902146D01*
X189308318Y-55902148D01*
X189132336Y-56042489D01*
X189061186Y-56123927D01*
X188984235Y-56212004D01*
X188868785Y-56405236D01*
X188852998Y-56447299D01*
X188789692Y-56615976D01*
X188749500Y-56837450D01*
X188749500Y-56837453D01*
X188749500Y-58106155D01*
X133250500Y-58106155D01*
X133250500Y-56893852D01*
X133250500Y-56893845D01*
X133235377Y-56725812D01*
X133225622Y-56690465D01*
X133175496Y-56508839D01*
X133175491Y-56508826D01*
X133077832Y-56306033D01*
X133077828Y-56306025D01*
X132945526Y-56123927D01*
X132945525Y-56123925D01*
X132915559Y-56095275D01*
X132782825Y-55968368D01*
X132782823Y-55968366D01*
X132594966Y-55844363D01*
X132387995Y-55755899D01*
X132387982Y-55755895D01*
X132168542Y-55705810D01*
X132168538Y-55705809D01*
X132168537Y-55705809D01*
X132168536Y-55705808D01*
X132168531Y-55705808D01*
X131943674Y-55695710D01*
X131943673Y-55695710D01*
X131943670Y-55695710D01*
X131720613Y-55725925D01*
X131720610Y-55725925D01*
X131720609Y-55725926D01*
X131506534Y-55795483D01*
X131308321Y-55902146D01*
X131308318Y-55902148D01*
X131132337Y-56042488D01*
X131132329Y-56042496D01*
X131093874Y-56086511D01*
X131034942Y-56124044D01*
X130965073Y-56123758D01*
X130914803Y-56094552D01*
X130860349Y-56042489D01*
X130782825Y-55968368D01*
X130782823Y-55968366D01*
X130594966Y-55844363D01*
X130387995Y-55755899D01*
X130387982Y-55755895D01*
X130168542Y-55705810D01*
X130168538Y-55705809D01*
X130168537Y-55705809D01*
X130168536Y-55705808D01*
X130168531Y-55705808D01*
X129943674Y-55695710D01*
X129943673Y-55695710D01*
X129943670Y-55695710D01*
X129720613Y-55725925D01*
X129720610Y-55725925D01*
X129720609Y-55725926D01*
X129506534Y-55795483D01*
X129308321Y-55902146D01*
X129308318Y-55902148D01*
X129132337Y-56042488D01*
X129132329Y-56042496D01*
X129093874Y-56086511D01*
X129034942Y-56124044D01*
X128965073Y-56123758D01*
X128914803Y-56094552D01*
X128860349Y-56042489D01*
X128782825Y-55968368D01*
X128782823Y-55968366D01*
X128594966Y-55844363D01*
X128387995Y-55755899D01*
X128387982Y-55755895D01*
X128168542Y-55705810D01*
X128168538Y-55705809D01*
X128168537Y-55705809D01*
X128168536Y-55705808D01*
X128168531Y-55705808D01*
X127943674Y-55695710D01*
X127943673Y-55695710D01*
X127943670Y-55695710D01*
X127720613Y-55725925D01*
X127720610Y-55725925D01*
X127720609Y-55725926D01*
X127506534Y-55795483D01*
X127308321Y-55902146D01*
X127308318Y-55902148D01*
X127132333Y-56042492D01*
X127093545Y-56086888D01*
X127034613Y-56124421D01*
X126964744Y-56124135D01*
X126914473Y-56094929D01*
X126782510Y-55968759D01*
X126594733Y-55844808D01*
X126387830Y-55756375D01*
X126387823Y-55756373D01*
X126250000Y-55724915D01*
X126250000Y-56624722D01*
X126166260Y-56576375D01*
X126034008Y-56546190D01*
X125898735Y-56556327D01*
X125772459Y-56605887D01*
X125750000Y-56623797D01*
X125750000Y-55722449D01*
X125749999Y-55722449D01*
X125720721Y-55726415D01*
X125506731Y-55795945D01*
X125308598Y-55902565D01*
X125308595Y-55902567D01*
X125132682Y-56042852D01*
X125094238Y-56086856D01*
X125035306Y-56124390D01*
X124965437Y-56124105D01*
X124915165Y-56094898D01*
X124860348Y-56042488D01*
X124782825Y-55968368D01*
X124782823Y-55968366D01*
X124594966Y-55844363D01*
X124387995Y-55755899D01*
X124387982Y-55755895D01*
X124168542Y-55705810D01*
X124168538Y-55705809D01*
X124168537Y-55705809D01*
X124168536Y-55705808D01*
X124168531Y-55705808D01*
X123943674Y-55695710D01*
X123943673Y-55695710D01*
X123943670Y-55695710D01*
X123720613Y-55725925D01*
X123720610Y-55725925D01*
X123720609Y-55725926D01*
X123506534Y-55795483D01*
X123308321Y-55902146D01*
X123308318Y-55902148D01*
X123132333Y-56042492D01*
X123093545Y-56086888D01*
X123034613Y-56124421D01*
X122964744Y-56124135D01*
X122914473Y-56094929D01*
X122782510Y-55968759D01*
X122594733Y-55844808D01*
X122387830Y-55756375D01*
X122387823Y-55756373D01*
X122250000Y-55724915D01*
X122250000Y-56624722D01*
X122166260Y-56576375D01*
X122034008Y-56546190D01*
X121898735Y-56556327D01*
X121772459Y-56605887D01*
X121750000Y-56623797D01*
X121750000Y-55722449D01*
X121749999Y-55722449D01*
X121720721Y-55726415D01*
X121506731Y-55795945D01*
X121308598Y-55902565D01*
X121308595Y-55902567D01*
X121132682Y-56042852D01*
X121094238Y-56086856D01*
X121035306Y-56124390D01*
X120965437Y-56124105D01*
X120915165Y-56094898D01*
X120860348Y-56042488D01*
X120782825Y-55968368D01*
X120782823Y-55968366D01*
X120594966Y-55844363D01*
X120387995Y-55755899D01*
X120387982Y-55755895D01*
X120168542Y-55705810D01*
X120168538Y-55705809D01*
X120168537Y-55705809D01*
X120168536Y-55705808D01*
X120168531Y-55705808D01*
X119943674Y-55695710D01*
X119943673Y-55695710D01*
X119943670Y-55695710D01*
X119720613Y-55725925D01*
X119720610Y-55725925D01*
X119720609Y-55725926D01*
X119506534Y-55795483D01*
X119308321Y-55902146D01*
X119308318Y-55902148D01*
X119132337Y-56042488D01*
X119132329Y-56042496D01*
X119093874Y-56086511D01*
X119034942Y-56124044D01*
X118965073Y-56123758D01*
X118914803Y-56094552D01*
X118860349Y-56042489D01*
X118782825Y-55968368D01*
X118782823Y-55968366D01*
X118594966Y-55844363D01*
X118387995Y-55755899D01*
X118387982Y-55755895D01*
X118168542Y-55705810D01*
X118168538Y-55705809D01*
X118168537Y-55705809D01*
X118168536Y-55705808D01*
X118168531Y-55705808D01*
X117943674Y-55695710D01*
X117943673Y-55695710D01*
X117943670Y-55695710D01*
X117720613Y-55725925D01*
X117720610Y-55725925D01*
X117720609Y-55725926D01*
X117506534Y-55795483D01*
X117308321Y-55902146D01*
X117308318Y-55902148D01*
X117132337Y-56042488D01*
X117132329Y-56042496D01*
X117093874Y-56086511D01*
X117034942Y-56124044D01*
X116965073Y-56123758D01*
X116914803Y-56094552D01*
X116860349Y-56042489D01*
X116782825Y-55968368D01*
X116782823Y-55968366D01*
X116594966Y-55844363D01*
X116387995Y-55755899D01*
X116387982Y-55755895D01*
X116168542Y-55705810D01*
X116168538Y-55705809D01*
X116168537Y-55705809D01*
X116168536Y-55705808D01*
X116168531Y-55705808D01*
X115943674Y-55695710D01*
X115943673Y-55695710D01*
X115943670Y-55695710D01*
X115720613Y-55725925D01*
X115720610Y-55725925D01*
X115720609Y-55725926D01*
X115506534Y-55795483D01*
X115308321Y-55902146D01*
X115308318Y-55902148D01*
X115132337Y-56042488D01*
X115132329Y-56042496D01*
X115093874Y-56086511D01*
X115034942Y-56124044D01*
X114965073Y-56123758D01*
X114914803Y-56094552D01*
X114860349Y-56042489D01*
X114782825Y-55968368D01*
X114782823Y-55968366D01*
X114594966Y-55844363D01*
X114387995Y-55755899D01*
X114387982Y-55755895D01*
X114168542Y-55705810D01*
X114168538Y-55705809D01*
X114168537Y-55705809D01*
X114168536Y-55705808D01*
X114168531Y-55705808D01*
X113943674Y-55695710D01*
X113943673Y-55695710D01*
X113943670Y-55695710D01*
X113720613Y-55725925D01*
X113720610Y-55725925D01*
X113720609Y-55725926D01*
X113506534Y-55795483D01*
X113308321Y-55902146D01*
X113308318Y-55902148D01*
X113132337Y-56042488D01*
X113132329Y-56042496D01*
X113093874Y-56086511D01*
X113034942Y-56124044D01*
X112965073Y-56123758D01*
X112914803Y-56094552D01*
X112860349Y-56042489D01*
X112782825Y-55968368D01*
X112782823Y-55968366D01*
X112594966Y-55844363D01*
X112387995Y-55755899D01*
X112387982Y-55755895D01*
X112168542Y-55705810D01*
X112168538Y-55705809D01*
X112168537Y-55705809D01*
X112168536Y-55705808D01*
X112168531Y-55705808D01*
X111943674Y-55695710D01*
X111943673Y-55695710D01*
X111943670Y-55695710D01*
X111720613Y-55725925D01*
X111720610Y-55725925D01*
X111720609Y-55725926D01*
X111506534Y-55795483D01*
X111308321Y-55902146D01*
X111308318Y-55902148D01*
X111132337Y-56042488D01*
X111132329Y-56042496D01*
X111093874Y-56086511D01*
X111034942Y-56124044D01*
X110965073Y-56123758D01*
X110914803Y-56094552D01*
X110860349Y-56042489D01*
X110782825Y-55968368D01*
X110782823Y-55968366D01*
X110594966Y-55844363D01*
X110387995Y-55755899D01*
X110387982Y-55755895D01*
X110168542Y-55705810D01*
X110168538Y-55705809D01*
X110168537Y-55705809D01*
X110168536Y-55705808D01*
X110168531Y-55705808D01*
X109943674Y-55695710D01*
X109943673Y-55695710D01*
X109943670Y-55695710D01*
X109720613Y-55725925D01*
X109720610Y-55725925D01*
X109720609Y-55725926D01*
X109506534Y-55795483D01*
X109308321Y-55902146D01*
X109308318Y-55902148D01*
X109132337Y-56042488D01*
X109132329Y-56042496D01*
X109093874Y-56086511D01*
X109034942Y-56124044D01*
X108965073Y-56123758D01*
X108914803Y-56094552D01*
X108860349Y-56042489D01*
X108782825Y-55968368D01*
X108782823Y-55968366D01*
X108594966Y-55844363D01*
X108387995Y-55755899D01*
X108387982Y-55755895D01*
X108168542Y-55705810D01*
X108168538Y-55705809D01*
X108168537Y-55705809D01*
X108168536Y-55705808D01*
X108168531Y-55705808D01*
X107943674Y-55695710D01*
X107943673Y-55695710D01*
X107943670Y-55695710D01*
X107720613Y-55725925D01*
X107720610Y-55725925D01*
X107720609Y-55725926D01*
X107506534Y-55795483D01*
X107308321Y-55902146D01*
X107308318Y-55902148D01*
X107132337Y-56042488D01*
X107132329Y-56042496D01*
X107093874Y-56086511D01*
X107034942Y-56124044D01*
X106965073Y-56123758D01*
X106914803Y-56094552D01*
X106860349Y-56042489D01*
X106782825Y-55968368D01*
X106782823Y-55968366D01*
X106594966Y-55844363D01*
X106387995Y-55755899D01*
X106387982Y-55755895D01*
X106168542Y-55705810D01*
X106168538Y-55705809D01*
X106168537Y-55705809D01*
X106168536Y-55705808D01*
X106168531Y-55705808D01*
X105943674Y-55695710D01*
X105943673Y-55695710D01*
X105943670Y-55695710D01*
X105720613Y-55725925D01*
X105720610Y-55725925D01*
X105720609Y-55725926D01*
X105506534Y-55795483D01*
X105308321Y-55902146D01*
X105308318Y-55902148D01*
X105132337Y-56042488D01*
X105132329Y-56042496D01*
X105093874Y-56086511D01*
X105034942Y-56124044D01*
X104965073Y-56123758D01*
X104914803Y-56094552D01*
X104860349Y-56042489D01*
X104782825Y-55968368D01*
X104782823Y-55968366D01*
X104594966Y-55844363D01*
X104387995Y-55755899D01*
X104387982Y-55755895D01*
X104168542Y-55705810D01*
X104168538Y-55705809D01*
X104168537Y-55705809D01*
X104168536Y-55705808D01*
X104168531Y-55705808D01*
X103943674Y-55695710D01*
X103943673Y-55695710D01*
X103943670Y-55695710D01*
X103720613Y-55725925D01*
X103720610Y-55725925D01*
X103720609Y-55725926D01*
X103506534Y-55795483D01*
X103308321Y-55902146D01*
X103308318Y-55902148D01*
X103132337Y-56042488D01*
X103132329Y-56042496D01*
X103093874Y-56086511D01*
X103034942Y-56124044D01*
X102965073Y-56123758D01*
X102914803Y-56094552D01*
X102860349Y-56042489D01*
X102782825Y-55968368D01*
X102782823Y-55968366D01*
X102594966Y-55844363D01*
X102387995Y-55755899D01*
X102387982Y-55755895D01*
X102168542Y-55705810D01*
X102168538Y-55705809D01*
X102168537Y-55705809D01*
X102168536Y-55705808D01*
X102168531Y-55705808D01*
X101943674Y-55695710D01*
X101943673Y-55695710D01*
X101943670Y-55695710D01*
X101720613Y-55725925D01*
X101720610Y-55725925D01*
X101720609Y-55725926D01*
X101506534Y-55795483D01*
X101308321Y-55902146D01*
X101308318Y-55902148D01*
X101132337Y-56042488D01*
X101132329Y-56042496D01*
X101093874Y-56086511D01*
X101034942Y-56124044D01*
X100965073Y-56123758D01*
X100914803Y-56094552D01*
X100860349Y-56042489D01*
X100782825Y-55968368D01*
X100782823Y-55968366D01*
X100594966Y-55844363D01*
X100387995Y-55755899D01*
X100387982Y-55755895D01*
X100168542Y-55705810D01*
X100168538Y-55705809D01*
X100168537Y-55705809D01*
X100168536Y-55705808D01*
X100168531Y-55705808D01*
X99943674Y-55695710D01*
X99943673Y-55695710D01*
X99943670Y-55695710D01*
X99720613Y-55725925D01*
X99720610Y-55725925D01*
X99720609Y-55725926D01*
X99506534Y-55795483D01*
X99308321Y-55902146D01*
X99308318Y-55902148D01*
X99132333Y-56042492D01*
X99093545Y-56086888D01*
X99034613Y-56124421D01*
X98964744Y-56124135D01*
X98914473Y-56094929D01*
X98782510Y-55968759D01*
X98594733Y-55844808D01*
X98387830Y-55756375D01*
X98387823Y-55756373D01*
X98250000Y-55724915D01*
X98250000Y-56624722D01*
X98166260Y-56576375D01*
X98034008Y-56546190D01*
X97898735Y-56556327D01*
X97772459Y-56605887D01*
X97750000Y-56623797D01*
X97750000Y-55722449D01*
X97749999Y-55722449D01*
X97720721Y-55726415D01*
X97506731Y-55795945D01*
X97308598Y-55902565D01*
X97308595Y-55902567D01*
X97132679Y-56042854D01*
X96984647Y-56212292D01*
X96984640Y-56212300D01*
X96869240Y-56405446D01*
X96869238Y-56405451D01*
X96790175Y-56616110D01*
X96790175Y-56616111D01*
X96750000Y-56837494D01*
X96750000Y-57250000D01*
X97550000Y-57250000D01*
X97550000Y-57750000D01*
X96750000Y-57750000D01*
X96750000Y-58106129D01*
X89250500Y-58106129D01*
X89250500Y-56893852D01*
X89250500Y-56893845D01*
X89235377Y-56725812D01*
X89225622Y-56690465D01*
X89175496Y-56508839D01*
X89175491Y-56508826D01*
X89077832Y-56306033D01*
X89077828Y-56306025D01*
X88945526Y-56123927D01*
X88945525Y-56123925D01*
X88915559Y-56095275D01*
X88782825Y-55968368D01*
X88782823Y-55968366D01*
X88594966Y-55844363D01*
X88387995Y-55755899D01*
X88387982Y-55755895D01*
X88168542Y-55705810D01*
X88168538Y-55705809D01*
X88168537Y-55705809D01*
X88168536Y-55705808D01*
X88168531Y-55705808D01*
X87943674Y-55695710D01*
X87943673Y-55695710D01*
X87943670Y-55695710D01*
X87720613Y-55725925D01*
X87720610Y-55725925D01*
X87720609Y-55725926D01*
X87506534Y-55795483D01*
X87308321Y-55902146D01*
X87308318Y-55902148D01*
X87132337Y-56042488D01*
X87132329Y-56042496D01*
X87093874Y-56086511D01*
X87034942Y-56124044D01*
X86965073Y-56123758D01*
X86914803Y-56094552D01*
X86860349Y-56042489D01*
X86782825Y-55968368D01*
X86782823Y-55968366D01*
X86594966Y-55844363D01*
X86387995Y-55755899D01*
X86387982Y-55755895D01*
X86168542Y-55705810D01*
X86168538Y-55705809D01*
X86168537Y-55705809D01*
X86168536Y-55705808D01*
X86168531Y-55705808D01*
X85943674Y-55695710D01*
X85943673Y-55695710D01*
X85943670Y-55695710D01*
X85720613Y-55725925D01*
X85720610Y-55725925D01*
X85720609Y-55725926D01*
X85506534Y-55795483D01*
X85308321Y-55902146D01*
X85308318Y-55902148D01*
X85132337Y-56042488D01*
X85132329Y-56042496D01*
X85093874Y-56086511D01*
X85034942Y-56124044D01*
X84965073Y-56123758D01*
X84914803Y-56094552D01*
X84860349Y-56042489D01*
X84782825Y-55968368D01*
X84782823Y-55968366D01*
X84594966Y-55844363D01*
X84387995Y-55755899D01*
X84387982Y-55755895D01*
X84168542Y-55705810D01*
X84168538Y-55705809D01*
X84168537Y-55705809D01*
X84168536Y-55705808D01*
X84168531Y-55705808D01*
X83943674Y-55695710D01*
X83943673Y-55695710D01*
X83943670Y-55695710D01*
X83720613Y-55725925D01*
X83720610Y-55725925D01*
X83720609Y-55725926D01*
X83506534Y-55795483D01*
X83308321Y-55902146D01*
X83308318Y-55902148D01*
X83132337Y-56042488D01*
X83132329Y-56042496D01*
X83093874Y-56086511D01*
X83034942Y-56124044D01*
X82965073Y-56123758D01*
X82914803Y-56094552D01*
X82860349Y-56042489D01*
X82782825Y-55968368D01*
X82782823Y-55968366D01*
X82594966Y-55844363D01*
X82387995Y-55755899D01*
X82387982Y-55755895D01*
X82168542Y-55705810D01*
X82168538Y-55705809D01*
X82168537Y-55705809D01*
X82168536Y-55705808D01*
X82168531Y-55705808D01*
X81943674Y-55695710D01*
X81943673Y-55695710D01*
X81943670Y-55695710D01*
X81720613Y-55725925D01*
X81720610Y-55725925D01*
X81720609Y-55725926D01*
X81506534Y-55795483D01*
X81308321Y-55902146D01*
X81308318Y-55902148D01*
X81132336Y-56042489D01*
X81061186Y-56123927D01*
X80984235Y-56212004D01*
X80868785Y-56405236D01*
X80852998Y-56447299D01*
X80789692Y-56615976D01*
X80749500Y-56837450D01*
X80749500Y-56837453D01*
X80749500Y-58106155D01*
X61000500Y-58106155D01*
X61000500Y-50624500D01*
X61020185Y-50557461D01*
X61072989Y-50511706D01*
X61124500Y-50500500D01*
X238775500Y-50500500D01*
X238842539Y-50520185D01*
G37*
G04 #@! TD.AperFunction*
M02*
