M48
; DRILL file {KiCad 7.0.10} date 
; FORMAT={-:-/ absolute / metric / decimal}
; #@! TF.CreationDate,2024-01-29T17:04:54+01:00
; #@! TF.GenerationSoftware,Kicad,Pcbnew,7.0.10
; #@! TF.FileFunction,Plated,1,2,PTH
FMAT,2
METRIC
; #@! TA.AperFunction,Plated,PTH,ViaDrill
T1C0.400
; #@! TA.AperFunction,Plated,PTH,ComponentDrill
T2C0.800
; #@! TA.AperFunction,Plated,PTH,ComponentDrill
T3C0.900
; #@! TA.AperFunction,Plated,PTH,ComponentDrill
T4C0.914
; #@! TA.AperFunction,Plated,PTH,ComponentDrill
T5C1.000
; #@! TA.AperFunction,Plated,PTH,ComponentDrill
T6C1.016
; #@! TA.AperFunction,Plated,PTH,ComponentDrill
T7C1.200
; #@! TA.AperFunction,Plated,PTH,ComponentDrill
T8C1.500
; #@! TA.AperFunction,Plated,PTH,ComponentDrill
T9C2.000
; #@! TA.AperFunction,Plated,PTH,ViaDrill
T10C3.800
%
G90
G05
T1
X97.282Y-123.444
X113.792Y-63.754
X116.332Y-114.046
X120.904Y-106.426
X121.92Y-123.444
X127.762Y-113.03
X127.762Y-138.43
X127.762Y-140.462
X127.762Y-142.494
X131.064Y-64.262
X136.144Y-54.61
X137.414Y-133.604
X140.208Y-124.206
X156.21Y-145.542
X160.528Y-131.572
X162.306Y-118.618
X164.466Y-90.54
X166.116Y-91.186
X166.617Y-89.914
X167.894Y-89.916
X168.402Y-137.16
X171.704Y-138.684
X174.752Y-87.122
X175.768Y-88.138
X195.072Y-75.946
X195.834Y-64.516
X197.358Y-127.0
X197.8Y-71.816
X203.962Y-71.628
X204.47Y-61.722
X207.518Y-53.34
X208.28Y-119.888
X219.202Y-86.106
X223.52Y-125.73
X223.774Y-93.98
T2
X143.764Y-105.664
X143.764Y-113.284
X146.304Y-105.664
X146.304Y-113.284
X148.844Y-105.664
X148.844Y-113.284
X151.384Y-105.664
X151.384Y-113.284
X153.924Y-105.664
X153.924Y-113.284
X156.464Y-105.664
X156.464Y-113.284
X159.004Y-105.664
X159.004Y-113.284
T4
X229.25Y-56.13
X229.25Y-71.37
T5
X79.5Y-122.5
X79.5Y-127.5
X94.0Y-122.5
X94.0Y-125.0
X94.0Y-127.5
X206.5Y-122.5
X206.5Y-127.5
X221.0Y-122.5
X221.0Y-125.0
X221.0Y-127.5
T6
X100.653Y-141.079
X100.653Y-143.619
X103.193Y-141.079
X103.193Y-143.619
X105.733Y-141.079
X105.733Y-143.619
X108.273Y-141.079
X108.273Y-143.619
X110.813Y-141.079
X110.813Y-143.619
X113.353Y-141.079
X113.353Y-143.619
X115.893Y-141.079
X115.893Y-143.619
X118.433Y-141.079
X118.433Y-143.619
T7
X169.969Y-107.012
X172.508Y-107.012
X175.048Y-107.012
T8
X118.156Y-120.396
X118.156Y-125.096
X118.156Y-129.796
X137.338Y-120.268
X137.338Y-124.968
X137.338Y-129.668
X156.473Y-120.258
X156.473Y-124.958
X156.473Y-129.658
X175.664Y-120.268
X175.664Y-124.968
X175.664Y-129.668
X194.714Y-120.268
X194.714Y-124.968
X194.714Y-129.668
T10
X64.014Y-147.004
X64.104Y-53.582
X217.529Y-146.853
X235.966Y-53.594
X235.966Y-146.812
T3
X82.0Y-58.0G85X82.0Y-57.0
G05
X84.0Y-58.0G85X84.0Y-57.0
G05
X86.0Y-58.0G85X86.0Y-57.0
G05
X88.0Y-58.0G85X88.0Y-57.0
G05
X98.0Y-58.0G85X98.0Y-57.0
G05
X100.0Y-58.0G85X100.0Y-57.0
G05
X102.0Y-58.0G85X102.0Y-57.0
G05
X104.0Y-58.0G85X104.0Y-57.0
G05
X106.0Y-58.0G85X106.0Y-57.0
G05
X108.0Y-58.0G85X108.0Y-57.0
G05
X110.0Y-58.0G85X110.0Y-57.0
G05
X112.0Y-58.0G85X112.0Y-57.0
G05
X114.0Y-58.0G85X114.0Y-57.0
G05
X116.0Y-58.0G85X116.0Y-57.0
G05
X118.0Y-58.0G85X118.0Y-57.0
G05
X120.0Y-58.0G85X120.0Y-57.0
G05
X122.0Y-58.0G85X122.0Y-57.0
G05
X124.0Y-58.0G85X124.0Y-57.0
G05
X126.0Y-58.0G85X126.0Y-57.0
G05
X128.0Y-58.0G85X128.0Y-57.0
G05
X130.0Y-58.0G85X130.0Y-57.0
G05
X132.0Y-58.0G85X132.0Y-57.0
G05
X190.0Y-58.0G85X190.0Y-57.0
G05
X192.0Y-58.0G85X192.0Y-57.0
G05
X194.0Y-58.0G85X194.0Y-57.0
G05
X200.0Y-58.0G85X200.0Y-57.0
G05
X202.0Y-58.0G85X202.0Y-57.0
G05
X212.0Y-58.0G85X212.0Y-57.0
G05
X214.0Y-58.0G85X214.0Y-57.0
G05
X216.0Y-58.0G85X216.0Y-57.0
G05
X218.0Y-58.0G85X218.0Y-57.0
G05
T9
X86.75Y-119.4G85X86.25Y-119.4
G05
X86.75Y-130.6G85X86.25Y-130.6
G05
X213.75Y-119.4G85X213.25Y-119.4
G05
X213.75Y-130.6G85X213.25Y-130.6
G05
M30
